<svg width="177" height="100" viewBox="0 0 177 100" fill="none" xmlns="http://www.w3.org/2000/svg">
<path d="M117.37 73.38V73.68C117.06 73.69 116.825 73.73 116.665 73.8C116.505 73.86 116.4 73.98 116.35 74.16C116.3 74.33 116.275 74.6 116.275 74.97V82.41C116.275 82.77 116.3 83.04 116.35 83.22C116.41 83.4 116.515 83.52 116.665 83.58C116.825 83.64 117.06 83.68 117.37 83.7V84C117.09 83.98 116.73 83.97 116.29 83.97C115.86 83.96 115.425 83.955 114.985 83.955C114.475 83.955 113.995 83.96 113.545 83.97C113.095 83.97 112.735 83.98 112.465 84V83.7C112.775 83.68 113.005 83.64 113.155 83.58C113.315 83.52 113.42 83.4 113.47 83.22C113.53 83.04 113.56 82.77 113.56 82.41V74.97C113.56 74.6 113.53 74.33 113.47 74.16C113.42 73.98 113.315 73.86 113.155 73.8C113.005 73.73 112.775 73.69 112.465 73.68V73.38C112.735 73.39 113.095 73.4 113.545 73.41C113.995 73.42 114.475 73.425 114.985 73.425C115.425 73.425 115.86 73.42 116.29 73.41C116.73 73.4 117.09 73.39 117.37 73.38ZM127.61 73.38C129.65 73.38 131.16 73.83 132.14 74.73C133.13 75.62 133.625 76.9 133.625 78.57C133.625 79.66 133.38 80.615 132.89 81.435C132.41 82.245 131.71 82.875 130.79 83.325C129.87 83.775 128.765 84 127.475 84C127.315 84 127.105 83.995 126.845 83.985C126.585 83.975 126.31 83.97 126.02 83.97C125.74 83.96 125.485 83.955 125.255 83.955C124.785 83.955 124.325 83.96 123.875 83.97C123.425 83.97 123.065 83.98 122.795 84V83.7C123.105 83.68 123.335 83.64 123.485 83.58C123.645 83.52 123.75 83.4 123.8 83.22C123.86 83.04 123.89 82.77 123.89 82.41V74.97C123.89 74.6 123.86 74.33 123.8 74.16C123.75 73.98 123.645 73.86 123.485 73.8C123.335 73.73 123.105 73.69 122.795 73.68V73.38C123.065 73.39 123.425 73.405 123.875 73.425C124.325 73.435 124.775 73.435 125.225 73.425C125.585 73.415 125.995 73.405 126.455 73.395C126.915 73.385 127.3 73.38 127.61 73.38ZM127.715 73.65C127.255 73.65 126.955 73.735 126.815 73.905C126.675 74.075 126.605 74.42 126.605 74.94V82.44C126.605 82.96 126.675 83.305 126.815 83.475C126.965 83.645 127.27 83.73 127.73 83.73C128.49 83.73 129.095 83.535 129.545 83.145C129.995 82.745 130.315 82.165 130.505 81.405C130.705 80.645 130.805 79.72 130.805 78.63C130.805 77.51 130.7 76.585 130.49 75.855C130.28 75.115 129.945 74.565 129.485 74.205C129.035 73.835 128.445 73.65 127.715 73.65ZM147.263 73.38C147.223 73.85 147.193 74.305 147.173 74.745C147.163 75.185 147.158 75.52 147.158 75.75C147.158 75.95 147.163 76.145 147.173 76.335C147.183 76.525 147.193 76.68 147.203 76.8H146.858C146.748 76.02 146.568 75.405 146.318 74.955C146.078 74.505 145.778 74.19 145.418 74.01C145.068 73.82 144.678 73.725 144.248 73.725H143.843C143.573 73.725 143.363 73.75 143.213 73.8C143.073 73.84 142.978 73.93 142.928 74.07C142.888 74.21 142.868 74.43 142.868 74.73V82.65C142.868 82.94 142.888 83.16 142.928 83.31C142.978 83.45 143.073 83.545 143.213 83.595C143.363 83.635 143.573 83.655 143.843 83.655H144.458C144.848 83.655 145.218 83.555 145.568 83.355C145.928 83.145 146.248 82.795 146.528 82.305C146.808 81.805 147.018 81.13 147.158 80.28H147.503C147.473 80.62 147.458 81.06 147.458 81.6C147.458 81.84 147.463 82.18 147.473 82.62C147.483 83.06 147.513 83.52 147.563 84C147.053 83.98 146.478 83.97 145.838 83.97C145.198 83.96 144.628 83.955 144.128 83.955C143.868 83.955 143.538 83.955 143.138 83.955C142.738 83.955 142.303 83.96 141.833 83.97C141.363 83.97 140.888 83.975 140.408 83.985C139.928 83.985 139.478 83.99 139.058 84V83.7C139.368 83.68 139.598 83.64 139.748 83.58C139.908 83.52 140.013 83.4 140.063 83.22C140.123 83.04 140.153 82.77 140.153 82.41V74.97C140.153 74.6 140.123 74.33 140.063 74.16C140.013 73.98 139.908 73.86 139.748 73.8C139.598 73.73 139.368 73.69 139.058 73.68V73.38C139.488 73.39 139.938 73.4 140.408 73.41C140.888 73.41 141.358 73.415 141.818 73.425C142.288 73.425 142.723 73.425 143.123 73.425C143.533 73.425 143.868 73.425 144.128 73.425C144.588 73.425 145.108 73.425 145.688 73.425C146.278 73.415 146.803 73.4 147.263 73.38ZM144.998 78.51C144.998 78.51 144.998 78.56 144.998 78.66C144.998 78.76 144.998 78.81 144.998 78.81H142.418C142.418 78.81 142.418 78.76 142.418 78.66C142.418 78.56 142.418 78.51 142.418 78.51H144.998ZM145.433 76.53C145.393 77.1 145.373 77.535 145.373 77.835C145.383 78.135 145.388 78.41 145.388 78.66C145.388 78.91 145.393 79.185 145.403 79.485C145.413 79.785 145.438 80.22 145.478 80.79H145.133C145.083 80.43 144.978 80.1 144.818 79.8C144.658 79.5 144.443 79.26 144.173 79.08C143.903 78.9 143.573 78.81 143.183 78.81V78.51C143.473 78.51 143.728 78.45 143.948 78.33C144.168 78.2 144.353 78.035 144.503 77.835C144.663 77.635 144.793 77.42 144.893 77.19C144.993 76.96 145.058 76.74 145.088 76.53H145.433ZM158.462 73.365L162.092 82.74C162.242 83.09 162.397 83.335 162.557 83.475C162.727 83.615 162.877 83.69 163.007 83.7V84C162.687 83.98 162.302 83.97 161.852 83.97C161.412 83.96 160.962 83.955 160.502 83.955C160.022 83.955 159.567 83.96 159.137 83.97C158.707 83.97 158.362 83.98 158.102 84V83.7C158.612 83.68 158.937 83.595 159.077 83.445C159.217 83.285 159.187 82.95 158.987 82.44L156.497 75.63L156.797 75.18L154.607 80.835C154.377 81.435 154.237 81.92 154.187 82.29C154.137 82.66 154.162 82.945 154.262 83.145C154.362 83.345 154.517 83.485 154.727 83.565C154.947 83.645 155.207 83.69 155.507 83.7V84C155.157 83.98 154.832 83.97 154.532 83.97C154.242 83.96 153.927 83.955 153.587 83.955C153.387 83.955 153.182 83.96 152.972 83.97C152.772 83.97 152.597 83.98 152.447 84V83.7C152.667 83.66 152.887 83.52 153.107 83.28C153.337 83.04 153.562 82.625 153.782 82.035L157.157 73.365C157.357 73.385 157.572 73.395 157.802 73.395C158.042 73.395 158.262 73.385 158.462 73.365ZM159.242 79.68V79.98H154.772L154.922 79.68H159.242ZM171.807 73.185C172.427 73.185 172.907 73.25 173.247 73.38C173.587 73.5 173.877 73.63 174.117 73.77C174.237 73.84 174.332 73.895 174.402 73.935C174.482 73.965 174.557 73.98 174.627 73.98C174.727 73.98 174.797 73.925 174.837 73.815C174.887 73.705 174.927 73.54 174.957 73.32H175.302C175.292 73.52 175.277 73.755 175.257 74.025C175.247 74.295 175.237 74.655 175.227 75.105C175.227 75.545 175.227 76.13 175.227 76.86H174.882C174.842 76.32 174.717 75.8 174.507 75.3C174.297 74.8 174.007 74.385 173.637 74.055C173.277 73.725 172.832 73.56 172.302 73.56C171.842 73.56 171.462 73.69 171.162 73.95C170.862 74.2 170.712 74.56 170.712 75.03C170.712 75.41 170.807 75.74 170.997 76.02C171.187 76.29 171.472 76.565 171.852 76.845C172.242 77.125 172.732 77.47 173.322 77.88C173.792 78.19 174.212 78.5 174.582 78.81C174.952 79.12 175.247 79.47 175.467 79.86C175.697 80.25 175.812 80.72 175.812 81.27C175.812 81.93 175.632 82.48 175.272 82.92C174.912 83.35 174.437 83.675 173.847 83.895C173.257 84.105 172.612 84.21 171.912 84.21C171.262 84.21 170.742 84.15 170.352 84.03C169.972 83.91 169.647 83.785 169.377 83.655C169.157 83.515 168.987 83.445 168.867 83.445C168.767 83.445 168.692 83.5 168.642 83.61C168.602 83.72 168.567 83.885 168.537 84.105H168.192C168.212 83.855 168.222 83.565 168.222 83.235C168.232 82.895 168.237 82.46 168.237 81.93C168.247 81.4 168.252 80.725 168.252 79.905H168.597C168.637 80.585 168.747 81.22 168.927 81.81C169.117 82.4 169.402 82.88 169.782 83.25C170.172 83.61 170.687 83.79 171.327 83.79C171.687 83.79 172.002 83.73 172.272 83.61C172.542 83.49 172.757 83.315 172.917 83.085C173.077 82.845 173.157 82.555 173.157 82.215C173.157 81.795 173.062 81.43 172.872 81.12C172.682 80.81 172.422 80.52 172.092 80.25C171.762 79.97 171.377 79.69 170.937 79.41C170.467 79.1 170.027 78.785 169.617 78.465C169.207 78.145 168.877 77.79 168.627 77.4C168.387 77 168.267 76.52 168.267 75.96C168.267 75.32 168.432 74.795 168.762 74.385C169.092 73.975 169.527 73.675 170.067 73.485C170.617 73.285 171.197 73.185 171.807 73.185Z" fill="#333C4B"/>
<path d="M54.8045 49.9669L55.5335 48.7078L70.7091 22.4652L57.7204 0L28.8933 49.9669L57.7204 100L70.7091 77.5348L55.5335 51.2923L54.8045 49.9669Z" fill="#CFA160"/>
<path d="M39.6289 73.7575L28.8933 92.3791L4.37376 49.9669L28.8933 7.62094L39.6289 26.2425L41.8158 22.4652L28.8933 0L0 49.9669L28.8933 100L41.8158 77.5348L39.6289 73.7575Z" fill="#333C4B"/>
<path d="M85.9507 43.8696V35.8511L67.793 67.3951L70.0461 71.3713L85.9507 43.8696Z" fill="#333C4B"/>
<path d="M85.9509 32.8695V24.7847L64.6123 61.8291L66.8655 65.8715L85.9509 32.8695Z" fill="#333C4B"/>
<path d="M60.5035 54.8044L85.9508 10.8017V1.12646L57.7202 49.9668L60.5035 54.8044Z" fill="#333C4B"/>
<path d="M85.9509 21.869V13.7842L61.4314 56.3289L63.6845 60.3713L85.9509 21.869Z" fill="#333C4B"/>
<path d="M87.2097 1.12646V98.8733L115.507 49.9668L87.2097 1.12646Z" fill="#333C4B"/>
<path d="M85.9509 54.9369V46.8521L70.9741 72.8958L73.2935 76.8719L85.9509 54.9369Z" fill="#333C4B"/>
<path d="M85.9509 65.9375V57.9189L74.155 78.3961L76.4744 82.3722L85.9509 65.9375Z" fill="#333C4B"/>
<path d="M85.9509 88.4028L82.9688 93.6381L85.9509 98.8733V88.4028Z" fill="#333C4B"/>
<path d="M82.041 92.1139L85.9509 85.4207V79.9204L80.5168 89.3969L82.041 92.1139Z" fill="#333C4B"/>
<path d="M85.9507 76.938V77.0043V68.9194L77.3357 83.8962L79.6551 87.9386L85.9507 76.938Z" fill="#333C4B"/>
</svg>
