<svg width="135" height="100" viewBox="0 0 135 100" fill="none" xmlns="http://www.w3.org/2000/svg">
<path d="M53.7266 15.2567H63.6474V0.124512H0V63.7439H63.6474V43.1384H53.7266V15.2567Z" fill="#CFA160"/>
<path d="M87.4184 15.2568H69.4451V43.1386H87.4184V15.2568Z" fill="#333C4B"/>
<path d="M0 71.4653V99.4582H28.0051V71.4653H0ZM20.8429 92.2991H7.08176L20.8429 78.544V92.2991V92.2991Z" fill="#333C4B"/>
<path d="M46.8416 79.2135C46.8016 79.6935 46.7716 80.1535 46.7516 80.5935C46.7416 81.0335 46.7366 81.3735 46.7366 81.6135C46.7366 81.8335 46.7416 82.0385 46.7516 82.2285C46.7616 82.4185 46.7716 82.5835 46.7816 82.7235H46.4366C46.2866 81.9235 46.0766 81.2935 45.8066 80.8335C45.5466 80.3635 45.2416 80.0335 44.8916 79.8435C44.5516 79.6535 44.1766 79.5585 43.7666 79.5585H43.4216C43.1516 79.5585 42.9416 79.5835 42.7916 79.6335C42.6516 79.6735 42.5566 79.7635 42.5066 79.9035C42.4666 80.0435 42.4466 80.2635 42.4466 80.5635V88.1235C42.4466 88.5235 42.4866 88.8235 42.5666 89.0235C42.6466 89.2135 42.8066 89.3385 43.0466 89.3985C43.2866 89.4585 43.6316 89.4935 44.0816 89.5035V89.8335C43.7516 89.8235 43.3266 89.8135 42.8066 89.8035C42.2866 89.7935 41.7416 89.7885 41.1716 89.7885C40.7216 89.7885 40.2766 89.7935 39.8366 89.8035C39.4066 89.8135 39.0066 89.8235 38.6366 89.8335V89.5335C38.9466 89.5135 39.1766 89.4735 39.3266 89.4135C39.4866 89.3535 39.5916 89.2335 39.6416 89.0535C39.7016 88.8735 39.7316 88.6035 39.7316 88.2435V80.8035C39.7316 80.4335 39.7016 80.1635 39.6416 79.9935C39.5916 79.8135 39.4866 79.6935 39.3266 79.6335C39.1766 79.5635 38.9466 79.5235 38.6366 79.5135V79.2135C39.0666 79.2235 39.5166 79.2335 39.9866 79.2435C40.4666 79.2435 40.9366 79.2485 41.3966 79.2585C41.8666 79.2585 42.3016 79.2585 42.7016 79.2585C43.1116 79.2585 43.4466 79.2585 43.7066 79.2585C44.1666 79.2585 44.6866 79.2585 45.2666 79.2585C45.8566 79.2485 46.3816 79.2335 46.8416 79.2135ZM44.6366 84.3735C44.6366 84.3735 44.6366 84.4235 44.6366 84.5235C44.6366 84.6235 44.6366 84.6735 44.6366 84.6735H41.9966C41.9966 84.6735 41.9966 84.6235 41.9966 84.5235C41.9966 84.4235 41.9966 84.3735 41.9966 84.3735H44.6366ZM45.0416 82.3935C45.0016 82.9635 44.9816 83.3985 44.9816 83.6985C44.9916 83.9985 44.9966 84.2735 44.9966 84.5235C44.9966 84.7735 45.0016 85.0485 45.0116 85.3485C45.0216 85.6485 45.0466 86.0835 45.0866 86.6535H44.7416C44.6816 86.2935 44.5716 85.9635 44.4116 85.6635C44.2516 85.3635 44.0366 85.1235 43.7666 84.9435C43.5066 84.7635 43.1766 84.6735 42.7766 84.6735V84.3735C43.0666 84.3735 43.3216 84.3135 43.5416 84.1935C43.7616 84.0635 43.9466 83.8985 44.0966 83.6985C44.2566 83.4985 44.3866 83.2835 44.4866 83.0535C44.5866 82.8235 44.6566 82.6035 44.6966 82.3935H45.0416ZM61.8058 79.2135V79.5135C61.4958 79.5635 61.2608 79.6585 61.1008 79.7985C60.9408 79.9385 60.8358 80.1535 60.7858 80.4435C60.7358 80.7335 60.7108 81.1435 60.7108 81.6735V85.4685C60.7108 86.1085 60.6658 86.6985 60.5758 87.2385C60.4958 87.7785 60.3358 88.2485 60.0958 88.6485C59.8358 89.0785 59.4508 89.4185 58.9408 89.6685C58.4308 89.9185 57.7708 90.0435 56.9608 90.0435C56.5008 90.0435 56.0208 89.9885 55.5208 89.8785C55.0308 89.7785 54.5908 89.5885 54.2008 89.3085C53.8708 89.0485 53.6158 88.7435 53.4358 88.3935C53.2658 88.0435 53.1508 87.6335 53.0908 87.1635C53.0308 86.6835 53.0008 86.1335 53.0008 85.5135V80.8035C53.0008 80.4335 52.9708 80.1635 52.9108 79.9935C52.8608 79.8135 52.7558 79.6935 52.5958 79.6335C52.4458 79.5635 52.2158 79.5235 51.9058 79.5135V79.2135C52.1758 79.2235 52.5358 79.2335 52.9858 79.2435C53.4358 79.2535 53.9058 79.2585 54.3958 79.2585C54.8858 79.2585 55.3558 79.2535 55.8058 79.2435C56.2558 79.2335 56.6308 79.2235 56.9308 79.2135V79.5135C56.5908 79.5235 56.3308 79.5635 56.1508 79.6335C55.9808 79.6935 55.8658 79.8135 55.8058 79.9935C55.7458 80.1635 55.7158 80.4335 55.7158 80.8035V86.6985C55.7158 87.1885 55.7508 87.6135 55.8208 87.9735C55.9008 88.3335 56.0158 88.6285 56.1658 88.8585C56.3258 89.0885 56.5308 89.2585 56.7808 89.3685C57.0308 89.4685 57.3308 89.5185 57.6808 89.5185C58.3708 89.5185 58.9108 89.3585 59.3008 89.0385C59.6908 88.7085 59.9658 88.2485 60.1258 87.6585C60.2858 87.0685 60.3658 86.3935 60.3658 85.6335V81.9135C60.3658 81.3035 60.3358 80.8385 60.2758 80.5185C60.2158 80.1885 60.0808 79.9535 59.8708 79.8135C59.6608 79.6635 59.3308 79.5635 58.8808 79.5135V79.2135C59.0708 79.2235 59.3208 79.2335 59.6308 79.2435C59.9508 79.2535 60.2508 79.2585 60.5308 79.2585C60.7608 79.2585 60.9908 79.2535 61.2208 79.2435C61.4608 79.2335 61.6558 79.2235 61.8058 79.2135ZM76.4219 79.2135C76.3819 79.7635 76.3519 80.2935 76.3319 80.8035C76.3219 81.3135 76.3169 81.7035 76.3169 81.9735C76.3169 82.1935 76.3219 82.3985 76.3319 82.5885C76.3419 82.7785 76.3519 82.9435 76.3619 83.0835H76.0169C75.8169 82.1935 75.5769 81.4935 75.2969 80.9835C75.0169 80.4635 74.6969 80.0985 74.3369 79.8885C73.9869 79.6685 73.6069 79.5585 73.1969 79.5585H73.0169V88.1235C73.0169 88.5335 73.0569 88.8385 73.1369 89.0385C73.2269 89.2385 73.3869 89.3735 73.6169 89.4435C73.8569 89.5035 74.2019 89.5335 74.6519 89.5335V89.8335C74.3219 89.8235 73.8769 89.8135 73.3169 89.8035C72.7669 89.7935 72.1919 89.7885 71.5919 89.7885C71.0019 89.7885 70.4469 89.7935 69.9269 89.8035C69.4069 89.8135 68.9869 89.8235 68.6669 89.8335V89.5335C69.1169 89.5335 69.4619 89.5035 69.7019 89.4435C69.9419 89.3735 70.1019 89.2385 70.1819 89.0385C70.2619 88.8385 70.3019 88.5335 70.3019 88.1235V79.5585H70.1369C69.7169 79.5585 69.3319 79.6685 68.9819 79.8885C68.6319 80.0985 68.3169 80.4585 68.0369 80.9685C67.7569 81.4785 67.5119 82.1835 67.3019 83.0835H66.9569C66.9769 82.9435 66.9869 82.7785 66.9869 82.5885C66.9969 82.3985 67.0019 82.1935 67.0019 81.9735C67.0019 81.7035 66.9919 81.3135 66.9719 80.8035C66.9619 80.2935 66.9369 79.7635 66.8969 79.2135C67.3669 79.2235 67.8819 79.2335 68.4419 79.2435C69.0119 79.2535 69.5769 79.2585 70.1369 79.2585C70.6969 79.2585 71.2069 79.2585 71.6669 79.2585C72.1269 79.2585 72.6369 79.2585 73.1969 79.2585C73.7669 79.2585 74.3319 79.2535 74.8919 79.2435C75.4519 79.2335 75.9619 79.2235 76.4219 79.2135ZM91.4161 79.2135V79.5135C91.1061 79.5635 90.8711 79.6585 90.7111 79.7985C90.5511 79.9385 90.4461 80.1535 90.3961 80.4435C90.3461 80.7335 90.3211 81.1435 90.3211 81.6735V85.4685C90.3211 86.1085 90.2761 86.6985 90.1861 87.2385C90.1061 87.7785 89.9461 88.2485 89.7061 88.6485C89.4461 89.0785 89.0611 89.4185 88.5511 89.6685C88.0411 89.9185 87.3811 90.0435 86.5711 90.0435C86.1111 90.0435 85.6311 89.9885 85.1311 89.8785C84.6411 89.7785 84.2011 89.5885 83.8111 89.3085C83.4811 89.0485 83.2261 88.7435 83.0461 88.3935C82.8761 88.0435 82.7611 87.6335 82.7011 87.1635C82.6411 86.6835 82.6111 86.1335 82.6111 85.5135V80.8035C82.6111 80.4335 82.5811 80.1635 82.5211 79.9935C82.4711 79.8135 82.3661 79.6935 82.2061 79.6335C82.0561 79.5635 81.8261 79.5235 81.5161 79.5135V79.2135C81.7861 79.2235 82.1461 79.2335 82.5961 79.2435C83.0461 79.2535 83.5161 79.2585 84.0061 79.2585C84.4961 79.2585 84.9661 79.2535 85.4161 79.2435C85.8661 79.2335 86.2411 79.2235 86.5411 79.2135V79.5135C86.2011 79.5235 85.9411 79.5635 85.7611 79.6335C85.5911 79.6935 85.4761 79.8135 85.4161 79.9935C85.3561 80.1635 85.3261 80.4335 85.3261 80.8035V86.6985C85.3261 87.1885 85.3611 87.6135 85.4311 87.9735C85.5111 88.3335 85.6261 88.6285 85.7761 88.8585C85.9361 89.0885 86.1411 89.2585 86.3911 89.3685C86.6411 89.4685 86.9411 89.5185 87.2911 89.5185C87.9811 89.5185 88.5211 89.3585 88.9111 89.0385C89.3011 88.7085 89.5761 88.2485 89.7361 87.6585C89.8961 87.0685 89.9761 86.3935 89.9761 85.6335V81.9135C89.9761 81.3035 89.9461 80.8385 89.8861 80.5185C89.8261 80.1885 89.6911 79.9535 89.4811 79.8135C89.2711 79.6635 88.9411 79.5635 88.4911 79.5135V79.2135C88.6811 79.2235 88.9311 79.2335 89.2411 79.2435C89.5611 79.2535 89.8611 79.2585 90.1411 79.2585C90.3711 79.2585 90.6011 79.2535 90.8311 79.2435C91.0711 79.2335 91.2661 79.2235 91.4161 79.2135ZM96.6122 79.2135C96.8822 79.2235 97.2422 79.2335 97.6922 79.2435C98.1422 79.2535 98.5922 79.2585 99.0422 79.2585C99.5322 79.2585 100.002 79.2535 100.452 79.2435C100.912 79.2335 101.237 79.2285 101.427 79.2285C102.407 79.2285 103.212 79.3285 103.842 79.5285C104.482 79.7285 104.962 80.0235 105.282 80.4135C105.602 80.7935 105.762 81.2685 105.762 81.8385C105.762 82.1985 105.687 82.5535 105.537 82.9035C105.397 83.2435 105.152 83.5585 104.802 83.8485C104.462 84.1385 103.987 84.3685 103.377 84.5385C102.777 84.7085 102.017 84.7935 101.097 84.7935H99.6572V84.4935H100.947C101.497 84.4935 101.912 84.3835 102.192 84.1635C102.482 83.9335 102.677 83.6335 102.777 83.2635C102.887 82.8835 102.942 82.4635 102.942 82.0035C102.942 81.2135 102.817 80.6035 102.567 80.1735C102.317 79.7335 101.892 79.5135 101.292 79.5135C100.922 79.5135 100.682 79.5985 100.572 79.7685C100.472 79.9385 100.422 80.2835 100.422 80.8035V88.2435C100.422 88.6035 100.447 88.8735 100.497 89.0535C100.557 89.2335 100.662 89.3535 100.812 89.4135C100.972 89.4735 101.207 89.5135 101.517 89.5335V89.8335C101.237 89.8135 100.877 89.8035 100.437 89.8035C100.007 89.7935 99.5722 89.7885 99.1322 89.7885C98.6222 89.7885 98.1422 89.7935 97.6922 89.8035C97.2422 89.8035 96.8822 89.8135 96.6122 89.8335V89.5335C96.9222 89.5135 97.1522 89.4735 97.3022 89.4135C97.4622 89.3535 97.5672 89.2335 97.6172 89.0535C97.6772 88.8735 97.7072 88.6035 97.7072 88.2435V80.8035C97.7072 80.4335 97.6772 80.1635 97.6172 79.9935C97.5672 79.8135 97.4622 79.6935 97.3022 79.6335C97.1522 79.5635 96.9222 79.5235 96.6122 79.5135V79.2135ZM99.5972 84.5385C99.9872 84.5485 100.342 84.5685 100.662 84.5985C100.982 84.6285 101.267 84.6585 101.517 84.6885C101.777 84.7085 102.002 84.7235 102.192 84.7335C103.182 84.7935 103.917 84.9835 104.397 85.3035C104.887 85.6135 105.197 86.0785 105.327 86.6985L105.642 88.2585C105.732 88.6385 105.827 88.9085 105.927 89.0685C106.027 89.2185 106.167 89.2885 106.347 89.2785C106.457 89.2785 106.552 89.2585 106.632 89.2185C106.712 89.1685 106.792 89.0985 106.872 89.0085L107.082 89.2035C106.792 89.5135 106.477 89.7285 106.137 89.8485C105.797 89.9785 105.402 90.0435 104.952 90.0435C104.362 90.0435 103.877 89.9285 103.497 89.6985C103.127 89.4685 102.892 89.0435 102.792 88.4235L102.537 86.9235C102.477 86.5135 102.397 86.1485 102.297 85.8285C102.207 85.5085 102.082 85.2585 101.922 85.0785C101.762 84.8885 101.537 84.7935 101.247 84.7935H99.6272L99.5972 84.5385ZM119.908 79.2135C119.868 79.6835 119.838 80.1385 119.818 80.5785C119.808 81.0185 119.803 81.3535 119.803 81.5835C119.803 81.7835 119.808 81.9785 119.818 82.1685C119.828 82.3585 119.838 82.5135 119.848 82.6335H119.503C119.393 81.8535 119.213 81.2385 118.963 80.7885C118.723 80.3385 118.423 80.0235 118.063 79.8435C117.713 79.6535 117.323 79.5585 116.893 79.5585H116.488C116.218 79.5585 116.008 79.5835 115.858 79.6335C115.718 79.6735 115.623 79.7635 115.573 79.9035C115.533 80.0435 115.513 80.2635 115.513 80.5635V88.4835C115.513 88.7735 115.533 88.9935 115.573 89.1435C115.623 89.2835 115.718 89.3785 115.858 89.4285C116.008 89.4685 116.218 89.4885 116.488 89.4885H117.103C117.493 89.4885 117.863 89.3885 118.213 89.1885C118.573 88.9785 118.893 88.6285 119.173 88.1385C119.453 87.6385 119.663 86.9635 119.803 86.1135H120.148C120.118 86.4535 120.103 86.8935 120.103 87.4335C120.103 87.6735 120.108 88.0135 120.118 88.4535C120.128 88.8935 120.158 89.3535 120.208 89.8335C119.698 89.8135 119.123 89.8035 118.483 89.8035C117.843 89.7935 117.273 89.7885 116.773 89.7885C116.513 89.7885 116.183 89.7885 115.783 89.7885C115.383 89.7885 114.948 89.7935 114.478 89.8035C114.008 89.8035 113.533 89.8085 113.053 89.8185C112.573 89.8185 112.123 89.8235 111.703 89.8335V89.5335C112.013 89.5135 112.243 89.4735 112.393 89.4135C112.553 89.3535 112.658 89.2335 112.708 89.0535C112.768 88.8735 112.798 88.6035 112.798 88.2435V80.8035C112.798 80.4335 112.768 80.1635 112.708 79.9935C112.658 79.8135 112.553 79.6935 112.393 79.6335C112.243 79.5635 112.013 79.5235 111.703 79.5135V79.2135C112.133 79.2235 112.583 79.2335 113.053 79.2435C113.533 79.2435 114.003 79.2485 114.463 79.2585C114.933 79.2585 115.368 79.2585 115.768 79.2585C116.178 79.2585 116.513 79.2585 116.773 79.2585C117.233 79.2585 117.753 79.2585 118.333 79.2585C118.923 79.2485 119.448 79.2335 119.908 79.2135ZM117.643 84.3435C117.643 84.3435 117.643 84.3935 117.643 84.4935C117.643 84.5935 117.643 84.6435 117.643 84.6435H115.063C115.063 84.6435 115.063 84.5935 115.063 84.4935C115.063 84.3935 115.063 84.3435 115.063 84.3435H117.643ZM118.078 82.3635C118.038 82.9335 118.018 83.3685 118.018 83.6685C118.028 83.9685 118.033 84.2435 118.033 84.4935C118.033 84.7435 118.038 85.0185 118.048 85.3185C118.058 85.6185 118.083 86.0535 118.123 86.6235H117.778C117.728 86.2635 117.623 85.9335 117.463 85.6335C117.303 85.3335 117.088 85.0935 116.818 84.9135C116.548 84.7335 116.218 84.6435 115.828 84.6435V84.3435C116.118 84.3435 116.373 84.2835 116.593 84.1635C116.813 84.0335 116.998 83.8685 117.148 83.6685C117.308 83.4685 117.438 83.2535 117.538 83.0235C117.638 82.7935 117.703 82.5735 117.733 82.3635H118.078Z" fill="#333C4B"/>
</svg>
