<svg width="131" height="100" viewBox="0 0 131 100" fill="none" xmlns="http://www.w3.org/2000/svg">
<path d="M41.9827 0C41.9827 0 77.1125 13.2402 76.3806 32.4684V64.9368C76.3806 64.9368 41.2508 51.6966 41.9827 32.4684V0Z" fill="#333C4B"/>
<path d="M107.651 57.2851C114.172 52.8274 121.823 49.8999 129.94 49.035V38.9219C125.216 40.7183 120.758 43.3131 116.833 46.7063C113.174 49.8334 110.113 53.3597 107.651 57.2851Z" fill="#CFA160"/>
<path d="M103.659 60.3457C106.52 54.6239 110.512 49.4342 115.569 45.1761C119.893 41.5167 124.817 38.6558 130.007 36.7929V7.51807C130.007 7.51807 79.9733 26.4136 81.0379 53.7589V99.9998C81.0379 99.9998 83.3 99.1348 86.7598 97.6046C86.7598 96.1408 86.8263 94.6105 86.8928 93.1468C87.9574 79.8401 94.2781 68.3298 103.659 60.3457Z" fill="#CFA160"/>
<path d="M98.8689 77.5117C99.135 74.2516 99.7338 71.1245 100.599 68.064C94.7438 74.9835 90.9514 83.6328 90.153 93.2802C90.0864 94.1451 90.0199 95.0101 90.0199 95.9415C92.8808 94.5443 96.141 92.881 99.6673 90.885C98.8023 86.5603 98.5362 82.036 98.8689 77.5117Z" fill="#CFA160"/>
<path d="M100.865 77.711C100.532 81.8361 100.732 85.8946 101.464 89.8201C115.103 81.6365 130.472 68.9951 129.874 53.7589V52.4282C119.96 53.5593 110.845 57.9505 103.859 64.6039C102.329 68.729 101.264 73.1202 100.865 77.711Z" fill="#CFA160"/>
<path d="M6.624 75.9734C7.36 75.9734 7.96267 76.0747 8.432 76.2774C8.90133 76.4801 9.32267 76.7254 9.696 77.0134C9.81333 77.1094 9.92 77.1574 10.016 77.1574C10.2187 77.1574 10.352 76.8374 10.416 76.1974H10.784C10.7627 76.6134 10.7467 77.1254 10.736 77.7334C10.7253 78.3414 10.72 79.1414 10.72 80.1334H10.352C10.2773 79.4294 10.1547 78.8321 9.984 78.3414C9.81333 77.8401 9.488 77.4134 9.008 77.0614C8.76267 76.8587 8.46933 76.7041 8.128 76.5974C7.79733 76.4801 7.46667 76.4214 7.136 76.4214C6.53867 76.4214 6.032 76.5867 5.616 76.9174C5.21067 77.2374 4.88 77.6641 4.624 78.1974C4.368 78.7201 4.18133 79.3067 4.064 79.9574C3.95733 80.5974 3.904 81.2427 3.904 81.8934C3.904 83.8134 4.14933 85.2161 4.64 86.1014C5.14133 86.9867 5.83467 87.4294 6.72 87.4294C6.93333 87.4294 7.12 87.4081 7.28 87.3654C7.44 87.3121 7.57333 87.2481 7.68 87.1734C7.81867 87.0774 7.91467 86.9654 7.968 86.8374C8.02133 86.7094 8.048 86.5494 8.048 86.3574V84.7734C8.048 84.2721 8.00533 83.8987 7.92 83.6534C7.83467 83.3974 7.67467 83.2267 7.44 83.1414C7.216 83.0454 6.88 82.9921 6.432 82.9814V82.6614C6.66667 82.6721 6.94933 82.6827 7.28 82.6934C7.61067 82.6934 7.95733 82.6987 8.32 82.7094C8.68267 82.7094 9.01867 82.7094 9.328 82.7094C9.808 82.7094 10.2453 82.7041 10.64 82.6934C11.0453 82.6827 11.376 82.6721 11.632 82.6614V82.9814C11.44 82.9921 11.2907 83.0294 11.184 83.0934C11.088 83.1574 11.024 83.2854 10.992 83.4774C10.96 83.6694 10.944 83.9627 10.944 84.3574V87.5254H10.624C10.6133 87.3441 10.5707 87.1467 10.496 86.9334C10.4213 86.7201 10.2987 86.6134 10.128 86.6134C10.0533 86.6134 9.94667 86.6347 9.808 86.6774C9.66933 86.7201 9.45067 86.8161 9.152 86.9654C8.75733 87.1787 8.33067 87.3654 7.872 87.5254C7.424 87.6747 6.96533 87.7494 6.496 87.7494C5.20533 87.7494 4.12267 87.5201 3.248 87.0614C2.384 86.6027 1.73333 85.9467 1.296 85.0934C0.858667 84.2294 0.64 83.1894 0.64 81.9734C0.64 80.7681 0.896 79.7174 1.408 78.8214C1.92 77.9254 2.624 77.2267 3.52 76.7254C4.42667 76.2241 5.46133 75.9734 6.624 75.9734ZM17.2179 76.1974C17.5059 76.2081 17.8899 76.2187 18.3699 76.2294C18.8499 76.2401 19.3299 76.2454 19.8099 76.2454C20.3325 76.2454 20.8339 76.2401 21.3139 76.2294C21.8045 76.2187 22.1512 76.2134 22.3539 76.2134C23.3992 76.2134 24.2579 76.3201 24.9299 76.5334C25.6125 76.7467 26.1245 77.0614 26.4659 77.4774C26.8072 77.8827 26.9779 78.3894 26.9779 78.9974C26.9779 79.3814 26.8979 79.7601 26.7379 80.1334C26.5885 80.4961 26.3272 80.8321 25.9539 81.1414C25.5912 81.4507 25.0845 81.6961 24.4339 81.8774C23.7939 82.0587 22.9832 82.1494 22.0019 82.1494H20.4659V81.8294H21.8419C22.4285 81.8294 22.8712 81.7121 23.1699 81.4774C23.4792 81.2321 23.6872 80.9121 23.7939 80.5174C23.9112 80.1121 23.9699 79.6641 23.9699 79.1734C23.9699 78.3307 23.8365 77.6801 23.5699 77.2214C23.3032 76.7521 22.8499 76.5174 22.2099 76.5174C21.8152 76.5174 21.5592 76.6081 21.4419 76.7894C21.3352 76.9707 21.2819 77.3387 21.2819 77.8934V85.8294C21.2819 86.2134 21.3085 86.5014 21.3619 86.6934C21.4259 86.8854 21.5379 87.0134 21.6979 87.0774C21.8685 87.1414 22.1192 87.1841 22.4499 87.2054V87.5254C22.1512 87.5041 21.7672 87.4934 21.2979 87.4934C20.8392 87.4827 20.3752 87.4774 19.9059 87.4774C19.3619 87.4774 18.8499 87.4827 18.3699 87.4934C17.8899 87.4934 17.5059 87.5041 17.2179 87.5254V87.2054C17.5485 87.1841 17.7939 87.1414 17.9539 87.0774C18.1245 87.0134 18.2365 86.8854 18.2899 86.6934C18.3539 86.5014 18.3859 86.2134 18.3859 85.8294V77.8934C18.3859 77.4987 18.3539 77.2107 18.2899 77.0294C18.2365 76.8374 18.1245 76.7094 17.9539 76.6454C17.7939 76.5707 17.5485 76.5281 17.2179 76.5174V76.1974ZM20.4019 81.8774C20.8179 81.8881 21.1965 81.9094 21.5379 81.9414C21.8792 81.9734 22.1832 82.0054 22.4499 82.0374C22.7272 82.0587 22.9672 82.0747 23.1699 82.0854C24.2259 82.1494 25.0099 82.3521 25.5219 82.6934C26.0445 83.0241 26.3752 83.5201 26.5139 84.1814L26.8499 85.8454C26.9459 86.2507 27.0472 86.5387 27.1539 86.7094C27.2605 86.8694 27.4099 86.9441 27.6019 86.9334C27.7192 86.9334 27.8205 86.9121 27.9059 86.8694C27.9912 86.8161 28.0765 86.7414 28.1619 86.6454L28.3859 86.8534C28.0765 87.1841 27.7405 87.4134 27.3779 87.5414C27.0152 87.6801 26.5939 87.7494 26.1139 87.7494C25.4845 87.7494 24.9672 87.6267 24.5619 87.3814C24.1672 87.1361 23.9165 86.6827 23.8099 86.0214L23.5379 84.4214C23.4739 83.9841 23.3885 83.5947 23.2819 83.2534C23.1859 82.9121 23.0525 82.6454 22.8819 82.4534C22.7112 82.2507 22.4712 82.1494 22.1619 82.1494H20.4339L20.4019 81.8774ZM39.2987 75.9734C40.4721 75.9734 41.4961 76.2027 42.3707 76.6614C43.2454 77.1201 43.9227 77.7814 44.4027 78.6454C44.8934 79.4987 45.1387 80.5387 45.1387 81.7654C45.1387 82.9601 44.8881 84.0054 44.3867 84.9014C43.8961 85.7974 43.2081 86.4961 42.3227 86.9974C41.4374 87.4987 40.4241 87.7494 39.2827 87.7494C38.1201 87.7494 37.0961 87.5201 36.2107 87.0614C35.3361 86.6027 34.6534 85.9414 34.1627 85.0774C33.6827 84.2134 33.4427 83.1734 33.4427 81.9574C33.4427 80.7627 33.6934 79.7174 34.1947 78.8214C34.7067 77.9254 35.4001 77.2267 36.2747 76.7254C37.1494 76.2241 38.1574 75.9734 39.2987 75.9734ZM39.2347 76.2614C38.6694 76.2614 38.1787 76.5014 37.7627 76.9814C37.3467 77.4614 37.0214 78.1227 36.7867 78.9654C36.5627 79.8081 36.4507 80.7841 36.4507 81.8934C36.4507 83.0241 36.5787 84.0107 36.8347 84.8534C37.1014 85.6854 37.4534 86.3307 37.8907 86.7894C38.3281 87.2374 38.8134 87.4614 39.3467 87.4614C39.9121 87.4614 40.4027 87.2214 40.8187 86.7414C41.2454 86.2614 41.5707 85.6001 41.7947 84.7574C42.0187 83.9041 42.1307 82.9281 42.1307 81.8294C42.1307 80.6881 42.0027 79.7014 41.7467 78.8694C41.4907 78.0374 41.1387 77.3974 40.6907 76.9494C40.2534 76.4907 39.7681 76.2614 39.2347 76.2614ZM66.1641 76.1974V76.5174C65.9295 76.6241 65.6788 76.8321 65.4121 77.1414C65.1455 77.4507 64.9161 77.9307 64.7241 78.5814L61.9561 87.5414C61.8495 87.5307 61.7375 87.5254 61.6201 87.5254C61.5028 87.5147 61.3801 87.5094 61.2521 87.5094C61.1455 87.5094 61.0281 87.5147 60.9001 87.5254C60.7828 87.5254 60.6708 87.5307 60.5641 87.5414L57.2041 77.3174C57.1081 77.0187 56.9855 76.8161 56.8361 76.7094C56.6975 76.5921 56.5375 76.5281 56.3561 76.5174V76.1974C56.6868 76.2081 57.0761 76.2187 57.5241 76.2294C57.9721 76.2401 58.4255 76.2454 58.8841 76.2454C59.3641 76.2454 59.8175 76.2401 60.2441 76.2294C60.6708 76.2187 61.0175 76.2081 61.2841 76.1974V76.5174C60.9535 76.5281 60.6975 76.5654 60.5161 76.6294C60.3348 76.6934 60.2281 76.8214 60.1961 77.0134C60.1748 77.1947 60.2281 77.4774 60.3561 77.8614L62.5801 84.6614L62.1641 85.4774L63.8761 80.0214C64.1535 79.1467 64.2868 78.4587 64.2761 77.9574C64.2655 77.4454 64.1375 77.0827 63.8921 76.8694C63.6575 76.6454 63.3215 76.5281 62.8841 76.5174V76.1974C63.2788 76.2081 63.6308 76.2187 63.9401 76.2294C64.2601 76.2401 64.5908 76.2454 64.9321 76.2454C65.1561 76.2454 65.3748 76.2401 65.5881 76.2294C65.8121 76.2187 66.0041 76.2081 66.1641 76.1974ZM54.6761 76.1974V76.5174C54.4735 76.5494 54.3348 76.6347 54.2601 76.7734C54.1855 76.9121 54.1588 77.0827 54.1801 77.2854C54.2121 77.4774 54.2601 77.6694 54.3241 77.8614L56.7401 84.8214L56.3081 85.4454L58.2921 79.8614L58.5161 80.3094L56.0361 87.5414C55.9295 87.5307 55.8121 87.5254 55.6841 87.5254C55.5668 87.5147 55.4495 87.5094 55.3321 87.5094C55.2148 87.5094 55.0975 87.5147 54.9801 87.5254C54.8628 87.5254 54.7508 87.5307 54.6441 87.5414L50.9961 77.5414C50.8575 77.1574 50.6975 76.8961 50.5161 76.7574C50.3348 76.6081 50.1695 76.5281 50.0201 76.5174V76.1974C50.3615 76.2081 50.7721 76.2187 51.2521 76.2294C51.7321 76.2401 52.1908 76.2454 52.6281 76.2454C53.0655 76.2454 53.4601 76.2401 53.8121 76.2294C54.1641 76.2187 54.4521 76.2081 54.6761 76.1974Z" fill="#333C4B"/>
</svg>
