<svg width="155" height="100" viewBox="0 0 155 100" fill="none" xmlns="http://www.w3.org/2000/svg">
<path d="M28.7414 49.5303C23.5441 49.5303 19.2235 45.2723 19.2235 40.0125C19.2235 34.8152 23.4815 30.4946 28.7414 30.4946C33.9386 30.4946 38.2592 34.7526 38.2592 40.0125C38.2592 45.2723 34.0012 49.5303 28.7414 49.5303Z" fill="#CFA160"/>
<path d="M98.8729 27.489C98.8729 12.3982 86.4746 0 71.3838 0C56.2304 0 43.8948 12.3982 43.8948 27.489V67.6894C43.8948 67.6894 98.8729 61.5529 98.8729 27.489Z" fill="#CFA160"/>
<path d="M0 80.839C0 91.3587 8.57859 99.9999 19.0983 99.9999C29.618 99.9999 38.1966 91.4213 38.1966 80.9016V52.9116C38.2592 52.9116 0 57.1696 0 80.839ZM19.0983 85.911C16.3431 85.911 14.0889 83.6568 14.0889 80.9016C14.0889 78.1464 16.3431 75.8922 19.0983 75.8922C21.8535 75.8922 24.1077 78.1464 24.1077 80.9016C24.1703 83.6568 21.9161 85.911 19.0983 85.911Z" fill="#333C4B"/>
<path d="M56.7951 79.0587C57.4551 79.0587 57.9951 79.1587 58.4151 79.3587C58.8451 79.5487 59.2251 79.7737 59.5551 80.0337C59.7551 80.1837 59.9051 80.2037 60.0051 80.0937C60.1151 79.9737 60.1901 79.6987 60.2301 79.2687H60.5751C60.5551 79.6587 60.5401 80.1387 60.5301 80.7087C60.5201 81.2787 60.5151 82.0287 60.5151 82.9587H60.1701C60.1301 82.4887 60.0651 82.0787 59.9751 81.7287C59.8951 81.3787 59.7751 81.0687 59.6151 80.7987C59.4551 80.5287 59.2251 80.2887 58.9251 80.0787C58.6951 79.8887 58.4351 79.7437 58.1451 79.6437C57.8651 79.5337 57.5751 79.4787 57.2751 79.4787C56.7251 79.4787 56.2601 79.6337 55.8801 79.9437C55.5101 80.2437 55.2101 80.6437 54.9801 81.1437C54.7601 81.6337 54.6001 82.1837 54.5001 82.7937C54.4101 83.3937 54.3651 83.9987 54.3651 84.6087C54.3651 85.2287 54.4151 85.8437 54.5151 86.4537C54.6151 87.0537 54.7751 87.5987 54.9951 88.0887C55.2251 88.5787 55.5301 88.9737 55.9101 89.2737C56.2901 89.5637 56.7551 89.7087 57.3051 89.7087C57.5951 89.7087 57.8801 89.6587 58.1601 89.5587C58.4501 89.4587 58.7101 89.3137 58.9401 89.1237C59.3801 88.8237 59.6751 88.4337 59.8251 87.9537C59.9851 87.4637 60.1001 86.8287 60.1701 86.0487H60.5151C60.5151 87.0187 60.5201 87.8037 60.5301 88.4037C60.5401 88.9937 60.5551 89.4887 60.5751 89.8887H60.2301C60.1901 89.4587 60.1201 89.1887 60.0201 89.0787C59.9301 88.9687 59.7751 88.9837 59.5551 89.1237C59.1851 89.3837 58.7901 89.6137 58.3701 89.8137C57.9601 90.0037 57.4301 90.0987 56.7801 90.0987C55.6901 90.0987 54.7301 89.8837 53.9001 89.4537C53.0801 89.0237 52.4401 88.4037 51.9801 87.5937C51.5301 86.7837 51.3051 85.8087 51.3051 84.6687C51.3051 83.5487 51.5401 82.5687 52.0101 81.7287C52.4801 80.8887 53.1251 80.2337 53.9451 79.7637C54.7751 79.2937 55.7251 79.0587 56.7951 79.0587ZM71.9592 79.0587C73.0592 79.0587 74.0192 79.2737 74.8392 79.7037C75.6592 80.1337 76.2942 80.7537 76.7442 81.5637C77.2042 82.3637 77.4342 83.3387 77.4342 84.4887C77.4342 85.6087 77.1992 86.5887 76.7292 87.4287C76.2692 88.2687 75.6242 88.9237 74.7942 89.3937C73.9642 89.8637 73.0142 90.0987 71.9442 90.0987C70.8542 90.0987 69.8942 89.8837 69.0642 89.4537C68.2442 89.0237 67.6042 88.4037 67.1442 87.5937C66.6942 86.7837 66.4692 85.8087 66.4692 84.6687C66.4692 83.5487 66.7042 82.5687 67.1742 81.7287C67.6542 80.8887 68.3042 80.2337 69.1242 79.7637C69.9442 79.2937 70.8892 79.0587 71.9592 79.0587ZM71.8992 79.3287C71.3692 79.3287 70.9092 79.5537 70.5192 80.0037C70.1292 80.4537 69.8242 81.0737 69.6042 81.8637C69.3942 82.6537 69.2892 83.5687 69.2892 84.6087C69.2892 85.6687 69.4092 86.5937 69.6492 87.3837C69.8992 88.1637 70.2292 88.7687 70.6392 89.1987C71.0492 89.6187 71.5042 89.8287 72.0042 89.8287C72.5342 89.8287 72.9942 89.6037 73.3842 89.1537C73.7842 88.7037 74.0892 88.0837 74.2992 87.2937C74.5092 86.4937 74.6142 85.5787 74.6142 84.5487C74.6142 83.4787 74.4942 82.5537 74.2542 81.7737C74.0142 80.9937 73.6842 80.3937 73.2642 79.9737C72.8542 79.5437 72.3992 79.3287 71.8992 79.3287ZM92.9105 79.2687V79.5687C92.6105 79.6187 92.3805 79.7137 92.2205 79.8537C92.0605 79.9937 91.9505 80.2087 91.8905 80.4987C91.8405 80.7887 91.8155 81.1987 91.8155 81.7287V89.9037C91.6855 89.8837 91.5455 89.8737 91.3955 89.8737C91.2455 89.8737 91.0855 89.8837 90.9155 89.9037L84.3305 82.1487V87.1887C84.3305 87.7987 84.3605 88.2687 84.4205 88.5987C84.4805 88.9187 84.6155 89.1487 84.8255 89.2887C85.0355 89.4287 85.3655 89.5287 85.8155 89.5887V89.8887C85.6255 89.8687 85.3705 89.8587 85.0505 89.8587C84.7405 89.8487 84.4455 89.8437 84.1655 89.8437C83.9455 89.8437 83.7155 89.8487 83.4755 89.8587C83.2455 89.8587 83.0505 89.8687 82.8905 89.8887V89.5887C83.2105 89.5287 83.4455 89.4337 83.5955 89.3037C83.7555 89.1637 83.8605 88.9487 83.9105 88.6587C83.9605 88.3587 83.9855 87.9487 83.9855 87.4287V80.8587C83.9855 80.4887 83.9605 80.2187 83.9105 80.0487C83.8605 79.8687 83.7555 79.7487 83.5955 79.6887C83.4355 79.6187 83.2005 79.5787 82.8905 79.5687V79.2687C83.0505 79.2787 83.2455 79.2887 83.4755 79.2987C83.7155 79.3087 83.9455 79.3137 84.1655 79.3137C84.4155 79.3137 84.6555 79.3087 84.8855 79.2987C85.1155 79.2887 85.3255 79.2787 85.5155 79.2687L91.4705 86.0787V81.9687C91.4705 81.3587 91.4405 80.8937 91.3805 80.5737C91.3305 80.2437 91.2005 80.0087 90.9905 79.8687C90.7905 79.7187 90.4555 79.6187 89.9855 79.5687V79.2687C90.1855 79.2787 90.4405 79.2887 90.7505 79.2987C91.0705 79.3087 91.3655 79.3137 91.6355 79.3137C91.8755 79.3137 92.1105 79.3087 92.3405 79.2987C92.5705 79.2887 92.7605 79.2787 92.9105 79.2687ZM102.204 79.0737C102.824 79.0737 103.304 79.1387 103.644 79.2687C103.984 79.3887 104.274 79.5187 104.514 79.6587C104.634 79.7287 104.729 79.7837 104.799 79.8237C104.879 79.8537 104.954 79.8687 105.024 79.8687C105.124 79.8687 105.194 79.8137 105.234 79.7037C105.284 79.5937 105.324 79.4287 105.354 79.2087H105.699C105.689 79.4087 105.674 79.6437 105.654 79.9137C105.644 80.1837 105.634 80.5437 105.624 80.9937C105.624 81.4337 105.624 82.0187 105.624 82.7487H105.279C105.239 82.2087 105.114 81.6887 104.904 81.1887C104.694 80.6887 104.404 80.2737 104.034 79.9437C103.674 79.6137 103.229 79.4487 102.699 79.4487C102.239 79.4487 101.859 79.5787 101.559 79.8387C101.259 80.0887 101.109 80.4487 101.109 80.9187C101.109 81.2987 101.204 81.6287 101.394 81.9087C101.584 82.1787 101.869 82.4537 102.249 82.7337C102.639 83.0137 103.129 83.3587 103.719 83.7687C104.189 84.0787 104.609 84.3887 104.979 84.6987C105.349 85.0087 105.644 85.3587 105.864 85.7487C106.094 86.1387 106.209 86.6087 106.209 87.1587C106.209 87.8187 106.029 88.3687 105.669 88.8087C105.309 89.2387 104.834 89.5637 104.244 89.7837C103.654 89.9937 103.009 90.0987 102.309 90.0987C101.659 90.0987 101.139 90.0387 100.749 89.9187C100.369 89.7987 100.044 89.6737 99.774 89.5437C99.554 89.4037 99.384 89.3337 99.264 89.3337C99.164 89.3337 99.089 89.3887 99.039 89.4987C98.999 89.6087 98.964 89.7737 98.934 89.9937H98.589C98.609 89.7437 98.619 89.4537 98.619 89.1237C98.629 88.7837 98.634 88.3487 98.634 87.8187C98.644 87.2887 98.649 86.6137 98.649 85.7937H98.994C99.034 86.4737 99.144 87.1087 99.324 87.6987C99.514 88.2887 99.799 88.7687 100.179 89.1387C100.569 89.4987 101.084 89.6787 101.724 89.6787C102.084 89.6787 102.399 89.6187 102.669 89.4987C102.939 89.3787 103.154 89.2037 103.314 88.9737C103.474 88.7337 103.554 88.4437 103.554 88.1037C103.554 87.6837 103.459 87.3187 103.269 87.0087C103.079 86.6987 102.819 86.4087 102.489 86.1387C102.159 85.8587 101.774 85.5787 101.334 85.2987C100.864 84.9887 100.424 84.6737 100.014 84.3537C99.604 84.0337 99.274 83.6787 99.024 83.2887C98.784 82.8887 98.664 82.4087 98.664 81.8487C98.664 81.2087 98.829 80.6837 99.159 80.2737C99.489 79.8637 99.924 79.5637 100.464 79.3737C101.014 79.1737 101.594 79.0737 102.204 79.0737ZM121.414 79.2687V79.5687C121.104 79.6187 120.869 79.7137 120.709 79.8537C120.549 79.9937 120.444 80.2087 120.394 80.4987C120.344 80.7887 120.319 81.1987 120.319 81.7287V85.5237C120.319 86.1637 120.274 86.7537 120.184 87.2937C120.104 87.8337 119.944 88.3037 119.704 88.7037C119.444 89.1337 119.059 89.4737 118.549 89.7237C118.039 89.9737 117.379 90.0987 116.569 90.0987C116.109 90.0987 115.629 90.0437 115.129 89.9337C114.639 89.8337 114.199 89.6437 113.809 89.3637C113.479 89.1037 113.224 88.7987 113.044 88.4487C112.874 88.0987 112.759 87.6887 112.699 87.2187C112.639 86.7387 112.609 86.1887 112.609 85.5687V80.8587C112.609 80.4887 112.579 80.2187 112.519 80.0487C112.469 79.8687 112.364 79.7487 112.204 79.6887C112.054 79.6187 111.824 79.5787 111.514 79.5687V79.2687C111.784 79.2787 112.144 79.2887 112.594 79.2987C113.044 79.3087 113.514 79.3137 114.004 79.3137C114.494 79.3137 114.964 79.3087 115.414 79.2987C115.864 79.2887 116.239 79.2787 116.539 79.2687V79.5687C116.199 79.5787 115.939 79.6187 115.759 79.6887C115.589 79.7487 115.474 79.8687 115.414 80.0487C115.354 80.2187 115.324 80.4887 115.324 80.8587V86.7537C115.324 87.2437 115.359 87.6687 115.429 88.0287C115.509 88.3887 115.624 88.6837 115.774 88.9137C115.934 89.1437 116.139 89.3137 116.389 89.4237C116.639 89.5237 116.939 89.5737 117.289 89.5737C117.979 89.5737 118.519 89.4137 118.909 89.0937C119.299 88.7637 119.574 88.3037 119.734 87.7137C119.894 87.1237 119.974 86.4487 119.974 85.6887V81.9687C119.974 81.3587 119.944 80.8937 119.884 80.5737C119.824 80.2437 119.689 80.0087 119.479 79.8687C119.269 79.7187 118.939 79.6187 118.489 79.5687V79.2687C118.679 79.2787 118.929 79.2887 119.239 79.2987C119.559 79.3087 119.859 79.3137 120.139 79.3137C120.369 79.3137 120.599 79.3087 120.829 79.2987C121.069 79.2887 121.264 79.2787 121.414 79.2687ZM131.635 79.2687V79.5687C131.295 79.5787 131.035 79.6187 130.855 79.6887C130.685 79.7487 130.57 79.8687 130.51 80.0487C130.45 80.2187 130.42 80.4887 130.42 80.8587V88.5387C130.42 88.8287 130.44 89.0487 130.48 89.1987C130.53 89.3387 130.615 89.4337 130.735 89.4837C130.855 89.5237 131.035 89.5437 131.275 89.5437H131.89C132.19 89.5437 132.49 89.4537 132.79 89.2737C133.09 89.0937 133.37 88.8437 133.63 88.5237C133.89 88.1937 134.115 87.8187 134.305 87.3987C134.495 86.9687 134.63 86.5087 134.71 86.0187H135.055C135.025 86.3687 135.01 86.8187 135.01 87.3687C135.01 87.6187 135.015 87.9787 135.025 88.4487C135.035 88.9087 135.065 89.3887 135.115 89.8887C134.605 89.8687 134.03 89.8587 133.39 89.8587C132.75 89.8487 132.18 89.8437 131.68 89.8437C131.42 89.8437 131.09 89.8437 130.69 89.8437C130.29 89.8437 129.855 89.8487 129.385 89.8587C128.915 89.8587 128.44 89.8637 127.96 89.8737C127.48 89.8737 127.03 89.8787 126.61 89.8887V89.5887C126.92 89.5687 127.15 89.5287 127.3 89.4687C127.46 89.4087 127.565 89.2887 127.615 89.1087C127.675 88.9287 127.705 88.6587 127.705 88.2987V80.8587C127.705 80.4887 127.675 80.2187 127.615 80.0487C127.565 79.8687 127.46 79.7487 127.3 79.6887C127.15 79.6187 126.92 79.5787 126.61 79.5687V79.2687C126.88 79.2787 127.24 79.2887 127.69 79.2987C128.14 79.3087 128.62 79.3137 129.13 79.3137C129.6 79.3137 130.06 79.3087 130.51 79.2987C130.96 79.2887 131.335 79.2787 131.635 79.2687ZM148.806 79.2687C148.766 79.8187 148.736 80.3487 148.716 80.8587C148.706 81.3687 148.701 81.7587 148.701 82.0287C148.701 82.2487 148.706 82.4537 148.716 82.6437C148.726 82.8337 148.736 82.9987 148.746 83.1387H148.401C148.201 82.2487 147.961 81.5487 147.681 81.0387C147.401 80.5187 147.081 80.1537 146.721 79.9437C146.371 79.7237 145.991 79.6137 145.581 79.6137H145.401V88.1787C145.401 88.5887 145.441 88.8937 145.521 89.0937C145.611 89.2937 145.771 89.4287 146.001 89.4987C146.241 89.5587 146.586 89.5887 147.036 89.5887V89.8887C146.706 89.8787 146.261 89.8687 145.701 89.8587C145.151 89.8487 144.576 89.8437 143.976 89.8437C143.386 89.8437 142.831 89.8487 142.311 89.8587C141.791 89.8687 141.371 89.8787 141.051 89.8887V89.5887C141.501 89.5887 141.846 89.5587 142.086 89.4987C142.326 89.4287 142.486 89.2937 142.566 89.0937C142.646 88.8937 142.686 88.5887 142.686 88.1787V79.6137H142.521C142.101 79.6137 141.716 79.7237 141.366 79.9437C141.016 80.1537 140.701 80.5137 140.421 81.0237C140.141 81.5337 139.896 82.2387 139.686 83.1387H139.341C139.361 82.9987 139.371 82.8337 139.371 82.6437C139.381 82.4537 139.386 82.2487 139.386 82.0287C139.386 81.7587 139.376 81.3687 139.356 80.8587C139.346 80.3487 139.321 79.8187 139.281 79.2687C139.751 79.2787 140.266 79.2887 140.826 79.2987C141.396 79.3087 141.961 79.3137 142.521 79.3137C143.081 79.3137 143.591 79.3137 144.051 79.3137C144.511 79.3137 145.021 79.3137 145.581 79.3137C146.151 79.3137 146.716 79.3087 147.276 79.2987C147.836 79.2887 148.346 79.2787 148.806 79.2687Z" fill="#333C4B"/>
</svg>
