<svg width="182" height="100" viewBox="0 0 182 100" fill="none" xmlns="http://www.w3.org/2000/svg">
<path d="M52.9871 74.1821C46.4437 74.1821 40.0426 72.4751 34.4238 69.2034L41.6073 56.8279C45.0924 58.8193 49.0042 59.8862 52.9871 59.8862C65.576 59.8862 75.7467 49.6444 75.7467 37.1266C75.7467 24.5377 65.5049 14.367 52.9871 14.367C49.0042 14.367 45.0213 15.4339 41.6073 17.4253L34.4238 4.97866C40.0426 1.70697 46.5149 0 52.9871 0C73.4708 0 90.0426 16.643 90.0426 37.0555C90.0426 57.5391 73.3996 74.1821 52.9871 74.1821Z" fill="#333C4B"/>
<path d="M52.6905 66.5332C54.6041 58.4289 49.5856 50.3077 41.4813 48.394C33.377 46.4804 25.2558 51.4989 23.3422 59.6032C21.4285 67.7075 26.447 75.8287 34.5513 77.7423C42.6556 79.656 50.7768 74.6375 52.6905 66.5332Z" fill="#CFA160"/>
<path d="M37.0555 99.9998C16.643 99.9998 0 83.428 0 63.0154C0 42.6029 16.643 25.96 37.0555 25.96C48.1508 25.96 58.5349 30.8675 65.6472 39.4024L54.5519 48.5773C50.2134 43.3142 43.8122 40.327 36.9844 40.327C24.4666 40.327 14.2959 50.4977 14.2959 63.0154C14.2959 75.5332 24.4666 85.7039 36.9844 85.7039C43.3144 85.7039 49.2176 83.1435 53.5562 78.5204L64.0114 88.3355C57.0413 95.7324 47.2262 99.9998 37.0555 99.9998Z" fill="#CFA160"/>
<path d="M74.465 78.38C74.735 78.39 75.095 78.4 75.545 78.41C75.995 78.42 76.445 78.425 76.895 78.425C77.385 78.425 77.855 78.42 78.305 78.41C78.765 78.4 79.09 78.395 79.28 78.395C80.58 78.395 81.55 78.615 82.19 79.055C82.84 79.495 83.165 80.06 83.165 80.75C83.165 81.1 83.05 81.46 82.82 81.83C82.59 82.19 82.235 82.515 81.755 82.805C81.285 83.085 80.68 83.28 79.94 83.39V83.42C80.92 83.48 81.7 83.65 82.28 83.93C82.87 84.2 83.295 84.525 83.555 84.905C83.815 85.285 83.945 85.68 83.945 86.09C83.945 86.74 83.77 87.28 83.42 87.71C83.08 88.14 82.585 88.465 81.935 88.685C81.295 88.895 80.525 89 79.625 89C79.385 89 79.035 88.995 78.575 88.985C78.115 88.965 77.565 88.955 76.925 88.955C76.455 88.955 75.995 88.96 75.545 88.97C75.095 88.97 74.735 88.98 74.465 89V88.7C74.775 88.68 75.005 88.64 75.155 88.58C75.315 88.52 75.42 88.4 75.47 88.22C75.53 88.04 75.56 87.77 75.56 87.41V79.97C75.56 79.6 75.53 79.33 75.47 79.16C75.42 78.98 75.315 78.86 75.155 78.8C75.005 78.73 74.775 78.69 74.465 78.68V78.38ZM79.145 78.68C78.785 78.68 78.55 78.765 78.44 78.935C78.33 79.105 78.275 79.45 78.275 79.97V87.41C78.275 87.76 78.3 88.025 78.35 88.205C78.41 88.385 78.51 88.505 78.65 88.565C78.79 88.625 79 88.655 79.28 88.655C79.92 88.655 80.385 88.43 80.675 87.98C80.975 87.52 81.125 86.87 81.125 86.03C81.125 85.26 80.935 84.665 80.555 84.245C80.185 83.825 79.565 83.615 78.695 83.615H77.51C77.51 83.615 77.51 83.575 77.51 83.495C77.51 83.405 77.51 83.36 77.51 83.36H78.8C79.23 83.36 79.56 83.25 79.79 83.03C80.02 82.8 80.18 82.5 80.27 82.13C80.36 81.75 80.405 81.345 80.405 80.915C80.405 80.175 80.305 79.62 80.105 79.25C79.915 78.87 79.595 78.68 79.145 78.68ZM98.9525 78.38V78.68C98.6425 78.73 98.4075 78.825 98.2475 78.965C98.0875 79.105 97.9825 79.32 97.9325 79.61C97.8825 79.9 97.8575 80.31 97.8575 80.84V84.635C97.8575 85.275 97.8125 85.865 97.7225 86.405C97.6425 86.945 97.4825 87.415 97.2425 87.815C96.9825 88.245 96.5975 88.585 96.0875 88.835C95.5775 89.085 94.9175 89.21 94.1075 89.21C93.6475 89.21 93.1675 89.155 92.6675 89.045C92.1775 88.945 91.7375 88.755 91.3475 88.475C91.0175 88.215 90.7625 87.91 90.5825 87.56C90.4125 87.21 90.2975 86.8 90.2375 86.33C90.1775 85.85 90.1475 85.3 90.1475 84.68V79.97C90.1475 79.6 90.1175 79.33 90.0575 79.16C90.0075 78.98 89.9025 78.86 89.7425 78.8C89.5925 78.73 89.3625 78.69 89.0525 78.68V78.38C89.3225 78.39 89.6825 78.4 90.1325 78.41C90.5825 78.42 91.0525 78.425 91.5425 78.425C92.0325 78.425 92.5025 78.42 92.9525 78.41C93.4025 78.4 93.7775 78.39 94.0775 78.38V78.68C93.7375 78.69 93.4775 78.73 93.2975 78.8C93.1275 78.86 93.0125 78.98 92.9525 79.16C92.8925 79.33 92.8625 79.6 92.8625 79.97V85.865C92.8625 86.355 92.8975 86.78 92.9675 87.14C93.0475 87.5 93.1625 87.795 93.3125 88.025C93.4725 88.255 93.6775 88.425 93.9275 88.535C94.1775 88.635 94.4775 88.685 94.8275 88.685C95.5175 88.685 96.0575 88.525 96.4475 88.205C96.8375 87.875 97.1125 87.415 97.2725 86.825C97.4325 86.235 97.5125 85.56 97.5125 84.8V81.08C97.5125 80.47 97.4825 80.005 97.4225 79.685C97.3625 79.355 97.2275 79.12 97.0175 78.98C96.8075 78.83 96.4775 78.73 96.0275 78.68V78.38C96.2175 78.39 96.4675 78.4 96.7775 78.41C97.0975 78.42 97.3975 78.425 97.6775 78.425C97.9075 78.425 98.1375 78.42 98.3675 78.41C98.6075 78.4 98.8025 78.39 98.9525 78.38ZM108.079 78.185C108.699 78.185 109.179 78.25 109.519 78.38C109.859 78.5 110.149 78.63 110.389 78.77C110.509 78.84 110.604 78.895 110.674 78.935C110.754 78.965 110.829 78.98 110.899 78.98C110.999 78.98 111.069 78.925 111.109 78.815C111.159 78.705 111.199 78.54 111.229 78.32H111.574C111.564 78.52 111.549 78.755 111.529 79.025C111.519 79.295 111.509 79.655 111.499 80.105C111.499 80.545 111.499 81.13 111.499 81.86H111.154C111.114 81.32 110.989 80.8 110.779 80.3C110.569 79.8 110.279 79.385 109.909 79.055C109.549 78.725 109.104 78.56 108.574 78.56C108.114 78.56 107.734 78.69 107.434 78.95C107.134 79.2 106.984 79.56 106.984 80.03C106.984 80.41 107.079 80.74 107.269 81.02C107.459 81.29 107.744 81.565 108.124 81.845C108.514 82.125 109.004 82.47 109.594 82.88C110.064 83.19 110.484 83.5 110.854 83.81C111.224 84.12 111.519 84.47 111.739 84.86C111.969 85.25 112.084 85.72 112.084 86.27C112.084 86.93 111.904 87.48 111.544 87.92C111.184 88.35 110.709 88.675 110.119 88.895C109.529 89.105 108.884 89.21 108.184 89.21C107.534 89.21 107.014 89.15 106.624 89.03C106.244 88.91 105.919 88.785 105.649 88.655C105.429 88.515 105.259 88.445 105.139 88.445C105.039 88.445 104.964 88.5 104.914 88.61C104.874 88.72 104.839 88.885 104.809 89.105H104.464C104.484 88.855 104.494 88.565 104.494 88.235C104.504 87.895 104.509 87.46 104.509 86.93C104.519 86.4 104.524 85.725 104.524 84.905H104.869C104.909 85.585 105.019 86.22 105.199 86.81C105.389 87.4 105.674 87.88 106.054 88.25C106.444 88.61 106.959 88.79 107.599 88.79C107.959 88.79 108.274 88.73 108.544 88.61C108.814 88.49 109.029 88.315 109.189 88.085C109.349 87.845 109.429 87.555 109.429 87.215C109.429 86.795 109.334 86.43 109.144 86.12C108.954 85.81 108.694 85.52 108.364 85.25C108.034 84.97 107.649 84.69 107.209 84.41C106.739 84.1 106.299 83.785 105.889 83.465C105.479 83.145 105.149 82.79 104.899 82.4C104.659 82 104.539 81.52 104.539 80.96C104.539 80.32 104.704 79.795 105.034 79.385C105.364 78.975 105.799 78.675 106.339 78.485C106.889 78.285 107.469 78.185 108.079 78.185ZM122.518 78.38V78.68C122.208 78.69 121.973 78.73 121.813 78.8C121.653 78.86 121.548 78.98 121.498 79.16C121.448 79.33 121.423 79.6 121.423 79.97V87.41C121.423 87.77 121.448 88.04 121.498 88.22C121.558 88.4 121.663 88.52 121.813 88.58C121.973 88.64 122.208 88.68 122.518 88.7V89C122.238 88.98 121.878 88.97 121.438 88.97C121.008 88.96 120.573 88.955 120.133 88.955C119.623 88.955 119.143 88.96 118.693 88.97C118.243 88.97 117.883 88.98 117.613 89V88.7C117.923 88.68 118.153 88.64 118.303 88.58C118.463 88.52 118.568 88.4 118.618 88.22C118.678 88.04 118.708 87.77 118.708 87.41V79.97C118.708 79.6 118.678 79.33 118.618 79.16C118.568 78.98 118.463 78.86 118.303 78.8C118.153 78.73 117.923 78.69 117.613 78.68V78.38C117.883 78.39 118.243 78.4 118.693 78.41C119.143 78.42 119.623 78.425 120.133 78.425C120.573 78.425 121.008 78.42 121.438 78.41C121.878 78.4 122.238 78.39 122.518 78.38ZM137.979 78.38V78.68C137.679 78.73 137.449 78.825 137.289 78.965C137.129 79.105 137.019 79.32 136.959 79.61C136.909 79.9 136.884 80.31 136.884 80.84V89.015C136.754 88.995 136.614 88.985 136.464 88.985C136.314 88.985 136.154 88.995 135.984 89.015L129.399 81.26V86.3C129.399 86.91 129.429 87.38 129.489 87.71C129.549 88.03 129.684 88.26 129.894 88.4C130.104 88.54 130.434 88.64 130.884 88.7V89C130.694 88.98 130.439 88.97 130.119 88.97C129.809 88.96 129.514 88.955 129.234 88.955C129.014 88.955 128.784 88.96 128.544 88.97C128.314 88.97 128.119 88.98 127.959 89V88.7C128.279 88.64 128.514 88.545 128.664 88.415C128.824 88.275 128.929 88.06 128.979 87.77C129.029 87.47 129.054 87.06 129.054 86.54V79.97C129.054 79.6 129.029 79.33 128.979 79.16C128.929 78.98 128.824 78.86 128.664 78.8C128.504 78.73 128.269 78.69 127.959 78.68V78.38C128.119 78.39 128.314 78.4 128.544 78.41C128.784 78.42 129.014 78.425 129.234 78.425C129.484 78.425 129.724 78.42 129.954 78.41C130.184 78.4 130.394 78.39 130.584 78.38L136.539 85.19V81.08C136.539 80.47 136.509 80.005 136.449 79.685C136.399 79.355 136.269 79.12 136.059 78.98C135.859 78.83 135.524 78.73 135.054 78.68V78.38C135.254 78.39 135.509 78.4 135.819 78.41C136.139 78.42 136.434 78.425 136.704 78.425C136.944 78.425 137.179 78.42 137.409 78.41C137.639 78.4 137.829 78.39 137.979 78.38ZM151.547 78.38C151.507 78.85 151.477 79.305 151.457 79.745C151.447 80.185 151.442 80.52 151.442 80.75C151.442 80.95 151.447 81.145 151.457 81.335C151.467 81.525 151.477 81.68 151.487 81.8H151.142C151.032 81.02 150.852 80.405 150.602 79.955C150.362 79.505 150.062 79.19 149.702 79.01C149.352 78.82 148.962 78.725 148.532 78.725H148.127C147.857 78.725 147.647 78.75 147.497 78.8C147.357 78.84 147.262 78.93 147.212 79.07C147.172 79.21 147.152 79.43 147.152 79.73V87.65C147.152 87.94 147.172 88.16 147.212 88.31C147.262 88.45 147.357 88.545 147.497 88.595C147.647 88.635 147.857 88.655 148.127 88.655H148.742C149.132 88.655 149.502 88.555 149.852 88.355C150.212 88.145 150.532 87.795 150.812 87.305C151.092 86.805 151.302 86.13 151.442 85.28H151.787C151.757 85.62 151.742 86.06 151.742 86.6C151.742 86.84 151.747 87.18 151.757 87.62C151.767 88.06 151.797 88.52 151.847 89C151.337 88.98 150.762 88.97 150.122 88.97C149.482 88.96 148.912 88.955 148.412 88.955C148.152 88.955 147.822 88.955 147.422 88.955C147.022 88.955 146.587 88.96 146.117 88.97C145.647 88.97 145.172 88.975 144.692 88.985C144.212 88.985 143.762 88.99 143.342 89V88.7C143.652 88.68 143.882 88.64 144.032 88.58C144.192 88.52 144.297 88.4 144.347 88.22C144.407 88.04 144.437 87.77 144.437 87.41V79.97C144.437 79.6 144.407 79.33 144.347 79.16C144.297 78.98 144.192 78.86 144.032 78.8C143.882 78.73 143.652 78.69 143.342 78.68V78.38C143.772 78.39 144.222 78.4 144.692 78.41C145.172 78.41 145.642 78.415 146.102 78.425C146.572 78.425 147.007 78.425 147.407 78.425C147.817 78.425 148.152 78.425 148.412 78.425C148.872 78.425 149.392 78.425 149.972 78.425C150.562 78.415 151.087 78.4 151.547 78.38ZM149.282 83.51C149.282 83.51 149.282 83.56 149.282 83.66C149.282 83.76 149.282 83.81 149.282 83.81H146.702C146.702 83.81 146.702 83.76 146.702 83.66C146.702 83.56 146.702 83.51 146.702 83.51H149.282ZM149.717 81.53C149.677 82.1 149.657 82.535 149.657 82.835C149.667 83.135 149.672 83.41 149.672 83.66C149.672 83.91 149.677 84.185 149.687 84.485C149.697 84.785 149.722 85.22 149.762 85.79H149.417C149.367 85.43 149.262 85.1 149.102 84.8C148.942 84.5 148.727 84.26 148.457 84.08C148.187 83.9 147.857 83.81 147.467 83.81V83.51C147.757 83.51 148.012 83.45 148.232 83.33C148.452 83.2 148.637 83.035 148.787 82.835C148.947 82.635 149.077 82.42 149.177 82.19C149.277 81.96 149.342 81.74 149.372 81.53H149.717ZM161.396 78.185C162.016 78.185 162.496 78.25 162.836 78.38C163.176 78.5 163.466 78.63 163.706 78.77C163.826 78.84 163.921 78.895 163.991 78.935C164.071 78.965 164.146 78.98 164.216 78.98C164.316 78.98 164.386 78.925 164.426 78.815C164.476 78.705 164.516 78.54 164.546 78.32H164.891C164.881 78.52 164.866 78.755 164.846 79.025C164.836 79.295 164.826 79.655 164.816 80.105C164.816 80.545 164.816 81.13 164.816 81.86H164.471C164.431 81.32 164.306 80.8 164.096 80.3C163.886 79.8 163.596 79.385 163.226 79.055C162.866 78.725 162.421 78.56 161.891 78.56C161.431 78.56 161.051 78.69 160.751 78.95C160.451 79.2 160.301 79.56 160.301 80.03C160.301 80.41 160.396 80.74 160.586 81.02C160.776 81.29 161.061 81.565 161.441 81.845C161.831 82.125 162.321 82.47 162.911 82.88C163.381 83.19 163.801 83.5 164.171 83.81C164.541 84.12 164.836 84.47 165.056 84.86C165.286 85.25 165.401 85.72 165.401 86.27C165.401 86.93 165.221 87.48 164.861 87.92C164.501 88.35 164.026 88.675 163.436 88.895C162.846 89.105 162.201 89.21 161.501 89.21C160.851 89.21 160.331 89.15 159.941 89.03C159.561 88.91 159.236 88.785 158.966 88.655C158.746 88.515 158.576 88.445 158.456 88.445C158.356 88.445 158.281 88.5 158.231 88.61C158.191 88.72 158.156 88.885 158.126 89.105H157.781C157.801 88.855 157.811 88.565 157.811 88.235C157.821 87.895 157.826 87.46 157.826 86.93C157.836 86.4 157.841 85.725 157.841 84.905H158.186C158.226 85.585 158.336 86.22 158.516 86.81C158.706 87.4 158.991 87.88 159.371 88.25C159.761 88.61 160.276 88.79 160.916 88.79C161.276 88.79 161.591 88.73 161.861 88.61C162.131 88.49 162.346 88.315 162.506 88.085C162.666 87.845 162.746 87.555 162.746 87.215C162.746 86.795 162.651 86.43 162.461 86.12C162.271 85.81 162.011 85.52 161.681 85.25C161.351 84.97 160.966 84.69 160.526 84.41C160.056 84.1 159.616 83.785 159.206 83.465C158.796 83.145 158.466 82.79 158.216 82.4C157.976 82 157.856 81.52 157.856 80.96C157.856 80.32 158.021 79.795 158.351 79.385C158.681 78.975 159.116 78.675 159.656 78.485C160.206 78.285 160.786 78.185 161.396 78.185ZM174.861 78.185C175.481 78.185 175.961 78.25 176.301 78.38C176.641 78.5 176.931 78.63 177.171 78.77C177.291 78.84 177.386 78.895 177.456 78.935C177.536 78.965 177.611 78.98 177.681 78.98C177.781 78.98 177.851 78.925 177.891 78.815C177.941 78.705 177.981 78.54 178.011 78.32H178.356C178.346 78.52 178.331 78.755 178.311 79.025C178.301 79.295 178.291 79.655 178.281 80.105C178.281 80.545 178.281 81.13 178.281 81.86H177.936C177.896 81.32 177.771 80.8 177.561 80.3C177.351 79.8 177.061 79.385 176.691 79.055C176.331 78.725 175.886 78.56 175.356 78.56C174.896 78.56 174.516 78.69 174.216 78.95C173.916 79.2 173.766 79.56 173.766 80.03C173.766 80.41 173.861 80.74 174.051 81.02C174.241 81.29 174.526 81.565 174.906 81.845C175.296 82.125 175.786 82.47 176.376 82.88C176.846 83.19 177.266 83.5 177.636 83.81C178.006 84.12 178.301 84.47 178.521 84.86C178.751 85.25 178.866 85.72 178.866 86.27C178.866 86.93 178.686 87.48 178.326 87.92C177.966 88.35 177.491 88.675 176.901 88.895C176.311 89.105 175.666 89.21 174.966 89.21C174.316 89.21 173.796 89.15 173.406 89.03C173.026 88.91 172.701 88.785 172.431 88.655C172.211 88.515 172.041 88.445 171.921 88.445C171.821 88.445 171.746 88.5 171.696 88.61C171.656 88.72 171.621 88.885 171.591 89.105H171.246C171.266 88.855 171.276 88.565 171.276 88.235C171.286 87.895 171.291 87.46 171.291 86.93C171.301 86.4 171.306 85.725 171.306 84.905H171.651C171.691 85.585 171.801 86.22 171.981 86.81C172.171 87.4 172.456 87.88 172.836 88.25C173.226 88.61 173.741 88.79 174.381 88.79C174.741 88.79 175.056 88.73 175.326 88.61C175.596 88.49 175.811 88.315 175.971 88.085C176.131 87.845 176.211 87.555 176.211 87.215C176.211 86.795 176.116 86.43 175.926 86.12C175.736 85.81 175.476 85.52 175.146 85.25C174.816 84.97 174.431 84.69 173.991 84.41C173.521 84.1 173.081 83.785 172.671 83.465C172.261 83.145 171.931 82.79 171.681 82.4C171.441 82 171.321 81.52 171.321 80.96C171.321 80.32 171.486 79.795 171.816 79.385C172.146 78.975 172.581 78.675 173.121 78.485C173.671 78.285 174.251 78.185 174.861 78.185Z" fill="#333C4B"/>
</svg>
