<svg width="31" height="23" viewBox="0 0 31 23" fill="none" xmlns="http://www.w3.org/2000/svg">
<path d="M0.573021 7.1957L6.63764 1.03166C7.03532 0.633978 7.63184 0.633978 8.02952 1.03166C8.4272 1.42934 8.4272 2.02586 8.02952 2.42354L3.35678 7.1957H19.6617C25.428 7.1957 30.2002 11.8684 30.2002 17.7342V21.3133C30.2002 21.9099 29.8025 22.3075 29.206 22.3075C28.6095 22.3075 28.2118 21.9099 28.2118 21.3133V17.7342C28.2118 13.0615 24.4338 9.1841 19.6617 9.1841H3.35678L8.02952 13.9563C8.4272 14.3539 8.4272 14.9505 8.02952 15.3481C7.83068 15.547 7.63184 15.6464 7.33358 15.6464C7.03532 15.6464 6.83648 15.547 6.63764 15.3481L0.573021 9.1841C0.0759202 8.687 0.0759202 7.79222 0.573021 7.1957V7.1957Z" fill="black"/>
</svg>
