<svg width="30" height="30" viewBox="0 0 30 30" fill="none" xmlns="http://www.w3.org/2000/svg">
<path d="M28.7997 6.41267C28.765 6.14153 28.6785 5.81265 28.4246 5.55883C28.1708 5.3108 27.8361 5.1953 27.5074 5.11459C26.8324 4.96459 26.1342 4.96459 25.3786 4.91261C25.2087 4.90177 25.0307 4.89726 24.8546 4.89106C24.8298 4.6819 24.8042 4.48119 24.777 4.29864C24.7271 4.05723 24.6575 3.81426 24.539 3.61876C24.4226 3.42016 24.2585 3.28452 24.1141 3.21762C23.8101 3.07902 23.6244 3.18071 23.6362 3.22846C23.6381 3.28889 23.7853 3.32086 23.9339 3.48256C24.0943 3.64383 24.1874 3.91511 24.1999 4.37583C24.1946 4.84388 24.1943 5.39671 24.2125 6.00575C24.2195 6.31266 24.1896 6.61141 24.0949 6.80621C24.0399 6.91255 23.9975 6.95692 23.9143 7.00875C23.8261 7.05776 23.7069 7.09298 23.5854 7.10213C23.3314 7.11946 23.133 7.01579 23.0968 6.9079C23.0223 6.76113 23.0378 6.44042 23.0693 6.139C23.1233 5.45644 23.0878 4.93881 23.1434 4.48091C23.1848 4.03413 23.2689 3.68609 23.3844 3.5127C23.4916 3.33354 23.6381 3.29396 23.6362 3.22846C23.65 3.18691 23.4437 3.0855 23.1583 3.28551C22.8824 3.48411 22.6955 3.89469 22.5704 4.3778C22.5292 4.52217 22.499 4.68218 22.4725 4.84754C20.431 4.82947 19.9578 4.87714 17.2612 4.8319C16.5265 4.83599 13.6106 4.852 12.8741 4.85416C12.2851 4.04371 11.8069 3.74764 11.781 3.78031C11.7306 3.82975 12.1312 4.2078 12.61 5.03445C13.0774 5.84786 13.5843 7.2058 13.3205 8.87333C13.2046 9.69617 12.864 10.5614 12.2993 11.3541C11.7297 12.1396 10.9289 12.8525 9.94262 13.3025C8.96287 13.7598 7.79677 13.8925 6.60644 13.7386C5.42147 13.5989 4.22959 13.1543 3.30012 12.3315C2.366 11.5182 1.80499 10.381 1.67301 9.21869C1.41966 7.18792 2.3118 4.91308 4.15339 3.50791C4.92962 2.92141 5.79796 2.58168 6.61222 2.42533C8.26693 2.13758 9.64698 2.58971 10.4814 3.02212C11.3346 3.45523 11.7323 3.83595 11.781 3.78031C11.8103 3.75496 11.4869 3.28861 10.6396 2.74351C9.8136 2.20448 8.36116 1.61206 6.52024 1.85038C5.61401 1.98419 4.63876 2.32547 3.75084 2.95648C1.66568 4.45242 0.603962 6.98119 0.871855 9.31306C0.966225 10.2358 1.31511 11.1652 1.87696 11.9646C1.84893 12.0698 1.82076 12.1739 1.79386 12.2915C1.5516 13.3473 1.2861 14.8934 1.21116 16.8377C1.16496 17.8011 1.18229 18.88 1.25159 19.9992C1.3092 21.1242 1.32075 22.3531 1.63231 23.6512C1.75344 24.1143 1.91133 24.6008 2.18402 25.0556C2.19965 25.1544 2.23346 25.2232 2.29008 25.2469C2.29797 25.2501 2.30811 25.2468 2.31656 25.2483C2.38994 25.354 2.46037 25.4606 2.54967 25.5607C3.07462 26.1088 3.68619 26.4839 4.35537 26.7896C5.68232 27.3781 7.14195 27.6493 8.61314 27.828C10.0901 28.0069 11.5209 28.0646 12.9054 28.1511C14.2957 28.2204 15.6458 28.2204 16.9266 28.1569C19.4881 28.03 21.7669 27.6722 23.6593 27.228C24.6112 26.9915 25.4535 26.6741 26.14 26.2876C26.8265 25.9012 27.3574 25.4627 27.7265 25.0531C28.1535 24.5742 28.3959 24.1762 28.517 23.9166C28.517 23.9166 28.5228 23.9107 28.5228 23.905C28.6092 23.8126 28.69 23.703 28.7535 23.5877C29.0477 23.0799 29.117 22.555 29.1688 22.0647C29.117 18.2107 29.1226 15.1761 29.0477 13.0357C29.0073 11.9685 28.9728 11.1434 28.9381 10.5838C28.9035 10.03 28.8746 9.73575 28.8457 9.73575C28.817 9.73575 28.7939 10.03 28.7708 10.5896C28.7535 11.1492 28.7362 11.9741 28.7246 13.0357C28.7074 15.1472 28.6035 18.2627 28.5919 22.0069C28.5401 22.4512 28.4535 22.9185 28.2343 23.2704C28.0381 23.6222 27.6227 23.8473 27.1785 24.0377C26.2669 24.4011 25.1939 24.5627 24.1034 24.7704C21.9227 25.1627 19.5574 25.3992 17.065 25.4107C15.8189 25.4223 14.5553 25.353 13.2401 25.2607C11.9247 25.1742 10.5977 25.0876 9.27077 24.8742C7.94959 24.6608 6.60545 24.3433 5.46879 23.6684C5.19188 23.5011 4.92074 23.2992 4.6958 23.0857C4.48227 22.8896 4.32086 22.6126 4.18226 22.3241C3.90535 21.7416 3.76112 21.0607 3.66886 20.3626C3.57083 19.6646 3.53618 18.955 3.49576 18.2454C3.45547 17.5127 3.39773 16.8204 3.38618 16.1222C3.36167 15.2277 3.39082 14.3438 3.44688 13.4691C4.38945 14.0851 5.46907 14.4261 6.50982 14.5393C7.8117 14.6989 9.1502 14.5351 10.2635 13.9899C11.3762 13.457 12.2505 12.6374 12.8595 11.7444C13.3428 11.025 13.6525 10.2527 13.806 9.50448C14.8084 9.66843 17.6622 9.78688 21.0323 9.78688C25.2374 9.78688 28.6463 9.60265 28.6463 9.37532C28.6463 9.14784 25.2374 8.96361 21.0323 8.96361C17.7071 8.96361 14.8875 9.07897 13.8497 9.23968C13.8646 9.14291 13.8885 9.04432 13.8978 8.94882C14.0587 7.54356 13.7166 6.37168 13.2899 5.53897C13.5361 5.53714 13.7826 5.53447 14.0246 5.52996C15.1382 5.50686 16.2169 5.48953 17.2554 5.46658C19.4671 5.46658 20.4313 5.42283 22.4011 5.37671C22.3751 5.6001 22.3499 5.8256 22.3168 6.04392C22.2806 6.35816 22.1748 6.72423 22.3551 7.22495C22.4525 7.48229 22.6883 7.69413 22.9178 7.79793C23.364 7.99764 23.9084 7.96141 24.3327 7.71272C24.5552 7.58398 24.7446 7.34876 24.8281 7.14227C25.0093 6.70536 24.9912 6.31985 24.9711 6.00477C24.9504 5.7818 24.9293 5.57052 24.9077 5.36502C25.0594 5.36573 25.2133 5.36502 25.3612 5.3684C26.1113 5.39728 26.8265 5.38573 27.4265 5.50108C27.7208 5.55883 27.9977 5.65109 28.1766 5.81842C28.3554 5.97998 28.4419 6.22224 28.4823 6.46464C28.5688 6.95494 28.5401 7.44538 28.6035 7.86075C28.6439 8.26457 28.6785 8.61078 28.7074 8.88769C28.7708 9.44152 28.817 9.73575 28.8457 9.73575C28.8746 9.72998 28.8804 9.43574 28.8746 8.87614C28.8631 8.59346 28.8573 8.24725 28.8457 7.83765C28.8112 7.43383 28.8688 6.97804 28.7997 6.41267V6.41267ZM2.68812 12.8842C2.65713 13.2221 2.62882 13.5608 2.61037 13.9024C2.52361 13.8877 2.42741 13.8862 2.3229 13.9072C2.12782 13.9472 1.9957 14.0479 1.90795 14.1585C1.96196 13.5227 2.03697 12.8529 2.11528 12.2809C2.2898 12.4952 2.48023 12.6976 2.68812 12.8842ZM2.06697 21.6948C2.01119 21.1328 1.98091 20.5776 1.94302 20.0383C2.14979 20.0391 2.4136 19.7888 2.65868 19.4795C2.68812 19.4411 2.71178 19.4032 2.73897 19.3649C2.76573 19.7315 2.80038 20.1012 2.84968 20.4722C2.85954 20.5432 2.87264 20.6142 2.88348 20.6852C2.65897 20.777 2.34219 21.1275 2.10317 21.6138C2.08965 21.6411 2.07951 21.6678 2.06697 21.6948V21.6948ZM2.59333 16.7895C2.62534 17.4792 2.67727 18.2672 2.68925 18.505C2.48473 18.5462 2.22289 18.6986 2.00908 18.9737C1.9557 19.042 1.91274 19.1113 1.87485 19.1803C1.82245 18.444 1.79668 17.7565 1.79119 17.1025C1.82076 17.1781 1.86626 17.2329 1.92795 17.2514C2.12909 17.3141 2.37741 17.0915 2.59333 16.7895V16.7895ZM1.87527 14.5804C2.03359 14.7299 2.27571 14.7507 2.48741 14.7138C2.51854 14.7066 2.54952 14.6945 2.58079 14.6844C2.57107 15.0509 2.56643 15.4185 2.57037 15.7877C2.24997 15.8639 1.90654 16.2031 1.7909 16.6476C1.79795 15.8966 1.82992 15.2058 1.87527 14.5804V14.5804ZM6.30164 24.9618C6.68405 25.1075 7.07068 25.2283 7.45887 25.3285C7.33675 25.5285 7.26294 25.9136 7.28168 26.3581C7.2883 26.5167 7.30604 26.6671 7.33224 26.8037C6.94293 26.7334 6.56292 26.6485 6.19037 26.5515C6.20769 26.3375 6.21854 26.0869 6.24023 25.8227C6.26037 25.5006 6.29263 25.2023 6.30164 24.9618ZM11.6203 27.2578C11.1827 27.2298 10.7415 27.1985 10.298 27.1639C10.3707 26.6078 10.2633 26.0944 10.0997 25.7986C10.6284 25.8607 11.1515 25.9068 11.6706 25.9457C11.5537 26.3287 11.5275 26.8498 11.6203 27.2578V27.2578ZM14.2966 27.3928C14.4259 27.2513 14.5207 26.9837 14.5503 26.6747C14.5696 26.4658 14.5553 26.2705 14.5139 26.1141C15.0865 26.1409 15.6526 26.1533 16.2164 26.1578C16.0816 26.5245 16.0098 27.044 16.0576 27.4046C15.4813 27.413 14.8953 27.4099 14.2966 27.3928V27.3928ZM18.8014 26.106C19.3702 26.0747 19.9295 26.0298 20.4823 25.9759C20.3486 26.356 20.3096 26.8017 20.356 27.1435C19.8629 27.1992 19.3541 27.248 18.831 27.2884C18.8611 27.1825 18.8852 27.0666 18.9013 26.9446C18.9452 26.592 18.9158 26.2693 18.8014 26.106ZM22.4858 26.8474C22.0365 26.9215 21.5698 26.9911 21.0846 27.0543C21.203 26.6572 21.2235 26.2222 21.1632 25.9027C21.6343 25.8488 22.1038 25.7927 22.5613 25.7242C22.3604 26.0453 22.3318 26.5113 22.4858 26.8474V26.8474ZM27.4208 24.6262C27.6054 24.5453 27.7901 24.4531 27.9747 24.3493C27.842 24.4935 27.6863 24.6549 27.5016 24.828C27.024 25.2766 26.3124 25.7409 25.3915 26.1147C25.4614 26.0005 25.5214 25.8634 25.5603 25.708C25.6081 25.509 25.6179 25.3166 25.5881 25.1623C26.2144 25.0276 26.83 24.8713 27.4208 24.6262V24.6262ZM24.8257 25.3201C24.8004 25.38 24.7774 25.4431 24.7607 25.512C24.6756 25.8574 24.7483 26.1648 24.8842 26.302C24.4681 26.4437 24.0185 26.5672 23.5323 26.6626C23.4034 26.6874 23.2681 26.7109 23.1355 26.735C23.1723 26.6127 23.2006 26.4778 23.2124 26.3302C23.2313 26.0502 23.1999 25.791 23.1078 25.6307C24.1933 25.4521 23.8859 25.5049 24.8257 25.3201V25.3201ZM17.0766 26.1665C17.5202 26.1614 17.9548 26.1399 18.3904 26.1205C18.1539 26.3634 18.0052 26.8738 18.101 27.3374C17.7042 27.3614 17.3028 27.3821 16.8919 27.3953C16.8358 27.3974 16.776 27.3954 16.7196 27.3973C16.8925 27.0408 16.9661 26.5623 16.8936 26.1647C16.954 26.164 17.0164 26.1676 17.0766 26.1665V26.1665ZM13.8747 26.081C13.8033 26.2202 13.7492 26.3969 13.7305 26.5977C13.6987 26.9329 13.774 27.2225 13.8947 27.3781C13.578 27.3661 13.268 27.3625 12.9458 27.3435C12.7234 27.3285 12.4972 27.3144 12.272 27.3001C12.4047 26.9019 12.4251 26.3812 12.3481 25.9943C12.6296 26.0123 12.9105 26.0295 13.1881 26.0454C13.4175 26.0606 13.6454 26.0679 13.8747 26.081V26.081ZM9.63318 25.7361C9.53233 25.95 9.48697 26.3329 9.49782 26.7646C9.5012 26.8802 9.50965 26.9905 9.5205 27.0968C8.6068 27.0109 8.61764 27.0034 8.06889 26.9242C8.16174 26.3822 8.07682 25.7727 7.91522 25.4378C8.32679 25.5293 8.73793 25.6054 9.14386 25.6704C9.30767 25.6958 9.47007 25.7141 9.63318 25.7361V25.7361ZM5.04201 24.3664C5.27371 24.5022 5.50992 24.6194 5.74796 24.729C5.48088 25.1322 5.34616 25.7409 5.44611 26.3338C4.92365 26.1593 4.62124 26.0437 4.17719 25.7985C4.30663 25.5679 4.41734 25.1662 4.49354 24.7084C4.53228 24.4693 4.5558 24.2436 4.56397 24.0431C4.7189 24.1597 4.87806 24.267 5.04201 24.3664ZM4.03155 23.575C3.74125 24.0317 3.56854 24.8291 3.66281 25.4728C3.46871 25.334 3.28589 25.1879 3.13236 25.03C3.04335 24.9358 2.96532 24.8303 2.89278 24.7198C3.00926 24.5343 3.12546 24.3132 3.22899 24.0649C3.43407 23.573 3.53562 23.116 3.52083 22.8361C3.65675 23.0964 3.81802 23.3512 4.03155 23.575V23.575ZM3.39336 22.5653C3.17941 22.5044 2.77151 23.023 2.4691 23.748C2.46586 23.7557 2.46347 23.7633 2.46023 23.7711C2.42727 23.6698 2.39374 23.5682 2.36501 23.4666C2.31135 23.2601 2.27458 23.0526 2.23571 22.8451C2.42698 22.6853 2.64981 22.3661 2.84179 21.9775C2.92207 21.814 2.98827 21.6544 3.04011 21.5047C3.12574 21.8626 3.24011 22.2169 3.39336 22.5653V22.5653Z" fill="#333C4B"/>
<path d="M10.2065 6.04199C10.162 6.08918 10.3872 6.32299 10.655 6.8054C10.9171 7.28007 11.1947 8.05982 11.0106 8.99746C10.8525 9.9082 10.1265 10.9306 8.98366 11.3904C8.42377 11.62 7.76629 11.6811 7.0857 11.5911C6.41116 11.5068 5.73917 11.2659 5.21154 10.8206C4.68251 10.3806 4.36052 9.76678 4.28672 9.12394C4.20516 8.47983 4.35066 7.83051 4.62574 7.28387C5.1759 6.16341 6.23609 5.53662 7.16288 5.37986C8.10588 5.21633 8.90281 5.44648 9.40114 5.66959C9.9089 5.89283 10.1631 6.09214 10.2065 6.04199C10.2393 6.00932 10.0571 5.72254 9.55452 5.38831C9.0631 5.05858 8.19926 4.69391 7.08302 4.80321C5.9903 4.90237 4.66138 5.59479 3.95375 6.93203C3.59951 7.58529 3.39415 8.3856 3.48556 9.21648C3.56387 10.0461 3.99797 10.8887 4.68236 11.4512C5.36084 12.0235 6.20017 12.3052 6.98893 12.3918C7.77488 12.4853 8.58589 12.3987 9.27874 12.0891C10.6665 11.4781 11.4714 10.2014 11.5863 9.08464C11.7224 7.96038 11.2928 7.08626 10.9219 6.62807C10.5405 6.15636 10.2367 6.00537 10.2065 6.04199V6.04199Z" fill="#333C4B"/>
<path d="M25.9869 19.1786C25.7211 19.006 25.3894 18.8917 25.0267 18.8657C24.8448 18.8473 24.6559 18.8771 24.4687 18.9128C24.2973 18.9702 24.1222 19.0142 23.9528 19.1183C23.6136 19.2993 23.312 19.6256 23.2006 20.0144C23.0837 20.4007 23.1485 20.7972 23.3012 21.1027C23.6122 21.7344 24.2318 21.9922 24.6842 22.0355C24.9272 22.0485 25.1135 22.0386 25.2773 22.0123C25.4456 21.9892 25.5952 21.953 25.7123 21.9048C25.9499 21.8084 26.0386 21.6824 26.0113 21.6371C25.9826 21.5847 25.8572 21.6016 25.652 21.59C25.4496 21.5806 25.2307 21.5459 25.0276 21.5167C24.9517 21.4995 24.8714 21.4814 24.7872 21.4626C24.4714 21.3678 24.1242 21.1438 23.9908 20.7866C23.8514 20.4316 23.9546 20.0472 24.3532 19.8377C25.1755 19.3314 26.2076 20.0749 26.3312 20.6375C26.4243 20.9168 26.3113 21.1574 26.1916 21.3196C26.0704 21.4781 25.982 21.5837 26.0113 21.6371C26.0344 21.6829 26.1745 21.6791 26.403 21.5605C26.6182 21.4564 26.9644 21.0871 26.907 20.551C26.866 20.0306 26.5186 19.5177 25.9869 19.1786V19.1786Z" fill="#333C4B"/>
<path d="M25.9869 14.9168C25.7211 14.7442 25.3894 14.6299 25.0267 14.604C24.8448 14.5856 24.6559 14.6154 24.4687 14.6509C24.2973 14.7085 24.1222 14.7523 23.9528 14.8566C23.6136 15.0374 23.312 15.3639 23.2006 15.7525C23.0837 16.139 23.1485 16.5355 23.3012 16.841C23.6122 17.4726 24.2318 17.7305 24.6842 17.7739C24.9272 17.7868 25.1135 17.7768 25.2773 17.7505C25.4456 17.7275 25.5952 17.6913 25.7123 17.6431C25.9499 17.5465 26.0386 17.4207 26.0113 17.3754C25.9826 17.323 25.8572 17.3399 25.652 17.3283C25.4486 17.3189 25.2323 17.2841 25.0276 17.255C24.9517 17.2378 24.8714 17.2197 24.7872 17.2007C24.4714 17.1059 24.1242 16.8821 23.9908 16.5249C23.8514 16.1699 23.9546 15.7853 24.3532 15.5759C25.1755 15.0697 26.2076 15.8131 26.3312 16.3756C26.4243 16.6549 26.3113 16.8957 26.1916 17.0579C26.0704 17.2164 25.982 17.322 26.0113 17.3754C26.0344 17.4212 26.1745 17.4172 26.403 17.2988C26.6182 17.1947 26.9644 16.8254 26.907 16.2893C26.866 15.7688 26.5186 15.256 25.9869 14.9168V14.9168Z" fill="#333C4B"/>
<path d="M25.9869 10.6552C25.7211 10.4827 25.3894 10.3685 25.0267 10.3425C24.8448 10.3241 24.6559 10.354 24.4687 10.3894C24.2973 10.4469 24.1222 10.4909 23.9528 10.5951C23.6136 10.7759 23.312 11.1023 23.2006 11.491C23.0837 11.8775 23.1485 12.274 23.3012 12.5795C23.6122 13.2111 24.2318 13.469 24.6842 13.5124C24.9272 13.5253 25.1135 13.5153 25.2773 13.489C25.4456 13.466 25.5952 13.4297 25.7123 13.3815C25.9499 13.285 26.0386 13.1593 26.0113 13.1139C25.9826 13.0615 25.8572 13.0783 25.652 13.0669C25.4478 13.0571 25.2345 13.0231 25.0276 12.9933C24.9517 12.9763 24.8714 12.9583 24.7872 12.9393C24.4714 12.8445 24.1242 12.6205 23.9908 12.2635C23.8514 11.9084 23.9546 11.5239 24.3532 11.3144C25.1755 10.8081 26.2076 11.5516 26.3312 12.1142C26.4243 12.3935 26.3113 12.634 26.1916 12.7963C26.0704 12.9548 25.982 13.0605 26.0113 13.1139C26.0344 13.1597 26.1745 13.1557 26.403 13.0372C26.6182 12.9332 26.9644 12.5639 26.907 12.0278C26.866 11.5074 26.5186 10.9944 25.9869 10.6552V10.6552Z" fill="#333C4B"/>
<path d="M20.0465 19.1786C19.7807 19.006 19.449 18.8917 19.0863 18.8657C18.9043 18.8473 18.7155 18.8771 18.5283 18.9128C18.3569 18.9702 18.1818 19.0142 18.0125 19.1183C17.6733 19.2993 17.3716 19.6256 17.2602 20.0144C17.1433 20.4007 17.2081 20.7972 17.3608 21.1027C17.6718 21.7344 18.2914 21.9922 18.7439 22.0355C18.9867 22.0485 19.1732 22.0386 19.3369 22.0123C19.5054 21.9892 19.6548 21.953 19.7718 21.9048C20.0095 21.8084 20.0982 21.6824 20.0709 21.6371C20.0421 21.5847 19.9168 21.6016 19.7117 21.59C19.509 21.5806 19.2905 21.5459 19.0873 21.5167C19.0112 21.4995 18.931 21.4814 18.8467 21.4626C18.531 21.3678 18.1838 21.1438 18.0504 20.7866C17.9111 20.4316 18.0142 20.0472 18.4129 19.8377C19.2351 19.3314 20.2672 20.0749 20.3907 20.6375C20.4838 20.9168 20.3709 21.1574 20.2513 21.3196C20.13 21.4781 20.0416 21.5837 20.0709 21.6371C20.0941 21.6829 20.2341 21.6791 20.4627 21.5605C20.6778 21.4564 21.024 21.0871 20.9665 20.551C20.9255 20.0306 20.5782 19.5177 20.0465 19.1786V19.1786Z" fill="#333C4B"/>
<path d="M20.0465 14.9168C19.7807 14.7442 19.449 14.6299 19.0863 14.604C18.9043 14.5856 18.7155 14.6154 18.5283 14.6509C18.3569 14.7085 18.1818 14.7523 18.0125 14.8566C17.6733 15.0374 17.3716 15.3639 17.2602 15.7525C17.1433 16.139 17.2081 16.5355 17.3608 16.841C17.6718 17.4726 18.2914 17.7305 18.7439 17.7739C18.9867 17.7868 19.1732 17.7768 19.3369 17.7505C19.5054 17.7275 19.6548 17.6913 19.7718 17.6431C20.0095 17.5465 20.0982 17.4207 20.0709 17.3754C20.0421 17.323 19.9168 17.3399 19.7117 17.3283C19.5081 17.3189 19.2932 17.2843 19.0873 17.255C19.0112 17.2378 18.931 17.2197 18.8467 17.2007C18.531 17.1059 18.1838 16.8821 18.0504 16.5249C17.9111 16.1699 18.0142 15.7853 18.4129 15.5759C19.2351 15.0697 20.2672 15.8131 20.3907 16.3756C20.4838 16.6549 20.3709 16.8957 20.2513 17.0579C20.13 17.2164 20.0416 17.322 20.0709 17.3754C20.0941 17.4212 20.2341 17.4172 20.4627 17.2988C20.6778 17.1947 21.024 16.8254 20.9665 16.2893C20.9255 15.7688 20.5782 15.256 20.0465 14.9168V14.9168Z" fill="#333C4B"/>
<path d="M14.3566 19.1786C14.0908 19.006 13.7592 18.8917 13.3965 18.8657C13.2145 18.8473 13.0257 18.8771 12.8385 18.9128C12.6671 18.9702 12.4918 19.0142 12.3225 19.1183C11.9834 19.2993 11.6817 19.6256 11.5703 20.0144C11.4534 20.4007 11.5181 20.7972 11.6708 21.1027C11.9818 21.7344 12.6014 21.9922 13.054 22.0355C13.2969 22.0485 13.4833 22.0386 13.647 22.0123C13.8154 21.9892 13.965 21.953 14.0819 21.9048C14.3195 21.8084 14.4082 21.6824 14.3809 21.6371C14.3523 21.5847 14.227 21.6016 14.0218 21.59C13.819 21.5806 13.6005 21.5459 13.3974 21.5167C13.3213 21.4995 13.241 21.4814 13.1568 21.4626C12.841 21.3678 12.4938 21.1438 12.3604 20.7866C12.2211 20.4316 12.3244 20.0472 12.723 19.8377C13.5451 19.3314 14.5773 20.0749 14.7009 20.6375C14.7939 20.9168 14.6809 21.1574 14.5613 21.3196C14.4401 21.4781 14.3516 21.5837 14.3809 21.6371C14.4042 21.6829 14.5443 21.6791 14.7728 21.5605C14.9878 21.4564 15.334 21.0871 15.2766 20.551C15.2357 20.0306 14.8884 19.5177 14.3566 19.1786V19.1786Z" fill="#333C4B"/>
<path d="M14.3566 14.9168C14.0908 14.7442 13.7592 14.6299 13.3965 14.604C13.2145 14.5856 13.0257 14.6154 12.8385 14.6509C12.6671 14.7085 12.4918 14.7523 12.3225 14.8566C11.9834 15.0374 11.6817 15.3639 11.5703 15.7525C11.4534 16.139 11.5181 16.5355 11.6708 16.841C11.9818 17.4726 12.6014 17.7305 13.054 17.7739C13.2969 17.7868 13.4833 17.7768 13.647 17.7505C13.8154 17.7275 13.965 17.6913 14.0819 17.6431C14.3195 17.5465 14.4082 17.4207 14.3809 17.3754C14.3523 17.323 14.227 17.3399 14.0218 17.3283C13.8181 17.3189 13.6033 17.2843 13.3974 17.255C13.3213 17.2378 13.241 17.2197 13.1568 17.2007C12.841 17.1059 12.4938 16.8821 12.3604 16.5249C12.2211 16.1699 12.3244 15.7853 12.723 15.5759C13.5451 15.0697 14.5773 15.8131 14.7009 16.3756C14.7939 16.6549 14.6809 16.8957 14.5613 17.0579C14.4401 17.2164 14.3516 17.322 14.3809 17.3754C14.4042 17.4212 14.5443 17.4172 14.7728 17.2988C14.9878 17.1947 15.334 16.8254 15.2766 16.2893C15.2357 15.7688 14.8884 15.256 14.3566 14.9168V14.9168Z" fill="#333C4B"/>
<path d="M9.25304 19.1786C8.98726 19.006 8.65556 18.8917 8.29287 18.8657C8.11089 18.8473 7.92201 18.8771 7.73482 18.9128C7.5634 18.9702 7.38833 19.0142 7.21888 19.1183C6.87972 19.2993 6.57816 19.6256 6.46674 20.0144C6.34984 20.4007 6.41463 20.7972 6.56731 21.1027C6.87831 21.7344 7.49791 21.9922 7.95046 22.0355C8.19329 22.0485 8.37963 22.0386 8.54344 22.0123C8.7119 21.9892 8.86134 21.953 8.97838 21.9048C9.216 21.8084 9.30473 21.6824 9.27741 21.6371C9.24868 21.5847 9.12332 21.6016 8.9181 21.59C8.71567 21.5806 8.49684 21.5459 8.29371 21.5167C8.21779 21.4995 8.13751 21.4814 8.05328 21.4626C7.73749 21.3678 7.3903 21.1438 7.25691 20.7866C7.11747 20.4316 7.22072 20.0472 7.61932 19.8377C8.4416 19.3314 9.47375 20.0749 9.59728 20.6375C9.69038 20.9168 9.57742 21.1574 9.4577 21.3196C9.33657 21.4781 9.24811 21.5837 9.27741 21.6371C9.30051 21.6829 9.44065 21.6791 9.66911 21.5605C9.88433 21.4564 10.2305 21.0871 10.1731 20.551C10.1321 20.0306 9.78475 19.5177 9.25304 19.1786V19.1786Z" fill="#333C4B"/>
<path d="M9.25304 14.9168C8.98726 14.7442 8.65556 14.6299 8.29287 14.604C8.11089 14.5856 7.92201 14.6154 7.73482 14.6509C7.5634 14.7085 7.38833 14.7523 7.21888 14.8566C6.87972 15.0374 6.57816 15.3639 6.46674 15.7525C6.34984 16.139 6.41463 16.5355 6.56731 16.841C6.87831 17.4726 7.49791 17.7305 7.95046 17.7739C8.19329 17.7868 8.37963 17.7768 8.54344 17.7505C8.7119 17.7275 8.86134 17.6913 8.97838 17.6431C9.216 17.5465 9.30473 17.4207 9.27741 17.3754C9.24868 17.323 9.12332 17.3399 8.9181 17.3283C8.71475 17.3189 8.49846 17.2841 8.29371 17.255C8.21779 17.2378 8.13751 17.2197 8.05328 17.2007C7.73749 17.1059 7.3903 16.8821 7.25691 16.5249C7.11747 16.1699 7.22072 15.7853 7.61932 15.5759C8.4416 15.0697 9.47375 15.8131 9.59728 16.3756C9.69038 16.6549 9.57742 16.8957 9.4577 17.0579C9.33657 17.2164 9.24811 17.322 9.27741 17.3754C9.30051 17.4212 9.44065 17.4172 9.66911 17.2988C9.88433 17.1947 10.2305 16.8254 10.1731 16.2893C10.1321 15.7688 9.78475 15.256 9.25304 14.9168V14.9168Z" fill="#333C4B"/>
<path d="M20.0465 10.6552C19.7807 10.4827 19.449 10.3685 19.0863 10.3425C18.9043 10.3241 18.7155 10.354 18.5283 10.3894C18.3569 10.4469 18.1818 10.4909 18.0125 10.5951C17.6733 10.7759 17.3716 11.1023 17.2602 11.491C17.1433 11.8775 17.2081 12.274 17.3608 12.5795C17.6718 13.2111 18.2914 13.469 18.7439 13.5124C18.9867 13.5253 19.1732 13.5153 19.3369 13.489C19.5054 13.466 19.6548 13.4297 19.7718 13.3815C20.0095 13.285 20.0982 13.1593 20.0709 13.1139C20.0421 13.0615 19.9168 13.0783 19.7117 13.0669C19.5066 13.0571 19.2922 13.0228 19.0873 12.9933C19.0112 12.9763 18.931 12.9583 18.8467 12.9393C18.531 12.8445 18.1838 12.6205 18.0504 12.2635C17.9111 11.9084 18.0142 11.5239 18.4129 11.3144C19.2351 10.8081 20.2672 11.5516 20.3907 12.1142C20.4838 12.3935 20.3709 12.634 20.2513 12.7963C20.13 12.9548 20.0416 13.0605 20.0709 13.1139C20.0941 13.1597 20.2341 13.1557 20.4627 13.0372C20.6778 12.9332 21.024 12.5639 20.9665 12.0278C20.9255 11.5074 20.5782 10.9944 20.0465 10.6552V10.6552Z" fill="#333C4B"/>
<path d="M7.24115 8.77856C7.18327 8.84518 7.12636 8.91053 7.07058 8.97448C7.03608 9.01617 7.06058 8.9973 7.04903 9.01392C7.0427 9.03307 7.01706 9.048 6.9941 9.038L6.97396 9.03082L6.90959 8.96476C6.86663 8.91941 6.82551 8.87588 6.78621 8.83433C6.47352 8.49812 6.27182 8.26502 6.1652 8.31206C6.06407 8.35516 6.07985 8.68616 6.30211 9.15773C6.33 9.21632 6.36126 9.27674 6.39591 9.33858L6.45211 9.43464L6.56282 9.58986C6.71367 9.79592 7.01537 9.89127 7.28524 9.76845C7.41257 9.72014 7.56539 9.59394 7.64413 9.51239C7.84526 9.31557 7.82938 9.33078 8.19964 8.96701C9.22151 7.95782 10.0863 7.14737 9.95604 6.95666C9.8328 6.77017 8.70557 7.31202 7.62258 8.37995C7.48736 8.51193 7.3606 8.6463 7.24115 8.77856V8.77856Z" fill="#333C4B"/>
</svg>
