<svg width="50" height="88" viewBox="0 0 50 88" fill="none" xmlns="http://www.w3.org/2000/svg">
<path d="M49.3139 60.7481L47.933 59.367C47.0178 58.4518 45.5338 58.4518 44.6184 59.367L28.3207 75.7592V2.34375C28.3207 1.04941 27.2713 0 25.977 0H24.0238C22.7295 0 21.6801 1.04941 21.6801 2.34375V75.7592L5.38242 59.367C4.46719 58.4518 2.9832 58.4518 2.06777 59.367L0.686914 60.7481C-0.22832 61.6633 -0.22832 63.1473 0.686914 64.0625L23.3432 86.8135C24.2584 87.7287 25.7424 87.7287 26.6578 86.8135L49.3141 64.0625C50.2293 63.1473 50.2293 61.6633 49.3139 60.7481V60.7481Z" fill="#333C4B"/>
</svg>
