<svg width="30" height="30" viewBox="0 0 30 30" fill="none" xmlns="http://www.w3.org/2000/svg">
<path d="M28.1753 3.97787C26.901 2.16563 24.8778 0.757062 22.48 0.0113231C22.3885 -0.0175103 22.2886 0.00986456 22.2229 0.0804332C21.4065 0.967422 20.45 2.0071 19.4268 3.11881C18.8893 3.10142 19.3204 3.10939 12.9986 3.07999C12.9956 3.07999 12.9931 3.07999 12.9897 3.07999C10.8169 3.07001 8.64323 3.05913 6.47198 3.05116C5.87085 3.04667 5.1793 3.04723 4.51502 3.20228C4.47126 3.18635 4.42257 3.18691 4.38723 3.22214L4.36984 3.23953C3.93476 3.35789 3.71453 3.47368 3.45604 3.63725C3.38491 3.66911 3.42922 3.64275 3.4088 3.67158C2.22395 4.45962 1.6254 6.10536 1.81332 8.12594C1.96299 9.7378 2.44968 21.7162 2.5134 25.9319C2.55861 28.484 3.31838 30 7.18002 30C7.21783 30 7.25508 30 7.29289 29.9995C11.1093 29.9797 14.9501 29.6047 18.7089 28.8864C18.7526 28.878 18.7929 28.858 18.8257 28.8292C20.9034 27.01 23.1463 25.1315 25.1897 23.3402C25.2429 23.2934 25.2742 23.2263 25.2748 23.1552C25.3106 18.8351 25.2822 14.5681 25.1903 10.4748C25.1749 9.66981 25.152 8.94045 25.0576 8.21311C26.5357 6.50824 27.7007 5.06736 28.1864 4.24847C28.2354 4.16332 28.2315 4.05842 28.1753 3.97787V3.97787ZM24.8446 7.69489C24.1505 8.4983 23.3317 9.41917 22.6595 10.1655C22.6043 10.2266 22.5491 10.2878 22.4939 10.3489C22.4591 10.2902 22.2483 10.0874 22.198 10.0367L22.9165 9.3182L23.0175 9.41917C23.0657 9.46741 23.1443 9.46786 23.1929 9.41917C23.2416 9.37048 23.2416 9.29195 23.1929 9.2437L23.092 9.14273L23.3923 8.84295C23.441 8.79426 23.441 8.71573 23.3923 8.66693C23.3436 8.61823 23.265 8.61823 23.2163 8.66693L22.9159 8.9667L21.9533 8.0041C21.9046 7.9554 21.8261 7.9554 21.7773 8.0041C21.7286 8.05279 21.7286 8.13132 21.7773 8.18012L22.1815 8.58435L21.4631 9.30182L21.1036 8.94236C21.0549 8.89366 20.9764 8.89366 20.9276 8.94236C20.8789 8.99105 20.8789 9.06958 20.9276 9.11782L21.287 9.47729L20.3896 10.3747L19.7174 9.70246C19.6687 9.65377 19.59 9.65377 19.5413 9.70246C19.4926 9.75115 19.4926 9.82968 19.5413 9.87849L20.2136 10.5507L19.8546 10.9098C19.8347 10.9292 19.8288 10.9555 19.8253 10.9809L19.7139 10.8695C19.6881 10.8028 19.6393 10.7541 19.5726 10.7282C19.5328 10.6884 16.3986 7.54624 16.3494 7.51931L16.153 7.4124C16.7596 6.75316 19.5215 3.74956 20.1604 3.05554C20.3559 3.18142 24.6805 7.53087 24.8446 7.69489V7.69489ZM24.3603 9.85773H23.6618V9.80455C23.6618 9.80253 23.6598 9.80107 23.6598 9.79905C23.898 9.53204 24.1321 9.26805 24.3609 9.00855V9.85773H24.3603ZM22.9752 10.7163C22.9065 10.7163 22.8509 10.772 22.8509 10.8406V11.0122H22.5689C22.8454 10.7074 23.1183 10.4047 23.3864 10.1053C23.3874 10.1053 23.3884 10.1063 23.3894 10.1063H23.4133V11.0122H23.0996V10.8406C23.0995 10.7715 23.0437 10.7163 22.9752 10.7163V10.7163ZM22.8509 11.9892H22.2702V11.6988C22.2702 11.6301 22.2145 11.5745 22.1459 11.5745C22.0772 11.5745 22.0215 11.6301 22.0215 11.6988V11.9887H21.6795C21.9057 11.7411 22.1304 11.4945 22.3542 11.2483C22.3646 11.2514 22.3716 11.2602 22.383 11.2602H22.8509V11.9892ZM16.0807 7.93902L16.7722 8.63058C16.7638 8.63708 16.7534 8.64056 16.7458 8.64796L9.75483 15.6385C9.69862 15.6545 9.6589 15.6947 9.63153 15.7454C9.62659 15.7469 9.62154 15.7465 9.61705 15.7485C9.21384 15.918 8.76193 15.9767 8.32483 15.925C9.22674 14.9445 12.4247 11.4657 15.8066 7.79037L16.0807 7.93902ZM20.5837 12.4426C17.3604 15.9419 14.0883 19.3492 13.0736 20.4016C12.6569 19.6379 12.4943 18.9041 12.5763 18.1697C12.6156 18.1588 12.6534 18.1409 12.6847 18.11L19.4679 11.3268L20.5837 12.4426ZM22.7405 9.14228L22.022 9.86076L21.6392 9.47796L22.3577 8.75948L22.7405 9.14228ZM21.8461 10.0367L21.1963 10.6865C21.1476 10.7352 21.1476 10.8137 21.1963 10.8625C21.2445 10.9108 21.323 10.9112 21.3723 10.8625L22.0221 10.2127C22.0753 10.2659 22.2832 10.4847 22.3458 10.5135C22.3278 10.5333 22.3104 10.5528 22.2926 10.5726C22.0217 10.8719 21.7526 11.1678 21.4802 11.4656L20.5659 10.5512L21.4633 9.6532L21.8461 10.0367ZM21.312 11.6485C21.1818 11.7912 21.0515 11.9334 20.9203 12.0761L19.9597 11.1151C19.985 11.1116 20.0114 11.1051 20.0308 11.0858L20.3898 10.7268L21.312 11.6485ZM7.78395 22.7166C7.75265 22.7017 7.72628 22.6783 7.69543 22.6624L8.16473 22.1931L8.45811 22.4865L7.82614 22.748C7.81234 22.7375 7.80033 22.7246 7.78395 22.7166V22.7166ZM8.79076 21.5671L9.34409 22.1204L8.70673 22.384L8.34031 22.0175L8.79076 21.5671ZM10.3003 21.7252L9.93041 21.8783L10.1919 21.6168L10.3003 21.7252ZM10.3674 21.4408L10.8342 20.9739L11.2096 21.3493L10.5488 21.6223L10.3674 21.4408ZM12.2696 17.8848C12.2537 17.8888 12.2373 17.8863 12.2224 17.8938C11.4646 18.2627 10.3654 16.9352 10.0203 16.0691C10.0272 16.0636 10.0362 16.0607 10.0421 16.0542L17.0973 9.00002C17.1053 8.99206 17.1083 8.98207 17.1147 8.97366L19.1165 10.9754C19.0269 11.0649 12.295 17.7611 12.2696 17.8848V17.8848ZM8.0375 16.3759C8.54315 16.4758 9.07663 16.4524 9.56735 16.2957C9.94129 17.2056 11.0156 18.5461 12.0588 18.4456C12.0394 19.2028 12.2602 19.957 12.7012 20.7322L11.8968 21.0648L12.0837 20.8779C12.1324 20.8292 12.1324 20.7507 12.0837 20.7019C12.0728 20.691 12.0569 20.6914 12.0434 20.6855C12.0499 20.681 12.0588 20.6824 12.0649 20.6765C12.1135 20.6278 12.1135 20.5493 12.0649 20.501L11.5378 19.9735L12.0106 19.5007C12.0592 19.452 12.0592 19.3735 12.0106 19.3253C11.9619 19.2766 11.8833 19.2766 11.8345 19.3253L11.3389 19.8209C11.3035 19.8179 11.2683 19.8259 11.2409 19.8532C11.2141 19.8801 11.2056 19.9158 11.2086 19.9512L11.0426 20.1172C10.9939 20.1659 10.9939 20.2445 11.0426 20.2933C11.0669 20.3176 11.0982 20.3296 11.1305 20.3296C11.1624 20.3296 11.1941 20.3177 11.2185 20.2933L11.3616 20.1501L11.8887 20.6776C11.8996 20.6885 11.9155 20.6881 11.929 20.6946C11.9225 20.6991 11.9136 20.6976 11.9076 20.7035L11.4109 21.2002L11.0097 20.799L11.1031 20.7056C11.2185 20.5902 11.044 20.4132 10.9271 20.5295L10.8337 20.623L10.691 20.4803C10.6423 20.4316 10.5637 20.4316 10.5149 20.4803C10.4661 20.529 10.4662 20.6075 10.5149 20.6563L10.6576 20.799L10.1918 21.2648L9.76874 20.8418C9.72005 20.7931 9.64151 20.7931 9.59327 20.8418C9.54458 20.8905 9.54458 20.9691 9.59327 21.0178L10.0163 21.4409L9.5604 21.8963C9.54301 21.9136 9.53953 21.9365 9.53459 21.9589L8.96679 21.3911L9.90943 20.4484C9.95812 20.3997 9.95812 20.3211 9.90943 20.2724C9.86074 20.2237 9.7822 20.2237 9.7334 20.2724L8.76832 21.2379C8.73298 21.2349 8.69775 21.2428 8.67038 21.2702C8.64356 21.297 8.63504 21.3328 8.63807 21.3682L8.16473 21.8415L7.85699 21.5338C7.8083 21.4851 7.72976 21.4851 7.68096 21.5338C7.63227 21.5825 7.63227 21.6611 7.68096 21.7098L7.9887 22.0175L7.51637 22.4899C7.50246 22.5038 7.50145 22.5226 7.49551 22.5396C7.01274 22.2204 6.63937 21.7391 6.47927 21.1823C7.35639 18.472 7.65919 17.5428 8.0375 16.3759V16.3759ZM5.9513 22.8115C6.04879 22.5093 6.14718 22.2084 6.24468 21.9066C6.48331 22.3427 6.8329 22.717 7.25104 22.9855C7.08354 23.0546 6.65294 23.2371 6.49128 23.2908C5.87231 23.4907 5.79367 23.2754 5.9513 22.8115V22.8115ZM21.2519 12.4555V12.8479H20.8914C21.0117 12.7171 21.1321 12.5863 21.2519 12.4555ZM13.5475 3.58015C13.7618 3.58116 13.9765 3.58217 14.1909 3.58318L13.8707 3.90337L13.5475 3.58015ZM12.0788 3.59406L12.0992 3.57364C12.4119 3.5751 12.7247 3.57611 13.0373 3.57757L12.5501 4.06482L12.0788 3.59406ZM10.4604 3.56623L10.1775 3.84918L9.89159 3.56332C10.081 3.56478 10.2709 3.56579 10.4604 3.56623ZM7.94012 3.71545L8.09921 3.5558C8.35826 3.55681 8.61731 3.55827 8.87636 3.55928L8.32999 4.1052L7.94012 3.71545ZM6.90246 3.80935L7.06256 3.64926C7.08937 3.62244 7.0979 3.58665 7.09487 3.55131C7.22266 3.55176 7.35044 3.55232 7.47823 3.55277C7.47823 3.58463 7.49012 3.61638 7.51458 3.64129L7.58862 3.71534L7.19831 4.10565L6.90246 3.80935ZM6.72643 3.63389L6.64195 3.54941C6.6976 3.54941 6.75381 3.54985 6.81001 3.55042L6.72643 3.63389ZM5.75339 3.5558L5.18963 4.11912L4.73514 3.66418C5.07126 3.59563 5.41738 3.5668 5.75339 3.5558V3.5558ZM3.28091 4.40745C3.28483 4.43236 3.29033 4.45771 3.30974 4.47701C3.35798 4.52525 3.43652 4.5257 3.48577 4.47701L3.77511 4.18767L4.16543 4.57798L3.35697 5.38644L2.89205 4.92151C2.88902 4.91848 2.88509 4.92005 2.88206 4.91759C2.99358 4.7346 3.12574 4.56306 3.28091 4.40745V4.40745ZM2.85929 20.5255L3.0462 20.7124L2.87174 20.887C2.8677 20.7676 2.86321 20.6463 2.85929 20.5255ZM2.80162 18.9036C2.78625 18.483 2.77032 18.0594 2.75439 17.6358L2.79074 17.5994L3.51808 18.3268L2.87174 18.9731L2.80162 18.9036ZM2.73745 17.1947C2.72354 16.8298 2.70906 16.4658 2.6947 16.1049L2.73644 16.0632L3.35596 16.6827L2.79018 17.2485L2.73745 17.1947ZM2.67686 15.6514C2.66093 15.2621 2.64556 14.8778 2.62963 14.4999L3.28887 15.1597L2.737 15.7116L2.67686 15.6514ZM2.60775 13.9799C2.59328 13.6374 2.57892 13.3052 2.56445 12.979L3.08648 13.501L2.60775 13.9799ZM2.48636 11.2563L3.1272 11.8972L2.54246 12.4819C2.52316 12.0523 2.50476 11.6432 2.48636 11.2563V11.2563ZM2.4168 9.83877L2.73655 10.1585L2.44766 10.4474C2.43722 10.2321 2.42668 10.0317 2.4168 9.83877V9.83877ZM2.33771 8.4661L2.73599 8.86438L2.38303 9.21734C2.36654 8.92149 2.35162 8.66838 2.33771 8.4661ZM2.29149 7.04463L2.45304 7.20619L2.28105 7.37874C2.28206 7.27227 2.28453 7.16198 2.29149 7.04463V7.04463ZM2.3183 6.71995C2.31931 6.70951 2.32133 6.69852 2.32223 6.68764C2.33064 6.6891 2.33715 6.69706 2.34556 6.69706C2.37742 6.69706 2.40917 6.68517 2.43352 6.66071L2.73677 6.35746L3.01916 6.63984L2.62885 7.03016L2.3183 6.71995ZM2.36654 6.37642C2.38449 6.2695 2.40637 6.16168 2.43217 6.05274L2.56142 6.18199L2.36654 6.37642ZM2.50577 5.77473C2.57096 5.55798 2.65443 5.3447 2.75888 5.13984L3.18094 5.5619L2.737 6.00585L2.50577 5.77473ZM7.2893 29.5023C3.1189 29.5332 3.04126 27.688 3.01041 25.9241C2.99347 24.7939 2.94579 23.104 2.88262 21.2067C2.89452 21.2008 2.90899 21.2018 2.91942 21.1918L3.22268 20.8885L3.49867 21.1645C3.54691 21.2128 3.62545 21.2132 3.6747 21.1645C3.72339 21.1158 3.72339 21.0372 3.6747 20.9885L3.39871 20.7121L4.06445 20.0463C4.11314 19.9976 4.11314 19.919 4.06445 19.8703C4.01576 19.8216 3.93723 19.8216 3.88899 19.8703L3.22324 20.536L2.84784 20.1606C2.83887 19.9016 2.82945 19.6401 2.82002 19.3765L2.87275 19.3238L3.45895 19.91C3.50821 19.9593 3.58674 19.9577 3.63442 19.91C3.68311 19.8613 3.68311 19.7828 3.63442 19.734L3.04721 19.1492L3.83379 18.3627C3.88248 18.314 3.88248 18.2354 3.83379 18.1866C3.79901 18.1518 3.75177 18.1508 3.70847 18.1658L2.96621 17.4235L3.53199 16.8577L3.63745 16.9632C3.68569 17.0114 3.76423 17.0119 3.81348 16.9632C3.86217 16.9145 3.86217 16.836 3.81348 16.7871L3.70454 16.6782C3.74437 16.6295 3.74527 16.5594 3.70005 16.5136C3.65484 16.4684 3.58416 16.4694 3.53547 16.5091L2.91247 15.8867L3.46434 15.3348L3.58169 15.4522C3.62993 15.5004 3.70847 15.5009 3.75716 15.4522C3.80585 15.4035 3.80585 15.325 3.75716 15.2761L3.63981 15.1588L3.65866 15.1404C3.70735 15.0917 3.70735 15.0132 3.65866 14.9644C3.60996 14.9157 3.53143 14.9157 3.48263 14.9644L3.46423 14.9832L2.70996 14.2289L3.2643 13.6746C3.32197 13.7249 3.38962 13.7139 3.43236 13.6711C3.47859 13.6249 3.47758 13.5518 3.43539 13.5031L4.07578 12.8627C4.12448 12.814 4.12448 12.7355 4.07578 12.6866C4.02709 12.638 3.94856 12.638 3.89976 12.6866L3.26138 13.325L2.65532 12.719L3.30166 12.0726L3.31905 12.09C3.3683 12.1393 3.44684 12.1377 3.49508 12.09C3.54377 12.0413 3.54377 11.9628 3.49508 11.914L3.4778 11.8967L4.01576 11.3587C4.06445 11.3101 4.06445 11.2315 4.01576 11.1827C3.96707 11.1339 3.88854 11.134 3.84029 11.1827L3.30233 11.7207L2.64949 11.0678C2.60181 11.0206 2.52619 11.0206 2.4775 11.0664C2.47301 10.9694 2.46852 10.876 2.46404 10.7825L2.91202 10.3341L3.27103 10.6931C3.31927 10.7414 3.39781 10.7418 3.4465 10.6931C3.49519 10.6444 3.49519 10.5659 3.4465 10.5171L3.08749 10.1581L3.35944 9.88611C3.40813 9.83742 3.40813 9.75889 3.35944 9.71065C3.31075 9.66195 3.23221 9.66195 3.18341 9.71065L2.91146 9.9826L2.48681 9.55795C2.46841 9.53955 2.44407 9.53507 2.42073 9.53058L2.91146 9.03985L3.17399 9.30238C3.22223 9.35062 3.30076 9.35107 3.35002 9.30238C3.39871 9.25369 3.39871 9.17515 3.35002 9.12635L3.08749 8.86382L3.72485 8.22646C3.77354 8.17777 3.77354 8.09923 3.72485 8.05099C3.67616 8.0023 3.59762 8.0023 3.54938 8.05099L2.91202 8.68835L2.40682 8.18315C2.38101 8.15735 2.34769 8.14736 2.31381 8.14882C2.31179 8.1265 2.30988 8.09912 2.30831 8.07971C2.2999 7.98772 2.29092 7.86688 2.28543 7.72575L2.62896 7.38222L3.29571 8.04942C3.34396 8.09766 3.42249 8.09811 3.47118 8.04942C3.51987 8.00073 3.51987 7.9222 3.47118 7.87339L2.80465 7.20619L3.19497 6.81587L3.75436 7.37571C3.8026 7.42395 3.88113 7.4244 3.93038 7.37571C3.97908 7.32702 3.97908 7.24848 3.93038 7.19968L3.37055 6.63984L3.68177 6.32862C3.73046 6.27993 3.73046 6.2014 3.68177 6.15259C3.63308 6.1039 3.55454 6.1039 3.50574 6.15259L3.19497 6.46381L2.91258 6.18143L3.35708 5.73748L3.72249 6.10289C3.77073 6.15114 3.84927 6.15158 3.89852 6.10289C3.94721 6.0542 3.94721 5.97567 3.89852 5.92742L3.53311 5.56202L4.34157 4.75356L4.52848 4.94047C4.57672 4.98872 4.65526 4.98916 4.70451 4.94047C4.7532 4.89178 4.7532 4.81325 4.70451 4.76444L4.5176 4.57753L4.58177 4.51336C4.63046 4.46467 4.63046 4.38613 4.58177 4.33733C4.53308 4.28864 4.45454 4.28864 4.40574 4.33733L4.34157 4.4015L3.95125 4.01119L4.11034 3.8521C4.2222 3.80532 4.33708 3.76661 4.45387 3.73329L5.01517 4.29414L4.7661 4.5432C4.71741 4.59189 4.71741 4.67043 4.7661 4.71923C4.81535 4.76848 4.89389 4.76691 4.94157 4.71923L5.19064 4.47016L5.56502 4.84455C5.61326 4.89279 5.6918 4.89324 5.74105 4.84455C5.78974 4.79586 5.78974 4.71732 5.74105 4.66852L5.36666 4.29458L6.0627 3.59855C6.07662 3.58463 6.07762 3.56579 6.08357 3.54884C6.25758 3.54783 6.10242 3.54783 6.29045 3.54783L6.55197 3.80935L6.08705 4.27428C6.03836 4.32297 6.03836 4.4015 6.08705 4.45031C6.13529 4.49855 6.21383 4.499 6.26252 4.45031L6.72744 3.98538L7.24307 4.50102C7.29132 4.54926 7.36985 4.54971 7.4191 4.50102C7.46779 4.45233 7.46779 4.37379 7.4191 4.32555L7.37535 4.28179L7.76566 3.89148L8.70134 4.82716C8.74959 4.8754 8.82812 4.87585 8.87737 4.82716C8.92606 4.77847 8.92606 4.69993 8.87737 4.65169L8.50748 4.28224L9.22786 3.56186C9.33175 3.56231 9.43564 3.56287 9.53964 3.56332L10.003 4.02622L9.88867 4.14054C9.83998 4.18924 9.83998 4.26777 9.88867 4.31601C9.93691 4.36426 10.0154 4.3647 10.0647 4.31601L10.179 4.20169L10.5111 4.53333C10.5588 4.58101 10.6379 4.58258 10.6871 4.53333C10.7358 4.48464 10.7358 4.4061 10.6871 4.35786L10.3551 4.02622L10.812 3.56881C11.1103 3.57027 11.4086 3.57128 11.7064 3.57274L11.7283 3.59462L11.075 4.24791C11.0263 4.2966 11.0263 4.37514 11.075 4.42394C11.1232 4.47218 11.2018 4.47263 11.251 4.42394L11.9043 3.77065L12.5582 4.4245C12.6064 4.47274 12.6849 4.47319 12.7336 4.4245C12.7823 4.37581 12.7823 4.29728 12.7336 4.24847L12.7271 4.24197L13.2925 3.67618L13.7051 4.08838C13.6777 4.13561 13.6763 4.19473 13.717 4.23501C13.7682 4.28617 13.8139 4.27574 13.8636 4.2469L13.9392 4.32252C13.9875 4.37076 14.066 4.37121 14.1153 4.32252C14.164 4.27383 14.164 4.19529 14.1153 4.14649L14.0482 4.0794L14.4455 3.68213C14.4723 3.65531 14.4808 3.61997 14.4778 3.58463C14.6105 3.58508 18.8491 3.60348 18.9818 3.60505C17.9034 4.7769 16.7639 6.01594 15.6387 7.23906C15.5492 7.27586 15.5219 7.3241 15.5005 7.38917C11.7035 11.5168 8.11974 15.4138 7.74132 15.825C7.65729 15.8434 7.58324 15.9011 7.55542 15.989C7.53354 16.0581 7.54453 16.1282 7.57774 16.1864C7.56832 16.2162 7.55833 16.246 7.54891 16.2753L5.47807 22.6573C5.18222 23.5651 5.68989 24.0066 6.48881 23.8102C6.74887 23.7471 12.7832 21.2372 13.0308 21.1354C13.0403 21.1314 13.0468 21.1235 13.0557 21.1184C13.0592 21.1184 13.0622 21.1209 13.0652 21.1209C13.1109 21.1209 13.1572 21.1084 13.1989 21.0821C13.2715 21.0359 13.3078 20.9578 13.3093 20.8772C13.5902 20.5859 14.1605 19.9937 14.9207 19.1982C16.0886 17.9775 17.699 16.2822 19.4039 14.4539C19.4258 14.4727 19.4526 14.4872 19.4839 14.4872H19.5967V14.6722C19.5967 14.7409 19.6524 14.7965 19.7211 14.7965C19.7897 14.7965 19.8454 14.7409 19.8454 14.6722V14.4872H20.973C21.0417 14.4872 21.0973 14.4316 21.0973 14.3629C21.0973 14.2942 21.0417 14.2386 20.973 14.2386H19.8454V13.9801C20.0482 13.7619 20.251 13.5426 20.4555 13.3223V14.0079C20.4555 14.0766 20.5111 14.1322 20.5798 14.1322C20.6484 14.1322 20.7041 14.0766 20.7041 14.0079V13.096H21.2545V13.1612C21.2545 13.2299 21.3101 13.2855 21.3788 13.2855C21.4475 13.2855 21.5031 13.2299 21.5031 13.1612V13.096H21.8507C21.9193 13.096 21.975 13.0404 21.975 12.9717C21.975 12.9031 21.9193 12.8474 21.8507 12.8474H21.5031V12.2314C21.5031 12.2294 21.5011 12.2283 21.5011 12.2264C21.5105 12.2289 21.517 12.2369 21.5269 12.2369H22.0241V12.7346C22.0241 12.8032 22.0798 12.8589 22.1484 12.8589C22.2171 12.8589 22.2727 12.8032 22.2727 12.7346V12.2369H22.8535V12.2608C22.8535 12.3294 22.9091 12.3851 22.9778 12.3851C23.0464 12.3851 23.1021 12.3294 23.1021 12.2608V12.2065C23.1309 12.1836 23.1523 12.1527 23.1523 12.113C23.1523 12.0733 23.1315 12.0424 23.1021 12.0196V11.2604H23.4158V11.6417C23.4158 11.7104 23.4714 11.766 23.5401 11.766C23.6087 11.766 23.6644 11.7104 23.6644 11.6417V11.2604H23.6873C23.7559 11.2604 23.8116 11.2047 23.8116 11.136C23.8116 11.0674 23.7559 11.0117 23.6873 11.0117H23.6644V10.1059H24.3629V10.8342H23.9249C23.8562 10.8342 23.8006 10.8899 23.8006 10.9586C23.8006 11.0272 23.8562 11.0829 23.9249 11.0829H24.3629V11.6631H23.9547C23.8861 11.6631 23.8304 11.7188 23.8304 11.7874C23.8304 11.8561 23.8861 11.9117 23.9547 11.9117H24.4728C24.4783 11.9127 24.4818 11.9177 24.4873 11.9177C24.4928 11.9177 24.4963 11.9122 24.5018 11.9117H24.721C24.7862 15.3832 24.8075 18.9604 24.7821 22.5854C23.1409 22.2886 19.6487 22.0514 18.6493 23.3904C18.0731 24.1615 18.2117 24.9168 18.3291 28.4498C14.6899 29.1274 10.9784 29.4829 7.2893 29.5023V29.5023ZM24.7144 11.6635H24.6089V11.0832H24.7034C24.7074 11.2757 24.7103 11.4706 24.7144 11.6635V11.6635ZM23.544 24.1092L22.8216 23.3868C22.7729 23.3381 22.6943 23.3381 22.6456 23.3868C22.5969 23.4355 22.5969 23.5141 22.6456 23.5629L23.096 24.0133L22.5158 24.5936L22.0195 24.0973C21.9708 24.0487 21.8923 24.0487 21.8435 24.0973C21.7948 24.146 21.7948 24.2247 21.8435 24.2734L21.9161 24.346L21.2787 24.9833L20.874 24.5786C20.8254 24.53 20.7467 24.53 20.698 24.5786C20.6647 24.612 20.6627 24.6572 20.6751 24.6999C20.6294 24.6785 20.5757 24.6781 20.5379 24.7159L19.9726 25.2812L19.9572 25.2658C19.9085 25.2166 19.83 25.2171 19.7812 25.2658C19.7325 25.3145 19.7325 25.3932 19.7812 25.4419L19.7966 25.4572L19.4112 25.8426L19.1098 25.5413C19.0611 25.4926 18.9826 25.4926 18.9338 25.5413C18.885 25.5899 18.8851 25.6686 18.9338 25.7173L19.2352 26.0186L19.0025 26.2518C18.9538 26.3005 18.9538 26.379 19.0025 26.4278C19.0507 26.476 19.1292 26.4765 19.1785 26.4278L19.4112 26.1947L19.8542 26.6377L19.194 27.298L18.7713 26.8753C18.7102 25.0392 18.6113 24.27 19.0443 23.6899C19.7628 22.7278 22.4083 22.8182 23.5453 22.9231L23.08 23.3881C23.0313 23.4368 23.0313 23.5153 23.08 23.5641C23.1282 23.6123 23.2067 23.6128 23.256 23.5641L23.869 22.9511C24.1569 22.9849 24.4438 23.0296 24.7292 23.0823C24.3429 23.4196 23.9442 23.7641 23.544 24.1092V24.1092ZM21.856 25.5595L21.4548 25.1583L22.0921 24.521L22.3402 24.769L22.1189 24.9903C22.0702 25.039 22.0702 25.1176 22.1189 25.1663C22.1433 25.1907 22.1746 25.2027 22.2069 25.2027C22.2854 25.2027 22.4645 24.9968 22.5221 24.9391C22.534 24.9475 22.5475 24.952 22.5614 24.9555C22.3258 25.1568 22.0917 25.3577 21.856 25.5595V25.5595ZM20.3888 26.8179L20.2068 26.6359L20.5922 26.2501L20.719 26.3769C20.7433 26.4012 20.7752 26.4132 20.807 26.4132C20.8387 26.4132 20.8706 26.4013 20.8949 26.3769C20.9436 26.3282 20.9436 26.2495 20.8949 26.2008L20.7681 26.0741L20.8522 25.9905C20.9675 25.8751 20.793 25.6981 20.6761 25.8144L20.5921 25.8985L20.1496 25.456L20.715 24.8907C20.7389 24.8668 20.7497 24.836 20.7503 24.8052L21.1033 25.1581L20.7905 25.4709C20.7418 25.5196 20.7418 25.5981 20.7905 25.6469C20.9287 25.7852 21.141 25.4719 21.2792 25.3343L21.667 25.7221C21.239 26.0885 20.8129 26.4535 20.3888 26.8179V26.8179ZM19.4914 27.593L19.3706 27.4722L20.0308 26.8119L20.1993 26.9805C19.9597 27.1863 19.7276 27.3887 19.4914 27.593V27.593ZM18.7844 27.2376L19.0191 27.4723L18.7993 27.6921L18.7844 27.2376ZM18.8102 28.0177C18.8181 28.0127 18.8286 28.0142 18.836 28.0072L19.1944 27.6482L19.3028 27.7566C19.1402 27.8973 18.9757 28.0395 18.8156 28.1792L18.8102 28.0177ZM20.0308 26.4599L19.5883 26.0174L19.9737 25.632L20.4168 26.0745L20.0308 26.4599ZM22.6858 24.775L23.272 24.1888L23.3556 24.2724C23.1413 24.4574 22.9246 24.6428 22.7083 24.8287C22.7057 24.8092 22.6973 24.7914 22.6858 24.775ZM24.6925 10.4851C24.695 10.6004 24.6964 10.7188 24.699 10.8346H24.609V8.72605C24.611 8.72403 24.6125 8.72156 24.6145 8.71954C24.6651 9.28196 24.6805 9.85975 24.6925 10.4851V10.4851ZM25.1698 7.31703C25.037 7.18476 20.6557 2.7911 20.5001 2.68721C21.2135 1.91208 21.8833 1.18418 22.4819 0.533913C24.6517 1.23938 26.4848 2.50972 27.6736 4.13213C27.2232 4.845 26.3183 5.97567 25.1698 7.31703Z" fill="#333C4B"/>
<path d="M22.5347 7.95586L23.095 7.39557L23.5232 7.82369L23.1189 8.22792C23.0702 8.27661 23.0702 8.35515 23.1189 8.40339C23.1672 8.45163 23.2457 8.45208 23.295 8.40339L23.6992 7.99916L23.8826 8.1826C23.9309 8.23084 24.0094 8.23129 24.0587 8.1826C24.1073 8.1339 24.1073 8.05537 24.0587 8.00657L23.8752 7.82313L24.1496 7.54871C24.1983 7.50002 24.1983 7.42149 24.1496 7.37324C24.101 7.32455 24.0224 7.32455 23.9736 7.37324L23.6992 7.64767L23.2711 7.2201L23.6927 6.79849C23.7414 6.74979 23.7414 6.67126 23.6927 6.62246C23.644 6.57376 23.5653 6.57376 23.5167 6.62246L23.095 7.04407L22.7579 6.70694C22.7092 6.65825 22.6306 6.65825 22.5824 6.70694C22.5337 6.75563 22.5337 6.83416 22.5824 6.88297L22.9196 7.2201L22.3593 7.78039C22.3106 7.82908 22.3106 7.90761 22.3593 7.95642C22.4075 8.0041 22.486 8.00455 22.5347 7.95586Z" fill="#333C4B"/>
<path d="M20.0136 4.98066L19.7948 4.76188C19.7465 4.71364 19.668 4.71319 19.6188 4.76188C19.5701 4.81058 19.5701 4.88911 19.6188 4.93791L19.8375 5.15669L19.328 5.66626L19.1813 5.51963C19.1331 5.47139 19.0545 5.47094 19.0053 5.51963C18.9566 5.56832 18.9566 5.64685 19.0053 5.6951L19.1519 5.84173L18.6244 6.36926L18.2073 5.95213C18.1586 5.90344 18.08 5.90344 18.0312 5.95213C17.983 6.00082 17.983 6.07935 18.0317 6.12816L18.4488 6.54529L18.0317 6.96242C17.983 7.01111 17.983 7.08964 18.0317 7.13845C18.0809 7.1877 18.1595 7.18613 18.2077 7.13845L18.6248 6.72132L19.0704 7.16683C19.1186 7.21507 19.1971 7.21552 19.2458 7.16683C19.2945 7.11814 19.2945 7.03961 19.2458 6.9908L18.8003 6.54529L19.3278 6.01776L19.6431 6.33302C19.6924 6.38227 19.7709 6.3807 19.8191 6.33302C19.8678 6.28433 19.8678 6.2058 19.8191 6.15699L19.5039 5.84173L20.0134 5.33216L20.2143 5.53298C20.2635 5.58223 20.3421 5.58066 20.3903 5.53298C20.439 5.48429 20.439 5.40575 20.3903 5.35695L20.1895 5.15613L20.3923 4.95328L20.7025 5.26349C20.7502 5.31118 20.8293 5.31275 20.8786 5.26349C20.9272 5.2148 20.9272 5.13627 20.8786 5.08746L20.5683 4.77725L20.9681 4.37751C21.0168 4.32882 21.0168 4.25029 20.9681 4.20205C20.9194 4.15335 20.8409 4.15335 20.7921 4.20205L20.3854 4.60874C20.3367 4.57688 20.274 4.57598 20.2318 4.61772C20.1895 4.66001 20.191 4.72318 20.2228 4.77131L20.0136 4.98066Z" fill="#333C4B"/>
</svg>
