<svg width="24" height="24" viewBox="0 0 24 24" fill="none" xmlns="http://www.w3.org/2000/svg">
<path d="M23.0707 21.9182L23.1414 21.8474L23.0707 21.7767L16.79 15.4956C18.045 13.955 18.7982 11.9901 18.7982 9.84877C18.7982 4.90613 14.7919 0.899902 9.84909 0.899902C4.90723 0.899857 0.899994 4.90608 0.899994 9.84873C0.899994 14.7905 4.90722 18.7976 9.84909 18.7976C11.991 18.7976 13.9555 18.0444 15.4961 16.7895L21.7768 23.0706L21.8475 23.1413L21.9182 23.0706L23.0707 21.9182ZM2.03147 9.84873C2.03147 5.53821 5.53798 2.03131 9.84909 2.03131C14.1593 2.03131 17.6667 5.53822 17.6667 9.84873C17.6667 14.1592 14.1593 17.6661 9.84909 17.6661C5.53798 17.6661 2.03147 14.1593 2.03147 9.84873Z" fill="#333C4B" stroke="#333C4B" stroke-width="0.2"/>
</svg>
