<svg width="512" height="512" viewBox="0 0 512 512" fill="none" xmlns="http://www.w3.org/2000/svg">
<path d="M415.929 217.224C408.181 198.447 436.318 20.2185 394.657 26.0267C381.427 35.5977 -3.05035 2.18309 15.9253 47.9355C34.7192 338.636 -68.808 317.728 211.637 314.028C195.032 658.627 692.685 422.006 415.929 217.224ZM37.21 42.0278H394.647C404.4 41.6113 398.327 69.0801 399.929 74.0278H31.9287C33.496 68.9853 27.5088 41.6826 37.21 42.0278V42.0278ZM37.21 298.028C24.2846 294.821 35.5308 98.3886 31.9287 90.0278H399.929V130.028C392.988 133.411 309.187 121.646 311.927 138.023C308.876 154.376 393.388 142.691 399.929 146.028V162.028C392.646 164.813 342.529 154.642 343.929 170.024C342.373 185.386 392.85 175.281 399.929 178.028V210.43C326.831 182.42 239.862 226.109 216.331 298.028H37.21ZM223.929 346.028C223.982 313.496 236.415 282.204 258.702 258.506C280.99 234.808 311.461 220.48 343.929 218.433C343.052 372.499 327.269 333.769 436.47 441.881C355.584 514.584 223.522 455.717 223.929 346.028V346.028ZM419.071 363.614C411.502 368.626 404.517 374.468 398.246 381.033L389.355 372.142C397.627 366.907 406.553 362.703 414.957 357.747L426.917 358.451C424.259 360.121 421.645 361.861 419.071 363.614ZM452.367 359.948L465.951 360.747C447.813 371.409 430.791 383.866 415.142 397.929L405.043 387.83C420.319 377.804 437.202 369.945 452.367 359.948H452.367ZM385.767 361.719C384.375 362.659 383.061 363.603 381.818 364.605L372.461 355.247L393.941 356.511C391.181 358.193 388.444 359.91 385.767 361.719H385.767ZM447.783 430.569L436.279 419.065C446.142 414.036 456.143 409.261 465.844 403.923C460.962 413.526 454.894 422.478 447.782 430.569H447.783ZM472.785 387.686C457.337 394.328 442.378 402.053 428.019 410.805L420.946 403.732C439.634 391.179 458.811 379.266 477.946 367.424C476.788 374.309 475.061 381.086 472.785 387.686H472.785ZM359.929 338.486V218.433C392.31 220.478 422.708 234.739 444.978 258.334C467.249 281.929 479.732 313.099 479.904 345.544L359.929 338.486Z" fill="#333C4B"/>
<path d="M223.929 250.028V146.028C224.198 128.777 204.161 129.317 191.928 130.029C160.818 126.603 181.653 235.945 175.929 250.028H159.929C160.292 223.578 165.618 195.555 127.926 202.031C104.952 201.456 113.404 236.538 111.929 250.028H95.9287C90.6206 223.869 115.036 150.179 63.9311 162.031C34.8389 159.998 52.4991 235.738 47.9287 250.028C45.8347 250.07 43.8406 250.931 42.3745 252.427C40.9084 253.923 40.0873 255.934 40.0873 258.028C40.0874 260.123 40.9087 262.133 42.3748 263.629C43.841 265.125 45.8351 265.986 47.9292 266.028C48.6831 260.276 273.11 281.402 223.929 250.028V250.028ZM63.9287 250.028V178.028H79.9287L79.9447 250.028H63.9287ZM127.929 250.028V218.028H143.929L143.945 250.028H127.929ZM191.929 250.028V146.028H207.929L207.945 250.028H191.929Z" fill="#CFA160"/>
<path d="M409.85 253.296C406.324 250.983 402.552 256.127 405.42 259.038C416.173 270.518 425.344 283.384 432.689 297.293C434.812 301.548 442.347 305.602 444.648 299.493C447.096 294.157 443.278 288.709 440.52 284.274C432.884 271.673 422.374 261.057 409.85 253.296V253.296Z" fill="#CFA160"/>
<path d="M459.371 317.708C459.33 315.622 458.472 313.636 456.982 312.175C455.492 310.714 453.489 309.896 451.402 309.896C449.316 309.896 447.312 310.714 445.822 312.175C444.332 313.636 443.475 315.623 443.434 317.709C443.475 319.795 444.333 321.782 445.823 323.243C447.313 324.703 449.316 325.521 451.403 325.521C453.489 325.521 455.492 324.703 456.982 323.242C458.472 321.781 459.33 319.795 459.371 317.708V317.708Z" fill="#CFA160"/>
<path d="M261.931 63.4507C271.82 64.6616 282.001 64.5776 292.002 64.9067C295.867 64.83 301.995 62.0078 297.46 57.9463C292.024 55.083 285.886 53.8234 279.762 54.3143C273.774 53.923 267.762 54.4432 261.931 55.8572C261.115 56.1033 260.401 56.6054 259.893 57.2892C259.385 57.973 259.111 58.8022 259.111 59.654C259.111 60.5057 259.385 61.3349 259.893 62.0187C260.401 62.7025 261.115 63.2046 261.931 63.4507V63.4507Z" fill="#CFA160"/>
<path d="M319.749 64.448C327.885 64.7057 337.547 67.9491 344.888 62.9379C348.679 58.6965 342.293 54.3528 338.298 54.0993C331.69 53.1651 324.968 53.4271 318.453 54.8728C317.347 55.2173 316.4 55.9421 315.778 56.9187C315.156 57.8953 314.9 59.0605 315.055 60.2079C315.21 61.3552 315.767 62.4105 316.626 63.1867C317.485 63.9628 318.591 64.4097 319.749 64.448V64.448Z" fill="#CFA160"/>
<path d="M356.795 64.3106C360.983 65.2456 365.261 65.2217 369.506 65.7442C370.362 66.0322 371.269 66.1355 372.167 66.0473C373.066 65.9591 373.936 65.6813 374.719 65.2324C375.503 64.7834 376.182 64.1735 376.712 63.4428C377.243 62.7121 377.612 61.8772 377.796 60.9932C379.027 51.3145 358.46 52.3032 354.028 57.1255C353.531 57.7303 353.203 58.4562 353.078 59.229C352.953 60.0019 353.036 60.794 353.317 61.5246C353.598 62.2552 354.069 62.898 354.68 63.3874C355.291 63.8769 356.021 64.1954 356.795 64.3106V64.3106Z" fill="#CFA160"/>
<path d="M323.992 177.884C325.815 177.821 327.542 177.052 328.809 175.741C330.076 174.429 330.784 172.676 330.784 170.852C330.784 169.029 330.076 167.276 328.809 165.964C327.542 164.653 325.815 163.884 323.992 163.821C322.169 163.884 320.442 164.653 319.175 165.964C317.908 167.276 317.2 169.029 317.2 170.852C317.2 172.676 317.908 174.429 319.175 175.741C320.442 177.052 322.169 177.821 323.992 177.884Z" fill="#CFA160"/>
<path d="M296.303 248.933C264.382 257.951 244.772 293.174 245.999 325.07C249.085 336.116 258.46 335.967 261.548 325.07C261.777 296.728 278.11 271.684 299.04 253.634C301.232 251.804 298.878 248.145 296.303 248.933V248.933Z" fill="#CFA160"/>
</svg>
