<svg width="512" height="512" viewBox="0 0 512 512" fill="none" xmlns="http://www.w3.org/2000/svg">
<path d="M495.939 392.011C483.838 391.134 471.689 390.343 459.58 389.622C462.714 380.002 463.87 369.351 464.467 359.041C467.19 310.215 470.324 255.353 473.776 194.844C475.358 166.917 475.366 135.452 455.197 115.422C436.47 96.9748 408.349 95.7646 381.096 96.1447C272.319 97.6342 104.919 99.7985 104.802 99.7985C79.5204 100.163 53.4317 102.002 36.7684 119.782C20.5396 137.05 19.8879 162.464 20.6094 187.025C27.343 404.788 26.4508 372.128 25.7372 392.166C20.3301 392.492 14.9386 392.818 9.51606 393.206C8.2283 393.299 7.06467 394.028 6.42855 395.153C-1.87206 409.683 5.98636 427.991 18.383 437.307C61.3212 469.369 400.855 476.739 460.177 447.803C482.759 436.749 497.832 416.975 499.531 396.208C499.616 395.176 499.283 394.152 498.608 393.369C497.933 392.569 496.971 392.089 495.939 392.011V392.011ZM42.4237 125.096C57.0157 109.527 81.2969 107.89 104.911 107.556C104.95 107.556 272.358 105.392 381.213 103.895C407.03 103.538 433.25 104.678 449.751 120.93C467.624 138.68 467.531 168.158 466.042 194.402C462.869 249.985 459.75 304.498 456.733 358.591C456.127 369.048 455.08 379.909 451.706 389.117C328.182 381.895 183.86 382.042 33.4715 391.67C34.1929 372.865 35.1549 406.541 28.3747 186.792C27.6921 163.861 28.2196 140.208 42.4237 125.096V125.096ZM375.526 435.733C375.557 435.771 375.542 435.826 375.581 435.865L389.118 449.401L384.052 454.467C379.909 454.762 375.759 455.018 371.609 455.274C371.609 454.777 371.422 454.281 371.042 453.901L364.2 447.059L375.526 435.733ZM458.656 439.798L457.151 438.293L465.809 429.635L469.207 433.033C465.755 435.678 462.194 437.928 458.656 439.798ZM454.979 441.605C450.193 443.808 445.244 445.585 440.162 447.02L434.352 441.217L444.468 431.094L454.979 441.605ZM435.849 448.191C432.358 449.045 428.805 449.751 425.206 450.363L431.614 443.956L435.849 448.191ZM398.667 453.466L394.594 449.401L403.834 440.162L415.462 451.791C409.947 452.473 404.338 453.009 398.667 453.466V453.466ZM393.563 453.847C392.345 453.94 391.127 453.994 389.917 454.079L391.856 452.14L393.563 453.847ZM367.218 455.569C363.106 455.817 359.01 456.158 354.899 456.368L361.462 449.805L367.218 455.569ZM472.24 430.582L468.555 426.889L475.933 419.512C476.693 418.751 476.693 417.526 475.933 416.773C475.172 416.013 473.947 416.013 473.186 416.773L465.809 424.151L457.826 416.168C457.066 415.408 455.84 415.408 455.08 416.168C454.32 416.928 454.32 418.154 455.08 418.914L463.063 426.897L454.405 435.554L447.206 428.355L450.433 425.128C451.194 424.368 451.194 423.142 450.433 422.382C449.673 421.622 448.447 421.622 447.687 422.382L444.46 425.609L442.614 423.763C441.854 423.002 440.628 423.002 439.868 423.763C439.107 424.523 439.107 425.749 439.868 426.509L441.714 428.355L431.598 438.471L418.061 424.934C417.301 424.174 416.075 424.174 415.323 424.934C414.562 425.694 414.562 426.92 415.323 427.68L428.86 441.217L419.613 450.464L406.572 437.424L412.685 431.303C413.445 430.543 413.445 429.317 412.685 428.557C411.925 427.797 410.699 427.797 409.939 428.557L403.826 434.67L394.09 424.934C393.33 424.174 392.104 424.174 391.344 424.934C390.584 425.694 390.584 426.92 391.344 427.68L401.08 437.416L391.84 446.655L378.303 433.118C378.265 433.08 378.21 433.095 378.172 433.064L381.112 430.124C381.872 429.364 381.872 428.138 381.112 427.378C380.351 426.617 379.126 426.617 378.366 427.378L361.438 444.305L357.257 440.123C356.497 439.363 355.271 439.363 354.511 440.123C353.751 440.884 353.751 442.109 354.511 442.87L358.692 447.051L351.005 454.739C350.508 455.235 350.462 455.895 350.609 456.531C241.592 461.868 51.7405 452.536 23.0065 431.086C14.0387 424.345 7.76285 411.203 12.2467 400.777C45.9767 398.45 83.7483 396.487 116.594 395.091L102.165 409.52L99.4419 406.797C98.6816 406.037 97.4559 406.037 96.6957 406.797C95.9355 407.557 95.9355 408.783 96.6957 409.543L99.4186 412.266L91.4593 420.264C90.6991 421.024 90.6991 422.25 91.4593 423.01C92.2196 423.77 93.4453 423.77 94.2055 423.01L102.188 415.028L107.921 420.76L101.397 427.285C100.637 428.045 100.637 429.271 101.397 430.031C102.157 430.791 103.383 430.791 104.143 430.031L110.667 423.507L114.034 426.873C114.794 427.634 116.02 427.634 116.772 426.873C117.533 426.113 117.533 424.888 116.772 424.135L113.406 420.76L119.968 414.198C120.729 413.437 120.729 412.212 119.968 411.451C119.208 410.691 117.982 410.691 117.222 411.451L110.659 418.014L104.926 412.281L121.388 395.82C121.644 395.564 121.691 395.215 121.776 394.881C245.874 389.777 368.63 390.692 491.3 399.458C489.089 412.204 481.402 422.746 472.24 430.582V430.582Z" fill="#333C4B" stroke="black"/>
<path d="M195.752 422.576L183.045 420.9C180.974 420.605 178.973 422.11 178.693 424.244C178.414 426.361 179.904 428.309 182.029 428.603L194.736 430.279C196.846 430.558 198.809 429.077 199.088 426.936C199.367 424.818 197.878 422.871 195.752 422.576Z" fill="#333C4B" stroke="black"/>
<path d="M316.359 422.064L222.686 422.095L218.621 421.583C216.434 421.288 214.556 422.832 214.3 424.965C214.037 427.083 215.549 429.022 217.675 429.286L316.367 429.821C318.508 429.821 320.246 428.084 320.246 425.943C320.238 423.801 318.5 422.064 316.359 422.064Z" fill="#333C4B" stroke="black"/>
<path d="M57.8379 247.386C57.7604 260.854 57.9078 274.313 58.4818 287.703C59.2653 305.925 61.2358 326.537 74.7727 340.702C89.8379 356.466 113.623 358.165 134.731 358.521C216.061 359.871 299.781 357.691 383.679 351.679C402.011 350.353 422.01 346.924 431.396 331.44C437.114 321.999 437.114 310.502 437.106 301.263L437.067 187.661C437.059 171.975 436.128 155.754 425.12 144.948C415.16 135.173 400.614 133.668 386.573 132.962C318.081 129.526 249.31 128.571 180.408 130.115C158.058 130.627 135.623 131.395 113.724 132.411L112.056 132.489C95.9199 133.21 77.6275 134.033 67.884 151.619C62.8028 160.789 61.5771 171.176 60.6772 181.889C59.8084 192.184 59.1878 202.54 58.7068 212.904C58.1405 213.571 58.1482 214.471 58.6215 215.185C58.2025 224.804 57.9543 234.431 57.8612 244.066C57.7293 244.144 57.5587 244.12 57.4501 244.237C56.6898 244.997 56.6898 246.223 57.4501 246.983L57.8379 247.386ZM67.085 299.89L69.1873 301.992L67.5582 303.621C67.3875 302.38 67.2091 301.139 67.085 299.89ZM222.205 344.154L228.636 350.585C224.277 350.663 219.925 350.748 215.565 350.803L222.205 344.154ZM264.81 331.711C264.841 331.75 264.826 331.804 264.864 331.835L274.197 341.168L267.3 348.064C266.827 348.537 266.757 349.166 266.874 349.779C265.594 349.817 264.314 349.887 263.034 349.926C263.096 349.36 262.979 348.793 262.545 348.359L255.354 341.168L264.81 331.711ZM289.099 331.75L301.922 344.573L301.348 345.147C300.588 345.908 300.588 347.133 301.348 347.894C301.69 348.235 302.147 348.382 302.597 348.413C297.314 348.638 292.039 348.824 286.756 349.026C286.741 348.553 286.57 348.072 286.213 347.707L279.681 341.175L289.099 331.75ZM305.142 347.785C305.46 348.103 305.886 348.219 306.305 348.266C305.165 348.32 304.017 348.351 302.876 348.398C303.792 348.32 304.032 347.956 304.676 347.312L305.142 347.785ZM282.218 349.189C278.557 349.321 274.903 349.492 271.233 349.608L276.935 343.906L282.218 349.189ZM258.782 350.081C254.601 350.198 250.412 350.19 246.231 350.291L252.607 343.914L258.782 350.081ZM383.121 343.945C357.769 345.76 332.285 347.118 306.763 348.25C307.166 348.196 307.57 348.095 307.88 347.785C308.64 347.025 308.64 345.799 307.88 345.039L307.407 344.566L320.478 331.494L334.031 345.047C334.675 345.69 335.575 345.869 336.537 345.147C336.63 345.419 336.645 345.721 336.862 345.939C337.243 346.319 337.739 346.505 338.235 346.505C338.732 346.505 339.228 346.319 339.609 345.939L356.241 329.306L367.365 340.431C368.125 341.191 369.351 341.191 370.111 340.431C370.872 339.671 370.872 338.445 370.111 337.685L358.987 326.56L368.893 316.654L385.611 333.371L381.143 337.84C380.382 338.6 380.382 339.826 381.143 340.586C381.903 341.346 383.129 341.346 383.889 340.586L388.357 336.118L391.375 339.135C392.135 339.895 393.361 339.895 394.121 339.135C394.881 338.375 394.881 337.149 394.121 336.389L391.103 333.371L401.499 322.976L415.02 336.498C406.417 341.416 394.866 343.099 383.121 343.945V343.945ZM352.098 299.882L366.139 313.923L356.233 323.83L342.192 309.788L352.098 299.882ZM339.453 312.527L353.495 326.568L337.064 342.999C336.971 342.766 336.971 342.502 336.777 342.308L323.225 328.756L339.453 312.527ZM371.624 313.923L382.019 303.528L398.737 320.246L388.342 330.641L371.624 313.923ZM424.764 327.429C423.065 330.23 420.838 332.479 418.294 334.395C418.255 334.357 418.27 334.295 418.232 334.248L404.221 320.246L417.774 306.693L425.182 314.102C425.943 314.862 427.168 314.862 427.929 314.102C428.689 313.341 428.689 312.116 427.929 311.355L420.52 303.947L422.087 302.38C422.847 301.62 422.847 300.394 422.087 299.634C421.327 298.873 420.101 298.873 419.341 299.634L417.774 301.201L411.033 294.459L420.699 284.793L426.284 290.379C427.044 291.139 428.27 291.139 429.03 290.379C429.247 290.162 429.263 289.859 429.356 289.588L429.364 301.271C429.356 309.975 429.364 319.834 424.764 327.429V327.429ZM426.509 276.245C425.749 275.484 424.523 275.484 423.763 276.245L420.691 279.317L416.378 275.003L428.479 262.909L429.333 263.763L429.34 288.432C429.247 288.16 429.232 287.858 429.015 287.64L423.429 282.063L426.501 278.991C427.269 278.231 427.269 277.005 426.509 276.245V276.245ZM272.971 137.516L271.831 138.656L270.659 137.493C271.435 137.5 272.203 137.508 272.971 137.516ZM247.72 137.213L240.963 143.97C240.203 144.73 240.203 145.956 240.963 146.716C241.724 147.477 242.949 147.477 243.709 146.716L250.536 139.89L254.415 143.776C255.175 144.536 256.401 144.536 257.161 143.776C257.921 143.016 257.921 141.79 257.161 141.038L253.422 137.291C257.619 137.306 261.792 137.415 265.989 137.446C265.981 137.958 266.152 138.47 266.54 138.858L269.1 141.418L267.199 143.319C266.439 144.079 266.439 145.304 267.199 146.065C267.96 146.825 269.185 146.825 269.938 146.065L271.846 144.156L273.491 145.801C274.251 146.561 275.477 146.561 276.237 145.801C276.997 145.041 276.997 143.815 276.237 143.055L274.592 141.41L278.037 137.966C278.138 137.865 278.114 137.71 278.192 137.586C280.248 137.609 282.303 137.632 284.359 137.663L287.78 141.084L282.924 145.941C282.164 146.701 282.164 147.927 282.924 148.687C283.684 149.447 284.91 149.447 285.67 148.687L290.526 143.831L292.489 145.793C293.249 146.553 294.475 146.553 295.235 145.793C295.996 145.033 295.996 143.807 295.235 143.055L293.001 140.821C293.172 140.177 293.125 139.494 292.621 138.99C292.117 138.486 291.434 138.439 290.79 138.61L289.914 137.733C297.687 137.857 326.607 137.749 386.201 140.727C398.752 141.364 411.684 142.636 419.706 150.502C428.572 159.214 429.325 173.643 429.333 187.684L429.356 258.294L421.358 250.295C420.598 249.535 419.372 249.535 418.612 250.295C417.851 251.056 417.851 252.281 418.612 253.034L425.756 260.179L413.662 272.273L411.63 270.24C410.87 269.48 409.644 269.48 408.884 270.24C408.124 271 408.124 272.226 408.884 272.986L410.916 275.019L410.831 275.104C410.071 275.864 410.071 277.09 410.831 277.85C411.591 278.611 412.817 278.611 413.577 277.85L413.662 277.765L417.976 282.078L408.31 291.744L396.06 279.495C395.3 278.735 394.075 278.735 393.314 279.495C392.554 280.255 392.554 281.481 393.314 282.241L405.563 294.49L399.156 300.898C398.395 301.658 398.395 302.884 399.156 303.644C399.916 304.405 401.142 304.405 401.902 303.644L408.31 297.237L415.051 303.978L401.499 317.53L384.781 300.813L386.798 298.796C387.558 298.036 387.558 296.81 386.798 296.05C386.038 295.289 384.812 295.289 384.052 296.05L382.035 298.067L369.786 285.817C369.025 285.057 367.8 285.057 367.039 285.817C366.279 286.578 366.279 287.803 367.039 288.564L379.289 300.813L368.893 311.208L354.852 297.167L357.086 294.933C357.847 294.172 357.847 292.947 357.086 292.186C356.326 291.426 355.1 291.426 354.34 292.186L320.486 326.04L314.808 320.362C314.047 319.602 312.822 319.602 312.069 320.362C311.309 321.122 311.309 322.348 312.069 323.108L317.748 328.787L304.676 341.858L291.853 329.035L315.49 305.398C316.251 304.637 316.251 303.412 315.49 302.651C314.73 301.891 313.504 301.891 312.744 302.651L287.734 327.654L276.943 338.445L267.603 329.097C267.572 329.066 267.517 329.074 267.479 329.043L270.9 325.622C271.66 324.861 271.66 323.636 270.9 322.875C270.14 322.115 268.914 322.115 268.154 322.875L252.607 338.422L247.65 333.464C246.89 332.704 245.664 332.704 244.904 333.464C244.144 334.225 244.144 335.45 244.904 336.211L249.861 341.168L242.476 348.553C241.98 349.049 241.933 349.717 242.088 350.36C239.171 350.423 236.254 350.454 233.338 350.508C233.299 350.081 233.175 349.647 232.841 349.313L224.944 341.416L238.302 328.057C239.063 327.297 239.063 326.072 238.302 325.311C237.542 324.551 236.316 324.551 235.556 325.311L221.934 338.934C221.29 338.763 220.607 338.802 220.103 339.314C219.599 339.818 219.552 340.501 219.723 341.144L212.71 348.15L208.242 343.681C207.482 342.921 206.256 342.921 205.496 343.681C204.735 344.441 204.735 345.667 205.496 346.427L209.956 350.888C184.868 351.144 159.811 351.175 134.847 350.764C114.414 350.423 93.3754 348.956 80.3659 335.342C73.1204 327.763 69.707 317.585 67.9849 306.934C68.2098 307.019 68.4038 307.205 68.6365 307.205C69.133 307.205 69.6295 307.019 70.0096 306.639L71.9179 304.73L72.1895 305.002C72.9497 305.762 74.1754 305.762 74.9356 305.002C75.6959 304.242 75.6959 303.016 74.9356 302.256L74.6641 301.984L89.0699 287.578C89.8302 286.818 89.8302 285.592 89.0699 284.832C88.3097 284.072 87.084 284.072 86.3238 284.832L71.9179 299.238L67.3875 294.708C67.1781 294.498 66.8833 294.483 66.6195 294.39C66.4566 292.024 66.3325 289.673 66.2316 287.369C66.1463 285.367 66.1385 283.351 66.0687 281.341C66.2937 281.248 66.5497 281.248 66.7281 281.07L67.6513 280.147L74.0746 286.578C74.8348 287.338 76.0605 287.338 76.8207 286.578C77.581 285.817 77.581 284.592 76.8207 283.832L70.3975 277.4L80.5599 267.238C81.3201 266.478 81.3201 265.252 80.5599 264.492C79.7996 263.732 78.5739 263.732 77.8137 264.492L67.6513 274.654L65.8438 272.855C65.6964 267.021 65.58 261.195 65.5567 255.346C65.6188 255.338 65.6653 255.291 65.7274 255.276L72.0964 261.645C72.8566 262.405 74.0823 262.405 74.8426 261.645C75.6028 260.885 75.6028 259.659 74.8426 258.899L68.7684 252.824L83.7095 237.876C84.4697 237.115 84.4697 235.89 83.7095 235.129C82.9492 234.369 81.7235 234.369 80.9633 235.129L66.0222 250.078L65.5878 249.644C65.611 240.715 65.7817 231.786 66.0998 222.865L74.7184 231.483C75.4787 232.244 76.7044 232.244 77.4646 231.483C78.2249 230.723 78.2249 229.497 77.4646 228.737L72.7092 223.982L86.3548 210.336L88.1002 212.082C88.8605 212.842 90.0862 212.842 90.8387 212.082C91.5989 211.321 91.5989 210.096 90.8387 209.335L89.0932 207.59L92.1109 204.572C92.8712 203.812 92.8712 202.586 92.1109 201.826C91.3507 201.066 90.125 201.066 89.3725 201.826L86.3548 204.844L79.5902 198.079L89.931 187.738C90.0552 187.762 90.1482 187.878 90.2724 187.878C90.7689 187.878 91.2653 187.692 91.6455 187.312C92.1187 186.839 92.1885 186.21 92.0721 185.597L95.0122 182.657C95.7725 181.897 95.7725 180.671 95.0122 179.919C94.252 179.159 93.0263 179.159 92.2661 179.919L89.6285 182.556L81.5606 174.488L94.221 161.828L105.02 172.627C105.78 173.387 107.005 173.387 107.766 172.627C108.526 171.866 108.526 170.641 107.766 169.88L96.9672 159.082L105.454 150.595C106.214 149.835 106.214 148.609 105.454 147.849C104.694 147.089 103.468 147.089 102.708 147.849L94.221 156.336L83.8258 145.941C89.0699 142.807 95.3303 141.48 102.103 140.859L111.466 150.231L101.366 160.331C100.605 161.091 100.605 162.317 101.366 163.077C102.126 163.837 103.352 163.837 104.104 163.077L114.204 152.977L120.302 159.074C121.062 159.834 122.288 159.834 123.048 159.074C123.808 158.314 123.808 157.088 123.048 156.328L116.951 150.231L126.004 141.17L135.414 150.58C134.731 151.34 134.716 152.503 135.452 153.233C136.213 153.993 137.438 153.993 138.199 153.233L150.269 141.17L158.562 149.463C159.4 150.3 159.99 150.044 160.711 149.711C161.355 149.843 161.774 149.982 162.457 149.3L171.572 140.184L179.531 148.136C180.214 148.819 181.323 148.958 182.192 148.167C182.246 148.57 182.347 148.982 182.657 149.292C183.418 150.052 184.643 150.052 185.404 149.292L193.533 141.162L199.003 146.631C199.763 147.391 200.988 147.391 201.749 146.631C202.509 145.871 202.509 144.645 201.749 143.885L195.993 138.129C196.024 137.966 196.117 137.842 196.109 137.679C200.158 137.609 204.216 137.593 208.273 137.547L213.416 142.69L212.167 143.939C211.407 144.699 211.407 145.925 212.167 146.685C212.927 147.446 214.153 147.446 214.913 146.685L216.162 145.436L217.776 147.05C218.536 147.81 219.762 147.81 220.514 147.05C221.275 146.29 221.275 145.064 220.514 144.304L218.901 142.69L224.215 137.368C226.146 137.353 228.07 137.314 230.01 137.306C229.963 137.849 230.103 138.4 230.522 138.819L236.96 145.258C237.721 146.018 238.946 146.018 239.707 145.258C240.467 144.498 240.467 143.272 239.707 142.512L234.447 137.252C237.759 137.244 241.041 137.143 244.353 137.143C245.447 137.167 246.58 137.213 247.72 137.213V137.213ZM70.157 168.6L76.0682 174.512L68.4425 182.137C68.8304 177.491 69.3036 172.937 70.157 168.6ZM68.1943 185.489C68.5356 185.737 68.9002 185.946 69.3036 185.946C69.8001 185.946 70.2966 185.76 70.6767 185.38L78.8067 177.242L86.8745 185.31L76.8362 195.349L69.3579 187.87C69.0011 187.513 68.5356 187.351 68.0624 187.335C68.1167 186.73 68.1478 186.109 68.1943 185.489V185.489ZM74.0978 198.103L67.2789 204.921C66.9531 205.247 66.8445 205.674 66.7902 206.093C67.0539 201.306 67.4185 196.543 67.7676 191.772L74.0978 198.103ZM66.7669 206.434C66.8057 206.876 66.9376 207.326 67.2789 207.66C67.659 208.04 68.1555 208.226 68.652 208.226C69.1485 208.226 69.645 208.04 70.0251 207.66L76.844 200.841L83.6086 207.606L69.963 221.251L66.2937 217.582C66.4411 213.858 66.5652 210.142 66.7669 206.434V206.434ZM160.409 145.871L153.202 138.664C158.143 138.501 163.093 138.377 168.042 138.237L160.409 145.871ZM147.12 138.842L138.113 147.841L129.813 139.533C135.584 139.3 141.309 139.036 147.12 138.842ZM213.657 137.516C215.317 137.5 216.969 137.477 218.629 137.462L216.116 139.975L213.657 137.516ZM180.578 137.88C183.728 137.811 186.924 137.834 190.089 137.772L190.764 138.447L182.704 146.507C182.642 146.119 182.556 145.716 182.254 145.413L174.869 138.028C176.769 137.997 178.67 137.927 180.578 137.88ZM112.397 140.247L114.073 140.161C116.64 140.045 119.27 139.959 121.853 139.851L114.197 147.508L107.192 140.503C108.914 140.402 110.652 140.324 112.397 140.247V140.247ZM74.6641 155.382C76.3165 152.395 78.349 150.122 80.5987 148.237L91.467 159.105L78.8067 171.766L71.2663 164.225C72.1196 161.13 73.1436 158.128 74.6641 155.382V155.382Z" fill="#333C4B" stroke="black"/>
<path d="M443.758 85.2222C444.151 89.7428 447.685 93.0452 451.652 92.5977C453.838 92.3508 455.807 90.9841 457.001 88.8838C458.406 85.2964 459.118 81.407 459.089 77.4784L458.808 79.8627C459.22 73.1525 460.162 66.4985 461.623 59.9809C462.974 56.8712 462.961 53.2186 461.59 50.1209C449.707 35.5405 441.073 76.2853 443.758 85.2222Z" fill="#CFA160"/>
<path d="M478.922 93.1676C486.598 87.2013 493.632 80.3371 499.892 72.7003C502.693 70.0891 504.619 66.5648 505.374 62.6664C506.664 55.2345 497.635 55.5647 493.94 59.1094C488.057 63.9842 482.533 69.339 477.418 75.126C474.446 78.738 470.097 82.4009 469.542 87.3929C469.617 91.1333 472.504 94.1002 475.99 94.0197C477.018 93.9952 478.024 93.7037 478.922 93.1676Z" fill="#CFA160"/>
<path d="M507.079 99.4083C505.309 97.0615 502.37 96.1828 499.744 97.2138L500.203 97.1467C497.507 97.8 494.955 99.0195 492.688 100.735C489.913 101.919 487.444 103.817 485.492 106.265C483.888 109.481 484.988 113.501 487.949 115.242C488.825 115.757 489.802 116.032 490.798 116.042C498.685 117.157 512.376 109.417 507.079 99.4083Z" fill="#CFA160"/>
<path d="M312.102 200.331C304.301 202.586 297.221 206.829 291.554 212.645C273.795 226.2 256.683 240.559 239.866 255.263C236.983 257.714 233.122 261.809 228.973 261.09C224.975 260.397 222.016 255.494 220.277 252.242C217.116 240.685 211.789 229.833 204.578 220.263C198.505 213.623 187.928 222.133 192.294 229.738C199.009 241.436 198.362 256.038 206.044 267.5C221.723 291.23 245.233 282.033 263.409 266.91C277.446 257.402 291.479 247.889 304.886 237.501C312.263 232.011 321.984 226.868 325.803 218.148C326.924 216.056 327.418 213.685 327.225 211.319C327.031 208.954 326.158 206.695 324.711 204.813C323.265 202.931 321.305 201.507 319.068 200.712C316.831 199.917 314.412 199.785 312.102 200.331V200.331Z" fill="#CFA160"/>
</svg>
