<svg width="512" height="512" viewBox="0 0 512 512" fill="none" xmlns="http://www.w3.org/2000/svg">
<path d="M256 190.434C279.331 190.408 301.699 181.128 318.196 164.63C334.694 148.133 343.974 125.765 344 102.434C339.166 -14.3099 172.816 -14.2758 168 102.435C168.026 125.765 177.306 148.133 193.804 164.631C210.301 181.128 232.669 190.408 256 190.434V190.434ZM256 30.4341C275.089 30.4556 293.39 38.0482 306.888 51.5462C320.386 65.0441 327.978 83.3451 328 102.434C287.173 288.199 71.0596 69.649 256 30.4341Z" fill="#333C4B"/>
<path d="M104 294.434C127.331 294.408 149.699 285.128 166.196 268.63C182.694 252.133 191.974 229.765 192 206.434C187.166 89.6901 20.816 89.7242 16 206.435C16.0264 229.765 25.3064 252.133 41.8038 268.631C58.3013 285.128 80.6691 294.408 104 294.434V294.434ZM104 134.434C123.089 134.456 141.39 142.048 154.888 155.546C168.386 169.044 175.978 187.345 176 206.434C135.173 392.199 -80.9404 173.649 104 134.434Z" fill="#333C4B"/>
<path d="M496 206.433C496 183.094 486.728 160.711 470.225 144.208C453.722 127.705 431.339 118.433 408 118.434C384.66 118.434 362.277 127.705 345.774 144.209C329.271 160.712 320 183.095 320 206.434C324.834 323.178 491.184 323.144 496 206.433ZM408 278.434C388.911 278.413 370.61 270.82 357.112 257.322C343.614 243.824 336.022 225.523 336 206.434C376.827 20.6694 592.94 239.219 408 278.434Z" fill="#333C4B"/>
<path d="M368.008 294.434C347.816 303.638 111.115 270.575 120 318.434C127.797 339.882 98.6069 499.549 143.992 494.435C164.184 485.23 400.886 518.293 392.002 470.445C384.203 448.985 413.393 289.319 368.008 294.434ZM144 310.435C148.142 313.929 384.011 301.835 375.999 318.434V334.434H136C136.935 327.648 132.369 310.173 144 310.435H144ZM367.899 361.828C367.543 361.352 367.051 360.995 366.488 360.803C365.926 360.611 365.318 360.594 364.746 360.753C357.577 362.831 353.538 369.726 348.124 374.434H328.123C339.32 367.102 350.055 359.087 360.266 350.434H376V374.434H358.294C361.802 371.848 370.548 367.037 367.899 361.828H367.899ZM145.412 373.555C155.26 365.539 165.834 358.432 175.674 350.434H193.934C183.858 356.708 175.077 364.855 168.067 374.434H144.337C144.697 374.143 145.051 373.845 145.412 373.555V373.555ZM136 370.493V350.434H160.902C152.179 356.578 143.861 363.278 136 370.493V370.493ZM195.477 362.339C201.612 358.042 208.225 354.509 214.499 350.434H232.512C222.089 357.562 212.313 365.593 203.297 374.434H178.597C184.225 370.411 189.764 366.262 195.477 362.339ZM233.62 363.864C239.891 359.711 245.939 355.228 251.735 350.434H266.832C256.865 356.995 248.001 365.096 240.572 374.434H218.387C223.599 371.093 228.623 367.391 233.62 363.864V363.864ZM254.788 374.012C265.569 365.76 277.083 358.552 287.947 350.434H301.655C292.171 357.29 283.625 365.358 276.237 374.434H254.162C254.366 374.286 254.588 374.163 254.788 374.012ZM302.788 365.216C309.811 360.224 317.358 355.911 324.011 350.434H340.296C329.904 357.159 320.447 365.229 312.171 374.434H289.275C293.872 371.473 298.293 368.33 302.788 365.216V365.216ZM368 478.434H144C127.597 481.46 139.377 396.987 136 390.434H376C372.657 397.376 384.35 481.166 368 478.434Z" fill="#333C4B"/>
<path d="M60.416 197.09C65.8666 198.24 71.344 199.231 76.848 200.064C76.2006 205.029 76.0452 210.046 76.384 215.042C71.9749 215.983 67.6275 217.193 63.366 218.665C62.3448 218.982 61.4691 219.651 60.8943 220.553C60.3195 221.455 60.0828 222.531 60.2262 223.591C60.3696 224.65 60.8839 225.625 61.6776 226.341C62.4714 227.058 63.4934 227.47 64.5622 227.504C69.2375 227.839 73.9372 227.916 78.6369 227.9C84.7688 253.583 116.772 270.114 131.735 241.534C134.197 236.351 128.727 228.799 123.012 232.813C119.341 236.187 115.13 238.921 110.555 240.904C102.637 242.006 96.4702 233.605 93.1655 227.436C98.3503 227.311 103.462 226.187 108.221 224.126C109.335 223.79 110.314 223.111 111.019 222.186C111.723 221.261 112.117 220.136 112.145 218.974C112.134 217.806 111.747 216.674 111.04 215.745C110.332 214.817 109.344 214.142 108.221 213.821C102.055 211.902 95.5094 211.543 89.1707 212.777C88.7766 209.045 88.7034 205.286 88.952 201.542C95.4244 202.491 102.026 202.006 108.291 200.122C109.449 199.763 110.463 199.043 111.182 198.067C111.902 197.091 112.291 195.91 112.291 194.698C112.291 193.485 111.902 192.304 111.182 191.328C110.463 190.352 109.449 189.632 108.291 189.274C102.559 187.75 96.5872 187.345 90.702 188.079C93.698 167.404 118.758 162.588 124.529 183.589C124.778 184.4 125.307 185.096 126.021 185.553C126.735 186.01 127.589 186.198 128.429 186.085C129.27 185.971 130.043 185.562 130.61 184.932C131.177 184.301 131.501 183.489 131.526 182.641C131.221 177.246 129.121 172.107 125.559 168.043C121.997 163.979 117.178 161.223 111.869 160.214C93.9466 157.33 82.286 173.331 79.0028 189.187C73.0544 189.831 67.1248 190.624 61.1888 191.381C58.2407 191.757 56.8964 196.347 60.416 197.09V197.09Z" fill="#CFA160"/>
<path d="M381.066 188.131C387.405 196.746 394.214 205.004 401.463 212.869C363.253 214.067 365.073 223.604 402.086 222.43C402.111 227.448 401.887 232.459 401.75 237.475C397.617 237.974 393.494 238.743 389.381 239.345C386.117 239.822 387.316 244.396 390.104 244.685C393.88 245.077 397.703 245.508 401.516 245.704C401.338 249.66 401.593 253.624 402.276 257.525C402.781 259.192 403.808 260.652 405.207 261.689C406.606 262.727 408.301 263.287 410.043 263.287C411.784 263.287 413.48 262.727 414.878 261.689C416.277 260.652 417.305 259.192 417.81 257.525C418.554 253.58 418.86 249.565 418.722 245.553C423.074 245.412 427.44 245.298 431.78 244.954C436.182 244.605 442.652 244.965 445.729 241.257C451.847 229.428 424.217 236.027 418.585 235.973C418.519 231.432 418.493 226.892 418.304 222.354C423.873 222.056 431.074 223.653 435.594 219.715C436.382 218.922 436.825 217.85 436.825 216.732C436.825 215.614 436.382 214.542 435.594 213.749C430.455 209.852 423.255 212.03 417.238 212.007C416.984 210.775 416.698 209.497 416.363 208.211C423.722 197.465 430.178 186.128 435.666 174.316C433.928 157.011 411.645 192.799 406.922 196.061C398.335 187.688 390.795 175.474 378.269 173.173C377.437 172.97 376.562 173.042 375.774 173.377C374.986 173.712 374.327 174.293 373.896 175.033C373.466 175.774 373.286 176.633 373.383 177.484C373.48 178.335 373.85 179.131 374.437 179.755C376.793 182.428 379.006 185.224 381.066 188.131V188.131Z" fill="#CFA160"/>
<path d="M218.989 448.75C198.863 446.456 178.503 447.327 158.647 451.331C157.666 451.603 156.818 452.223 156.261 453.075C155.705 453.928 155.479 454.954 155.625 455.961C155.774 456.961 156.271 457.877 157.029 458.546C157.787 459.215 158.757 459.595 159.768 459.619C169.521 460.924 179.335 461.718 189.171 461.995C199.156 462.576 209.175 461.892 218.989 459.96C220.186 459.59 221.233 458.846 221.977 457.837C222.72 456.829 223.122 455.609 223.122 454.355C223.122 453.102 222.72 451.882 221.977 450.873C221.233 449.865 220.186 449.121 218.989 448.75V448.75Z" fill="#CFA160"/>
<path d="M239.571 447.826C237.554 447.896 235.643 448.747 234.241 450.198C232.838 451.65 232.055 453.589 232.055 455.607C232.055 457.626 232.838 459.565 234.241 461.017C235.643 462.468 237.554 463.319 239.571 463.389C241.588 463.319 243.499 462.468 244.901 461.017C246.303 459.565 247.087 457.626 247.087 455.607C247.087 453.589 246.303 451.65 244.901 450.198C243.499 448.747 241.588 447.896 239.571 447.826Z" fill="#CFA160"/>
<path d="M222.313 135.646C230.861 138.646 239.984 139.64 248.977 138.551C248.579 146.308 248.155 154.065 247.552 161.809C246.928 169.816 259.761 169.924 260.114 161.809C260.471 153.615 260.776 145.335 260.991 137.028C273.186 134.458 288.947 126.013 287.651 111.397C286.374 105.216 282.921 99.6977 277.92 95.8468C272.918 91.996 266.701 90.0678 260.399 90.413C260.159 86.6107 259.817 82.826 259.451 79.0438C264.818 79.1888 269.804 81.846 275.109 82.0155C276.185 81.9901 277.231 81.6528 278.118 81.0444C279.006 80.4361 279.698 79.5829 280.11 78.5887C280.521 77.5944 280.636 76.502 280.438 75.4441C280.241 74.3862 279.74 73.4085 278.997 72.6298C272.774 68.3204 265.418 65.9419 257.849 65.792C254.119 37.795 250.392 34.478 250.41 65.5005C215.175 65.0962 212.188 105.905 250.135 102.092C250.092 110.421 249.801 118.747 249.49 127.07C242.179 126.341 235.107 124.065 228.742 120.395C226.807 119.921 224.766 120.153 222.985 121.048C221.205 121.944 219.802 123.444 219.028 125.28C218.254 127.116 218.159 129.168 218.761 131.068C219.363 132.967 220.623 134.59 222.313 135.646ZM261.188 125.627C261.273 117.85 261.252 110.062 260.993 102.284C282.084 104.962 281.423 121.413 261.188 125.627ZM240.376 90.02C236.831 89.2354 233.423 87.58 235.389 83.8364C237.879 79.0977 245.092 78.7173 250.231 78.7022C250.211 82.6582 250.195 86.6177 250.183 90.5806C246.904 90.8152 243.608 90.6268 240.376 90.02V90.02Z" fill="#CFA160"/>
<path d="M347.09 450.016C339.528 449.31 331.9 449.973 324.572 451.971C323.452 452.308 322.436 452.928 321.623 453.77C320.81 454.612 320.226 455.648 319.928 456.779C319.629 457.911 319.625 459.1 319.917 460.234C320.209 461.367 320.786 462.407 321.594 463.254C325.973 466.665 332.195 465.416 337.402 465.532C342.217 465.285 348.247 465.595 351.417 461.303C355.415 457.289 351.835 451.332 347.09 450.016Z" fill="#CFA160"/>
</svg>
