<svg width="512" height="512" viewBox="0 0 512 512" fill="none" xmlns="http://www.w3.org/2000/svg">
<path d="M490.172 361.474C491.6 354.37 491.658 349.175 492.271 343.284C494.028 321.562 494.804 292.498 492.749 270.793C492.139 263.067 491.595 256.163 491.122 250.149C490.516 244.303 490.088 238.863 488.107 234.596C486.155 230.284 482.853 228.19 480.795 227.385C478.643 226.582 477.47 226.567 477.36 226.861C476.759 227.663 482.228 228.918 484.528 235.976C486.343 243.043 485.139 255.913 485.485 271.007C485.884 286.308 485.004 304.863 483.225 325.952C482.687 331.216 482.131 336.647 481.557 342.233C480.848 347.584 480.304 354.087 479.189 358.668C478.557 360.957 477.691 362.442 476.578 363.144C473.82 365.278 468.312 363.835 462.141 363.51C458.593 363.312 453.314 363.493 448.67 367.293C444.261 371.68 443.891 375.68 443.09 379.038C442.453 382.505 442.194 385.781 441.994 389.007C441.833 392.075 441.672 395.168 441.511 398.288C441.379 400.716 440.677 404.183 440.218 404.567C440.473 404.937 437.273 405.962 433.776 401.94C429.867 397.808 426.218 392.435 422.172 386.827C418.093 381.25 413.682 375.305 407.365 370.125C404.17 367.587 400.401 365.284 396.038 363.887C393.857 363.161 391.566 362.798 389.242 362.575L383.905 362.25C376.84 361.844 369.706 361.433 362.509 361.017C355.389 360.74 348.086 359.875 340.167 360.173C334.247 360.337 328.636 360.577 323.401 360.298C320.809 360.163 318.319 359.849 316.391 359.325C315.408 359.065 314.737 358.745 314.249 358.5C313.59 357.911 312.764 357.55 312.208 356.829C306.975 351.815 306.124 340.591 306.441 330.327C307.302 308.387 307.569 287.212 308.054 267.046C308.514 257.127 307.639 246.226 310.177 240.236C310.809 238.791 311.53 237.906 312.247 237.389C312.458 237.25 313.312 236.837 314.345 236.447C315.259 236.031 316.247 235.743 317.208 235.416C328.528 231.804 342.365 232.442 354.759 232.428C363.353 232.43 371.247 231.94 378.886 231.69C409.381 230.474 434.057 229.248 451.103 228.082C459.648 227.55 466.237 226.748 470.538 226.791C474.884 226.796 477.172 227.361 477.36 226.861C477.54 226.469 475.456 224.937 470.838 223.976C466.189 222.988 459.504 222.928 450.999 222.613C439.848 222.276 425.396 222.038 408.252 221.899C410.922 209.71 411.536 177.774 411.677 165.32C411.639 153.327 412.191 140.711 410.978 126.238C409.884 111.93 404.554 96.8725 394.855 87.2884C385.946 78.06 375.598 71.9495 366.273 69.1129C359.54 66.9375 353.55 66.548 348.893 66.5745C323.766 57.185 296.179 61.9639 268.422 61.3437C238.997 61.5937 207.554 61.8605 174.468 62.1394C141.502 62.5985 106.677 61.7812 70.302 64.2115C61.1938 64.8052 50.8188 65.8533 41.0568 71.3485C36.2179 74.0961 31.814 78.2115 28.778 83.0096C25.701 87.8004 23.9054 93.0192 22.7804 98.0985C19.3357 117.803 18.6241 136.349 18.1361 155.81C17.7595 193.293 18.3978 214.336 18.8982 294.178C19.0829 304.854 18.1096 314.717 23.3044 323.37C24.9559 325.921 26.9607 328.493 30.4679 330.341C33.7155 331.988 36.6506 332.341 39.1025 332.608C43.8212 333 48.2948 333.007 52.5448 332.966C67.3051 332.842 86.5451 332.123 100.932 334.567C104.559 335.214 108.16 336.026 110.99 337.305C113.949 338.76 115.348 339.683 116.576 342.077C119.057 347.567 120.11 355.207 120.703 362.394C121.285 369.704 121.427 377.072 121.456 384.346C121.33 403.623 121.215 410.203 121.446 416.786C121.593 418.029 121.475 422.245 122.487 424.663C122.958 425.99 123.756 427.192 124.771 428.171C124.982 431.048 125.499 434.248 126.953 437.851C128.848 442.111 131.617 447.817 139.242 450.678C143.081 451.942 147.653 451.252 151.16 449.637C154.052 448.279 156.994 446.707 159.85 444.829C178.868 432.419 190.379 412.649 206.797 397.099C229.307 375.13 256.252 364.026 276.427 360.07C284.09 358.519 290.761 357.69 296.117 357.139C297.48 360.502 299.41 363.808 302.336 366.724C303.624 368.187 305.314 369.243 306.891 370.406C308.874 371.57 310.85 372.339 312.629 372.82C316.213 373.791 319.451 374.118 322.595 374.308C328.843 374.649 334.812 374.368 340.523 374.219C347.259 373.93 354.456 374.743 361.73 375.017C368.927 375.404 381.706 376.094 388.365 376.454C389.55 376.596 390.732 376.736 391.891 377.125C394.211 377.856 396.521 379.168 398.764 380.913C403.249 384.495 407.268 389.555 411.196 394.863C415.151 400.171 419.04 405.93 424.288 411.344C427.002 414.096 431.155 417.264 436.444 417.993C438.994 418.334 441.754 418.214 444.554 417.132C447.369 416.094 450.004 413.784 451.405 411.312C452.85 408.853 453.381 406.555 453.744 404.632C454.066 402.822 454.285 400.99 454.381 399.144C454.49 395.952 454.595 392.786 454.701 389.644C454.821 386.671 455.014 383.786 455.429 381.233C455.723 378.685 456.804 376.387 456.828 376.56C457.316 376.089 458.932 375.462 461.701 375.606C464.362 375.647 467.612 376.147 471.374 376.135C475.002 376.197 479.937 375.399 483.718 372.293C487.6 369.322 489.367 364.909 490.172 361.474V361.474ZM377.362 221.755C378.971 212.127 379.555 196.33 379.708 186.514C384.466 192.08 393.944 195.42 400.559 193.945C401.158 201.167 402.412 214.769 404.218 221.868C396.232 221.81 378.454 221.761 377.362 221.755V221.755ZM395.747 118.911C396.3 121.697 396.732 124.582 396.994 127.603C397.379 132.082 397.598 136.637 397.778 141.18C392.805 139.242 383.448 136.289 378.122 136.644C377.966 134.534 377.588 127.806 376.165 115.086C381.429 117.145 390.139 119.543 395.747 118.911V118.911ZM398.735 165.69C399.026 171.639 399.348 177.288 399.699 182.577C397.965 181.428 395.951 180.361 393.725 179.471C388.165 177.286 382.795 176.695 379.766 178.151C379.756 169.233 379.497 159.178 378.874 148.024C384.518 152.435 392.001 154.292 398.213 153.574C398.348 157.738 398.494 161.829 398.735 165.69ZM385.316 96.0432C387.764 98.8245 389.675 102.12 391.343 105.639C389.776 104.868 388.095 104.161 386.201 103.637C381.862 102.425 377.853 102.346 374.622 102.899C374.429 101.457 374.29 100.103 374.081 98.637C373.252 93.3389 372.076 86.911 368.259 81.3894C374.035 84.9062 379.937 89.7716 385.316 96.0432V96.0432ZM116.136 325.899C111.715 323.875 107.427 322.935 103.153 322.099C81.7679 318.223 54.143 320.605 40.4198 319.361C38.6337 319.185 37.2347 318.837 36.6385 318.483C36.2732 318.373 35.4294 317.45 34.7684 316.397C31.9559 312.055 32.5664 303.07 32.5087 294.166C32.5039 285.315 32.4967 276.38 32.4919 267.365C32.4799 231.418 31.802 193.923 32.1842 156.074C32.5833 137.399 33.5111 118.091 36.4222 101.147C38.1121 93.0552 41.814 86.8485 48.0256 83.3629C54.3116 79.7403 62.5496 78.4759 71.2732 77.9423C106.771 75.375 141.49 75.8966 174.667 75.0865C207.747 74.3485 239.182 73.649 268.603 72.9951C283.252 72.9086 297.915 71.6538 311.074 71.4687C324.355 71.3028 337.167 72.3125 347.61 76.5937C352.836 78.6875 357.066 81.935 359.997 85.9326C363.146 89.6562 364.249 94.6995 365.259 100.079C375.602 159.668 375.096 210.086 375.785 221.755C369.021 221.743 361.997 221.837 354.939 221.589C341.257 221.153 327.004 220.058 313.728 223.916C312.482 224.296 311.228 224.644 309.992 225.151C308.836 225.579 307.514 226.046 305.696 227.111C302.439 229.171 300.242 232.26 298.917 235.149C296.304 241.022 296.002 246.538 295.699 251.697C294.557 280.931 295.949 244.96 292.682 329.916C292.66 330.632 292.691 331.392 292.679 332.118C280.379 330.285 267.684 330.834 255.458 333.115C254.691 333.252 253.833 333.514 253.05 333.671C252.761 333.726 252.425 333.606 252.155 333.724C252.04 333.774 251.963 333.882 251.857 333.945C238.542 336.767 223.071 342.404 207.312 352.666C198.771 358.279 190.249 365.231 182.153 373.531C169.67 386.291 159.028 402.223 145.131 412.889C140.744 416.332 133.069 420.644 133.271 419.534C132.886 419.45 132.607 419.087 132.576 418.695L132.494 416.437C132.412 410.769 132.548 407.271 133.107 384.416C133.203 376.981 133.191 369.37 132.687 361.512C132.033 353.625 131.494 345.603 127.679 336.659C126.381 334.327 125.03 332.002 122.703 330.06C120.598 328.12 118.316 326.925 116.136 325.899V325.899ZM178.612 407.733C178.167 407.356 177.773 406.947 177.295 406.599C174.603 404.709 171.667 403.5 169.038 403.279C175.237 395.873 180.761 388.673 186.389 382.264C188.453 385.892 191.079 388.045 194.569 389.567C188.586 395.599 183.377 401.776 178.612 407.733ZM141.869 441.094C139.004 440.661 135.865 437.452 133.975 434.332C133.227 433.149 132.689 431.981 132.143 430.82C136.578 430.659 141.179 428.202 142.735 427.137C143.165 426.889 143.514 426.57 143.934 426.312C143.773 429.183 144.985 432.793 148.288 435.839C148.946 436.447 149.653 436.74 150.34 437.197C148.973 438.139 147.602 439.159 146.242 439.974C144.487 440.906 143.271 441.252 141.869 441.094V441.094ZM160.535 428.743C159.761 427.606 158.872 426.505 157.814 425.512C155.636 423.543 153.107 422.173 150.689 421.666C150.958 421.459 151.276 421.291 151.54 421.082C155.929 417.546 159.723 413.7 163.28 409.82C163.901 412.543 165.752 415.613 169.112 418.022C169.374 418.209 169.639 418.25 169.903 418.418C168.838 419.692 167.766 421.046 166.701 422.24C164.651 424.572 162.598 426.716 160.535 428.743V428.743ZM204.187 380.731C202.893 379.154 201.292 377.62 199.396 376.284C197.838 375.228 196.232 374.425 194.646 373.774C200.242 368.308 205.949 363.281 211.747 359.154C212.074 358.923 212.398 358.76 212.728 358.534C212.355 361.712 214.201 366.269 218.499 369.88C218.564 369.935 218.634 369.952 218.699 370.005C213.752 373.187 208.905 376.774 204.187 380.731V380.731ZM231.131 362.954C230.119 361.63 228.953 360.327 227.55 359.132C224.631 356.702 221.453 355.154 218.677 354.76C229.538 348.014 240.134 343.385 249.814 340.437C250.131 343.399 251.396 346.928 253.845 350.325C254.713 351.531 255.696 352.409 256.658 353.351C250.34 354.925 243.723 357.099 237.009 360.065C235.054 360.916 233.093 361.974 231.131 362.954V362.954ZM274.994 350.238C273.314 350.389 271.499 350.671 269.725 350.909C268.987 348.202 267.384 345.113 265.249 342.118C263.963 340.349 262.583 338.832 261.187 337.49C272.35 335.113 281.598 334.526 288.002 334.382C289.766 334.339 291.314 334.315 292.675 334.293C292.655 338.663 292.778 343.135 293.528 347.841C293.672 348.635 293.891 349.469 294.071 350.286C288.8 349.803 282.461 349.644 274.994 350.238V350.238Z" fill="#333C4B"/>
<path d="M128.631 213.305C130.066 219.423 132.614 226.695 137.227 234.512C141.838 242.358 148.816 249.743 154.92 257.981C161.021 265.623 163.415 276.038 164.09 288.322C164.331 291.671 164.739 295.413 166.114 299.344C167.444 303.25 170.047 307.312 173.59 310.115C180.662 315.721 189.006 317.387 197.146 317.483C201.386 317.385 205.105 317.026 209.287 316.103C213.374 315.142 217.821 313.812 222.04 310.534C226.331 307.32 229.237 301.779 230.023 296.916C230.922 291.995 230.607 287.623 230.244 283.519C229.362 275.298 227.949 267.848 229.968 263.603C230.424 262.558 231.016 261.704 231.819 260.911C232.846 259.879 239.918 254.667 245.744 249.5C252.316 243.745 258.437 236.687 262.461 228.399C266.391 220.094 268.261 211.038 267.999 202.317C267.576 184.81 260.174 168.875 249.083 157.596C238.033 145.988 223.319 140.211 209.92 138.305C196.355 136.486 183.542 137.935 172.687 141.608C150.665 148.829 137.273 163.649 131.86 174.961C129.021 180.69 128.033 185.627 128.143 189.012C127.93 195.335 128.808 195.926 130.922 189.55C131.66 186.606 133.364 182.423 136.6 177.69C142.891 168.269 155.812 156.32 175.516 151.132C185.249 148.447 196.559 147.798 208.052 149.805C219.434 151.901 231.259 157.12 239.708 166.524C248.36 175.673 254.134 188.935 254.235 202.522C254.367 209.317 252.833 216.094 249.9 222.267C244.733 232.667 236.215 239.412 227.259 246.553C225.518 247.995 224.446 248.661 222.035 250.882C219.958 252.913 218.242 255.44 217.126 258.077C216.617 259.418 216.223 260.726 215.912 262.005C215.833 262.002 215.773 261.998 215.691 261.995C210.482 261.762 202.687 262.459 194.946 263.514C187.162 264.536 180.129 265.457 174.994 266.132C173.617 266.329 172.391 266.572 171.297 266.844C169.247 261.236 166.516 256.024 162.756 251.873C155.473 243.226 148.47 236.812 143.792 230.195C139.086 223.623 135.944 217.111 133.864 211.719C129.711 200.824 129.809 194.091 128.708 194.053C127.898 193.892 125.821 200.947 128.631 213.305V213.305ZM197.009 304.536C191.016 304.709 184.956 303.286 181.314 300.471C180.136 299.63 179.261 298.495 178.501 297.233C190.845 301.295 206.19 300.235 216.278 295.579C215.761 297.481 215.03 298.887 213.667 300.048C210.316 302.894 202.917 304.221 197.009 304.536ZM174.324 276.046C179.619 277.889 188.239 278.647 196.756 277.447C204.078 276.435 210.107 274.736 215.1 272.793C215.412 277.339 216.331 281.37 216.549 284.909C216.602 285.389 216.602 285.82 216.646 286.293C211.634 285.558 204.134 285.615 195.8 285.692C187.816 285.856 180.617 286.029 175.631 286.827C175.302 283.185 174.694 279.519 173.9 275.885C174.052 275.937 174.167 275.995 174.324 276.046Z" fill="#333C4B"/>
<path d="M134.816 268.714C132.35 265.716 122.982 269.351 113.893 276.832C104.802 284.312 99.4318 292.805 101.898 295.8C104.362 298.796 113.73 295.161 122.821 287.683C131.91 280.202 137.28 271.709 134.816 268.714Z" fill="#CFA160"/>
<path d="M111.086 210.796C111.122 206.916 103.453 203.699 93.9583 203.611C84.4655 203.524 76.7396 206.599 76.7035 210.478C76.6674 214.358 84.3357 217.574 93.8285 217.661C103.324 217.75 111.05 214.675 111.086 210.796Z" fill="#CFA160"/>
<path d="M278.403 208.897C278.403 212.776 285.689 215.921 294.675 215.921C303.663 215.921 310.946 212.776 310.946 208.897C310.946 205.014 303.663 201.87 294.675 201.87C285.689 201.87 278.403 205.014 278.403 208.897Z" fill="#CFA160"/>
<path d="M107.042 148.053C114.422 154.615 122.494 157.584 125.074 154.685C127.65 151.786 123.759 144.115 116.381 137.553C109.001 130.99 100.929 128.019 98.35 130.921C95.773 133.82 99.6649 141.49 107.042 148.053V148.053Z" fill="#CFA160"/>
<path d="M181.439 126.214C185.249 125.481 187.009 117.986 185.372 109.476C183.732 100.964 179.316 94.6586 175.506 95.3918C171.696 96.125 169.934 103.618 171.574 112.13C173.211 120.642 177.626 126.947 181.439 126.214Z" fill="#CFA160"/>
<path d="M272.605 134.457C279.898 126.041 283.434 117.159 280.504 114.618C277.571 112.077 269.28 116.836 261.987 125.252C254.694 133.666 251.155 142.548 254.088 145.089C257.021 147.632 265.309 142.87 272.605 134.457Z" fill="#CFA160"/>
<path d="M400.235 310.353C380.881 310.353 365.191 313.5 365.191 317.38C365.191 321.26 380.881 324.406 400.235 324.406C419.586 324.406 435.276 321.26 435.276 317.38C435.276 313.5 419.586 310.353 400.235 310.353V310.353Z" fill="#CFA160"/>
<path d="M416.232 289.024C393.932 289.024 375.857 292.171 375.857 296.05C375.857 299.93 393.932 303.074 416.232 303.074C438.531 303.074 456.605 299.93 456.605 296.05C456.605 292.171 438.531 289.024 416.232 289.024Z" fill="#CFA160"/>
<path d="M265.297 275.707C257.732 270.81 250.028 269.574 248.093 272.94C246.16 276.303 250.441 282.827 257.66 287.502C264.884 292.175 272.588 293.411 274.865 290.269C277.141 287.127 272.86 280.603 265.297 275.707Z" fill="#CFA160"/>
</svg>
