<svg width="512" height="512" viewBox="0 0 512 512" fill="none" xmlns="http://www.w3.org/2000/svg">
<g clip-path="url(#clip0_140_13)">
<path d="M75.3562 452.246C209.871 446.195 344.55 448.201 479.108 451.514C487.964 451.754 487.824 438.399 479.108 437.841C463.313 436.827 447.522 436.081 431.731 435.349C444.466 428.061 458.996 422.709 469.077 411.713C470.617 410.09 470.549 407.524 468.926 405.984C467.923 405.033 466.505 404.659 465.165 404.99C448.991 409.918 436.488 422.309 422.636 431.528C421.568 432.264 420.94 433.485 420.962 434.782C407.989 434.232 395.014 433.89 382.041 433.512C394.956 423.52 411.273 416.017 421.043 402.799C434.256 401.699 447.537 401.653 460.758 402.661C475.646 404.154 503.075 415.798 494.368 435.899C492.162 440.05 493.738 445.202 497.889 447.408C502.039 449.614 507.191 448.038 509.397 443.887C509.635 443.438 509.834 442.969 509.988 442.484C517.423 420.903 503.236 400.624 484.336 391.407C479.913 311.395 474.121 230.805 477.778 150.65C488.112 148.34 487.486 133.978 479.129 129.115C470.871 123.448 459.671 126.641 450.412 127.2C427.388 128.457 404.472 130.12 381.478 131.954C372.464 133.767 360.055 129.431 352.824 132.58C341.819 139.98 352.88 156.02 363.874 151.359C379.56 156.742 400.051 154.522 416.433 154.76C433.687 155.01 450.934 155.218 468.179 154.724C464.012 232.1 464.904 309.666 470.851 386.926C437.092 382.038 402.559 387.407 368.515 387.328C369.759 310.368 369.536 233.355 369.056 156.353C368.978 154.13 367.114 152.393 364.892 152.471C362.78 152.545 361.085 154.241 361.011 156.353C358.318 233.503 355.263 310.76 354.427 387.876C344.062 388.274 333.697 388.693 323.333 389.134C321.303 331.112 319.518 273.023 318.346 214.963C321.807 214.216 324.622 211.71 325.766 208.359C329.606 186.799 299.992 190.061 286.328 190.232C274.316 190.102 262.316 190.139 250.305 190.238C238.579 190.336 226.856 190.505 215.135 190.746C205.927 189.613 196.585 190.362 187.676 192.951C173.095 199.843 180.94 218.243 195.57 217.23C190.604 276.364 191.132 335.757 191.496 395.055C181.557 395.5 171.619 395.925 161.679 396.331C158.908 362.673 158.78 329.151 154.505 295.666C176.623 290.752 177.778 266.126 153.293 265.46C121.437 263.407 89.7722 270.693 58.7203 276.633C46.949 280.645 49.3717 294.316 60.9049 297.121C60.034 331.329 61.5998 365.976 63.0648 400.108C55.2873 400.567 47.541 401.164 39.8246 401.898C39.8933 343.124 41.2424 283.813 44.1477 225.078C44.4437 198.139 49.5368 170.925 46.4717 144.158C43.4313 127.801 28.655 106.471 10.0049 116.689C8.95929 117.341 8.64185 118.717 9.2939 119.762C9.68964 120.396 10.3749 120.79 11.1214 120.811C12.0619 120.869 12.8716 121.043 13.7521 121.155C7.40316 168.573 9.12874 217.567 7.9855 265.326C7.86217 313.739 3.66135 362.206 4.69413 410.595C-7.69705 425.371 6.4122 446.432 24.2214 451.28C40.2997 455.657 58.9197 452.938 75.3562 452.246ZM377.737 143.951C380.164 142.182 386.522 141.113 384.873 137.112C382.245 133.729 377.146 138.998 374.274 140.217C371.029 142.67 366.918 143.68 362.906 143.011C359.301 142.584 356.018 141.05 360.083 137.93C375.138 134.889 390.508 133.685 405.852 134.344C401.946 136.943 398.376 140.015 395.223 143.488C389.39 143.302 383.552 143.455 377.737 143.951ZM407.322 143.88C412.708 140.249 420.281 139.196 424.244 133.875C431.13 133.637 438.016 133.376 444.902 133.091C439.38 136.629 434.033 140.503 428.576 144.153C421.416 144.091 414.561 144.165 407.322 143.88ZM440.56 144.216C444.698 141.379 455.03 138.588 454.597 132.711C462.214 132.781 472.374 131.245 477.642 137.887C478.933 140.275 478.045 143.258 475.656 144.55C474.871 144.975 473.985 145.178 473.093 145.137C462.259 144.524 451.407 144.331 440.56 144.216ZM24.5839 438.559C24.0831 438.395 23.6101 438.117 23.1157 437.914C33.2279 429.688 44.107 422.245 53.8224 413.569C68.1708 413.226 82.4591 412.877 96.7947 412.62C87.2262 419.806 78.7902 428.388 71.771 438.08C56.1732 438.065 39.8933 442.806 24.5839 438.559ZM84.0024 437.306C95.172 429.532 105.906 421.15 116.155 412.196C128.398 411.948 140.637 411.579 152.878 411.243C145.077 417.855 136.571 423.72 128.884 430.484C127.597 431.749 127.58 433.817 128.844 435.104C128.928 435.188 129.016 435.269 129.108 435.344C114.068 435.883 99.0329 436.538 84.0024 437.306ZM196.982 410.029C200.78 410.148 204.694 409.672 208.553 409.71C200.776 414.815 193.383 420.483 186.433 426.667C184.606 428.535 184.641 431.53 186.509 433.357L186.511 433.359C169.134 433.832 151.762 434.427 134.396 435.143C148.189 430.214 160.482 421.82 170.094 410.769C179.055 410.501 188.019 410.281 196.982 410.029ZM194.403 433.186C206.568 425.667 218.6 417.634 230.103 409.117C242.084 408.805 254.063 408.414 266.046 408.128C256.335 414.49 247.965 422.693 241.409 432.275C225.738 432.312 210.072 432.809 194.403 433.186ZM249.049 432.238C260.706 422.859 274.731 416.716 286.423 407.57C305.055 407.1 323.684 406.573 342.311 405.992C330.009 414.079 318.63 423.435 306.776 432.143C287.543 432.025 268.301 432.057 249.049 432.238ZM400.517 403.929C387.879 413.279 375.374 422.76 363.392 432.936C348.484 432.593 333.57 432.425 318.655 432.283C333.237 424.756 347 415.738 359.726 405.377C373.324 404.905 386.922 404.488 400.517 403.929ZM317.2 207.08C315.37 203.703 311.296 204.195 307.99 204.245C309.207 203.192 309.877 201.641 309.811 200.033C313.457 199.765 320.237 203.331 317.2 207.08ZM299.448 199.789C297.602 201.119 295.891 202.63 294.345 204.3C291.001 204.31 287.657 204.323 284.313 204.339C286.61 203.218 288.655 201.642 290.326 199.708C293.367 199.705 296.408 199.754 299.448 199.789ZM221.293 202.321C222.979 201.34 224.565 200.198 226.029 198.909C231.563 199.07 237.094 199.209 242.62 199.327C239.821 201.438 235.687 202.423 233.781 205.414C226.352 205.75 218.93 206.3 211.513 206.914C214.853 205.582 218.09 203.954 221.293 202.321ZM251.208 204.036C260.194 197.98 270.371 199.696 280.709 199.644C278.137 201.193 275.625 202.848 273.085 204.451C265.129 204.512 257.176 204.648 249.228 204.857L251.208 204.036ZM192.459 201.135C197.73 196.985 207.535 199.08 213.64 198.711C208.663 201.064 204.063 204.143 199.991 207.849C198.978 207.977 197.877 207.631 197.037 208.406C193.141 206.904 189.693 204.567 192.459 201.135ZM203.397 387.365C202.222 330.504 202.666 273.62 201.44 216.767C203.245 216.557 205.456 216.195 205.701 214.09C239.212 216.902 272.827 216.343 306.452 216.145C307.44 274.011 307.794 331.9 307.94 389.762C273.216 391.274 238.496 392.928 203.774 394.506C203.65 392.138 203.445 389.745 203.397 387.365ZM164.871 277.598C168.079 290.022 150.858 286.645 143.581 286.894C149.911 283.74 155.654 279.525 160.561 274.431C162.347 274.904 163.887 276.036 164.871 277.598ZM150.336 272.831C145.342 276.185 140.664 280.09 135.782 283.636C134.799 284.334 134.196 285.449 134.149 286.653C128.168 286.517 122.205 286.569 116.23 286.699C122.988 282.415 131.603 279.741 136.102 272.754C140.816 272.616 145.485 272.654 150.336 272.831ZM100.146 279.79C101.888 278.364 103.286 276.565 104.238 274.526C109.161 274.055 114.086 273.581 119.014 273.262C115.319 276.718 105.241 281.156 106.841 286.917C99.627 287.22 92.433 287.892 85.2872 288.929C90.154 285.779 95.5678 283.298 100.146 279.79ZM78.5843 277.207C82.9514 276.724 87.3249 276.247 91.7037 275.774C88.0992 278.96 84.4947 282.145 80.8891 285.33C79.8498 286.341 79.8273 288.003 80.8386 289.044C81.1025 289.314 81.421 289.525 81.7728 289.661C79.4187 290.129 77.0657 290.579 74.7235 291.164C74.4543 290.636 74.0564 290.185 73.5674 289.85C70.1666 287.646 59.9021 289.508 60.7011 283.083C61.2845 278.406 75.3938 277.559 78.5843 277.207ZM73.8065 389.612C72.9153 357.938 74.6709 328.67 71.6412 296.768C96.1962 298.498 120.884 296.794 145.483 298.186C144.98 331.124 147.901 363.98 149.18 396.867C124.18 398.048 99.1262 398.352 73.8098 399.528C74.0478 396.227 74.0468 392.913 73.8065 389.612ZM30.7892 328.018C30.9104 336.122 31.2085 344.185 31.5699 352.237C31.157 348.769 27.4131 348.976 24.8553 349.792C21.2304 349.431 18.8709 352.723 16.6359 355.067C16.593 345.851 16.8783 336.683 17.0188 327.476C21.9103 325.455 26.5294 322.827 30.7667 319.656C30.7774 322.443 30.7473 325.233 30.7892 328.018ZM29.9655 356.071C29.9301 355.877 30.0899 355.361 30.135 354.815L29.9655 356.071ZM30.7152 303.765C25.5824 306.692 21.0191 310.522 17.2472 315.07C17.5529 299.119 17.8049 283.169 18.1417 267.219C23.0106 264.188 27.5375 260.432 32.267 257.125C31.6418 272.633 31.0809 288.178 30.7152 303.765ZM32.9148 243.61C27.6179 247.413 22.7543 251.786 18.4109 256.65C18.7315 245.155 19.138 233.609 19.5445 222.033C25.518 217.056 30.7752 211.276 35.1637 204.858C34.2586 217.765 33.5089 230.682 32.9148 243.61ZM37.1435 178.93C36.5032 185.796 36.0807 192.676 35.5691 199.55C34.5599 198.441 32.9148 198.187 31.6182 198.94C27.0967 201.904 23.1425 205.655 19.9445 210.014C20.3745 196.39 20.6512 182.756 20.603 169.158C26.4457 163.818 33.0446 158.97 38.3446 153.074C38.5506 161.711 38.1495 170.35 37.1435 178.93ZM15.6911 404.868C16.5673 393.192 16.6724 381.327 16.6102 369.511C20.3038 367.77 22.3736 363.452 25.9545 361.272C27.5772 360.071 29.4969 358.953 29.7553 356.766C30.4149 355.445 31.7211 354.367 31.5967 352.781C32.3485 369.352 33.4607 385.864 34.5535 402.451C28.2292 403.126 21.9382 403.918 15.6911 404.868ZM37.5167 145.291C30.8449 144.372 25.0987 150.429 20.4367 154.502C20.1654 143.644 19.5434 132.839 18.5717 122.088C29.1419 125.063 36.7166 134.339 37.5167 145.291ZM11.0066 421.94C14.2744 421.964 14.5436 417.715 14.6733 415.05C15.2525 414.329 16.0933 413.694 16.6081 412.903C23.9254 413.446 31.2664 413.668 38.6181 413.692C30.8621 419.946 23.6166 426.809 16.9523 434.216C13.0915 431.335 10.8736 426.756 11.0066 421.94Z" fill="#333C4B"/>
<path d="M402.826 112.115C405.895 97.361 409.759 82.7831 414.4 68.4454C415.373 64.7218 413.143 60.9135 409.419 59.9408C408.873 59.7981 408.314 59.722 407.749 59.7145C396.066 58.9595 384.331 58.8898 372.629 58.7128C362.393 59.1289 347.295 56.7352 337.602 60.1692C319.293 75.8174 378.899 71.4815 385.588 73.0912C342.454 100.942 298.865 128.078 257.802 158.906C244.461 149.089 233.49 135.157 219.078 127.023C202.246 121.736 190.148 141.478 177.895 149.967C162.889 162.768 147.775 175.45 133 188.517C129.062 192.294 77.3016 235.413 93.9408 233.768C133.569 210.043 166.266 176.083 202.049 147.061C204.768 144.728 208.495 140.155 211.976 139.119C219.649 136.834 228.355 149.179 233.233 153.887C239.241 159.686 245.172 165.564 251.142 171.401C254.118 174.013 258.647 173.717 261.258 170.741C262.508 169.318 263.143 167.457 263.025 165.567C309.109 140.597 352.595 111.412 396.908 83.4662C394.696 91.856 392.195 100.179 389.833 108.534C388.971 112.157 391.209 115.791 394.832 116.653C398.275 117.472 401.765 115.49 402.826 112.115V112.115Z" fill="#CFA160"/>
<path d="M439.721 206.914C436.506 208.506 436.485 211.753 436.434 214.909C436.258 242.054 437.53 269.189 440.241 296.198C441.005 301.327 448.349 299.551 448.734 295.048C449.643 280.89 449.698 266.689 448.898 252.525C448.079 239.144 448.385 225.663 447.053 212.327C447.574 209.583 445.771 206.937 443.028 206.416C441.901 206.201 440.734 206.377 439.721 206.914V206.914Z" fill="#CFA160"/>
<path d="M443.926 323.415C448.09 323.271 451.349 319.778 451.206 315.614C451.068 311.651 447.889 308.471 443.926 308.334C439.761 308.478 436.502 311.97 436.646 316.135C436.783 320.098 439.963 323.278 443.926 323.415Z" fill="#CFA160"/>
<path d="M287.015 245.507C283.914 244.681 280.722 246.493 279.843 249.58C276.531 269.155 272.975 289.987 279.358 309.231C280.005 311.31 282.214 312.471 284.292 311.825C285.896 311.326 287.007 309.867 287.062 308.189C288.493 298.91 289.115 289.524 288.92 280.138C289.312 270.969 289.841 261.777 291.089 252.681C291.833 249.59 290.052 246.452 287.015 245.507V245.507Z" fill="#CFA160"/>
<path d="M284.016 330.742C280.129 330.876 277.087 334.136 277.221 338.023C277.348 341.722 280.317 344.69 284.016 344.818C287.902 344.684 290.945 341.423 290.811 337.537C290.682 333.838 287.714 330.869 284.016 330.742Z" fill="#CFA160"/>
<path d="M133.804 357.495C135.019 343.656 135.288 329.751 134.609 315.874C134.512 313.098 132.183 310.925 129.406 311.022C126.766 311.115 124.645 313.234 124.554 315.874C124.488 322.811 124.421 329.748 124.356 336.684C123.997 343.637 124.332 350.609 125.359 357.494C125.444 359.827 127.405 361.647 129.737 361.561C131.949 361.481 133.723 359.707 133.804 357.495Z" fill="#CFA160"/>
<path d="M119.805 382.764C122.81 385.77 127.684 385.77 130.689 382.765C133.695 379.76 133.695 374.886 130.69 371.881C128.487 369.678 125.173 369.02 122.296 370.215C118.366 371.866 116.519 376.39 118.17 380.32C118.555 381.232 119.109 382.062 119.805 382.764V382.764Z" fill="#CFA160"/>
</g>
<defs>
<clipPath id="clip0_140_13">
<rect width="512" height="512" fill="white"/>
</clipPath>
</defs>
</svg>
