<svg width="512" height="512" viewBox="0 0 512 512" fill="none" xmlns="http://www.w3.org/2000/svg">
<g clip-path="url(#clip0_147_14)">
<path d="M144.053 195C142.916 195.003 141.913 194.259 141.592 193.174C141.271 192.089 141.708 190.923 142.666 190.313L214.514 144.361L140.302 186.965C139.103 187.594 137.619 187.186 136.917 186.033C136.215 184.88 136.539 183.383 137.656 182.619L198.945 143.943L136.642 179.677C135.445 180.323 133.949 179.924 133.238 178.769C132.528 177.613 132.852 176.107 133.976 175.342L199.825 132.982L129.615 173.281C128.412 173.938 126.902 173.535 126.192 172.368C125.482 171.2 125.825 169.683 126.969 168.93L164.239 145.485L121.503 170.014C120.305 170.691 118.782 170.303 118.059 169.136C117.336 167.969 117.673 166.442 118.821 165.683L177.014 127.766L115.94 162.823C114.744 163.499 113.225 163.115 112.5 161.953C111.775 160.792 112.103 159.268 113.242 158.503L167.709 122.417L115.914 152.147C114.716 152.784 113.226 152.38 112.52 151.226C111.814 150.072 112.138 148.57 113.258 147.806L129.825 137.236L115.909 145.226C114.708 145.941 113.151 145.564 112.416 144.379C111.681 143.194 112.04 141.642 113.222 140.895L133.285 127.827L115.883 137.811C114.702 138.492 113.191 138.131 112.45 136.991C111.709 135.85 111.999 134.332 113.109 133.542L148.424 108.286L115.868 126.982C114.673 127.686 113.133 127.314 112.395 126.145C111.658 124.975 111.993 123.434 113.15 122.672L119.517 118.387L115.853 120.489C114.954 121.007 113.829 120.934 113.006 120.303C112.183 119.672 111.826 118.61 112.101 117.614L114.189 110.082C113.112 109.926 112.253 109.109 112.047 108.047C111.84 106.984 112.332 105.908 113.273 105.365L116.825 103.329C117.724 102.812 118.848 102.886 119.671 103.517C120.495 104.148 120.853 105.212 120.577 106.209L118.693 112.998L178.907 78.419C180.1 77.7434 181.616 78.1232 182.344 79.28C183.072 80.4367 182.753 81.9585 181.62 82.7293L175.228 87.0294L190.27 78.4139C191.45 77.7353 192.958 78.0956 193.699 79.2332C194.441 80.3729 194.153 81.8915 193.044 82.6835L157.729 107.95L209.161 78.3987C210.362 77.6834 211.918 78.0608 212.653 79.2456C213.388 80.4305 213.029 81.9828 211.848 82.7293L191.805 95.767L222.104 78.3732C223.304 77.7173 224.81 78.1161 225.522 79.2783C226.235 80.4405 225.902 81.9544 224.766 82.714L208.25 93.2683L234.193 78.3783C235.388 77.7023 236.907 78.0864 237.633 79.2481C238.358 80.4098 238.03 81.9336 236.89 82.6988L182.424 118.784L252.838 78.363C254.04 77.6478 255.596 78.0252 256.331 79.21C257.066 80.3949 256.707 81.9472 255.525 82.6937L197.343 120.606L270.951 78.3681C272.161 77.6402 273.735 78.0252 274.467 79.2281C275.2 80.431 274.812 81.9963 273.603 82.7242L236.302 106.189L284.786 78.3579C285.987 77.6779 287.515 78.0698 288.235 79.2429C288.956 80.4161 288.609 81.9464 287.452 82.6988L221.582 125.069L302.504 78.5971C303.704 77.9505 305.204 78.3542 305.912 79.5146C306.62 80.675 306.287 82.1836 305.156 82.943L243.902 121.583L304.101 87.0294C305.308 86.2972 306.884 86.6766 307.62 87.8767C308.356 89.0768 307.975 90.6431 306.768 91.3753L234.961 137.302L308.887 94.8662C310.088 94.1717 311.627 94.5572 312.354 95.7347C313.081 96.9122 312.73 98.4513 311.563 99.202L243.012 143.684L317.198 101.11C318.399 100.472 319.892 100.881 320.596 102.04C321.299 103.199 320.967 104.702 319.839 105.461L288.941 124.824L326.15 103.451C327.344 102.805 328.838 103.2 329.552 104.351C330.265 105.502 329.949 107.006 328.832 107.777L271.038 145.49L328.069 112.754C329.268 112.124 330.752 112.533 331.454 113.686C332.156 114.839 331.832 116.336 330.715 117.1L311.569 129.196L328.085 119.685C329.272 119.018 330.776 119.394 331.505 120.54C332.234 121.686 331.932 123.198 330.818 123.98L280.471 158.523L328.105 131.18C329.304 130.514 330.818 130.908 331.535 132.072C332.253 133.237 331.918 134.757 330.777 135.516L325.019 139.216L328.12 137.435C329.318 136.727 330.865 137.102 331.6 138.279C332.336 139.455 331.991 141 330.823 141.755L318.222 150.131L328.156 144.427C329.331 143.79 330.802 144.16 331.53 145.278C332.257 146.395 331.996 147.881 330.93 148.686L308.319 164.884L328.172 153.495C329.326 152.84 330.792 153.172 331.547 154.259C332.302 155.347 332.094 156.828 331.069 157.668L308.329 176.044C309.163 176.126 309.903 176.609 310.311 177.336C310.72 178.064 310.744 178.944 310.376 179.693L305.893 188.853C306.076 189.023 306.233 189.221 306.358 189.438C306.699 190.023 306.792 190.718 306.616 191.371C306.441 192.025 306.011 192.581 305.422 192.919L302.622 194.522C301.648 195.083 300.419 194.945 299.595 194.182C298.771 193.419 298.545 192.21 299.039 191.204L302.11 184.955L285.43 194.527C284.276 195.182 282.81 194.85 282.055 193.763C281.3 192.675 281.508 191.194 282.534 190.354L302.919 173.876L266.913 194.542C265.735 195.199 264.247 194.832 263.513 193.704C262.78 192.577 263.054 191.077 264.139 190.278L286.736 174.095L251.078 194.557C249.885 195.222 248.377 194.837 247.654 193.683C246.931 192.528 247.249 191.013 248.375 190.242L261.032 181.866L238.902 194.588C237.703 195.254 236.189 194.86 235.472 193.696C234.754 192.531 235.089 191.012 236.23 190.252L242.008 186.537L227.975 194.593C226.787 195.259 225.283 194.883 224.554 193.738C223.825 192.592 224.127 191.079 225.242 190.298L275.558 155.775L207.881 194.583C206.678 195.24 205.168 194.837 204.458 193.67C203.748 192.502 204.091 190.985 205.235 190.232L224.428 178.125L195.736 194.593C194.537 195.27 193.015 194.882 192.292 193.715C191.569 192.548 191.906 191.021 193.054 190.262L250.888 152.544L177.618 194.603C176.412 195.275 174.888 194.873 174.175 193.697C173.462 192.52 173.817 190.993 174.977 190.247L205.895 170.869L164.526 194.613C163.321 195.35 161.745 194.976 161.004 193.779C160.264 192.581 160.64 191.014 161.844 190.278L230.329 145.841L145.333 194.634C144.946 194.866 144.505 194.992 144.053 195V195Z" fill="#CFA160"/>
<path d="M354.564 439C353.395 438.998 352.362 438.235 352.014 437.115C351.665 435.996 352.083 434.779 353.044 434.111L361.249 428.423L350.604 434.578C349.36 435.296 347.774 434.903 347.007 433.687C346.239 432.469 346.567 430.861 347.751 430.043L372.163 413.247L344.031 429.534C342.792 430.238 341.22 429.847 340.454 428.643C339.688 427.439 339.997 425.844 341.157 425.015L387.936 392.173L335.152 422.724C333.895 423.428 332.307 423.009 331.559 421.775C330.811 420.541 331.171 418.935 332.374 418.141L335.906 415.887L330.394 419.075C329.139 419.766 327.564 419.346 326.819 418.12C326.074 416.895 326.422 415.298 327.61 414.497L350.721 399.589L324.656 414.674C323.406 415.387 321.817 414.982 321.059 413.757C320.301 412.532 320.643 410.925 321.835 410.118L378.232 372.377L316.237 408.245C314.986 408.947 313.406 408.536 312.653 407.314C311.9 406.091 312.241 404.491 313.427 403.684L374.079 363.436L308.422 401.489C307.161 402.185 305.577 401.757 304.836 400.519C304.096 399.281 304.465 397.678 305.671 396.89L308.695 395.001L304.215 397.593C302.958 398.298 301.371 397.878 300.623 396.644C299.875 395.411 300.235 393.805 301.438 393.01L344.604 365.449L298.403 392.195C297.135 392.956 295.491 392.543 294.731 391.272C293.972 390 294.384 388.352 295.652 387.59L305.2 381.65L294.828 387.644C293.574 388.358 291.982 387.949 291.226 386.718C290.47 385.487 290.823 383.878 292.023 383.077L368.025 333.17L288.533 379.203C287.277 379.935 285.667 379.529 284.907 378.287C284.147 377.045 284.514 375.422 285.734 374.631L364.257 323.355L283.154 370.305C281.894 371.037 280.282 370.625 279.525 369.377C278.768 368.127 279.149 366.499 280.382 365.717L337.111 329.725L279.563 363.034C278.301 363.72 276.725 363.286 275.989 362.05C275.254 360.814 275.621 359.217 276.822 358.43L286.194 352.645L277.047 357.936C275.787 358.644 274.193 358.221 273.447 356.98C272.701 355.74 273.072 354.129 274.286 353.342L332.213 316.685L274.596 350.026C273.345 350.717 271.773 350.301 271.025 349.08C270.277 347.86 270.617 346.266 271.797 345.459L351.862 293.003L271.604 339.454C270.345 340.128 268.78 339.693 268.047 338.465C267.314 337.238 267.671 335.649 268.858 334.855L272.798 332.408L270.625 333.664C269.37 334.346 267.802 333.92 267.061 332.696C266.321 331.473 266.669 329.882 267.852 329.081L310.012 302.115L269.87 325.357C268.614 326.03 267.053 325.599 266.317 324.377C265.582 323.155 265.929 321.569 267.108 320.769L282.496 311.066L269.244 318.729C267.998 319.411 266.438 318.999 265.688 317.791C264.939 316.582 265.261 314.997 266.423 314.179L320.519 278.063L269.03 307.868C267.77 308.608 266.15 308.199 265.391 306.948C264.631 305.698 265.012 304.067 266.246 303.285L287.516 289.579L269.03 300.28C267.772 300.973 266.193 300.548 265.45 299.317C264.707 298.086 265.066 296.486 266.262 295.692L268.794 294.082C267.516 294.665 266.006 294.159 265.335 292.923C264.664 291.687 265.059 290.14 266.241 289.381L280.296 280.258L269.024 286.778C267.782 287.471 266.216 287.069 265.459 285.863C264.701 284.657 265.017 283.067 266.177 282.244L303.156 256.85L269.019 276.636C267.786 277.345 266.214 276.964 265.441 275.768C264.668 274.571 264.963 272.977 266.113 272.139L278.525 263.129L269.019 268.586C267.852 269.261 266.366 268.961 265.551 267.885C264.736 266.809 264.846 265.293 265.807 264.347L276.753 253.614L269.014 258.09C267.97 258.69 266.655 258.518 265.8 257.669C264.945 256.82 264.759 255.504 265.347 254.451L268.211 249.375C267.019 249.333 265.998 248.506 265.707 247.346C265.417 246.187 265.927 244.974 266.958 244.373L273.638 240.504C274.679 239.903 275.993 240.072 276.849 240.917C277.704 241.767 277.888 243.085 277.299 244.137L274.826 248.516L292.489 238.288C293.656 237.613 295.142 237.913 295.957 238.989C296.772 240.065 296.662 241.581 295.7 242.527L284.749 253.26L320.69 232.46C321.922 231.768 323.478 232.154 324.245 233.343C325.012 234.532 324.726 236.114 323.591 236.957L311.168 245.978L360.682 217.321C361.921 216.652 363.465 217.059 364.216 218.253C364.966 219.446 364.666 221.019 363.53 221.851L326.561 247.244L369.016 222.672C370.267 221.99 371.832 222.412 372.575 223.63C373.318 224.849 372.979 226.437 371.804 227.244L357.77 236.367L375.722 225.983C376.975 225.319 378.527 225.75 379.262 226.966C379.996 228.181 379.657 229.76 378.489 230.566L376.22 232.015L382.006 228.671C383.26 227.98 384.835 228.4 385.58 229.626C386.325 230.851 385.977 232.448 384.789 233.249L363.46 246.997L390.377 231.435C391.622 230.753 393.183 231.165 393.932 232.374C394.681 233.583 394.359 235.168 393.197 235.986L339.193 272.047L403.42 234.864C404.678 234.181 406.25 234.611 406.988 235.84C407.726 237.069 407.368 238.663 406.177 239.458L390.655 249.23L412.203 236.758C413.46 236.054 415.048 236.473 415.796 237.707C416.544 238.941 416.184 240.547 414.981 241.341L372.848 268.286L423.984 238.685C425.248 237.971 426.849 238.397 427.594 239.646C428.339 240.894 427.955 242.511 426.729 243.289L422.662 245.806L433.077 239.785C434.333 239.053 435.943 239.459 436.703 240.701C437.463 241.942 437.096 243.566 435.876 244.357L355.897 296.77L447.218 243.901C448.475 243.208 450.055 243.632 450.797 244.864C451.54 246.095 451.182 247.695 449.985 248.489L392.03 285.168L448.01 252.766C449.275 252.065 450.866 252.497 451.605 253.743C452.344 254.988 451.963 256.596 450.745 257.376L441.48 263.102L448.026 259.318C449.284 258.625 450.863 259.05 451.606 260.281C452.348 261.513 451.99 263.112 450.793 263.907L394.059 299.915L448.015 268.683C449.269 267.98 450.852 268.396 451.603 269.623C452.353 270.851 452.003 272.454 450.809 273.255L372.243 324.546L448.01 280.693C449.261 280.002 450.833 280.418 451.581 281.638C452.329 282.858 451.989 284.452 450.809 285.259L374.844 335.129L448.01 292.772C449.274 292.058 450.876 292.484 451.62 293.733C452.365 294.982 451.981 296.598 450.756 297.377L441.229 303.28L448.01 299.362C449.265 298.68 450.833 299.106 451.573 300.33C452.313 301.553 451.966 303.144 450.782 303.945L407.664 331.49L448.01 308.136C449.274 307.422 450.876 307.848 451.62 309.097C452.365 310.346 451.981 311.962 450.756 312.74L447.742 314.619H447.791C449.037 313.946 450.591 314.362 451.336 315.57C452.08 316.777 451.758 318.357 450.6 319.175L389.916 359.422L446.881 326.451C448.127 325.769 449.687 326.181 450.436 327.39C451.185 328.599 450.863 330.184 449.701 331.002L393.31 368.744L444.306 339.229C445.568 338.457 447.216 338.857 447.986 340.122C448.756 341.388 448.357 343.04 447.095 343.812L424.01 358.687L441.673 348.459C442.937 347.69 444.583 348.093 445.35 349.36C446.117 350.627 445.714 352.278 444.451 353.047L438.975 356.535C440.101 356.238 441.289 356.705 441.914 357.689C442.683 358.9 442.364 360.504 441.191 361.327L394.439 394.159L428.988 374.158C430.232 373.445 431.815 373.841 432.58 375.056C433.344 376.271 433.018 377.874 431.841 378.693L407.413 395.5L415.441 390.869C416.679 390.191 418.23 390.593 418.985 391.788C419.74 392.983 419.44 394.56 418.299 395.393L388.862 415.812C388.994 415.954 389.109 416.11 389.204 416.279C389.94 417.561 389.502 419.198 388.225 419.939L355.924 438.64C355.511 438.881 355.042 439.005 354.564 439V439Z" fill="#CFA160"/>
<path d="M70.6223 137.762C70.4858 176.614 132.224 171.998 134.179 135.731C134.179 135.569 134.076 135.475 134.059 135.33C134.042 135.185 134.187 135.04 134.179 134.878C132.114 96.4267 70.7503 101.069 70.6223 137.762ZM100.711 158.242C90.2845 155.521 83.041 146.063 83.1322 135.287C83.1322 123.076 92.9626 111.172 106.061 115.465C115.43 118.896 121.69 127.776 121.771 137.754C121.012 148.77 113.613 161.126 100.694 158.259L100.711 158.242Z" fill="#333C4B" stroke="#333C4B"/>
<path d="M509.645 199.817C505.694 189.653 501.837 190.43 491.836 187.87C475.181 184.186 458.34 181.397 441.387 179.516V59.7333C441.387 39.3813 449.587 12.2283 427.563 5.04319C403.32 -2.86721 362.82 5.04319 337.715 5.04319H43.1021C27.9895 5.00905 9.08821 1.04105 2.34687 17.8347C-0.929926 26.0181 2.34687 43.5456 2.34687 52.0192V202.24C2.34687 216.499 -2.18433 240.418 2.34687 254.217C10.2317 278.195 50.62 268.032 71.9192 268.032H205.244C206.097 278.528 206.951 288.58 207.062 297.045C207.915 390.409 261.018 438.417 329.404 490.752C345.08 502.741 351.71 510.677 370.714 502.366C396.766 490.982 425.583 462.532 447.164 443.315C519.245 379.127 509.816 289.152 509.747 201.941C509.945 201.241 509.909 200.495 509.645 199.817V199.817ZM117.598 261.009H51.7293C42.3426 261.009 24.1239 264.653 17.3314 257.92C11.3581 252.015 14.7202 234.812 14.7202 227.021V33.9968C14.7202 11.6992 13.6962 12.0576 36.173 12.0576H402.774C410.53 12.0576 421.188 9.56585 426.539 15.2235C434.125 23.2192 429.031 50.944 429.031 61.2437V177.382C421.549 175.959 414.179 173.997 406.98 171.511C407.124 171.246 407.219 170.957 407.262 170.658V83.6779C407.262 82.3893 405.555 81.8944 403.362 82.0139C381.585 80.8463 364.541 62.8198 364.595 41.0112C364.595 39.6203 362.599 39.168 360.252 39.3728H88.2434C84.685 39.1595 79.4626 40.9856 79.1725 43.5029C79.2123 62.8053 67.3453 75.6878 43.5714 82.1504C41.1309 82.432 36.4887 83.8571 36.4887 86.9888V189.389C36.4887 190.285 38.2722 190.857 38.8354 190.916C63.309 193.741 76.3821 208.068 79.1554 232.055C79.3175 233.506 81.8861 233.694 82.8759 233.694H203.375C203.375 242.62 203.947 251.887 204.672 261.001L117.598 261.009ZM341.334 157.449C334.914 156.891 329.116 153.386 325.641 147.959C320.234 139.522 320.957 128.546 327.424 120.892C331.05 117.164 336.089 115.153 341.285 115.36C346.481 115.567 351.344 117.972 354.663 121.975C361.883 129.99 362.512 141.962 356.173 150.69C355.362 150.733 354.586 150.622 353.75 150.733C348.766 151.39 345.916 155.307 341.334 157.449V157.449ZM325.777 111.189C313.503 117.589 307.192 131.547 310.494 144.99C312.843 153.679 319.338 160.643 327.842 163.593C313.17 170.552 297.813 175.963 282.018 179.738C276.693 180.729 271.303 181.336 265.89 181.555C310.084 140.407 275.968 60.8853 209.135 75.2299C140.74 89.9157 140.672 185.182 208.999 198.46C208.196 199.805 207.546 201.236 207.062 202.726C204.758 210.645 203.549 218.842 203.469 227.089H144.427C130.842 227.089 113.391 229.905 100.173 227.089C83.5586 223.539 94.3106 228.284 86.9634 209.621C80.5293 193.271 67.5671 194.534 56.2434 185.66C52.3181 182.571 50.6797 182.093 50.0397 182.246C49.8936 180.21 49.4804 178.202 48.8109 176.273C48.1197 170.688 48.1197 165.039 48.8109 159.454V87.2704C70.3655 84.2929 87.3858 67.4775 90.6242 45.9605H352.427C353.968 68.7045 372.137 86.7786 394.889 88.2005V166.135C386.309 160.469 377.156 155.721 367.582 151.97C385.041 125.252 353.929 95.8549 325.777 111.189V111.189ZM215.356 191.735C162.509 179.516 148.403 99.2427 207.428 83.2683C267.947 66.8843 295.552 147.029 253.508 182.332C240.199 182.178 227.069 185.414 215.356 191.735V191.735ZM428.203 446.157C415.053 456.943 373.863 499.319 357.18 497.459C347.017 496.324 327.996 475.145 319.949 468.983C309.462 460.962 298.616 453.274 288.418 444.868C238.353 403.507 219.606 351.002 219.606 287.804V233.19C219.606 213.564 214.025 202.556 233.754 196.497C253.022 190.575 275.661 191.061 295.424 185.907C317.329 180.198 344.508 159.121 366.831 164.813C384.683 169.361 401.818 181.342 420.455 186.146C423.915 186.871 427.414 187.401 430.934 187.733C431.842 188.011 432.794 188.118 433.741 188.049C455.467 190.447 493.244 193.664 497.221 202.991C497.272 293.052 506.206 382.157 428.203 446.157Z" fill="#333C4B" stroke="#333C4B"/>
<path d="M467.738 223.522C467.584 223.478 467.427 223.444 467.269 223.42C467.175 223.369 467.183 223.283 466.995 223.258C445.613 220.514 424.493 216.016 403.849 209.809C388.591 204.919 374.835 193.758 358.477 194.816C356.177 195.166 353.897 195.645 351.65 196.25C319.83 201.788 289.357 218.547 256.128 223.411C254.578 223.677 253.088 224.214 251.725 224.998C251.215 225.108 250.717 225.271 250.24 225.485C234.88 233.643 241.349 257.587 241.349 272.418C241.349 305.092 240.222 336.896 253.816 367.616C266.667 396.629 288.615 416.461 313.31 435.234C327.595 446.089 342.067 464.981 361.711 461.397C373.76 459.196 384.393 447.061 393.634 440.064C418.279 421.291 442.274 403.217 457.634 375.535C472.994 347.853 475.358 319.855 475.554 289.28C475.64 273.801 483.926 232.107 467.738 223.522V223.522ZM456.883 350.114C447.221 380.426 428.199 406.895 402.552 425.719C393.302 432.964 367.898 458.266 358.52 457.404C348.672 456.499 325.308 431.488 316.826 424.892C291.843 406.875 272.68 381.939 261.701 353.161C255.727 336.094 240.435 243.081 257.698 227.123C286.336 222.387 312.312 212.378 340.31 206.123C374.332 198.511 421.103 222.558 456.278 227.866C476.715 239.411 462.217 331.699 456.883 350.114V350.114Z" fill="#333C4B" stroke="#333C4B"/>
<path d="M403.934 273.254L333.713 351.275L312.986 330.547C310.426 327.987 298.829 332.467 301.414 335.053L327.014 360.653C329.489 363.127 336.529 360.371 338.466 358.212L415.266 272.879C418.278 269.534 406.229 270.694 403.934 273.254V273.254Z" fill="#333C4B" stroke="#333C4B"/>
<path d="M232.73 153.412H227.84C227.891 153.225 228.036 153.062 228.036 152.866V110.199C228.036 105.079 218.957 107.716 216.858 109.815C214.013 112.66 211.169 115.504 208.324 118.349C204.177 122.487 211.175 123.341 215.646 121.941V153.412C212.521 153.147 209.47 154.459 207.514 156.911C206.183 159.403 208.657 160.99 210.987 160.99H228.054C231.179 161.255 234.23 159.943 236.186 157.491C237.534 154.999 235.059 153.412 232.73 153.412Z" fill="#333C4B" stroke="#333C4B"/>
</g>
<defs>
<clipPath id="clip0_147_14">
<rect width="512" height="512" fill="white"/>
</clipPath>
</defs>
</svg>
