<svg width="512" height="512" viewBox="0 0 512 512" fill="none" xmlns="http://www.w3.org/2000/svg">
<path d="M74.2943 183.653C74.2943 189.378 73.9297 195.375 76.3734 200.502C79.329 206.701 86.1557 210.665 93.3469 210.665C94.3709 210.665 95.4027 210.587 96.4345 210.417C103.533 209.268 110.158 204.164 113.726 197.12C117.574 189.549 117.737 181.07 117.869 173.584L118.435 142.212C118.528 136.976 118.66 129.8 114.603 124.168C107.466 114.254 89.6776 114.013 81.7882 118.225C68.2046 125.448 70.8422 141.584 72.6109 152.444C74.2866 162.754 74.2866 172.901 74.2943 183.653V183.653ZM85.4187 125.075C90.6628 122.29 103.99 122.709 108.304 128.706C110.662 131.98 110.77 136.696 110.677 142.072L110.111 173.436C109.436 210.3 87.2805 205.366 83.3862 197.167C81.7261 193.683 82.0597 187.617 82.0597 183.645C82.0519 173.064 82.0519 162.118 80.2366 151.017C78.3283 139.349 77.4051 129.342 85.4187 125.075V125.075Z" fill="#333C4B" stroke="#333C4B" stroke-width="2"/>
<path d="M173.754 175.422C173.521 133.609 174.15 126.627 171.962 118.869C166.827 100.717 148.728 98.6686 137.999 108.831C129.505 116.899 130.405 124.951 131.274 132.74C134.563 162.552 126.805 186.678 136.75 199.471C145.105 210.199 173.971 214.109 173.754 175.422ZM161.862 194.832C157.378 200.231 147.254 200.324 142.871 194.692C135.331 184.995 142.157 160.815 138.985 131.871C138.155 124.385 137.643 119.862 143.352 114.448C150.629 107.536 161.233 109.405 164.499 120.972C166.408 127.736 165.787 136.254 166.004 175.461C166.043 182.993 165.764 190.13 161.862 194.832Z" fill="#CFA160" stroke="#CFA160" stroke-width="2"/>
<path d="M186.539 154.252C185.018 174.096 184.677 182.792 187.376 190.549C194.141 210.013 216.475 210.37 224.9 192.101C228.298 184.731 228.422 176.578 228.53 169.371C229.368 109.684 232.378 93.409 218.849 83.7896C205.816 74.527 178.339 83.4793 185.716 113.757C188.641 125.836 187.85 137.053 186.539 154.252ZM195.514 93.4167C200.176 87.8468 208.966 86.303 214.357 90.1198C223.736 96.7835 221.618 109.203 220.773 169.27C220.672 176.012 220.571 182.978 217.856 188.858C212.542 200.37 199.308 201.201 194.707 188.005C189.386 172.684 199.564 137.961 193.249 111.934C191.519 104.82 190.262 99.6771 195.514 93.4167V93.4167Z" fill="#333C4B" stroke="#333C4B" stroke-width="2"/>
<path d="M290.537 218.958C276.992 218.321 262.974 221.463 250.182 228.057C226.979 240.004 210.711 261.298 205.56 286.48C194.932 338.385 236.234 382.86 286.293 382.86C291.01 382.86 295.742 382.449 300.412 381.611C344.638 373.636 377.561 329.076 365.979 281.235C357.779 247.381 325.345 220.602 290.537 218.958ZM307.898 229.966C311.459 231.106 314.942 232.518 318.301 234.186L315.074 237.413L307.821 230.16C307.867 230.105 307.852 230.028 307.898 229.966V229.966ZM290.172 226.707C293.779 226.878 297.356 227.382 300.878 228.127C300.955 228.484 301.017 228.849 301.289 229.12L302.344 230.183L294.144 238.39L282.671 226.917C286.053 226.692 286.061 226.513 290.172 226.707ZM277.946 227.669L280.948 230.672L272.26 239.36L263.672 230.772C268.319 229.151 273.043 227.972 277.799 227.32C277.876 227.429 277.853 227.569 277.946 227.669V227.669ZM253.727 234.954C255.69 233.945 257.699 233.123 259.708 232.293L269.521 242.106L259.856 251.772L255.55 247.459L258.886 244.123C259.646 243.363 259.646 242.137 258.886 241.377C258.126 240.617 256.9 240.617 256.14 241.377L252.804 244.713L246.993 238.902C249.173 237.498 251.4 236.156 253.727 234.954ZM251.726 261.143L246.792 256.209L252.804 250.197L257.109 254.511L252.16 259.46C251.702 259.925 251.625 260.538 251.726 261.143V261.143ZM243.774 241.16L250.065 247.451L244.053 253.463L237.11 246.513C239.22 244.62 241.447 242.835 243.774 241.16V241.16ZM234.271 249.173L241.307 256.217L229.702 267.823L223.884 262.004C226.878 257.373 230.338 253.075 234.271 249.173V249.173ZM221.037 279.226C221.789 279.979 223.015 279.986 223.783 279.226L229.71 273.299L232.557 276.146L219.004 289.699L214.031 284.726C215.754 277.884 218.345 271.383 221.789 265.371L226.963 270.545L221.037 276.472C220.284 277.24 220.284 278.466 221.037 279.226ZM217.468 330.488C216.801 328.937 216.149 327.385 215.599 325.803C215.909 325.717 216.242 325.679 216.491 325.43L220.711 321.21L230.369 330.868L224.116 337.121L217.468 330.488ZM214.412 322.017C213.551 319.03 212.852 315.997 212.402 312.917L217.957 318.472L214.412 322.017ZM211.859 306.882C211.735 304.718 211.727 302.538 211.797 300.342C212.084 300.497 212.364 300.707 212.682 300.707C213.178 300.707 213.675 300.521 214.055 300.141L219.004 295.191L230.121 306.308L220.703 315.733L211.859 306.882ZM211.929 296.782C212.146 294.253 212.511 291.716 212.992 289.179L216.266 292.453L211.929 296.782ZM299.039 373.977C272.609 378.733 241.509 367.818 224.225 342.73L229.058 347.563C229.81 348.315 231.036 348.323 231.796 347.563C232.557 346.802 232.557 345.577 231.796 344.817L226.847 339.859L244.216 322.49C244.976 321.73 244.976 320.504 244.216 319.744C243.456 318.984 242.23 318.984 241.47 319.744L233.1 328.114L223.441 318.456L242.804 299.093C243.565 298.333 243.565 297.107 242.804 296.347C242.044 295.587 240.818 295.587 240.058 296.347L232.851 303.554L221.735 292.437L235.287 278.885L242.688 286.278C243.44 287.03 244.666 287.038 245.434 286.278C246.194 285.518 246.194 284.292 245.434 283.532L238.033 276.131L246.877 267.287C247.637 266.527 247.637 265.301 246.877 264.541C246.117 263.781 244.891 263.781 244.131 264.541L235.287 273.385L232.44 270.53L244.046 258.925L254.123 269.002C254.875 269.754 256.101 269.762 256.869 269.002C257.629 268.241 257.629 267.016 256.869 266.263L253.215 262.609C253.331 262.633 253.417 262.741 253.533 262.741C254.03 262.741 254.526 262.555 254.906 262.175L259.856 257.226L262.656 260.026C263.408 260.779 264.634 260.786 265.402 260.026C266.162 259.266 266.162 258.04 265.402 257.28L262.602 254.48L272.268 244.814L277.954 250.5C278.706 251.252 279.932 251.26 280.7 250.5C281.46 249.74 281.46 248.514 280.7 247.754L275.014 242.067L283.702 233.379L291.421 241.098L286.712 245.807C285.952 246.567 285.952 247.793 286.712 248.553C287.457 249.297 288.69 249.321 289.458 248.553L294.167 243.844L298.325 248.002C299.078 248.754 300.304 248.762 301.072 248.002C301.832 247.242 301.832 246.016 301.072 245.256L296.913 241.098L305.113 232.89L312.343 240.12L307.634 244.829C306.874 245.589 306.874 246.815 307.634 247.575C308.387 248.328 309.613 248.336 310.381 247.575L315.089 242.866L322.056 249.833C322.808 250.585 324.034 250.593 324.794 249.833C325.554 249.073 325.554 247.847 324.794 247.094L317.828 240.128L321.862 236.094C339.658 246.132 353.652 263.222 358.447 283.043C369.012 326.672 338.424 366.879 299.039 373.977V373.977Z" fill="#CFA160" stroke="#CFA160" stroke-width="2"/>
<path d="M397.304 273.532C394.426 261.508 389.213 249.872 381.89 238.871C381.89 234.062 380.889 133.485 378.221 129.753C353.505 95.0613 322.366 62.8674 283.159 31.3716C282.639 30.0839 281.491 29.0987 280.017 28.9435C279.211 28.8582 278.497 29.0676 277.861 29.3857C220.393 30.0839 162.994 30.7743 105.588 31.3871C53.1238 32.1551 31.806 48.5779 33.8074 117.302L42.1003 395.877C43.4346 440.351 54.365 458.31 106.667 464.314C166.152 471.226 227.235 474.965 288.217 475.431C331.411 475.819 359.447 467.627 371.053 425.154C372.247 427.567 373.574 429.964 375.024 432.446C382.27 445.06 389.042 456.27 398.538 465.695C426.449 493.359 461.413 485.368 474.438 460.241C478.293 452.934 479.325 445.006 477.254 438.474C475.058 431.686 469.783 426.605 465.532 422.501C450.226 407.955 436.038 394.884 422.152 382.542C412.455 373.915 403.347 367.88 391.013 372.752C385.676 367.259 386.754 368.322 381.541 363.016C400.275 334.949 404.263 302.274 397.304 273.532V273.532ZM369.121 130.49C351.938 133.942 303.251 139.528 290.987 127.131C279.296 115.347 281.507 57.6388 282.841 41.1462C317.936 69.857 346.267 99.1806 369.121 130.49V130.49ZM288.287 467.673C227.576 467.208 166.772 463.484 107.559 456.611C59.2135 451.049 51.0603 436.17 49.8656 395.636L41.565 117.031C39.6799 53.6436 57.0259 39.8429 105.681 39.137C162.226 38.5319 218.771 37.8492 275.378 37.1665C273.222 60.7806 273.462 84.6507 276.286 108.21C279.723 136.797 291.468 142.445 328.091 142.445C342.637 142.445 357.151 140.909 371.448 137.984C373.007 167.377 373.931 197.686 374.109 228.445C341.085 189.215 286.076 173.762 236.141 199.533C171.745 232.611 149.644 316.09 197.151 373.488C234.581 418.7 304.617 430.608 355.568 390.904C355.716 391.028 367.515 400.733 367.655 400.849C360.937 459.629 334.553 468.015 288.287 467.673V467.673ZM417.877 470.435L426.814 461.498L433.959 468.643L430.941 471.661C430.181 472.421 430.181 473.647 430.941 474.407C431.693 475.159 432.919 475.167 433.687 474.407L436.705 471.389L440.475 475.159C432.493 476.082 424.999 474.159 417.877 470.435V470.435ZM429.56 458.752L434.688 453.624L441.833 460.769L436.705 465.897L429.56 458.752ZM469.884 440.84C471.327 445.386 470.489 451.15 467.588 456.634C467.588 456.642 467.58 456.65 467.572 456.657C462.972 465.54 454.26 472.041 444.563 474.399C444.501 474.011 444.416 473.616 444.113 473.313L439.436 468.635L444.563 463.507L449.288 468.232C451.087 470.032 453.849 467.309 452.034 465.486L447.309 460.761L457.014 451.056L462.382 456.425C463.135 457.177 464.361 457.185 465.129 456.425C465.889 455.664 465.889 454.439 465.129 453.679L459.76 448.31L461.389 446.681C462.15 445.921 462.15 444.695 461.389 443.935C460.629 443.175 459.404 443.175 458.643 443.935L457.014 445.564L453.896 442.446L464.19 432.159C466.641 434.797 468.852 437.644 469.884 440.84V440.84ZM417.016 388.336C430.84 400.624 444.974 413.642 460.187 428.102C460.614 428.513 461.056 428.955 461.49 429.382L451.157 439.715L445.758 434.316C444.998 433.555 443.772 433.555 443.02 434.316C442.259 435.076 442.259 436.302 443.02 437.062L454.284 448.318L444.579 458.023L437.434 450.878L445.673 442.639C446.433 441.879 446.433 440.654 445.673 439.893C444.912 439.133 443.687 439.133 442.926 439.893L434.688 448.124L433.679 447.116C432.927 446.363 431.701 446.355 430.933 447.116C430.173 447.876 430.173 449.102 430.933 449.862L431.942 450.87L426.814 455.998L421.593 450.777C420.833 450.017 419.607 450.017 418.847 450.777C418.087 451.537 418.087 452.763 418.847 453.523L424.068 458.744L414.386 468.426C410.795 466.168 407.304 463.438 404.007 460.179C395.186 451.437 388.709 440.692 381.742 428.544C378.515 423.052 375.761 418.064 374.761 412.726C372.899 402.649 380.649 386.374 391.928 380.796C401.641 375.661 408.809 381.029 417.016 388.336V388.336ZM383.953 376.607C378.244 380.765 373.473 387.173 370.641 393.255L361.666 385.877C367.298 380.951 374.125 373.419 376.987 369.4C379.679 372.146 381.51 374.078 383.953 376.607ZM386.831 335.453C359.773 413.013 256.605 433.144 203.109 368.539C158.984 315.198 179.394 237.405 239.686 206.429C292.507 179.169 347.462 202.155 374.807 242.176H374.815C394.542 271.135 397.087 305.858 386.831 335.453V335.453Z" fill="#333C4B" stroke="#333C4B" stroke-width="2"/>
<path d="M126.503 371.115L131.514 366.103C132.274 365.343 132.274 364.117 131.514 363.357C130.754 362.597 129.528 362.597 128.776 363.357L123.764 368.369L116.239 360.844L122.919 354.164C123.679 353.404 123.679 352.178 122.919 351.418C122.158 350.658 120.933 350.658 120.18 351.418L113.16 358.439C112.593 358.369 112.011 358.478 111.577 358.92C111.143 359.354 111.026 359.936 111.096 360.502L91.0272 380.571L91.0117 380.556C90.2515 379.795 89.0258 379.795 88.2655 380.556C87.5053 381.316 87.5053 382.542 88.2655 383.302L88.281 383.317L77.4282 394.17L75.4733 392.215C74.713 391.455 73.4873 391.455 72.7271 392.215C71.9669 392.976 71.9669 394.201 72.7271 394.961L74.682 396.916L66.0633 405.535C65.3031 406.295 65.3031 407.521 66.0633 408.281C66.8158 409.034 68.0415 409.041 68.8095 408.281L77.4282 399.663L84.953 407.187L69.3991 422.741C68.6389 423.502 68.6389 424.727 69.3991 425.48C70.1516 426.232 71.3773 426.24 72.1453 425.48L87.6992 409.926L102.974 425.201C103.726 425.953 104.952 425.961 105.712 425.201C106.473 424.44 106.473 423.215 105.712 422.454L90.4377 407.18L101.291 396.327L109.932 404.969C110.685 405.721 111.911 405.729 112.671 404.969C113.431 404.209 113.431 402.983 112.671 402.223L104.029 393.581L114.323 383.286L120.483 389.446C121.235 390.198 122.461 390.206 123.221 389.446C123.981 388.686 123.981 387.46 123.221 386.7L117.062 380.54L123.756 373.853L130.808 380.905C131.561 381.657 132.786 381.665 133.554 380.905C134.314 380.145 134.314 378.919 133.554 378.159L126.503 371.115ZM87.6915 404.433L80.1666 396.909L91.0195 386.056L98.5443 393.581L87.6915 404.433ZM114.323 377.802L108.203 371.681C107.442 370.921 106.217 370.921 105.456 371.681C104.696 372.441 104.696 373.667 105.456 374.427L111.577 380.548L101.283 390.842L93.7579 383.317L113.485 363.59L121.01 371.115L114.323 377.802Z" fill="#CFA160" stroke="#CFA160" stroke-width="2"/>
</svg>
