<svg width="512" height="512" viewBox="0 0 512 512" fill="none" xmlns="http://www.w3.org/2000/svg">
<path d="M240.792 221C240.228 221 239.677 220.823 239.218 220.495C238.758 220.166 238.412 219.702 238.227 219.166C238.042 218.631 238.029 218.051 238.188 217.508C238.347 216.964 238.671 216.484 239.114 216.134L265.363 195.498L227.994 217.142C227.385 217.476 226.672 217.563 226.001 217.385C225.33 217.208 224.753 216.78 224.386 216.189C224.02 215.598 223.894 214.888 224.032 214.206C224.171 213.524 224.564 212.921 225.132 212.521L225.93 211.976H225.881C225.281 212.309 224.576 212.402 223.911 212.235C223.245 212.068 222.666 211.655 222.292 211.078C221.918 210.5 221.775 209.802 221.893 209.124C222.011 208.445 222.38 207.837 222.927 207.421L249.122 188.223L223.383 203.132C222.793 203.469 222.099 203.572 221.438 203.421C220.776 203.269 220.194 202.875 219.808 202.315C219.422 201.755 219.259 201.07 219.35 200.395C219.442 199.72 219.783 199.105 220.304 198.669L245.826 177.684L220.332 192.452C219.739 192.789 219.042 192.891 218.378 192.737C217.715 192.582 217.133 192.183 216.749 191.619C216.365 191.054 216.206 190.365 216.304 189.689C216.403 189.012 216.751 188.398 217.28 187.967L239.38 170.262L217.617 182.866C217.012 183.207 216.301 183.303 215.628 183.134C214.956 182.966 214.373 182.545 214 181.959C213.626 181.373 213.49 180.666 213.619 179.983C213.749 179.299 214.134 178.691 214.695 178.284L215.645 177.608C215.146 177.791 214.604 177.823 214.087 177.7C213.569 177.577 213.099 177.305 212.735 176.916C212.315 176.467 212.059 175.889 212.009 175.275C211.959 174.662 212.117 174.049 212.458 173.537L216.943 166.802C216.309 166.952 215.642 166.868 215.064 166.565C214.487 166.262 214.037 165.761 213.797 165.152C213.557 164.544 213.544 163.87 213.758 163.252C213.973 162.635 214.402 162.115 214.967 161.789L224.16 156.465C224.69 156.158 225.308 156.041 225.914 156.131C226.519 156.221 227.076 156.514 227.495 156.962C227.914 157.41 228.17 157.987 228.221 158.599C228.272 159.211 228.115 159.822 227.776 160.334L223.432 166.873L264.076 143.332C264.68 143.002 265.385 142.914 266.051 143.085C266.716 143.257 267.292 143.675 267.663 144.255C268.033 144.836 268.171 145.536 268.047 146.214C267.924 146.892 267.549 147.498 266.998 147.91L266.455 148.319L267.959 147.447C268.552 147.107 269.251 147.005 269.916 147.159C270.581 147.313 271.164 147.714 271.548 148.28C271.932 148.846 272.09 149.537 271.989 150.215C271.889 150.893 271.537 151.507 271.005 151.937L248.91 169.647L272.032 156.263C272.621 155.932 273.313 155.834 273.971 155.987C274.629 156.14 275.207 156.534 275.591 157.092C275.976 157.65 276.139 158.331 276.049 159.004C275.959 159.676 275.622 160.29 275.105 160.726L249.584 181.711L290.271 158.138C290.872 157.798 291.58 157.7 292.25 157.864C292.92 158.028 293.503 158.443 293.88 159.023C294.257 159.603 294.4 160.305 294.279 160.987C294.158 161.669 293.783 162.279 293.231 162.694L267.014 181.875L295.701 165.255C296.312 164.906 297.033 164.809 297.713 164.982C298.393 165.156 298.98 165.587 299.351 166.186C299.721 166.785 299.846 167.504 299.699 168.193C299.552 168.882 299.145 169.487 298.563 169.881L296.576 171.211C297.181 171.046 297.824 171.097 298.396 171.355C298.968 171.612 299.434 172.06 299.714 172.623C299.994 173.186 300.071 173.829 299.933 174.443C299.794 175.056 299.449 175.603 298.954 175.99L272.694 196.653L292.15 185.379C292.742 185.037 293.441 184.931 294.107 185.083C294.773 185.235 295.357 185.633 295.744 186.198C296.13 186.763 296.29 187.454 296.192 188.132C296.093 188.811 295.744 189.427 295.213 189.858L284.597 198.462L289.207 195.792C289.758 195.476 290.402 195.363 291.027 195.473C291.652 195.584 292.219 195.911 292.629 196.397C293.039 196.884 293.266 197.499 293.271 198.136C293.275 198.773 293.058 199.392 292.655 199.884L285.726 208.325C286.353 207.996 287.083 207.925 287.762 208.128C288.44 208.331 289.012 208.791 289.357 209.412C289.701 210.032 289.791 210.762 289.607 211.448C289.423 212.134 288.979 212.72 288.371 213.082L275.409 220.591C274.858 220.911 274.213 221.026 273.586 220.917C272.958 220.808 272.39 220.481 271.978 219.993C271.567 219.506 271.339 218.889 271.335 218.25C271.331 217.612 271.551 216.992 271.956 216.499L278.901 208.053L257.218 220.586C256.627 220.92 255.933 221.02 255.272 220.866C254.611 220.713 254.032 220.316 253.648 219.755C253.263 219.194 253.103 218.509 253.197 217.834C253.291 217.16 253.633 216.546 254.156 216.112L264.772 207.508L242.15 220.586C241.743 220.844 241.274 220.987 240.792 221V221Z" fill="#CFA160"/>
<path d="M247.083 480C246.364 480 245.663 479.77 245.083 479.344C244.503 478.917 244.074 478.317 243.859 477.63C243.643 476.943 243.652 476.205 243.884 475.523C244.116 474.841 244.559 474.252 245.149 473.839L282.314 447.863L232.427 476.689C231.669 477.11 230.779 477.223 229.941 477.005C229.102 476.788 228.379 476.257 227.92 475.521C227.461 474.786 227.302 473.903 227.475 473.053C227.648 472.203 228.14 471.453 228.849 470.955L266.982 445.277L219.637 472.621C218.881 473.054 217.987 473.177 217.141 472.966C216.295 472.755 215.564 472.226 215.099 471.488C214.634 470.75 214.472 469.861 214.645 469.006C214.819 468.152 215.316 467.397 216.032 466.9L276.105 425.603L206.111 466.142C205.345 466.591 204.434 466.721 203.574 466.504C202.714 466.287 201.974 465.74 201.512 464.982C201.051 464.224 200.906 463.314 201.108 462.45C201.31 461.585 201.844 460.835 202.594 460.36L225.109 445.879L199.022 460.949C198.259 461.369 197.364 461.479 196.523 461.254C195.681 461.03 194.959 460.489 194.505 459.745C194.052 459.001 193.903 458.111 194.089 457.259C194.276 456.408 194.783 455.661 195.505 455.175L217.108 441.364L192.083 455.838C191.324 456.258 190.432 456.369 189.593 456.149C188.754 455.93 188.031 455.396 187.574 454.657C187.117 453.919 186.961 453.034 187.138 452.184C187.315 451.334 187.812 450.584 188.526 450.09L247.368 411.17L184.353 447.579C183.594 448.004 182.7 448.121 181.857 447.904C181.015 447.688 180.288 447.154 179.828 446.415C179.368 445.676 179.211 444.788 179.388 443.935C179.566 443.083 180.065 442.331 180.781 441.838L251.933 394.049L176.737 437.471C175.971 437.909 175.065 438.03 174.211 437.809C173.357 437.588 172.624 437.041 172.167 436.286C171.71 435.531 171.565 434.627 171.765 433.767C171.964 432.907 172.491 432.159 173.233 431.683L190.69 420.634L172.767 430.985C172.004 431.394 171.115 431.495 170.281 431.267C169.446 431.039 168.731 430.5 168.282 429.761C167.832 429.021 167.683 428.138 167.864 427.291C168.045 426.445 168.544 425.701 169.257 425.211L204.257 402.755L169.317 422.943C168.555 423.376 167.655 423.497 166.806 423.279C165.957 423.061 165.226 422.522 164.766 421.775C164.307 421.028 164.155 420.132 164.343 419.275C164.531 418.418 165.044 417.667 165.773 417.182L222.586 379.852L165.773 412.68C165.017 413.095 164.13 413.205 163.295 412.987C162.46 412.769 161.74 412.24 161.282 411.508C160.824 410.776 160.663 409.897 160.831 409.05C161 408.203 161.485 407.452 162.189 406.952L234.957 357.531L163.981 398.551C163.22 398.959 162.333 399.061 161.499 398.836C160.666 398.61 159.95 398.075 159.499 397.338C159.048 396.602 158.895 395.72 159.072 394.874C159.249 394.029 159.742 393.283 160.451 392.789L199.996 367.009L163.988 387.813C163.225 388.222 162.336 388.323 161.502 388.095C160.667 387.867 159.952 387.328 159.503 386.589C159.053 385.849 158.904 384.966 159.085 384.119C159.266 383.273 159.765 382.529 160.478 382.039L175.506 372.398L164.914 378.491C164.159 378.902 163.275 379.009 162.444 378.791C161.612 378.573 160.894 378.047 160.437 377.318C159.979 376.589 159.816 375.713 159.981 374.869C160.146 374.024 160.625 373.274 161.323 372.771L213.097 337.567L168.871 363.123C168.12 363.548 167.235 363.67 166.397 363.463C165.56 363.256 164.833 362.737 164.365 362.011C163.898 361.285 163.725 360.408 163.882 359.559C164.04 358.71 164.515 357.953 165.212 357.443L219.123 318.78L177.089 343.078C176.33 343.503 175.436 343.62 174.593 343.403C173.751 343.187 173.024 342.653 172.564 341.914C172.104 341.175 171.947 340.287 172.124 339.434C172.302 338.582 172.801 337.83 173.517 337.337L182.783 331.115C182.067 331.114 181.369 330.886 180.791 330.463C180.213 330.04 179.783 329.444 179.565 328.761C179.347 328.078 179.351 327.343 179.577 326.663C179.803 325.982 180.239 325.391 180.822 324.975L193.571 315.849C192.932 315.779 192.326 315.529 191.824 315.127C191.322 314.725 190.945 314.188 190.737 313.579C190.529 312.97 190.499 312.314 190.65 311.689C190.801 311.063 191.127 310.494 191.589 310.047L218.88 283.644C218.879 283.049 219.034 282.464 219.331 281.948C219.628 281.432 220.056 281.004 220.571 280.706L224.277 278.567C224.992 278.143 225.837 277.997 226.653 278.157C227.468 278.317 228.196 278.771 228.698 279.434C229.199 280.097 229.44 280.922 229.373 281.751C229.306 282.579 228.937 283.355 228.335 283.928L216.073 295.796L245.974 278.513C246.726 278.083 247.614 277.959 248.455 278.165C249.296 278.372 250.026 278.893 250.494 279.622C250.963 280.351 251.134 281.232 250.972 282.084C250.811 282.936 250.329 283.693 249.627 284.199L242.471 289.304L261.212 278.472C261.972 278.031 262.873 277.904 263.725 278.116C264.577 278.328 265.313 278.863 265.777 279.609C266.242 280.355 266.399 281.252 266.214 282.111C266.03 282.97 265.52 283.724 264.79 284.213L261.003 286.758L275.395 278.438C276.146 278.013 277.031 277.892 277.869 278.099C278.707 278.305 279.434 278.825 279.901 279.551C280.369 280.276 280.541 281.154 280.384 282.003C280.227 282.852 279.751 283.609 279.054 284.118L225.156 322.775L289.619 285.54C290.376 285.114 291.268 284.995 292.11 285.21C292.952 285.424 293.679 285.954 294.141 286.691C294.602 287.427 294.763 288.313 294.59 289.165C294.417 290.017 293.923 290.77 293.21 291.267L241.422 326.471L299.588 292.872C300.351 292.452 301.247 292.342 302.088 292.567C302.929 292.791 303.652 293.331 304.105 294.076C304.558 294.82 304.707 295.71 304.521 296.562C304.335 297.413 303.828 298.16 303.105 298.646L288.009 308.341L305.932 297.99C306.693 297.581 307.581 297.479 308.414 297.704C309.247 297.93 309.963 298.466 310.414 299.202C310.865 299.939 311.018 300.82 310.841 301.666C310.665 302.512 310.171 303.258 309.463 303.751L269.957 329.477L312.479 304.902C313.238 304.452 314.143 304.316 315 304.524C315.857 304.733 316.6 305.268 317.068 306.016C317.537 306.764 317.695 307.666 317.508 308.529C317.322 309.392 316.806 310.148 316.071 310.636L243.289 360.057L321.204 315.023C321.967 314.566 322.879 314.428 323.743 314.638C324.607 314.849 325.353 315.392 325.82 316.15C326.286 316.907 326.436 317.818 326.237 318.686C326.038 319.553 325.505 320.307 324.755 320.784L267.942 358.134L327.325 323.817C328.089 323.389 328.989 323.275 329.836 323.498C330.683 323.722 331.41 324.265 331.865 325.014C332.32 325.763 332.466 326.659 332.274 327.514C332.082 328.369 331.566 329.117 330.835 329.599L295.888 352.014L332.032 331.129C332.412 330.898 332.834 330.745 333.273 330.678C333.713 330.611 334.161 330.631 334.592 330.737C335.024 330.844 335.43 331.034 335.788 331.297C336.146 331.561 336.449 331.892 336.679 332.273C336.909 332.653 337.062 333.075 337.129 333.515C337.196 333.955 337.176 334.403 337.07 334.835C336.963 335.267 336.773 335.674 336.51 336.032C336.247 336.391 335.916 336.693 335.536 336.924L318.046 347.999L335.434 337.946C336.193 337.52 337.087 337.403 337.929 337.62C338.772 337.837 339.499 338.37 339.959 339.11C340.419 339.849 340.576 340.737 340.399 341.589C340.221 342.442 339.722 343.193 339.005 343.687L267.82 391.496L340.899 349.272C341.66 348.846 342.555 348.731 343.399 348.95C344.243 349.169 344.969 349.705 345.427 350.448C345.885 351.19 346.039 352.08 345.857 352.933C345.675 353.787 345.171 354.536 344.45 355.027L285.649 393.927L344.288 360.036C345.051 359.616 345.946 359.507 346.788 359.731C347.629 359.956 348.352 360.496 348.805 361.24C349.258 361.985 349.407 362.875 349.221 363.727C349.034 364.578 348.527 365.325 347.805 365.811L326.162 379.642L346.716 367.774C347.478 367.366 348.368 367.265 349.202 367.493C350.036 367.721 350.751 368.26 351.201 368.999C351.65 369.739 351.8 370.622 351.618 371.468C351.437 372.315 350.939 373.059 350.226 373.549L327.778 387.983L347.818 376.399C348.575 375.966 349.469 375.843 350.315 376.054C351.16 376.265 351.892 376.794 352.357 377.532C352.822 378.27 352.984 379.159 352.81 380.014C352.636 380.868 352.139 381.623 351.423 382.12L291.303 423.417L348.826 390.176C349.587 389.7 350.505 389.546 351.379 389.748C352.253 389.95 353.011 390.491 353.486 391.253C353.961 392.014 354.115 392.933 353.913 393.808C353.712 394.683 353.171 395.441 352.411 395.917L314.386 421.562L347.527 402.423C348.281 402.006 349.165 401.891 349.999 402.104C350.834 402.316 351.556 402.84 352.018 403.567C352.481 404.294 352.649 405.17 352.488 406.017C352.327 406.863 351.849 407.617 351.153 408.123L313.954 434.073L343.212 417.148C343.955 416.704 344.839 416.563 345.682 416.752C346.526 416.94 347.266 417.446 347.749 418.163C348.232 418.881 348.422 419.756 348.28 420.61C348.139 421.464 347.675 422.231 346.986 422.753L313.845 448.614L331.099 438.642C331.875 438.201 332.795 438.084 333.656 438.318C334.518 438.552 335.253 439.118 335.699 439.892C336.146 440.667 336.268 441.586 336.04 442.45C335.812 443.314 335.251 444.053 334.481 444.505L275.091 478.822C274.35 479.252 273.473 479.384 272.638 479.192C271.803 478.999 271.072 478.497 270.593 477.786C270.114 477.075 269.922 476.209 270.056 475.362C270.191 474.515 270.641 473.751 271.317 473.223L304.41 447.389L248.781 479.54C248.267 479.842 247.68 480.001 247.083 480Z" fill="#CFA160"/>
<path d="M492.842 213.692C485.402 209.678 477.57 206.436 469.47 204.015C467.381 203.497 465.372 202.699 463.496 201.643C461.406 199.936 462.643 201.361 461.977 199.868C460.885 197.308 460.373 189.722 459.298 186.172C457.665 180.767 455.813 175.44 453.743 170.189C450.639 162.377 447.072 154.757 443.059 147.371C441.421 144.341 436.54 138.641 435.661 135.979C435.234 134.699 435.533 134.724 436.241 132.326C438.639 124.134 443.366 116.48 446.396 108.484C452.369 92.6293 435.072 79.8891 424.729 70.2891C413.866 60.1941 405.632 54.8181 391.048 60.5867C383.923 63.4197 376.9 66.56 369.852 69.5808C358.882 62.7527 347.321 56.9238 335.309 52.1643C328.299 49.4068 321.146 47.0282 313.881 45.0389C309.939 43.9723 306.201 44.5355 304.495 42.4789C301.107 36.4057 298.525 29.917 296.815 23.1765C295.359 17.1915 291.911 11.8798 287.036 8.11519C277.316 2.29545 261.436 4.42879 250.581 4.70185C239.889 5.00052 227.584 4.70185 220.416 14.0885C214.861 23.2844 210.624 33.2145 207.829 43.5883C185.68 48.9685 164.487 57.7145 144.99 69.5211C136.504 65.257 127.72 61.615 118.707 58.624C114.299 57.5638 109.689 57.6865 105.344 58.9797C100.998 60.2728 97.0715 62.6905 93.9603 65.9883C84.4798 74.24 70.4851 85.0688 65.3736 96.8277C59.5112 110.319 74.0947 122.249 75.9464 134.827C76.0403 135.433 76.979 136.431 76.9022 137.071C76.8254 137.711 71.9528 143.966 71.5518 144.666C67.823 151.117 64.4473 157.765 61.4398 164.582C56.1242 176.814 51.9535 189.512 48.9811 202.513C34.4318 207.761 13.6531 212.48 11.6136 229.683C10.7065 238.865 10.5068 248.102 11.0163 257.314C11.332 265.847 10.8968 274.935 18.3038 280.55C25.3364 284.712 32.8729 287.955 40.7294 290.202C43.0675 291.132 48.6227 292.113 50.2696 293.999C51.3278 295.211 48.8787 294.767 49.2627 295.945C50.0222 298.308 50.4574 300.894 51.1144 303.309C52.5992 308.77 54.3059 314.175 56.2344 319.522C59.4248 328.288 63.2081 336.827 67.5582 345.079C71.0391 349.925 74.0913 355.064 76.6803 360.439C76.8766 363.477 72.9683 369.152 71.7907 371.917C69.8963 376.371 67.8654 380.783 66.099 385.28C60.5267 399.437 70.3656 407.851 79.8888 417.57C91.2382 429.141 101.999 441.6 119.219 435.115C124.791 433.015 130.261 430.583 135.722 428.16C151.808 476.348 201.83 505.421 251.912 506.069H252.143C303.095 505.421 356.471 478.379 375.023 429.175C382.414 433.551 390.647 436.316 399.181 437.291C409.702 437.402 416.862 430.234 424.089 423.518C432.17 416.009 446.157 405.495 447.863 393.847C447.968 388.256 446.514 382.745 443.665 377.933C440.086 372.104 437.389 365.777 435.661 359.159C435.601 356.403 439.714 351.701 441.395 348.706C444.749 342.773 447.796 336.673 450.526 330.428C455.834 318.19 460.004 305.49 462.984 292.489C478.745 286.729 498.824 282.368 500.574 263.279C501.38 253.405 501.457 243.485 500.804 233.6C501.248 229.881 500.752 226.109 499.361 222.631C497.97 219.153 495.729 216.079 492.842 213.692V213.692ZM312.055 266.539C318.128 265.259 323.51 261.771 327.159 256.751C329.272 253.669 330.408 250.022 330.418 246.285C330.429 242.549 329.314 238.896 327.219 235.802C325.348 233.236 322.899 231.147 320.071 229.704C317.242 228.262 314.113 227.506 310.937 227.499C314.868 213.669 318.799 199.836 322.73 186.001C324.284 180.514 325.973 175.053 327.407 169.54C328.195 166.626 328.369 163.58 327.917 160.595C327.466 157.609 326.399 154.751 324.785 152.199C323.171 149.648 321.044 147.46 318.54 145.774C316.036 144.088 313.209 142.94 310.238 142.404C302.827 141.378 295.326 141.18 287.872 141.815C287.836 140.706 287.728 139.6 287.548 138.505C286.288 132.34 282.94 126.8 278.067 122.82C272.319 118.633 265.427 116.307 258.318 116.154C251.209 116.002 244.223 118.03 238.302 121.967C232.612 125.502 228.229 130.796 225.817 137.045C225.165 138.859 224.732 140.744 224.529 142.66C220.612 142.66 216.695 142.66 212.796 142.78C199.279 143.351 183.68 151.535 183.953 166.861C184.647 172.824 186.081 178.677 188.22 184.286L196.335 212.864L200.729 228.318C189.15 231.279 178.543 240.512 182.204 253.662C183.583 257.891 186.321 261.546 189.993 264.059C193.664 266.571 198.062 267.8 202.504 267.554C170.28 289.701 146.626 322.231 135.492 359.714C118.295 340.583 105.633 317.82 98.448 293.12C91.2633 268.419 89.7411 242.416 93.9944 217.045C98.1883 193.014 107.54 170.177 121.404 150.106C135.269 130.035 153.319 113.206 174.31 100.779C266.018 47.4197 384.879 101.99 413.738 201.472C421.575 228.965 422.375 257.987 416.067 285.87C409.758 313.753 396.542 339.603 377.634 361.045C367.568 322.812 344.348 289.349 312.055 266.539V266.539ZM209.561 261.359C206.865 261.381 204.211 260.693 201.865 259.364C199.519 258.035 197.564 256.113 196.197 253.789C194.83 251.465 194.098 248.822 194.076 246.126C194.054 243.43 194.741 240.776 196.07 238.43C199.85 232.021 206.506 233.574 212.872 233.574H276.531C285.064 233.574 293.657 233.404 302.216 233.574C306.087 233.36 309.894 234.626 312.866 237.116C314.609 238.689 315.978 240.632 316.874 242.802C317.77 244.972 318.171 247.315 318.046 249.66C317.773 254.097 314.905 261.077 309.692 261.359C276.352 261.359 242.893 262.229 209.561 261.359V261.359ZM205.295 147.465C205.636 147.465 206.071 147.388 206.25 147.396C206.976 147.396 207.71 147.396 208.435 147.396H224.273C224.273 147.857 224.213 148.301 224.213 148.762V172.322C224.213 175.804 236.569 173.594 236.569 169.011V150.05C235.615 142.267 237.761 134.42 242.543 128.205C244.059 126.547 245.848 125.161 247.833 124.109C249.422 123.297 251.17 122.848 252.953 122.795C258.151 122.705 263.194 124.562 267.093 128C271.389 131.629 274.281 136.646 275.268 142.182C275.656 144.989 275.793 147.825 275.678 150.656V172.348C275.678 175.829 288.042 173.619 288.042 169.037V148.147C291.925 148.096 295.816 148.079 299.682 148.233C302.329 148.506 304.882 149.363 307.158 150.741C309.434 152.119 311.377 153.985 312.845 156.203C314.314 158.422 315.273 160.939 315.653 163.573C316.033 166.206 315.824 168.891 315.042 171.435C311.236 185.805 306.91 200.055 302.848 214.357L299.196 227.226H229.546C224.273 227.226 218.991 227.174 213.717 227.226L203.093 189.815C201.241 183.279 199.364 176.751 197.529 170.189C196.658 167.493 196.266 164.666 196.369 161.835C196.615 158.729 197.627 155.733 199.313 153.114C200.131 151.804 201.118 150.607 202.248 149.555C202.777 149.052 203.348 148.595 203.955 148.19C204.066 148.096 204.894 147.703 205.303 147.465H205.295ZM260.062 500.907C206.856 500.267 154.649 465.613 144.486 411.307C142.115 397.816 142.21 384.008 144.768 370.551C144.838 370.388 144.865 370.208 144.845 370.031C153.293 328.498 177.477 291.843 212.335 267.733H295.808C332.523 291.793 358.188 329.443 367.164 372.412C367.15 372.479 367.15 372.549 367.165 372.617C367.179 372.685 367.208 372.748 367.249 372.804C369.155 382.727 369.786 392.853 369.126 402.935C368.648 409.55 367.504 416.1 365.713 422.485C365.472 422.829 365.358 423.245 365.389 423.663C358.202 445.989 344.151 465.476 325.238 479.347C306.325 493.217 283.515 500.762 260.062 500.907V500.907ZM482.645 276.48C480.251 277.678 477.759 278.669 475.196 279.441C468.369 281.634 461.697 284.286 455.228 287.377C454.086 287.901 453.085 288.689 452.308 289.675C451.53 290.662 450.999 291.819 450.756 293.052C447.701 301.227 446.396 310.187 443.349 318.455C440.262 326.872 436.613 335.071 432.426 342.997C430.046 347.494 422.784 355.524 422.69 360.474C424.101 366.536 426.5 372.325 429.79 377.609C431.146 380.8 432.631 383.983 433.886 387.226C436.872 394.999 433.775 399.795 428.348 406.118C423.147 412.471 417.327 418.291 410.974 423.492C408.98 425.71 406.308 427.206 403.375 427.746C400.443 428.286 397.413 427.841 394.76 426.479L378.163 419.43C382.241 403.383 382.742 386.635 379.631 370.372C399.647 351.32 414.768 327.718 423.709 301.571C432.65 275.423 435.146 247.504 430.986 220.185C426.826 192.866 416.132 166.955 399.814 144.655C383.495 122.354 362.034 104.322 337.254 92.0917C243.2 45.4144 121.685 93.8667 88.0894 193.954C77.9022 224.964 76.6567 258.216 84.4956 289.9C92.3345 321.585 108.941 350.421 132.412 373.103C129.795 386.8 129.697 400.86 132.121 414.592C132.514 416.683 133.086 418.688 133.598 420.719L119.577 426.692C112.93 429.534 110.003 428.553 103.219 423.646C96.286 418.081 89.9488 411.813 84.3091 404.941C79.1294 399.155 75.1187 394.3 77.5934 386.338C78.6515 382.925 80.4606 379.605 81.86 376.337C85.0967 371.005 87.5482 365.234 89.139 359.202C89.3523 354.807 84.3006 349.577 82.1416 345.719C77.4602 337.344 73.3933 328.64 69.9731 319.676C67.0291 312.051 64.5527 304.254 62.5576 296.329C61.4142 291.772 61.7043 289.109 57.9411 286.703C51.5456 283.451 44.8642 280.794 37.9816 278.767C35.4519 277.992 32.9891 277.013 30.6174 275.84C21.4782 270.242 23.3214 255.923 23.3214 246.827C23.3214 239.923 21.8195 227.695 25.7363 221.662C28.0103 219.056 31.0464 217.232 34.4147 216.448C41.4888 213.641 48.9214 211.251 55.8078 207.915C64.2216 203.844 64.0766 189.995 66.8243 181.76C69.6646 173.236 73.086 164.916 77.0643 156.86C78.7112 153.532 80.435 150.255 82.2611 147.021C84.9512 143.621 87.1992 139.893 88.9512 135.927C89.8899 130.884 84.9832 123.733 83.0291 119.142C79.6158 111.155 74.3251 103.347 78.8734 95.0784C84.3859 85.0603 103.04 64.1707 114.662 67.2939C122.061 69.8757 129.279 72.9489 136.269 76.4928C144.486 79.9573 148.446 76.3221 155.955 71.9445C171.736 62.7552 188.73 55.8295 206.438 51.3707C216.098 48.9387 217.941 48.4352 221.38 39.7739C223.322 32.6312 226.061 25.7298 229.546 19.2C235.332 11.2555 247.134 12.3733 255.735 12.4672C264.712 12.5355 276.924 11.1701 281.864 20.0021C284.832 26.2809 287.398 32.7424 289.544 39.3472C293.47 49.2203 293.333 49.024 304.623 51.9765C321.138 56.3078 337.028 62.7404 351.906 71.1168C360.371 75.8869 364.228 80.1024 373.427 76.2965C380.481 72.8459 387.713 69.7724 395.093 67.0891C406.912 63.6757 425.028 85.4613 431.718 94.6091C438.613 103.996 432.938 112.128 428.988 121.404C427.281 125.295 422.161 132.821 422.741 137.25C423.023 139.452 425.984 142.507 427.119 144.41C429.491 148.363 431.718 152.394 433.8 156.501C437.725 164.283 441.146 172.31 444.04 180.531C446.6 187.682 448.537 194.953 450.398 202.308C451.575 206.993 451.558 206.865 455.125 208.631C461.952 211.994 469.461 214.332 476.518 217.165C480.311 218.12 483.639 220.395 485.905 223.582C490.59 230.946 488.832 243.84 488.695 252.237C488.559 259.763 489.967 271.949 482.645 276.48Z" fill="#333C4B" stroke="#333C4B"/>
<path d="M262.289 311.637C263.531 312.047 264.745 312.537 265.924 313.105C271.348 315.989 275.889 320.289 279.064 325.548C282.239 330.807 283.929 336.829 283.955 342.972C284.006 344.986 296.405 343.108 296.311 339.661C296.059 330.651 292.415 322.068 286.106 315.63C279.798 309.192 271.292 305.374 262.289 304.939V296.994C262.289 294.545 249.932 296.431 249.924 300.305V305.749C241.442 306.973 233.577 310.89 227.488 316.921C221.4 322.953 217.41 330.781 216.106 339.251C215.708 344.009 216.273 348.797 217.769 353.331C219.266 357.865 221.661 362.049 224.814 365.635C227.966 369.221 231.809 372.133 236.114 374.198C240.418 376.262 245.095 377.437 249.864 377.651V434.611V439.262C248.663 438.866 247.489 438.393 246.348 437.845C240.923 434.963 236.381 430.663 233.206 425.403C230.031 420.144 228.341 414.122 228.317 407.979C228.266 405.965 215.859 407.842 215.953 411.29C216.205 420.278 219.833 428.842 226.116 435.276C232.399 441.709 240.875 445.539 249.856 446.003V453.956C249.856 456.397 262.212 454.519 262.212 450.645V445.184C270.709 443.97 278.591 440.057 284.694 434.021C290.797 427.986 294.798 420.148 296.106 411.665C296.504 406.898 295.934 402.1 294.43 397.56C292.926 393.019 290.519 388.829 287.355 385.242C284.19 381.655 280.333 378.745 276.015 376.687C271.697 374.629 267.008 373.465 262.229 373.265L262.28 316.322L262.289 311.637ZM231.995 324.548C233.665 320.954 236.158 317.802 239.271 315.349C242.384 312.896 246.03 311.209 249.915 310.426C249.915 330.502 249.915 350.578 249.915 370.654C245.544 369.014 241.568 366.47 238.247 363.188C234.926 359.907 232.335 355.961 230.643 351.609C228.952 347.257 228.198 342.597 228.431 337.934C228.664 333.271 229.879 328.71 231.995 324.548V324.548ZM280.243 426.385C278.563 430.001 276.051 433.167 272.913 435.626C269.774 438.085 266.099 439.767 262.186 440.533L262.237 380.237C266.622 381.867 270.612 384.406 273.947 387.687C277.281 390.968 279.883 394.917 281.584 399.275C283.284 403.633 284.044 408.301 283.812 412.974C283.581 417.646 282.365 422.216 280.243 426.385V426.385Z" fill="#333C4B" stroke="#333C4B"/>
</svg>
