<svg width="512" height="512" viewBox="0 0 512 512" fill="none" xmlns="http://www.w3.org/2000/svg">
<path d="M472.909 319.701C460.422 315.371 447.157 313.745 433.993 314.931C430.609 239.947 437.395 165.197 440.859 90.3877C455.629 90.4619 470.39 90.3926 485.098 89.7969C485.557 89.7987 486.012 89.7043 486.432 89.5198C486.853 89.3353 487.23 89.0647 487.539 88.7256C487.849 88.3864 488.084 87.9862 488.229 87.5506C488.375 87.1151 488.427 86.6539 488.383 86.1969C491.301 81.6953 493.222 76.6223 494.019 71.3177C494.817 66.0131 494.471 60.5994 493.006 55.4393C491.54 50.2791 488.989 45.4917 485.523 41.3976C482.057 37.3036 477.756 33.9975 472.909 31.7009C459.756 27.2728 445.821 25.6521 432.004 26.9435C298.532 27.4904 165.06 28.4064 31.589 28.9582C31.1925 26.4474 27.0407 25.113 25.7594 27.8722C5.64365 66.8867 23.7629 89.5308 66.1393 87.705C61.0673 163.876 56.5329 240.445 57.6022 316.783C48.9313 316.841 40.2594 316.861 31.589 316.958C31.1925 314.447 27.0407 313.113 25.7594 315.872C20.4001 327.416 15.174 339.858 18.5929 352.783C27.1461 381.196 63.2321 374.799 86.3332 375.641C135.309 376.553 184.296 376.322 233.276 376.572C230.853 393.049 230.771 409.288 229.578 425.811C223.957 425.261 218.333 426.826 213.802 430.199C209.272 433.572 206.161 438.511 205.075 444.054C203.941 450.522 204.75 457.181 207.399 463.19C210.047 469.198 214.418 474.287 219.957 477.813C243.089 493.7 282.813 484.985 290.72 456.124C294.392 443.399 288.291 423.934 273.736 421.982C274.917 406.938 275.367 391.866 275.088 376.767C345.056 376.207 415.178 379.623 485.098 377.798C485.557 377.8 486.012 377.705 486.432 377.52C486.853 377.336 487.23 377.065 487.539 376.726C487.849 376.387 488.084 375.986 488.229 375.551C488.375 375.115 488.427 374.654 488.383 374.197C491.301 369.695 493.222 364.622 494.019 359.318C494.817 354.013 494.471 348.599 493.006 343.439C491.54 338.279 488.989 333.492 485.523 329.397C482.057 325.303 477.756 321.997 472.909 319.701V319.701ZM49.3281 77.9106C24.6349 77.104 20.7985 56.4273 29.151 36.607C155.439 37.229 281.742 36.8984 408.033 37.3154C426.248 37.271 448.618 33.8765 466.128 40.0107C470.175 41.5186 473.831 43.9168 476.827 47.0282C479.823 50.1395 482.08 53.8844 483.434 57.9859C484.787 62.0874 485.201 66.4406 484.646 70.7238C484.09 75.0069 482.579 79.1103 480.224 82.7307C336.677 80.024 192.853 79.672 49.3281 77.9106V77.9106ZM73.4229 87.685C193.338 88.8882 313.152 88.1426 433.073 90.3428C418.074 163.379 419.322 240.874 422.742 314.962C303.616 315.346 184.493 316.552 65.3647 316.731C71.9318 240.681 72.985 164.01 73.423 87.685H73.4229ZM277.761 441.964C285.111 461.514 262.014 475.475 244.803 474.153C238.646 474.516 232.525 472.997 227.253 469.796C221.982 466.596 217.809 461.866 215.291 456.237C214.335 453.661 213.947 450.909 214.153 448.17C214.358 445.43 215.154 442.767 216.484 440.363C217.814 437.959 219.648 435.871 221.859 434.242C224.071 432.612 226.609 431.479 229.299 430.921C228.624 433.528 228.556 436.256 229.098 438.894C229.641 441.532 230.78 444.011 232.429 446.14C234.077 448.27 236.191 449.994 238.609 451.181C241.027 452.367 243.684 452.985 246.378 452.985C259.596 454.974 270.99 449.742 272.497 435.353C274.685 437.174 276.476 439.424 277.761 441.964V441.964ZM241.6 376.598C249.59 376.628 257.581 376.666 265.571 376.711C265.582 378.245 265.527 379.777 265.524 381.31C256.933 385.524 248.886 390.766 241.559 396.921C241.957 390.153 241.971 383.368 241.6 376.598V376.598ZM265.437 389.816C265.364 393.423 265.251 397.029 265.098 400.631C255.386 403.51 248.236 412.367 240.625 418.78C240.963 413.955 241.097 409.133 241.275 404.303C249.772 400.254 257.862 395.403 265.437 389.816V389.816ZM264.548 410.323C264.46 419.236 263.494 428.12 261.664 436.844C259.589 443.803 252.676 442.449 246.755 442.132C249.171 440.074 270.258 427.644 259.922 426.209C252.952 429.673 246.676 434.386 241.407 440.115C238.859 436.155 240.353 430.915 240.232 426.415C248.203 420.962 256.348 415.53 264.548 410.323V410.323ZM480.224 370.731C336.676 368.039 192.85 367.667 49.3283 365.91C24.6779 365.12 20.7763 344.431 29.151 324.607C155.439 325.229 281.742 324.899 408.033 325.316C426.248 325.271 448.618 321.877 466.128 328.011C470.175 329.519 473.832 331.917 476.827 335.028C479.823 338.139 482.081 341.884 483.435 345.986C484.788 350.087 485.202 354.44 484.646 358.724C484.091 363.007 482.579 367.11 480.224 370.73L480.224 370.731Z" fill="#333C4B"/>
<path d="M238.142 257.242C231.823 251.621 224.431 247.337 216.412 244.65C212.823 243.582 211.261 248.396 214.004 250.361C219.587 254.005 224.866 258.095 229.788 262.591C168.613 275.078 115.803 258.442 139.219 185.724C139.416 184.912 139.318 184.057 138.942 183.311C138.567 182.565 137.938 181.978 137.168 181.653C136.398 181.329 135.538 181.289 134.742 181.541C133.946 181.793 133.265 182.32 132.822 183.028C118.603 206.917 120.197 242.628 142.293 261.155C165.376 280.625 197.479 279.522 225.742 275.411C222.058 279.882 218.505 284.446 214.953 289.022C213.93 290.111 213.361 291.549 213.361 293.043C213.361 294.538 213.93 295.976 214.953 297.065C216.024 298.123 217.469 298.716 218.974 298.716C220.48 298.716 221.925 298.123 222.996 297.065C230.381 288.125 237.169 278.707 243.314 268.873C245.129 264.271 241.667 260.103 238.142 257.242V257.242Z" fill="#333C4B"/>
<path d="M140.4 166.96C145.094 164.961 149.287 161.947 152.678 158.135C156.069 154.323 158.573 149.807 160.011 144.912C161.449 140.017 161.785 134.864 160.994 129.823C160.204 124.783 158.307 119.98 155.44 115.76C151.016 110.077 142.689 104.548 136.08 110.96C135.548 111.486 135.147 112.13 134.91 112.839C134.673 113.548 134.605 114.303 134.713 115.043C133.1 115.111 131.487 114.948 129.92 114.56C124.434 113.211 118.648 113.844 113.583 116.347C108.518 118.85 104.501 123.062 102.24 128.24C90.4001 151.84 116.8 177.2 140.4 166.96V166.96ZM117.44 123.84C119.557 122.448 121.878 121.395 124.32 120.72C117.276 129.529 113.314 140.404 113.04 151.68C111.368 149.615 110.149 147.221 109.461 144.655C108.773 142.088 108.632 139.406 109.047 136.781C109.462 134.157 110.423 131.648 111.869 129.419C113.315 127.19 115.213 125.289 117.44 123.84V123.84ZM118.96 156.4C119.396 149.226 121.296 142.218 124.543 135.807C127.79 129.395 132.315 123.716 137.84 119.12C138.673 119.482 139.476 119.91 140.24 120.4C134.306 129.561 131.474 140.387 132.16 151.28C132.32 154.72 138 154.48 138.24 151.04C138.671 142.312 141.434 133.858 146.24 126.56C156.184 143.809 137.119 165.825 118.96 156.4V156.4Z" fill="#CFA160"/>
<path d="M304.644 236.31C302.144 234.903 299.234 234.405 296.408 234.899C293.251 234.583 289.905 234.479 286.559 234.384C260.835 225.392 241.242 262.918 257.655 282.727C261.378 287.69 266.494 291.432 272.352 293.477C278.21 295.521 284.544 295.775 290.547 294.206C296.549 292.637 301.949 289.316 306.057 284.666C310.165 280.016 312.795 274.249 313.613 268.099C315.629 257.225 315.594 242.419 304.644 236.31V236.31ZM264.283 255.762C266.376 250.942 270.097 247.01 274.795 244.655C268.824 253.753 265.987 264.552 266.715 275.411C264.729 272.586 263.468 269.317 263.044 265.89C262.62 262.464 263.045 258.986 264.283 255.762ZM277.116 282.706C273.748 281.88 270.714 280.042 268.424 277.438C268.859 277.611 269.327 277.686 269.794 277.657C270.261 277.628 270.716 277.497 271.127 277.272C271.537 277.047 271.893 276.734 272.168 276.356C272.444 275.978 272.632 275.543 272.72 275.083C273.122 268.121 274.95 261.315 278.089 255.088C281.228 248.861 285.612 243.344 290.97 238.88C290.62 239.606 290.427 240.396 290.403 241.202C290.379 242.007 290.524 242.808 290.829 243.553C291.135 244.298 291.594 244.971 292.176 245.527C292.759 246.084 293.452 246.511 294.21 246.782C285.391 256.842 280.89 269.972 281.684 283.326C280.143 283.291 278.611 283.083 277.116 282.706V282.706ZM287.863 282.442C288.633 271.215 293.199 260.583 300.809 252.294C302.628 258.036 302.321 264.241 299.944 269.776C297.568 275.311 293.279 279.806 287.863 282.441V282.442Z" fill="#CFA160"/>
<path d="M347.697 152.729C350.942 148.183 345.191 144.481 341.978 142.079C336.453 137.621 330.299 132.974 324.559 128.862C323.719 128.382 322.734 128.222 321.786 128.411C320.838 128.601 319.99 129.127 319.399 129.892C318.808 130.658 318.514 131.612 318.572 132.577C318.629 133.542 319.034 134.454 319.711 135.145C323.287 138.405 326.811 141.733 330.515 144.849C292.091 145.502 262.47 187.26 278.769 223.05C280.134 226.265 285.334 223.962 284.366 220.689C273.969 188.934 298.493 152.546 333.05 155.671C328.177 162.723 323.952 170.202 320.427 178.015C319.694 179.341 319.499 180.897 319.883 182.362C320.268 183.827 321.201 185.088 322.49 185.883C323.811 186.635 325.374 186.84 326.844 186.455C328.315 186.069 329.576 185.123 330.357 183.82C335.137 173.582 340.452 163.602 346.279 153.922C346.83 153.627 347.312 153.221 347.697 152.729V152.729Z" fill="#333C4B"/>
<path d="M388.528 129.672C387.773 128.5 386.784 127.496 385.624 126.722C384.464 125.948 383.158 125.421 381.785 125.174C380.413 124.927 379.004 124.965 377.647 125.285C376.29 125.605 375.013 126.201 373.896 127.036C361.067 135.858 352.933 158.743 361.802 172.65C383.148 198.167 422.666 166.484 405.745 138.718C402.702 133.208 395.091 124.648 388.528 129.672V129.672ZM396.534 159.378C387.881 180.173 360.117 174.853 369.174 150.014C371.498 144.156 374.608 135.287 381.578 134.18C374.611 140.918 370.575 150.127 370.344 159.816C370.344 160.79 370.344 161.82 370.401 162.794C370.459 165.142 373.952 165.084 374.582 163.194C374.893 158.049 376.258 153.022 378.591 148.425C380.925 143.828 384.178 139.76 388.148 136.472C388.517 137.075 388.94 137.642 389.413 138.166C385.451 144.558 383.569 152.023 384.029 159.529C384.144 161.992 388.209 161.82 388.381 159.358C388.683 153.478 390.472 147.77 393.579 142.769C395.402 145.08 396.625 147.805 397.141 150.703C397.656 153.6 397.448 156.58 396.534 159.378H396.534Z" fill="#CFA160"/>
<path d="M238.93 115.04C232.253 121.925 227.444 130.735 221.037 138.018C217.446 133.331 213.034 129.334 208.017 126.22C207.419 125.895 206.732 125.772 206.059 125.869C205.386 125.966 204.762 126.279 204.281 126.76C203.8 127.241 203.487 127.865 203.39 128.538C203.293 129.211 203.416 129.898 203.741 130.496C206.797 136.04 210.459 141.228 214.66 145.965C208.282 152.488 202.944 159.952 198.833 168.096C199.603 179.226 218.579 158.323 221.37 155.15C225.428 159.292 228.934 171.565 236.307 167.098C240.002 164.122 237.449 159.235 235.091 156.287C233.068 153.23 230.893 150.276 228.575 147.436C235.482 140.012 241.892 132.14 247.762 123.872C248.444 122.638 248.705 121.216 248.508 119.82C248.311 118.424 247.665 117.131 246.668 116.134C245.672 115.137 244.378 114.491 242.982 114.294C241.586 114.097 240.164 114.359 238.93 115.04V115.04Z" fill="#333C4B"/>
<path d="M399.169 227.681C389.102 233.508 379.81 240.582 371.513 248.735C366.816 244.14 362.071 239.595 357.277 235.102C356.411 234.295 355.267 233.855 354.083 233.876C352.9 233.896 351.771 234.375 350.934 235.212C350.098 236.049 349.619 237.178 349.598 238.361C349.578 239.545 350.017 240.689 350.825 241.555C355.083 246.429 359.383 251.263 363.725 256.057C356.94 261.564 351.158 268.202 346.634 275.678C346.233 276.419 346.082 277.27 346.203 278.104C346.324 278.938 346.712 279.711 347.308 280.307C347.904 280.903 348.676 281.29 349.51 281.412C350.344 281.533 351.195 281.382 351.936 280.98C358.941 276.111 365.497 270.625 371.526 264.589C376.242 268.727 379.553 275.42 385.611 277.573C386.501 277.789 387.432 277.772 388.313 277.525C389.195 277.277 389.998 276.807 390.646 276.16C391.293 275.512 391.763 274.709 392.011 273.827C392.258 272.945 392.275 272.015 392.058 271.125C390.151 265.273 383.866 261.825 380.057 257.162C388.167 249.681 398.288 244.177 405.664 236.128C406.21 235.138 406.455 234.009 406.369 232.882C406.284 231.754 405.871 230.675 405.182 229.779C404.492 228.882 403.556 228.206 402.488 227.833C401.42 227.46 400.267 227.407 399.169 227.681V227.681Z" fill="#333C4B"/>
</svg>
