<svg width="237" height="216" viewBox="0 0 237 216" fill="none" xmlns="http://www.w3.org/2000/svg">
<path d="M152.94 55V80.7C152.94 87.7533 152.94 94.8067 152.94 101.86C152.94 105.86 152.94 109.86 152.94 113.86C152.94 137.86 152.94 161.89 152.94 185.95H139.08L133.91 184.55C133.245 184.345 132.543 184.286 131.852 184.377C131.162 184.469 130.499 184.709 129.91 185.08L128.4 185.95L117.47 192.27L101.47 201.5C93.8235 205.947 86.1935 210.38 78.5801 214.8C78.093 215.149 77.5091 215.336 76.9101 215.336C76.3112 215.336 75.7272 215.149 75.2401 214.8C51.0801 200.8 26.9168 186.843 2.75013 172.93C2.17931 172.664 1.70467 172.229 1.39135 171.683C1.07802 171.137 0.941368 170.507 1.00013 169.88C1.04013 140.86 1.04013 111.86 1.00013 82.88C0.928571 82.2501 1.05841 81.6137 1.37102 81.0621C1.68362 80.5106 2.16292 80.0722 2.74013 79.81C9.05013 76.26 15.3001 72.62 21.5701 69C23.5101 67.89 23.5701 67.93 23.5701 70.25C23.5701 77.42 23.5701 84.58 23.5701 91.74C23.5701 93.74 23.6801 93.82 25.4701 92.74C28.4701 91.02 31.4701 89.27 34.4701 87.54C36.3801 86.44 36.4701 86.47 36.4701 88.66C36.4701 108.66 36.4701 128.66 36.4701 148.66C36.3969 149.467 36.5773 150.276 36.986 150.975C37.3947 151.674 38.0114 152.228 38.7501 152.56C50.9168 159.6 63.0735 166.68 75.2201 173.8C75.6938 174.161 76.2701 174.361 76.8653 174.372C77.4605 174.382 78.0437 174.203 78.5301 173.86C86.1568 169.387 93.8035 164.947 101.47 160.54C106.27 157.773 111.077 155.01 115.89 152.25C116.408 152.01 116.837 151.614 117.117 151.117C117.397 150.62 117.513 150.047 117.45 149.48C117.45 143.387 117.45 137.293 117.45 131.2C117.45 114.953 117.45 98.7 117.45 82.44C117.45 60.22 117.45 37.9967 117.45 15.77C117.38 15.1146 117.52 14.4539 117.848 13.8826C118.177 13.3113 118.678 12.8588 119.28 12.59C125.56 9.00002 131.83 5.31002 138.13 1.65002C139.84 0.650018 139.92 0.650018 139.92 2.65002C139.92 9.88002 139.92 17.1 139.92 24.32C139.92 26.57 140.04 26.63 142.01 25.5C145.01 23.75 148.1 21.98 151.16 20.24C151.571 19.9387 152.042 19.7275 152.54 19.62H152.61C152.91 19.62 152.92 20.16 152.92 21.27C152.94 32.5167 152.947 43.76 152.94 55Z" fill="#333C4B"/>
<path d="M59.1799 96.4499C59.1799 80.7099 59.1799 64.9699 59.1799 49.2299C59.1253 48.609 59.2654 47.9865 59.5808 47.4488C59.8962 46.9112 60.3713 46.4852 60.9399 46.2299C67.2899 42.6599 73.5699 38.9699 79.8799 35.3399C81.7699 34.2499 81.7799 34.2699 81.7799 36.3399C81.7799 43.6199 81.7799 50.9032 81.7799 58.1899C81.7799 60.1899 81.9499 60.2799 83.7099 59.2599L92.8099 53.9999C94.5899 52.9999 94.6099 52.9999 94.6099 55.1099C94.6099 80.7899 94.6099 106.457 94.6099 132.11C94.6099 136.11 94.6099 140.11 94.6099 144.11C94.663 144.563 94.573 145.022 94.3524 145.422C94.1319 145.822 93.7919 146.143 93.3799 146.34C88.3199 149.18 83.2866 152.067 78.2799 155C77.8528 155.288 77.3473 155.438 76.8321 155.429C76.3168 155.42 75.8168 155.253 75.3999 154.95C70.4999 152.08 65.5799 149.24 60.6099 146.49C60.1187 146.257 59.7126 145.877 59.4489 145.401C59.1853 144.926 59.0772 144.38 59.1399 143.84C59.1933 128.053 59.2066 112.257 59.1799 96.4499Z" fill="#333C4B"/>
<path d="M152.93 101.91C152.93 105.91 152.93 109.91 152.93 113.91C152.93 137.91 152.93 161.94 152.93 186V191C152.93 193.13 152.93 193.14 151.13 192.11L142 186.81C140.24 185.81 140.08 185.87 140.07 187.88C140.07 195.173 140.07 202.457 140.07 209.73C140.07 211.83 140.07 211.85 138.17 210.73C131.86 207.1 125.58 203.41 119.23 199.84C118.661 199.585 118.186 199.159 117.871 198.621C117.555 198.083 117.415 197.461 117.47 196.84C117.47 195.35 117.47 193.84 117.47 192.38C117.47 178.13 117.47 163.87 117.47 149.62C117.47 133.82 117.47 118.017 117.47 102.21C117.407 101.67 117.515 101.124 117.779 100.649C118.043 100.173 118.449 99.7925 118.94 99.5599C123.94 96.8099 128.83 93.9699 133.73 91.0999C134.152 90.8043 134.655 90.6458 135.17 90.6458C135.685 90.6458 136.188 90.8043 136.61 91.0999C141.61 94.0399 146.643 96.9266 151.71 99.7599C152.114 99.9529 152.449 100.266 152.669 100.656C152.889 101.046 152.984 101.494 152.94 101.94L152.93 101.91Z" fill="#333C4B"/>
<path d="M236.33 38.78C233.46 43.69 230.62 48.61 227.87 53.57C227.633 54.0558 227.251 54.4552 226.775 54.7117C226.3 54.9683 225.756 55.0691 225.22 55C209.42 55 193.616 55 177.81 55C169.39 55 160.97 55 152.55 55V19.59H213.46C217.46 19.59 221.46 19.59 225.46 19.59C225.913 19.537 226.372 19.627 226.772 19.8476C227.172 20.0681 227.493 20.4081 227.69 20.82C230.53 25.88 233.416 30.9134 236.35 35.92C236.639 36.3416 236.793 36.8418 236.789 37.3532C236.786 37.8646 236.625 38.3626 236.33 38.78Z" fill="#333C4B"/>
<path d="M236.33 176.52C233.46 181.43 230.62 186.35 227.87 191.31C227.64 191.803 227.259 192.211 226.783 192.475C226.307 192.739 225.76 192.846 225.22 192.78C209.42 192.78 193.616 192.78 177.81 192.78H152.55V157.33H213.46C217.46 157.33 221.46 157.33 225.46 157.33C225.913 157.277 226.372 157.367 226.772 157.588C227.172 157.808 227.493 158.148 227.69 158.56C230.53 163.62 233.416 168.653 236.35 173.66C236.639 174.082 236.793 174.582 236.789 175.093C236.786 175.605 236.625 176.103 236.33 176.52Z" fill="#333C4B"/>
<mask id="mask0_83_29" style="mask-type:alpha" maskUnits="userSpaceOnUse" x="0" y="0" width="237" height="216">
<path d="M152.94 55V80.7C152.94 87.7533 152.94 94.8067 152.94 101.86C152.94 105.86 152.94 109.86 152.94 113.86C152.94 137.86 152.94 161.89 152.94 185.95H139.08L133.91 184.55C133.245 184.345 132.543 184.286 131.852 184.377C131.162 184.469 130.499 184.709 129.91 185.08L128.4 185.95L117.47 192.27L101.47 201.5C93.8235 205.947 86.1935 210.38 78.5801 214.8C78.093 215.149 77.5091 215.336 76.9101 215.336C76.3112 215.336 75.7272 215.149 75.2401 214.8C51.0801 200.8 26.9168 186.843 2.75013 172.93C2.17931 172.664 1.70467 172.229 1.39135 171.683C1.07802 171.137 0.941368 170.507 1.00013 169.88C1.04013 140.86 1.04013 111.86 1.00013 82.88C0.928571 82.2501 1.05841 81.6137 1.37102 81.0621C1.68362 80.5106 2.16292 80.0722 2.74013 79.81C9.05013 76.26 15.3001 72.62 21.5701 69C23.5101 67.89 23.5701 67.93 23.5701 70.25C23.5701 77.42 23.5701 84.58 23.5701 91.74C23.5701 93.74 23.6801 93.82 25.4701 92.74C28.4701 91.02 31.4701 89.27 34.4701 87.54C36.3801 86.44 36.4701 86.47 36.4701 88.66C36.4701 108.66 36.4701 128.66 36.4701 148.66C36.3969 149.467 36.5773 150.276 36.986 150.975C37.3947 151.674 38.0114 152.228 38.7501 152.56C50.9168 159.6 63.0735 166.68 75.2201 173.8C75.6938 174.161 76.2701 174.361 76.8653 174.372C77.4605 174.382 78.0437 174.203 78.5301 173.86C86.1568 169.387 93.8035 164.947 101.47 160.54C106.27 157.773 111.077 155.01 115.89 152.25C116.408 152.01 116.837 151.614 117.117 151.117C117.397 150.62 117.513 150.047 117.45 149.48C117.45 143.387 117.45 137.293 117.45 131.2C117.45 114.953 117.45 98.7 117.45 82.44C117.45 60.22 117.45 37.9967 117.45 15.77C117.38 15.1146 117.52 14.4539 117.848 13.8826C118.177 13.3113 118.678 12.8588 119.28 12.59C125.56 9.00002 131.83 5.31002 138.13 1.65002C139.84 0.650018 139.92 0.650018 139.92 2.65002C139.92 9.88002 139.92 17.1 139.92 24.32C139.92 26.57 140.04 26.63 142.01 25.5C145.01 23.75 148.1 21.98 151.16 20.24C151.571 19.9387 152.042 19.7275 152.54 19.62H152.61C152.91 19.62 152.92 20.16 152.92 21.27C152.94 32.5167 152.947 43.76 152.94 55Z" fill="#CFA160"/>
<path d="M59.1799 96.4499C59.1799 80.7099 59.1799 64.9699 59.1799 49.2299C59.1253 48.609 59.2654 47.9865 59.5808 47.4488C59.8962 46.9112 60.3713 46.4852 60.9399 46.2299C67.2899 42.6599 73.5699 38.9699 79.8799 35.3399C81.7699 34.2499 81.7799 34.2699 81.7799 36.3399C81.7799 43.6199 81.7799 50.9032 81.7799 58.1899C81.7799 60.1899 81.9499 60.2799 83.7099 59.2599L92.8099 53.9999C94.5899 52.9999 94.6099 52.9999 94.6099 55.1099C94.6099 80.7899 94.6099 106.457 94.6099 132.11C94.6099 136.11 94.6099 140.11 94.6099 144.11C94.663 144.563 94.573 145.022 94.3524 145.422C94.1319 145.822 93.7919 146.143 93.3799 146.34C88.3199 149.18 83.2866 152.067 78.2799 155C77.8528 155.288 77.3473 155.438 76.8321 155.429C76.3168 155.42 75.8168 155.253 75.3999 154.95C70.4999 152.08 65.5799 149.24 60.6099 146.49C60.1187 146.257 59.7126 145.877 59.4489 145.401C59.1853 144.926 59.0772 144.38 59.1399 143.84C59.1933 128.053 59.2066 112.257 59.1799 96.4499Z" fill="#CFA160"/>
<path d="M152.93 101.91C152.93 105.91 152.93 109.91 152.93 113.91C152.93 137.91 152.93 161.94 152.93 186V191C152.93 193.13 152.93 193.14 151.13 192.11L142 186.81C140.24 185.81 140.08 185.87 140.07 187.88C140.07 195.173 140.07 202.457 140.07 209.73C140.07 211.83 140.07 211.85 138.17 210.73C131.86 207.1 125.58 203.41 119.23 199.84C118.661 199.585 118.186 199.159 117.871 198.621C117.555 198.083 117.415 197.461 117.47 196.84C117.47 195.35 117.47 193.84 117.47 192.38C117.47 178.13 117.47 163.87 117.47 149.62C117.47 133.82 117.47 118.017 117.47 102.21C117.407 101.67 117.515 101.124 117.779 100.649C118.043 100.173 118.449 99.7925 118.94 99.5599C123.94 96.8099 128.83 93.9699 133.73 91.0999C134.152 90.8043 134.655 90.6458 135.17 90.6458C135.685 90.6458 136.188 90.8043 136.61 91.0999C141.61 94.0399 146.643 96.9266 151.71 99.7599C152.114 99.9529 152.449 100.266 152.669 100.656C152.889 101.046 152.984 101.494 152.94 101.94L152.93 101.91Z" fill="#CFA160"/>
<path d="M236.33 38.78C233.46 43.69 230.62 48.61 227.87 53.57C227.633 54.0558 227.251 54.4552 226.775 54.7117C226.3 54.9683 225.756 55.0691 225.22 55C209.42 55 193.616 55 177.81 55C169.39 55 160.97 55 152.55 55V19.59H213.46C217.46 19.59 221.46 19.59 225.46 19.59C225.913 19.537 226.372 19.627 226.772 19.8476C227.172 20.0681 227.493 20.4081 227.69 20.82C230.53 25.88 233.416 30.9134 236.35 35.92C236.639 36.3416 236.793 36.8418 236.789 37.3532C236.786 37.8646 236.625 38.3626 236.33 38.78Z" fill="#CFA160"/>
<path d="M236.33 176.52C233.46 181.43 230.62 186.35 227.87 191.31C227.64 191.803 227.259 192.211 226.783 192.475C226.307 192.739 225.76 192.846 225.22 192.78C209.42 192.78 193.616 192.78 177.81 192.78H152.55V157.33H213.46C217.46 157.33 221.46 157.33 225.46 157.33C225.913 157.277 226.372 157.367 226.772 157.588C227.172 157.808 227.493 158.148 227.69 158.56C230.53 163.62 233.416 168.653 236.35 173.66C236.639 174.082 236.793 174.582 236.789 175.093C236.786 175.605 236.625 176.103 236.33 176.52Z" fill="#CFA160"/>
</mask>
<g mask="url(#mask0_83_29)">
<rect x="117" y="-33" width="147" height="248" fill="#CFA160"/>
</g>
</svg>
