<svg width="273" height="39" viewBox="0 0 273 39" fill="none" xmlns="http://www.w3.org/2000/svg">
<path d="M32.2081 4.97611C31.1521 5.13611 30.3681 5.40811 29.8561 5.79211C29.3761 6.17611 29.0401 6.78411 28.8481 7.61611C28.6881 8.44811 28.6081 9.68011 28.6081 11.3121V24.0321C28.6081 28.6081 27.9521 32.0001 26.6401 34.2081C25.7761 35.6161 24.5281 36.7201 22.8961 37.5201C21.2641 38.2881 19.2641 38.6721 16.8961 38.6721C13.1841 38.6721 10.3041 37.8721 8.25611 36.2721C6.78411 35.0881 5.79211 33.6001 5.28011 31.8081C4.76811 29.9841 4.51211 27.4401 4.51211 24.1761V9.10411C4.51211 7.88811 4.41611 7.00811 4.22411 6.46411C4.06411 5.92011 3.72811 5.55211 3.21611 5.36011C2.73611 5.16811 1.96811 5.04011 0.912109 4.97611V4.01611C2.54411 4.11211 5.04011 4.16011 8.40011 4.16011C11.7281 4.16011 14.2721 4.11211 16.0321 4.01611V4.97611C14.8801 5.04011 14.0321 5.16811 13.4881 5.36011C12.9761 5.55211 12.6241 5.92011 12.4321 6.46411C12.2401 7.00811 12.1441 7.88811 12.1441 9.10411V27.2001C12.1441 30.5601 12.6241 33.0401 13.5841 34.6401C14.5761 36.2081 16.3041 36.9921 18.7681 36.9921C21.9681 36.9921 24.2241 35.9201 25.5361 33.7761C26.8481 31.6001 27.5041 28.5281 27.5041 24.5601V11.8881C27.5041 10.0321 27.3921 8.65611 27.1681 7.76011C26.9441 6.86411 26.5121 6.22411 25.8721 5.84011C25.2321 5.42411 24.2241 5.13611 22.8481 4.97611V4.01611C24.0641 4.11211 25.7921 4.16011 28.0321 4.16011C29.8241 4.16011 31.2161 4.11211 32.2081 4.01611V4.97611Z" fill="white"/>
<path d="M49.961 12.5121C51.401 12.5121 52.489 12.9441 53.225 13.8081C53.961 14.6721 54.329 15.7121 54.329 16.9281C54.329 18.1121 53.977 19.0881 53.273 19.8561C52.601 20.5921 51.705 20.9601 50.585 20.9601C49.497 20.9601 48.633 20.6881 47.993 20.1441C47.353 19.5681 47.033 18.8161 47.033 17.8881C47.033 16.3521 47.737 15.1041 49.145 14.1441C49.017 14.1121 48.825 14.0961 48.569 14.0961C48.249 14.0961 47.993 14.1281 47.801 14.1921C46.585 14.3841 45.545 15.1201 44.681 16.4001C43.849 17.6801 43.433 18.9921 43.433 20.3361V33.0561C43.433 34.5281 43.785 35.5521 44.489 36.1281C45.225 36.7041 46.377 36.9921 47.945 36.9921V38.0001C47.497 38.0001 47.129 37.9841 46.841 37.9521C43.577 37.8561 41.401 37.8081 40.313 37.8081C39.449 37.8081 37.481 37.8561 34.409 37.9521C34.153 37.9841 33.833 38.0001 33.449 38.0001V36.9921C34.601 36.9921 35.401 36.7521 35.849 36.2721C36.297 35.7601 36.521 34.8481 36.521 33.5361V18.4161C36.521 16.9441 36.297 15.8721 35.849 15.2001C35.401 14.5281 34.601 14.1921 33.449 14.1921V13.1841C34.473 13.2801 35.465 13.3281 36.425 13.3281C39.273 13.3281 41.609 13.1041 43.433 12.6561V17.1201C44.041 15.7441 44.921 14.6401 46.073 13.8081C47.225 12.9441 48.521 12.5121 49.961 12.5121Z" fill="white"/>
<path d="M71.3817 12.5121C73.9737 12.5121 76.0697 13.5841 77.6697 15.7281C79.2697 17.8401 80.0697 20.9121 80.0697 24.9441C80.0697 29.6481 79.0457 33.1201 76.9977 35.3601C74.9497 37.5681 72.3097 38.6721 69.0777 38.6721C66.8697 38.6721 65.0777 38.1121 63.7017 36.9921C62.5497 36.8961 61.3977 37.0241 60.2457 37.3761C59.0937 37.7281 58.1817 38.1921 57.5097 38.7681L56.7897 38.3361C57.0137 37.5361 57.1257 36.6401 57.1257 35.6481V6.22411C57.1257 4.75211 56.8857 3.68011 56.4057 3.00811C55.9577 2.33611 55.1737 2.00011 54.0537 2.00011V0.992113C55.0457 1.08811 56.0377 1.13611 57.0297 1.13611C59.8137 1.13611 62.1497 0.912113 64.0377 0.464111V17.0721C64.7097 15.6001 65.6857 14.4801 66.9657 13.7121C68.2457 12.9121 69.7177 12.5121 71.3817 12.5121ZM67.5897 37.6641C69.3497 37.6641 70.6617 36.6721 71.5257 34.6881C72.3897 32.7041 72.8217 29.6801 72.8217 25.6161C72.8217 21.6801 72.4537 18.8641 71.7177 17.1681C70.9817 15.4401 69.9257 14.5761 68.5497 14.5761C67.5257 14.5761 66.5817 14.9601 65.7177 15.7281C64.8857 16.4641 64.3257 17.4721 64.0377 18.7521V36.3681C65.0937 37.2321 66.2777 37.6641 67.5897 37.6641Z" fill="white"/>
<path d="M89.3787 38.3361C87.3307 38.3361 85.7947 37.8081 84.7707 36.7521C83.7787 35.6961 83.2827 34.3041 83.2827 32.5761C83.2827 31.1361 83.6507 29.9521 84.3867 29.0241C85.1547 28.0641 86.0667 27.3281 87.1227 26.8161C88.2107 26.3041 89.5867 25.7601 91.2507 25.1841C93.0107 24.5761 94.2907 24.0321 95.0907 23.5521C95.9227 23.0401 96.3387 22.3521 96.3387 21.4881V17.7441C96.3387 16.4001 96.0187 15.3601 95.3787 14.6241C94.7707 13.8561 93.8107 13.4721 92.4987 13.4721C90.9627 13.4721 89.7947 13.8561 88.9947 14.6241C89.8907 14.9441 90.5787 15.4241 91.0587 16.0641C91.5707 16.7041 91.8267 17.4561 91.8267 18.3201C91.8267 19.4081 91.4587 20.2721 90.7227 20.9121C89.9867 21.5521 89.0907 21.8721 88.0347 21.8721C86.9147 21.8721 86.0507 21.5201 85.4427 20.8161C84.8347 20.1121 84.5307 19.2321 84.5307 18.1761C84.5307 17.2801 84.7387 16.5281 85.1547 15.9201C85.6027 15.2801 86.2747 14.6881 87.1707 14.1441C88.0347 13.6321 89.0907 13.2321 90.3387 12.9441C91.6187 12.6561 93.0107 12.5121 94.5147 12.5121C96.0827 12.5121 97.4427 12.6721 98.5947 12.9921C99.7467 13.3121 100.707 13.8561 101.475 14.6241C102.179 15.3281 102.643 16.1921 102.867 17.2161C103.123 18.2401 103.251 19.6321 103.251 21.3921V34.4481C103.251 35.2161 103.315 35.7601 103.443 36.0801C103.603 36.4001 103.891 36.5601 104.307 36.5601C104.787 36.5601 105.363 36.2881 106.035 35.7441L106.515 36.5601C105.075 37.7441 103.315 38.3361 101.235 38.3361C99.4747 38.3361 98.2427 37.9841 97.5387 37.2801C96.8347 36.5761 96.4667 35.6321 96.4347 34.4481C94.8347 37.0401 92.4827 38.3361 89.3787 38.3361ZM93.0747 35.2641C94.3227 35.2641 95.4107 34.6081 96.3387 33.2961V23.4561C95.9547 24.0961 95.1387 24.8001 93.8907 25.5681C92.6427 26.3681 91.6987 27.1681 91.0587 27.9681C90.4187 28.7681 90.0987 29.9201 90.0987 31.4241C90.0987 32.7361 90.3707 33.7121 90.9147 34.3521C91.4587 34.9601 92.1787 35.2641 93.0747 35.2641Z" fill="white"/>
<path d="M125.742 12.5121C128.174 12.5121 129.934 13.1361 131.022 14.3841C131.566 14.9921 131.95 15.7761 132.174 16.7361C132.398 17.6961 132.51 18.9921 132.51 20.6241V33.5361C132.51 34.8481 132.734 35.7601 133.182 36.2721C133.662 36.7521 134.462 36.9921 135.582 36.9921V38.0001C132.382 37.8721 130.27 37.8081 129.246 37.8081C128.286 37.8081 126.206 37.8721 123.006 38.0001V36.9921C123.966 36.9921 124.638 36.7521 125.022 36.2721C125.406 35.7601 125.598 34.8481 125.598 33.5361V18.6081C125.598 17.2961 125.374 16.3041 124.926 15.6321C124.51 14.9601 123.742 14.6241 122.622 14.6241C121.31 14.6241 120.19 15.1681 119.262 16.2561C118.334 17.3121 117.87 18.6241 117.87 20.1921V33.5361C117.87 34.8481 118.062 35.7601 118.446 36.2721C118.83 36.7521 119.502 36.9921 120.462 36.9921V38.0001C117.518 37.8721 115.534 37.8081 114.51 37.8081C113.55 37.8081 111.342 37.8721 107.886 38.0001V36.9921C109.038 36.9921 109.838 36.7521 110.286 36.2721C110.734 35.7601 110.958 34.8481 110.958 33.5361V18.4161C110.958 16.9441 110.734 15.8721 110.286 15.2001C109.838 14.5281 109.038 14.1921 107.886 14.1921V13.1841C108.91 13.2801 109.902 13.3281 110.862 13.3281C113.71 13.3281 116.046 13.1041 117.87 12.6561V16.9761C119.31 14.0001 121.934 12.5121 125.742 12.5121Z" fill="white"/>
<path d="M166.478 3.34411C168.398 3.34411 170.03 3.61611 171.374 4.16011C172.718 4.70411 174.03 5.47211 175.31 6.46411C175.662 6.75211 175.966 6.89611 176.222 6.89611C176.862 6.89611 177.278 5.93611 177.47 4.01611H178.574C178.446 6.19211 178.382 10.0641 178.382 15.6321H177.278C176.99 13.2641 176.606 11.4561 176.126 10.2081C175.646 8.96011 174.83 7.87211 173.678 6.94411C172.878 6.17611 171.95 5.60011 170.894 5.21611C169.838 4.80011 168.734 4.59211 167.582 4.59211C164.35 4.59211 161.95 6.17611 160.382 9.34411C158.814 12.4801 158.03 16.4001 158.03 21.1041C158.03 25.7761 158.846 29.6801 160.478 32.8161C162.11 35.9521 164.542 37.5201 167.774 37.5201C168.862 37.5201 169.934 37.3281 170.99 36.9441C172.078 36.5281 172.99 35.9361 173.726 35.1681C174.91 34.2721 175.726 33.1521 176.174 31.8081C176.654 30.4641 177.022 28.4961 177.278 25.9041H178.382C178.382 31.6961 178.446 35.7281 178.574 38.0001H177.47C177.374 36.9761 177.23 36.2561 177.038 35.8401C176.878 35.3921 176.638 35.1681 176.318 35.1681C176.062 35.1681 175.726 35.2961 175.31 35.5521C173.87 36.5761 172.494 37.3601 171.182 37.9041C169.87 38.4161 168.286 38.6721 166.43 38.6721C163.038 38.6721 160.062 37.9841 157.502 36.6081C154.974 35.2321 153.006 33.2481 151.598 30.6561C150.19 28.0321 149.486 24.9121 149.486 21.2961C149.486 17.7761 150.206 14.6561 151.646 11.9361C153.086 9.21611 155.086 7.10411 157.646 5.60011C160.238 4.09611 163.182 3.34411 166.478 3.34411Z" fill="white"/>
<path d="M198.93 12.5121C200.37 12.5121 201.458 12.9441 202.194 13.8081C202.93 14.6721 203.298 15.7121 203.298 16.9281C203.298 18.1121 202.946 19.0881 202.242 19.8561C201.57 20.5921 200.674 20.9601 199.554 20.9601C198.466 20.9601 197.602 20.6881 196.962 20.1441C196.322 19.5681 196.002 18.8161 196.002 17.8881C196.002 16.3521 196.706 15.1041 198.114 14.1441C197.986 14.1121 197.794 14.0961 197.538 14.0961C197.218 14.0961 196.962 14.1281 196.77 14.1921C195.554 14.3841 194.514 15.1201 193.65 16.4001C192.818 17.6801 192.402 18.9921 192.402 20.3361V33.0561C192.402 34.5281 192.754 35.5521 193.458 36.1281C194.194 36.7041 195.346 36.9921 196.914 36.9921V38.0001C196.466 38.0001 196.098 37.9841 195.81 37.9521C192.546 37.8561 190.37 37.8081 189.282 37.8081C188.418 37.8081 186.45 37.8561 183.378 37.9521C183.122 37.9841 182.802 38.0001 182.418 38.0001V36.9921C183.57 36.9921 184.37 36.7521 184.818 36.2721C185.266 35.7601 185.49 34.8481 185.49 33.5361V18.4161C185.49 16.9441 185.266 15.8721 184.818 15.2001C184.37 14.5281 183.57 14.1921 182.418 14.1921V13.1841C183.442 13.2801 184.434 13.3281 185.394 13.3281C188.242 13.3281 190.578 13.1041 192.402 12.6561V17.1201C193.01 15.7441 193.89 14.6401 195.042 13.8081C196.194 12.9441 197.49 12.5121 198.93 12.5121Z" fill="white"/>
<path d="M218.28 34.7361C220.904 34.7361 223.016 33.4561 224.616 30.8961L225.48 31.1841C224.84 33.2641 223.688 35.0401 222.024 36.5121C220.392 37.9521 218.344 38.6721 215.88 38.6721C212.488 38.6721 209.784 37.6001 207.768 35.4561C205.784 33.2801 204.792 30.0801 204.792 25.8561C204.792 21.5361 205.864 18.2401 208.008 15.9681C210.152 13.6641 213 12.5121 216.552 12.5121C222.568 12.5121 225.576 16.0641 225.576 23.1681H212.088C212.056 23.6481 212.04 24.4001 212.04 25.4241C212.04 27.5361 212.328 29.2961 212.904 30.7041C213.512 32.1121 214.28 33.1361 215.208 33.7761C216.168 34.4161 217.192 34.7361 218.28 34.7361ZM216.264 13.5201C215.112 13.5201 214.152 14.2401 213.384 15.6801C212.648 17.0881 212.184 19.2801 211.992 22.2561H219.528C219.592 19.7281 219.336 17.6481 218.76 16.0161C218.216 14.3521 217.384 13.5201 216.264 13.5201Z" fill="white"/>
<path d="M260.862 13.3281C262.494 13.3281 263.71 13.2801 264.51 13.1841V14.1441C263.838 14.3361 263.23 14.7361 262.686 15.3441C262.142 15.9521 261.662 16.9281 261.246 18.2721L254.862 38.0961C254.51 38.0641 253.982 38.0481 253.278 38.0481C252.606 38.0481 252.094 38.0641 251.742 38.0961L245.214 20.2881L239.886 38.0961C239.566 38.0641 239.054 38.0481 238.35 38.0481C237.646 38.0481 237.118 38.0641 236.766 38.0961L229.182 16.8801C228.798 15.7601 228.366 15.0401 227.886 14.7201C227.406 14.3681 226.91 14.1921 226.398 14.1921V13.1841C228.478 13.3761 230.75 13.4721 233.214 13.4721C234.814 13.4721 236.894 13.3761 239.454 13.1841V14.1921C238.398 14.1921 237.63 14.2721 237.15 14.4321C236.702 14.5921 236.478 14.9761 236.478 15.5841C236.478 16.0001 236.558 16.4321 236.718 16.8801L241.038 30.4641L246.27 13.1361L248.046 13.1841L249.774 13.1361L256.014 31.4721L259.038 21.8241C259.486 20.3201 259.71 19.1041 259.71 18.1761C259.71 15.6801 258.446 14.3361 255.918 14.1441V13.1841C257.422 13.2801 259.07 13.3281 260.862 13.3281Z" fill="white"/>
<path d="M268.886 31.2801C270.134 31.2801 271.126 31.6161 271.862 32.2881C272.598 32.9281 272.966 33.8241 272.966 34.9761C272.966 36.1281 272.598 37.0401 271.862 37.7121C271.126 38.3521 270.134 38.6721 268.886 38.6721C267.638 38.6721 266.646 38.3521 265.91 37.7121C265.174 37.0401 264.806 36.1281 264.806 34.9761C264.806 33.8241 265.174 32.9281 265.91 32.2881C266.646 31.6161 267.638 31.2801 268.886 31.2801Z" fill="white"/>
<mask id="mask0_131_13" style="mask-type:alpha" maskUnits="userSpaceOnUse" x="0" y="0" width="273" height="39">
<path d="M32.2081 4.97611C31.1521 5.13611 30.3681 5.40811 29.8561 5.79211C29.3761 6.17611 29.0401 6.78411 28.8481 7.61611C28.6881 8.44811 28.6081 9.68011 28.6081 11.3121V24.0321C28.6081 28.6081 27.9521 32.0001 26.6401 34.2081C25.7761 35.6161 24.5281 36.7201 22.8961 37.5201C21.2641 38.2881 19.2641 38.6721 16.8961 38.6721C13.1841 38.6721 10.3041 37.8721 8.25611 36.2721C6.78411 35.0881 5.79211 33.6001 5.28011 31.8081C4.76811 29.9841 4.51211 27.4401 4.51211 24.1761V9.10411C4.51211 7.88811 4.41611 7.00811 4.22411 6.46411C4.06411 5.92011 3.72811 5.55211 3.21611 5.36011C2.73611 5.16811 1.96811 5.04011 0.912109 4.97611V4.01611C2.54411 4.11211 5.04011 4.16011 8.40011 4.16011C11.7281 4.16011 14.2721 4.11211 16.0321 4.01611V4.97611C14.8801 5.04011 14.0321 5.16811 13.4881 5.36011C12.9761 5.55211 12.6241 5.92011 12.4321 6.46411C12.2401 7.00811 12.1441 7.88811 12.1441 9.10411V27.2001C12.1441 30.5601 12.6241 33.0401 13.5841 34.6401C14.5761 36.2081 16.3041 36.9921 18.7681 36.9921C21.9681 36.9921 24.2241 35.9201 25.5361 33.7761C26.8481 31.6001 27.5041 28.5281 27.5041 24.5601V11.8881C27.5041 10.0321 27.3921 8.65611 27.1681 7.76011C26.9441 6.86411 26.5121 6.22411 25.8721 5.84011C25.2321 5.42411 24.2241 5.13611 22.8481 4.97611V4.01611C24.0641 4.11211 25.7921 4.16011 28.0321 4.16011C29.8241 4.16011 31.2161 4.11211 32.2081 4.01611V4.97611Z" fill="white"/>
<path d="M49.961 12.5121C51.401 12.5121 52.489 12.9441 53.225 13.8081C53.961 14.6721 54.329 15.7121 54.329 16.9281C54.329 18.1121 53.977 19.0881 53.273 19.8561C52.601 20.5921 51.705 20.9601 50.585 20.9601C49.497 20.9601 48.633 20.6881 47.993 20.1441C47.353 19.5681 47.033 18.8161 47.033 17.8881C47.033 16.3521 47.737 15.1041 49.145 14.1441C49.017 14.1121 48.825 14.0961 48.569 14.0961C48.249 14.0961 47.993 14.1281 47.801 14.1921C46.585 14.3841 45.545 15.1201 44.681 16.4001C43.849 17.6801 43.433 18.9921 43.433 20.3361V33.0561C43.433 34.5281 43.785 35.5521 44.489 36.1281C45.225 36.7041 46.377 36.9921 47.945 36.9921V38.0001C47.497 38.0001 47.129 37.9841 46.841 37.9521C43.577 37.8561 41.401 37.8081 40.313 37.8081C39.449 37.8081 37.481 37.8561 34.409 37.9521C34.153 37.9841 33.833 38.0001 33.449 38.0001V36.9921C34.601 36.9921 35.401 36.7521 35.849 36.2721C36.297 35.7601 36.521 34.8481 36.521 33.5361V18.4161C36.521 16.9441 36.297 15.8721 35.849 15.2001C35.401 14.5281 34.601 14.1921 33.449 14.1921V13.1841C34.473 13.2801 35.465 13.3281 36.425 13.3281C39.273 13.3281 41.609 13.1041 43.433 12.6561V17.1201C44.041 15.7441 44.921 14.6401 46.073 13.8081C47.225 12.9441 48.521 12.5121 49.961 12.5121Z" fill="white"/>
<path d="M71.3817 12.5121C73.9737 12.5121 76.0697 13.5841 77.6697 15.7281C79.2697 17.8401 80.0697 20.9121 80.0697 24.9441C80.0697 29.6481 79.0457 33.1201 76.9977 35.3601C74.9497 37.5681 72.3097 38.6721 69.0777 38.6721C66.8697 38.6721 65.0777 38.1121 63.7017 36.9921C62.5497 36.8961 61.3977 37.0241 60.2457 37.3761C59.0937 37.7281 58.1817 38.1921 57.5097 38.7681L56.7897 38.3361C57.0137 37.5361 57.1257 36.6401 57.1257 35.6481V6.22411C57.1257 4.75211 56.8857 3.68011 56.4057 3.00811C55.9577 2.33611 55.1737 2.00011 54.0537 2.00011V0.992113C55.0457 1.08811 56.0377 1.13611 57.0297 1.13611C59.8137 1.13611 62.1497 0.912113 64.0377 0.464111V17.0721C64.7097 15.6001 65.6857 14.4801 66.9657 13.7121C68.2457 12.9121 69.7177 12.5121 71.3817 12.5121ZM67.5897 37.6641C69.3497 37.6641 70.6617 36.6721 71.5257 34.6881C72.3897 32.7041 72.8217 29.6801 72.8217 25.6161C72.8217 21.6801 72.4537 18.8641 71.7177 17.1681C70.9817 15.4401 69.9257 14.5761 68.5497 14.5761C67.5257 14.5761 66.5817 14.9601 65.7177 15.7281C64.8857 16.4641 64.3257 17.4721 64.0377 18.7521V36.3681C65.0937 37.2321 66.2777 37.6641 67.5897 37.6641Z" fill="white"/>
<path d="M89.3787 38.3361C87.3307 38.3361 85.7947 37.8081 84.7707 36.7521C83.7787 35.6961 83.2827 34.3041 83.2827 32.5761C83.2827 31.1361 83.6507 29.9521 84.3867 29.0241C85.1547 28.0641 86.0667 27.3281 87.1227 26.8161C88.2107 26.3041 89.5867 25.7601 91.2507 25.1841C93.0107 24.5761 94.2907 24.0321 95.0907 23.5521C95.9227 23.0401 96.3387 22.3521 96.3387 21.4881V17.7441C96.3387 16.4001 96.0187 15.3601 95.3787 14.6241C94.7707 13.8561 93.8107 13.4721 92.4987 13.4721C90.9627 13.4721 89.7947 13.8561 88.9947 14.6241C89.8907 14.9441 90.5787 15.4241 91.0587 16.0641C91.5707 16.7041 91.8267 17.4561 91.8267 18.3201C91.8267 19.4081 91.4587 20.2721 90.7227 20.9121C89.9867 21.5521 89.0907 21.8721 88.0347 21.8721C86.9147 21.8721 86.0507 21.5201 85.4427 20.8161C84.8347 20.1121 84.5307 19.2321 84.5307 18.1761C84.5307 17.2801 84.7387 16.5281 85.1547 15.9201C85.6027 15.2801 86.2747 14.6881 87.1707 14.1441C88.0347 13.6321 89.0907 13.2321 90.3387 12.9441C91.6187 12.6561 93.0107 12.5121 94.5147 12.5121C96.0827 12.5121 97.4427 12.6721 98.5947 12.9921C99.7467 13.3121 100.707 13.8561 101.475 14.6241C102.179 15.3281 102.643 16.1921 102.867 17.2161C103.123 18.2401 103.251 19.6321 103.251 21.3921V34.4481C103.251 35.2161 103.315 35.7601 103.443 36.0801C103.603 36.4001 103.891 36.5601 104.307 36.5601C104.787 36.5601 105.363 36.2881 106.035 35.7441L106.515 36.5601C105.075 37.7441 103.315 38.3361 101.235 38.3361C99.4747 38.3361 98.2427 37.9841 97.5387 37.2801C96.8347 36.5761 96.4667 35.6321 96.4347 34.4481C94.8347 37.0401 92.4827 38.3361 89.3787 38.3361ZM93.0747 35.2641C94.3227 35.2641 95.4107 34.6081 96.3387 33.2961V23.4561C95.9547 24.0961 95.1387 24.8001 93.8907 25.5681C92.6427 26.3681 91.6987 27.1681 91.0587 27.9681C90.4187 28.7681 90.0987 29.9201 90.0987 31.4241C90.0987 32.7361 90.3707 33.7121 90.9147 34.3521C91.4587 34.9601 92.1787 35.2641 93.0747 35.2641Z" fill="white"/>
<path d="M125.742 12.5121C128.174 12.5121 129.934 13.1361 131.022 14.3841C131.566 14.9921 131.95 15.7761 132.174 16.7361C132.398 17.6961 132.51 18.9921 132.51 20.6241V33.5361C132.51 34.8481 132.734 35.7601 133.182 36.2721C133.662 36.7521 134.462 36.9921 135.582 36.9921V38.0001C132.382 37.8721 130.27 37.8081 129.246 37.8081C128.286 37.8081 126.206 37.8721 123.006 38.0001V36.9921C123.966 36.9921 124.638 36.7521 125.022 36.2721C125.406 35.7601 125.598 34.8481 125.598 33.5361V18.6081C125.598 17.2961 125.374 16.3041 124.926 15.6321C124.51 14.9601 123.742 14.6241 122.622 14.6241C121.31 14.6241 120.19 15.1681 119.262 16.2561C118.334 17.3121 117.87 18.6241 117.87 20.1921V33.5361C117.87 34.8481 118.062 35.7601 118.446 36.2721C118.83 36.7521 119.502 36.9921 120.462 36.9921V38.0001C117.518 37.8721 115.534 37.8081 114.51 37.8081C113.55 37.8081 111.342 37.8721 107.886 38.0001V36.9921C109.038 36.9921 109.838 36.7521 110.286 36.2721C110.734 35.7601 110.958 34.8481 110.958 33.5361V18.4161C110.958 16.9441 110.734 15.8721 110.286 15.2001C109.838 14.5281 109.038 14.1921 107.886 14.1921V13.1841C108.91 13.2801 109.902 13.3281 110.862 13.3281C113.71 13.3281 116.046 13.1041 117.87 12.6561V16.9761C119.31 14.0001 121.934 12.5121 125.742 12.5121Z" fill="white"/>
<path d="M166.478 3.34411C168.398 3.34411 170.03 3.61611 171.374 4.16011C172.718 4.70411 174.03 5.47211 175.31 6.46411C175.662 6.75211 175.966 6.89611 176.222 6.89611C176.862 6.89611 177.278 5.93611 177.47 4.01611H178.574C178.446 6.19211 178.382 10.0641 178.382 15.6321H177.278C176.99 13.2641 176.606 11.4561 176.126 10.2081C175.646 8.96011 174.83 7.87211 173.678 6.94411C172.878 6.17611 171.95 5.60011 170.894 5.21611C169.838 4.80011 168.734 4.59211 167.582 4.59211C164.35 4.59211 161.95 6.17611 160.382 9.34411C158.814 12.4801 158.03 16.4001 158.03 21.1041C158.03 25.7761 158.846 29.6801 160.478 32.8161C162.11 35.9521 164.542 37.5201 167.774 37.5201C168.862 37.5201 169.934 37.3281 170.99 36.9441C172.078 36.5281 172.99 35.9361 173.726 35.1681C174.91 34.2721 175.726 33.1521 176.174 31.8081C176.654 30.4641 177.022 28.4961 177.278 25.9041H178.382C178.382 31.6961 178.446 35.7281 178.574 38.0001H177.47C177.374 36.9761 177.23 36.2561 177.038 35.8401C176.878 35.3921 176.638 35.1681 176.318 35.1681C176.062 35.1681 175.726 35.2961 175.31 35.5521C173.87 36.5761 172.494 37.3601 171.182 37.9041C169.87 38.4161 168.286 38.6721 166.43 38.6721C163.038 38.6721 160.062 37.9841 157.502 36.6081C154.974 35.2321 153.006 33.2481 151.598 30.6561C150.19 28.0321 149.486 24.9121 149.486 21.2961C149.486 17.7761 150.206 14.6561 151.646 11.9361C153.086 9.21611 155.086 7.10411 157.646 5.60011C160.238 4.09611 163.182 3.34411 166.478 3.34411Z" fill="white"/>
<path d="M198.93 12.5121C200.37 12.5121 201.458 12.9441 202.194 13.8081C202.93 14.6721 203.298 15.7121 203.298 16.9281C203.298 18.1121 202.946 19.0881 202.242 19.8561C201.57 20.5921 200.674 20.9601 199.554 20.9601C198.466 20.9601 197.602 20.6881 196.962 20.1441C196.322 19.5681 196.002 18.8161 196.002 17.8881C196.002 16.3521 196.706 15.1041 198.114 14.1441C197.986 14.1121 197.794 14.0961 197.538 14.0961C197.218 14.0961 196.962 14.1281 196.77 14.1921C195.554 14.3841 194.514 15.1201 193.65 16.4001C192.818 17.6801 192.402 18.9921 192.402 20.3361V33.0561C192.402 34.5281 192.754 35.5521 193.458 36.1281C194.194 36.7041 195.346 36.9921 196.914 36.9921V38.0001C196.466 38.0001 196.098 37.9841 195.81 37.9521C192.546 37.8561 190.37 37.8081 189.282 37.8081C188.418 37.8081 186.45 37.8561 183.378 37.9521C183.122 37.9841 182.802 38.0001 182.418 38.0001V36.9921C183.57 36.9921 184.37 36.7521 184.818 36.2721C185.266 35.7601 185.49 34.8481 185.49 33.5361V18.4161C185.49 16.9441 185.266 15.8721 184.818 15.2001C184.37 14.5281 183.57 14.1921 182.418 14.1921V13.1841C183.442 13.2801 184.434 13.3281 185.394 13.3281C188.242 13.3281 190.578 13.1041 192.402 12.6561V17.1201C193.01 15.7441 193.89 14.6401 195.042 13.8081C196.194 12.9441 197.49 12.5121 198.93 12.5121Z" fill="white"/>
<path d="M218.28 34.7361C220.904 34.7361 223.016 33.4561 224.616 30.8961L225.48 31.1841C224.84 33.2641 223.688 35.0401 222.024 36.5121C220.392 37.9521 218.344 38.6721 215.88 38.6721C212.488 38.6721 209.784 37.6001 207.768 35.4561C205.784 33.2801 204.792 30.0801 204.792 25.8561C204.792 21.5361 205.864 18.2401 208.008 15.9681C210.152 13.6641 213 12.5121 216.552 12.5121C222.568 12.5121 225.576 16.0641 225.576 23.1681H212.088C212.056 23.6481 212.04 24.4001 212.04 25.4241C212.04 27.5361 212.328 29.2961 212.904 30.7041C213.512 32.1121 214.28 33.1361 215.208 33.7761C216.168 34.4161 217.192 34.7361 218.28 34.7361ZM216.264 13.5201C215.112 13.5201 214.152 14.2401 213.384 15.6801C212.648 17.0881 212.184 19.2801 211.992 22.2561H219.528C219.592 19.7281 219.336 17.6481 218.76 16.0161C218.216 14.3521 217.384 13.5201 216.264 13.5201Z" fill="white"/>
<path d="M260.862 13.3281C262.494 13.3281 263.71 13.2801 264.51 13.1841V14.1441C263.838 14.3361 263.23 14.7361 262.686 15.3441C262.142 15.9521 261.662 16.9281 261.246 18.2721L254.862 38.0961C254.51 38.0641 253.982 38.0481 253.278 38.0481C252.606 38.0481 252.094 38.0641 251.742 38.0961L245.214 20.2881L239.886 38.0961C239.566 38.0641 239.054 38.0481 238.35 38.0481C237.646 38.0481 237.118 38.0641 236.766 38.0961L229.182 16.8801C228.798 15.7601 228.366 15.0401 227.886 14.7201C227.406 14.3681 226.91 14.1921 226.398 14.1921V13.1841C228.478 13.3761 230.75 13.4721 233.214 13.4721C234.814 13.4721 236.894 13.3761 239.454 13.1841V14.1921C238.398 14.1921 237.63 14.2721 237.15 14.4321C236.702 14.5921 236.478 14.9761 236.478 15.5841C236.478 16.0001 236.558 16.4321 236.718 16.8801L241.038 30.4641L246.27 13.1361L248.046 13.1841L249.774 13.1361L256.014 31.4721L259.038 21.8241C259.486 20.3201 259.71 19.1041 259.71 18.1761C259.71 15.6801 258.446 14.3361 255.918 14.1441V13.1841C257.422 13.2801 259.07 13.3281 260.862 13.3281Z" fill="white"/>
<path d="M268.886 31.2801C270.134 31.2801 271.126 31.6161 271.862 32.2881C272.598 32.9281 272.966 33.8241 272.966 34.9761C272.966 36.1281 272.598 37.0401 271.862 37.7121C271.126 38.3521 270.134 38.6721 268.886 38.6721C267.638 38.6721 266.646 38.3521 265.91 37.7121C265.174 37.0401 264.806 36.1281 264.806 34.9761C264.806 33.8241 265.174 32.9281 265.91 32.2881C266.646 31.6161 267.638 31.2801 268.886 31.2801Z" fill="white"/>
</mask>
<g mask="url(#mask0_131_13)">
<ellipse cx="179.34" cy="43.0501" rx="137.29" ry="19.95" fill="#CFA160"/>
</g>
</svg>
