<svg width="189" height="27" viewBox="0 0 189 27" fill="none" xmlns="http://www.w3.org/2000/svg">
<path d="M22.5389 3.58208C21.8091 3.69265 21.2673 3.88061 20.9135 4.14597C20.5818 4.41133 20.3496 4.83148 20.217 5.40642C20.1064 5.98136 20.0511 6.83272 20.0511 7.9605V16.7505C20.0511 19.9127 19.5978 22.2567 18.6912 23.7825C18.0941 24.7555 17.2317 25.5184 16.1039 26.0712C14.9761 26.602 13.5941 26.8673 11.9577 26.8673C9.39254 26.8673 7.40234 26.3145 5.9871 25.2088C4.96989 24.3906 4.28438 23.3624 3.93057 22.124C3.57675 20.8636 3.39985 19.1056 3.39985 16.85V6.43469C3.39985 5.59438 3.33351 4.98627 3.20083 4.61035C3.09026 4.23442 2.85807 3.98012 2.50426 3.84744C2.17256 3.71476 1.64185 3.62631 0.912109 3.58208V2.91868C2.03988 2.98502 3.76472 3.01819 6.08661 3.01819C8.38638 3.01819 10.1444 2.98502 11.3606 2.91868V3.58208C10.5645 3.62631 9.97854 3.71476 9.60261 3.84744C9.2488 3.98012 9.00555 4.23442 8.87287 4.61035C8.7402 4.98627 8.67386 5.59438 8.67386 6.43469V18.9397C8.67386 21.2616 9.00555 22.9754 9.66895 24.0811C10.3545 25.1646 11.5486 25.7064 13.2513 25.7064C15.4626 25.7064 17.0216 24.9656 17.9282 23.484C18.8349 21.9803 19.2882 19.8574 19.2882 17.1154V8.35854C19.2882 7.07597 19.2108 6.1251 19.056 5.50593C18.9012 4.88676 18.6027 4.44449 18.1604 4.17914C17.7182 3.89166 17.0216 3.69265 16.0707 3.58208V2.91868C16.911 2.98502 18.1052 3.01819 19.6531 3.01819C20.8914 3.01819 21.8533 2.98502 22.5389 2.91868V3.58208Z" fill="#333C4B"/>
<path d="M34.8068 8.78975C35.8019 8.78975 36.5537 9.08828 37.0623 9.68533C37.5709 10.2824 37.8252 11.0011 37.8252 11.8414C37.8252 12.6596 37.582 13.334 37.0955 13.8647C36.6311 14.3733 36.0119 14.6276 35.238 14.6276C34.4861 14.6276 33.8891 14.4397 33.4468 14.0638C33.0045 13.6657 32.7834 13.1461 32.7834 12.5048C32.7834 11.4433 33.2699 10.5809 34.2429 9.91752C34.1544 9.89541 34.0218 9.88435 33.8449 9.88435C33.6237 9.88435 33.4468 9.90647 33.3141 9.95069C32.4738 10.0834 31.7551 10.592 31.1581 11.4765C30.5831 12.361 30.2957 13.2677 30.2957 14.1964V22.9864C30.2957 24.0037 30.5389 24.7113 31.0254 25.1093C31.534 25.5074 32.3301 25.7064 33.4136 25.7064V26.4029C33.1041 26.4029 32.8498 26.3919 32.6507 26.3698C30.3952 26.3034 28.8915 26.2703 28.1396 26.2703C27.5426 26.2703 26.1826 26.3034 24.0597 26.3698C23.8828 26.3919 23.6617 26.4029 23.3963 26.4029V25.7064C24.1924 25.7064 24.7453 25.5405 25.0548 25.2088C25.3644 24.855 25.5192 24.2248 25.5192 23.3181V12.8696C25.5192 11.8524 25.3644 11.1116 25.0548 10.6473C24.7453 10.1829 24.1924 9.95069 23.3963 9.95069V9.25412C24.104 9.32046 24.7895 9.35363 25.4529 9.35363C27.421 9.35363 29.0352 9.19884 30.2957 8.88926V11.9741C30.7158 11.0232 31.3239 10.2603 32.12 9.68533C32.9161 9.08828 33.8117 8.78975 34.8068 8.78975Z" fill="#333C4B"/>
<path d="M49.6093 8.78975C51.4005 8.78975 52.8489 9.53054 53.9546 11.0121C55.0603 12.4716 55.6131 14.5945 55.6131 17.3807C55.6131 20.6314 54.9055 23.0307 53.4902 24.5786C52.075 26.1044 50.2506 26.8673 48.0172 26.8673C46.4914 26.8673 45.253 26.4803 44.3022 25.7064C43.5061 25.64 42.71 25.7285 41.9139 25.9717C41.1179 26.215 40.4876 26.5356 40.0233 26.9337L39.5257 26.6351C39.6805 26.0823 39.7579 25.4631 39.7579 24.7776V4.44449C39.7579 3.42729 39.592 2.68649 39.2603 2.22211C38.9508 1.75774 38.409 1.52555 37.635 1.52555V0.828981C38.3205 0.895321 39.006 0.928491 39.6916 0.928491C41.6154 0.928491 43.2297 0.773698 44.5344 0.464111V11.9409C44.9987 10.9237 45.6732 10.1497 46.5577 9.61899C47.4422 9.06616 48.4595 8.78975 49.6093 8.78975ZM46.9889 26.1708C48.2052 26.1708 49.1118 25.4852 49.7089 24.1142C50.3059 22.7432 50.6044 20.6535 50.6044 17.8451C50.6044 15.1252 50.3501 13.1792 49.8415 12.0072C49.3329 10.8131 48.6032 10.216 47.6523 10.216C46.9447 10.216 46.2924 10.4814 45.6953 11.0121C45.1204 11.5207 44.7334 12.2173 44.5344 13.1018V25.2752C45.2641 25.8722 46.0823 26.1708 46.9889 26.1708Z" fill="#333C4B"/>
<path d="M62.046 26.6351C60.6307 26.6351 59.5693 26.2703 58.8617 25.5405C58.1761 24.8108 57.8334 23.8489 57.8334 22.6547C57.8334 21.6597 58.0877 20.8415 58.5963 20.2002C59.127 19.5368 59.7572 19.0282 60.487 18.6744C61.2388 18.3206 62.1897 17.9446 63.3396 17.5466C64.5558 17.1264 65.4403 16.7505 65.9932 16.4188C66.5681 16.065 66.8556 15.5896 66.8556 14.9925V12.4053C66.8556 11.4765 66.6345 10.7578 66.1922 10.2492C65.772 9.7185 65.1086 9.45314 64.202 9.45314C63.1406 9.45314 62.3334 9.7185 61.7806 10.2492C62.3998 10.4704 62.8752 10.8021 63.2069 11.2443C63.5607 11.6866 63.7376 12.2062 63.7376 12.8033C63.7376 13.5552 63.4833 14.1522 62.9747 14.5945C62.4661 15.0367 61.8469 15.2579 61.1172 15.2579C60.3432 15.2579 59.7462 15.0146 59.326 14.5281C58.9059 14.0416 58.6958 13.4335 58.6958 12.7038C58.6958 12.0846 58.8395 11.565 59.127 11.1448C59.4366 10.7025 59.901 10.2934 60.5202 9.91752C61.1172 9.56371 61.8469 9.28729 62.7094 9.08828C63.5939 8.88926 64.5558 8.78975 65.5951 8.78975C66.6787 8.78975 67.6185 8.90031 68.4146 9.12144C69.2107 9.34258 69.8741 9.7185 70.4048 10.2492C70.8913 10.7357 71.2119 11.3328 71.3667 12.0404C71.5436 12.748 71.632 13.7099 71.632 14.9262V23.9484C71.632 24.4791 71.6763 24.855 71.7647 25.0761C71.8753 25.2973 72.0743 25.4078 72.3618 25.4078C72.6935 25.4078 73.0915 25.2199 73.5559 24.844L73.8876 25.4078C72.8925 26.226 71.6763 26.6351 70.2389 26.6351C69.0227 26.6351 68.1713 26.3919 67.6848 25.9054C67.1983 25.4189 66.944 24.7666 66.9219 23.9484C65.8163 25.7395 64.1909 26.6351 62.046 26.6351ZM64.6 24.5123C65.4625 24.5123 66.2143 24.0589 66.8556 23.1523V16.3525C66.5902 16.7947 66.0263 17.2812 65.1639 17.8119C64.3015 18.3648 63.6492 18.9176 63.2069 19.4704C62.7646 20.0233 62.5435 20.8193 62.5435 21.8587C62.5435 22.7653 62.7315 23.4398 63.1074 23.882C63.4833 24.3022 63.9809 24.5123 64.6 24.5123Z" fill="#333C4B"/>
<path d="M87.1747 8.78975C88.8553 8.78975 90.0716 9.22095 90.8234 10.0834C91.1993 10.5035 91.4647 11.0453 91.6195 11.7087C91.7743 12.3721 91.8517 13.2677 91.8517 14.3955V23.3181C91.8517 24.2248 92.0065 24.855 92.316 25.2088C92.6477 25.5405 93.2006 25.7064 93.9745 25.7064V26.4029C91.7632 26.3145 90.3037 26.2703 89.5961 26.2703C88.9327 26.2703 87.4954 26.3145 85.284 26.4029V25.7064C85.9474 25.7064 86.4118 25.5405 86.6772 25.2088C86.9425 24.855 87.0752 24.2248 87.0752 23.3181V13.0023C87.0752 12.0957 86.9204 11.4102 86.6108 10.9458C86.3234 10.4814 85.7926 10.2492 85.0187 10.2492C84.112 10.2492 83.3381 10.6251 82.6968 11.377C82.0555 12.1067 81.7349 13.0134 81.7349 14.0969V23.3181C81.7349 24.2248 81.8675 24.855 82.1329 25.2088C82.3983 25.5405 82.8626 25.7064 83.526 25.7064V26.4029C81.4916 26.3145 80.1206 26.2703 79.413 26.2703C78.7496 26.2703 77.2238 26.3145 74.8355 26.4029V25.7064C75.6316 25.7064 76.1844 25.5405 76.494 25.2088C76.8036 24.855 76.9584 24.2248 76.9584 23.3181V12.8696C76.9584 11.8524 76.8036 11.1116 76.494 10.6473C76.1844 10.1829 75.6316 9.95069 74.8355 9.95069V9.25412C75.5432 9.32046 76.2287 9.35363 76.8921 9.35363C78.8601 9.35363 80.4744 9.19884 81.7349 8.88926V11.8745C82.73 9.81801 84.5432 8.78975 87.1747 8.78975Z" fill="#333C4B"/>
<path d="M115.325 2.4543C116.651 2.4543 117.779 2.64227 118.708 3.01819C119.637 3.39412 120.543 3.92483 121.428 4.61035C121.671 4.80936 121.881 4.90887 122.058 4.90887C122.5 4.90887 122.788 4.24548 122.92 2.91868H123.683C123.595 4.42238 123.551 7.09808 123.551 10.9458H122.788C122.589 9.30941 122.323 8.06001 121.992 7.19759C121.66 6.33518 121.096 5.58333 120.3 4.94204C119.747 4.41133 119.106 4.01329 118.376 3.74793C117.646 3.46046 116.884 3.31672 116.087 3.31672C113.854 3.31672 112.196 4.41133 111.112 6.60054C110.028 8.76763 109.487 11.4765 109.487 14.7272C109.487 17.9557 110.051 20.6535 111.178 22.8206C112.306 24.9877 113.987 26.0712 116.22 26.0712C116.972 26.0712 117.713 25.9386 118.442 25.6732C119.194 25.3857 119.825 24.9766 120.333 24.4459C121.151 23.8267 121.715 23.0528 122.025 22.124C122.357 21.1953 122.611 19.8353 122.788 18.0441H123.551C123.551 22.0466 123.595 24.8329 123.683 26.4029H122.92C122.854 25.6953 122.755 25.1978 122.622 24.9103C122.511 24.6007 122.345 24.4459 122.124 24.4459C121.947 24.4459 121.715 24.5344 121.428 24.7113C120.433 25.4189 119.482 25.9607 118.575 26.3366C117.669 26.6904 116.574 26.8673 115.291 26.8673C112.947 26.8673 110.891 26.3919 109.122 25.441C107.375 24.4901 106.015 23.1191 105.042 21.328C104.069 19.5147 103.582 17.3586 103.582 14.8598C103.582 12.4274 104.08 10.2713 105.075 8.39171C106.07 6.51208 107.452 5.05261 109.221 4.01329C111.012 2.97396 113.047 2.4543 115.325 2.4543Z" fill="#333C4B"/>
<path d="M137.75 8.78975C138.745 8.78975 139.497 9.08828 140.005 9.68533C140.514 10.2824 140.768 11.0011 140.768 11.8414C140.768 12.6596 140.525 13.334 140.039 13.8647C139.574 14.3733 138.955 14.6276 138.181 14.6276C137.429 14.6276 136.832 14.4397 136.39 14.0638C135.948 13.6657 135.727 13.1461 135.727 12.5048C135.727 11.4433 136.213 10.5809 137.186 9.91752C137.098 9.89541 136.965 9.88435 136.788 9.88435C136.567 9.88435 136.39 9.90647 136.257 9.95069C135.417 10.0834 134.698 10.592 134.101 11.4765C133.526 12.361 133.239 13.2677 133.239 14.1964V22.9864C133.239 24.0037 133.482 24.7113 133.969 25.1093C134.477 25.5074 135.273 25.7064 136.357 25.7064V26.4029C136.047 26.4029 135.793 26.3919 135.594 26.3698C133.338 26.3034 131.835 26.2703 131.083 26.2703C130.486 26.2703 129.126 26.3034 127.003 26.3698C126.826 26.3919 126.605 26.4029 126.34 26.4029V25.7064C127.136 25.7064 127.688 25.5405 127.998 25.2088C128.308 24.855 128.462 24.2248 128.462 23.3181V12.8696C128.462 11.8524 128.308 11.1116 127.998 10.6473C127.688 10.1829 127.136 9.95069 126.34 9.95069V9.25412C127.047 9.32046 127.733 9.35363 128.396 9.35363C130.364 9.35363 131.978 9.19884 133.239 8.88926V11.9741C133.659 11.0232 134.267 10.2603 135.063 9.68533C135.859 9.08828 136.755 8.78975 137.75 8.78975Z" fill="#333C4B"/>
<path d="M151.122 24.1474C152.935 24.1474 154.394 23.2629 155.5 21.4938L156.097 21.6928C155.655 23.1302 154.859 24.3575 153.709 25.3747C152.581 26.3698 151.166 26.8673 149.463 26.8673C147.119 26.8673 145.25 26.1265 143.857 24.6449C142.486 23.1412 141.801 20.9299 141.801 18.011C141.801 15.0257 142.542 12.748 144.023 11.178C145.505 9.58582 147.473 8.78975 149.927 8.78975C154.085 8.78975 156.163 11.2443 156.163 16.1535H146.843C146.821 16.4852 146.809 17.0048 146.809 17.7124C146.809 19.1719 147.008 20.3881 147.407 21.3611C147.827 22.3341 148.357 23.0417 148.999 23.484C149.662 23.9263 150.37 24.1474 151.122 24.1474ZM149.728 9.48631C148.932 9.48631 148.269 9.98386 147.738 10.979C147.23 11.9519 146.909 13.4667 146.776 15.5232H151.984C152.028 13.7763 151.851 12.3389 151.453 11.2111C151.077 10.0613 150.502 9.48631 149.728 9.48631Z" fill="#333C4B"/>
<path d="M180.548 9.35363C181.676 9.35363 182.516 9.32046 183.069 9.25412V9.91752C182.604 10.0502 182.184 10.3266 181.808 10.7468C181.432 11.1669 181.101 11.8414 180.813 12.7701L176.402 26.4693C176.158 26.4472 175.794 26.4361 175.307 26.4361C174.843 26.4361 174.489 26.4472 174.246 26.4693L169.734 14.1633L166.053 26.4693C165.831 26.4472 165.478 26.4361 164.991 26.4361C164.505 26.4361 164.14 26.4472 163.897 26.4693L158.656 11.8082C158.39 11.0342 158.092 10.5367 157.76 10.3156C157.428 10.0723 157.086 9.95069 156.732 9.95069V9.25412C158.169 9.3868 159.739 9.45314 161.442 9.45314C162.548 9.45314 163.985 9.3868 165.754 9.25412V9.95069C165.024 9.95069 164.494 10.006 164.162 10.1165C163.852 10.2271 163.698 10.4925 163.698 10.9126C163.698 11.2001 163.753 11.4986 163.863 11.8082L166.849 21.1953L170.464 9.22096L171.692 9.25412L172.886 9.22096L177.198 21.8918L179.287 15.2247C179.597 14.1854 179.752 13.3451 179.752 12.7038C179.752 10.979 178.878 10.0502 177.131 9.91752V9.25412C178.171 9.32046 179.31 9.35363 180.548 9.35363Z" fill="#333C4B"/>
<path d="M186.093 21.7592C186.955 21.7592 187.641 21.9914 188.149 22.4557C188.658 22.898 188.912 23.5172 188.912 24.3132C188.912 25.1093 188.658 25.7395 188.149 26.2039C187.641 26.6462 186.955 26.8673 186.093 26.8673C185.23 26.8673 184.545 26.6462 184.036 26.2039C183.528 25.7395 183.273 25.1093 183.273 24.3132C183.273 23.5172 183.528 22.898 184.036 22.4557C184.545 21.9914 185.23 21.7592 186.093 21.7592Z" fill="#333C4B"/>
<mask id="mask0_131_13" style="mask-type:alpha" maskUnits="userSpaceOnUse" x="0" y="0" width="189" height="27">
<path d="M22.5389 3.58208C21.8091 3.69265 21.2673 3.88061 20.9135 4.14597C20.5818 4.41133 20.3496 4.83148 20.217 5.40642C20.1064 5.98136 20.0511 6.83272 20.0511 7.9605V16.7505C20.0511 19.9127 19.5978 22.2567 18.6912 23.7825C18.0941 24.7555 17.2317 25.5184 16.1039 26.0712C14.9761 26.602 13.5941 26.8673 11.9577 26.8673C9.39254 26.8673 7.40234 26.3145 5.9871 25.2088C4.96989 24.3906 4.28438 23.3624 3.93057 22.124C3.57675 20.8636 3.39985 19.1056 3.39985 16.85V6.43469C3.39985 5.59438 3.33351 4.98627 3.20083 4.61035C3.09026 4.23442 2.85807 3.98012 2.50426 3.84744C2.17256 3.71476 1.64185 3.62631 0.912109 3.58208V2.91868C2.03988 2.98502 3.76472 3.01819 6.08661 3.01819C8.38638 3.01819 10.1444 2.98502 11.3606 2.91868V3.58208C10.5645 3.62631 9.97854 3.71476 9.60261 3.84744C9.2488 3.98012 9.00555 4.23442 8.87287 4.61035C8.7402 4.98627 8.67386 5.59438 8.67386 6.43469V18.9397C8.67386 21.2616 9.00555 22.9754 9.66895 24.0811C10.3545 25.1646 11.5486 25.7064 13.2513 25.7064C15.4626 25.7064 17.0216 24.9656 17.9282 23.484C18.8349 21.9803 19.2882 19.8574 19.2882 17.1154V8.35854C19.2882 7.07597 19.2108 6.1251 19.056 5.50593C18.9012 4.88676 18.6027 4.44449 18.1604 4.17914C17.7182 3.89166 17.0216 3.69265 16.0707 3.58208V2.91868C16.911 2.98502 18.1052 3.01819 19.6531 3.01819C20.8914 3.01819 21.8533 2.98502 22.5389 2.91868V3.58208Z" fill="white"/>
<path d="M34.8068 8.78975C35.8019 8.78975 36.5537 9.08828 37.0623 9.68533C37.5709 10.2824 37.8252 11.0011 37.8252 11.8414C37.8252 12.6596 37.582 13.334 37.0955 13.8647C36.6311 14.3733 36.0119 14.6276 35.238 14.6276C34.4861 14.6276 33.8891 14.4397 33.4468 14.0638C33.0045 13.6657 32.7834 13.1461 32.7834 12.5048C32.7834 11.4433 33.2699 10.5809 34.2429 9.91752C34.1544 9.89541 34.0218 9.88435 33.8449 9.88435C33.6237 9.88435 33.4468 9.90647 33.3141 9.95069C32.4738 10.0834 31.7551 10.592 31.1581 11.4765C30.5831 12.361 30.2957 13.2677 30.2957 14.1964V22.9864C30.2957 24.0037 30.5389 24.7113 31.0254 25.1093C31.534 25.5074 32.3301 25.7064 33.4136 25.7064V26.4029C33.1041 26.4029 32.8498 26.3919 32.6507 26.3698C30.3952 26.3034 28.8915 26.2703 28.1396 26.2703C27.5426 26.2703 26.1826 26.3034 24.0597 26.3698C23.8828 26.3919 23.6617 26.4029 23.3963 26.4029V25.7064C24.1924 25.7064 24.7453 25.5405 25.0548 25.2088C25.3644 24.855 25.5192 24.2248 25.5192 23.3181V12.8696C25.5192 11.8524 25.3644 11.1116 25.0548 10.6473C24.7453 10.1829 24.1924 9.95069 23.3963 9.95069V9.25412C24.104 9.32046 24.7895 9.35363 25.4529 9.35363C27.421 9.35363 29.0352 9.19884 30.2957 8.88926V11.9741C30.7158 11.0232 31.3239 10.2603 32.12 9.68533C32.9161 9.08828 33.8117 8.78975 34.8068 8.78975Z" fill="white"/>
<path d="M49.6093 8.78975C51.4005 8.78975 52.8489 9.53054 53.9546 11.0121C55.0603 12.4716 55.6131 14.5945 55.6131 17.3807C55.6131 20.6314 54.9055 23.0307 53.4902 24.5786C52.075 26.1044 50.2506 26.8673 48.0172 26.8673C46.4914 26.8673 45.253 26.4803 44.3022 25.7064C43.5061 25.64 42.71 25.7285 41.9139 25.9717C41.1179 26.215 40.4876 26.5356 40.0233 26.9337L39.5257 26.6351C39.6805 26.0823 39.7579 25.4631 39.7579 24.7776V4.44449C39.7579 3.42729 39.592 2.68649 39.2603 2.22211C38.9508 1.75774 38.409 1.52555 37.635 1.52555V0.828981C38.3205 0.895321 39.006 0.928491 39.6916 0.928491C41.6154 0.928491 43.2297 0.773698 44.5344 0.464111V11.9409C44.9987 10.9237 45.6732 10.1497 46.5577 9.61899C47.4422 9.06616 48.4595 8.78975 49.6093 8.78975ZM46.9889 26.1708C48.2052 26.1708 49.1118 25.4852 49.7089 24.1142C50.3059 22.7432 50.6044 20.6535 50.6044 17.8451C50.6044 15.1252 50.3501 13.1792 49.8415 12.0072C49.3329 10.8131 48.6032 10.216 47.6523 10.216C46.9447 10.216 46.2924 10.4814 45.6953 11.0121C45.1204 11.5207 44.7334 12.2173 44.5344 13.1018V25.2752C45.2641 25.8722 46.0823 26.1708 46.9889 26.1708Z" fill="white"/>
<path d="M62.046 26.6351C60.6307 26.6351 59.5693 26.2703 58.8617 25.5405C58.1761 24.8108 57.8334 23.8489 57.8334 22.6547C57.8334 21.6597 58.0877 20.8415 58.5963 20.2002C59.127 19.5368 59.7572 19.0282 60.487 18.6744C61.2388 18.3206 62.1897 17.9446 63.3396 17.5466C64.5558 17.1264 65.4403 16.7505 65.9932 16.4188C66.5681 16.065 66.8556 15.5896 66.8556 14.9925V12.4053C66.8556 11.4765 66.6345 10.7578 66.1922 10.2492C65.772 9.7185 65.1086 9.45314 64.202 9.45314C63.1406 9.45314 62.3334 9.7185 61.7806 10.2492C62.3998 10.4704 62.8752 10.8021 63.2069 11.2443C63.5607 11.6866 63.7376 12.2062 63.7376 12.8033C63.7376 13.5552 63.4833 14.1522 62.9747 14.5945C62.4661 15.0367 61.8469 15.2579 61.1172 15.2579C60.3432 15.2579 59.7462 15.0146 59.326 14.5281C58.9059 14.0416 58.6958 13.4335 58.6958 12.7038C58.6958 12.0846 58.8395 11.565 59.127 11.1448C59.4366 10.7025 59.901 10.2934 60.5202 9.91752C61.1172 9.56371 61.8469 9.28729 62.7094 9.08828C63.5939 8.88926 64.5558 8.78975 65.5951 8.78975C66.6787 8.78975 67.6185 8.90031 68.4146 9.12144C69.2107 9.34258 69.8741 9.7185 70.4048 10.2492C70.8913 10.7357 71.2119 11.3328 71.3667 12.0404C71.5436 12.748 71.632 13.7099 71.632 14.9262V23.9484C71.632 24.4791 71.6763 24.855 71.7647 25.0761C71.8753 25.2973 72.0743 25.4078 72.3618 25.4078C72.6935 25.4078 73.0915 25.2199 73.5559 24.844L73.8876 25.4078C72.8925 26.226 71.6763 26.6351 70.2389 26.6351C69.0227 26.6351 68.1713 26.3919 67.6848 25.9054C67.1983 25.4189 66.944 24.7666 66.9219 23.9484C65.8163 25.7395 64.1909 26.6351 62.046 26.6351ZM64.6 24.5123C65.4625 24.5123 66.2143 24.0589 66.8556 23.1523V16.3525C66.5902 16.7947 66.0263 17.2812 65.1639 17.8119C64.3015 18.3648 63.6492 18.9176 63.2069 19.4704C62.7646 20.0233 62.5435 20.8193 62.5435 21.8587C62.5435 22.7653 62.7315 23.4398 63.1074 23.882C63.4833 24.3022 63.9809 24.5123 64.6 24.5123Z" fill="white"/>
<path d="M87.1747 8.78975C88.8553 8.78975 90.0716 9.22095 90.8234 10.0834C91.1993 10.5035 91.4647 11.0453 91.6195 11.7087C91.7743 12.3721 91.8517 13.2677 91.8517 14.3955V23.3181C91.8517 24.2248 92.0065 24.855 92.316 25.2088C92.6477 25.5405 93.2006 25.7064 93.9745 25.7064V26.4029C91.7632 26.3145 90.3037 26.2703 89.5961 26.2703C88.9327 26.2703 87.4954 26.3145 85.284 26.4029V25.7064C85.9474 25.7064 86.4118 25.5405 86.6772 25.2088C86.9425 24.855 87.0752 24.2248 87.0752 23.3181V13.0023C87.0752 12.0957 86.9204 11.4102 86.6108 10.9458C86.3234 10.4814 85.7926 10.2492 85.0187 10.2492C84.112 10.2492 83.3381 10.6251 82.6968 11.377C82.0555 12.1067 81.7349 13.0134 81.7349 14.0969V23.3181C81.7349 24.2248 81.8675 24.855 82.1329 25.2088C82.3983 25.5405 82.8626 25.7064 83.526 25.7064V26.4029C81.4916 26.3145 80.1206 26.2703 79.413 26.2703C78.7496 26.2703 77.2238 26.3145 74.8355 26.4029V25.7064C75.6316 25.7064 76.1844 25.5405 76.494 25.2088C76.8036 24.855 76.9584 24.2248 76.9584 23.3181V12.8696C76.9584 11.8524 76.8036 11.1116 76.494 10.6473C76.1844 10.1829 75.6316 9.95069 74.8355 9.95069V9.25412C75.5432 9.32046 76.2287 9.35363 76.8921 9.35363C78.8601 9.35363 80.4744 9.19884 81.7349 8.88926V11.8745C82.73 9.81801 84.5432 8.78975 87.1747 8.78975Z" fill="white"/>
<path d="M115.325 2.4543C116.651 2.4543 117.779 2.64227 118.708 3.01819C119.637 3.39412 120.543 3.92483 121.428 4.61035C121.671 4.80936 121.881 4.90887 122.058 4.90887C122.5 4.90887 122.788 4.24548 122.92 2.91868H123.683C123.595 4.42238 123.551 7.09808 123.551 10.9458H122.788C122.589 9.30941 122.323 8.06001 121.992 7.19759C121.66 6.33518 121.096 5.58333 120.3 4.94204C119.747 4.41133 119.106 4.01329 118.376 3.74793C117.646 3.46046 116.884 3.31672 116.087 3.31672C113.854 3.31672 112.196 4.41133 111.112 6.60054C110.028 8.76763 109.487 11.4765 109.487 14.7272C109.487 17.9557 110.051 20.6535 111.178 22.8206C112.306 24.9877 113.987 26.0712 116.22 26.0712C116.972 26.0712 117.713 25.9386 118.442 25.6732C119.194 25.3857 119.825 24.9766 120.333 24.4459C121.151 23.8267 121.715 23.0528 122.025 22.124C122.357 21.1953 122.611 19.8353 122.788 18.0441H123.551C123.551 22.0466 123.595 24.8329 123.683 26.4029H122.92C122.854 25.6953 122.755 25.1978 122.622 24.9103C122.511 24.6007 122.345 24.4459 122.124 24.4459C121.947 24.4459 121.715 24.5344 121.428 24.7113C120.433 25.4189 119.482 25.9607 118.575 26.3366C117.669 26.6904 116.574 26.8673 115.291 26.8673C112.947 26.8673 110.891 26.3919 109.122 25.441C107.375 24.4901 106.015 23.1191 105.042 21.328C104.069 19.5147 103.582 17.3586 103.582 14.8598C103.582 12.4274 104.08 10.2713 105.075 8.39171C106.07 6.51208 107.452 5.05261 109.221 4.01329C111.012 2.97396 113.047 2.4543 115.325 2.4543Z" fill="white"/>
<path d="M137.75 8.78975C138.745 8.78975 139.497 9.08828 140.005 9.68533C140.514 10.2824 140.768 11.0011 140.768 11.8414C140.768 12.6596 140.525 13.334 140.039 13.8647C139.574 14.3733 138.955 14.6276 138.181 14.6276C137.429 14.6276 136.832 14.4397 136.39 14.0638C135.948 13.6657 135.727 13.1461 135.727 12.5048C135.727 11.4433 136.213 10.5809 137.186 9.91752C137.098 9.89541 136.965 9.88435 136.788 9.88435C136.567 9.88435 136.39 9.90647 136.257 9.95069C135.417 10.0834 134.698 10.592 134.101 11.4765C133.526 12.361 133.239 13.2677 133.239 14.1964V22.9864C133.239 24.0037 133.482 24.7113 133.969 25.1093C134.477 25.5074 135.273 25.7064 136.357 25.7064V26.4029C136.047 26.4029 135.793 26.3919 135.594 26.3698C133.338 26.3034 131.835 26.2703 131.083 26.2703C130.486 26.2703 129.126 26.3034 127.003 26.3698C126.826 26.3919 126.605 26.4029 126.34 26.4029V25.7064C127.136 25.7064 127.688 25.5405 127.998 25.2088C128.308 24.855 128.462 24.2248 128.462 23.3181V12.8696C128.462 11.8524 128.308 11.1116 127.998 10.6473C127.688 10.1829 127.136 9.95069 126.34 9.95069V9.25412C127.047 9.32046 127.733 9.35363 128.396 9.35363C130.364 9.35363 131.978 9.19884 133.239 8.88926V11.9741C133.659 11.0232 134.267 10.2603 135.063 9.68533C135.859 9.08828 136.755 8.78975 137.75 8.78975Z" fill="white"/>
<path d="M151.122 24.1474C152.935 24.1474 154.394 23.2629 155.5 21.4938L156.097 21.6928C155.655 23.1302 154.859 24.3575 153.709 25.3747C152.581 26.3698 151.166 26.8673 149.463 26.8673C147.119 26.8673 145.25 26.1265 143.857 24.6449C142.486 23.1412 141.801 20.9299 141.801 18.011C141.801 15.0257 142.542 12.748 144.023 11.178C145.505 9.58582 147.473 8.78975 149.927 8.78975C154.085 8.78975 156.163 11.2443 156.163 16.1535H146.843C146.821 16.4852 146.809 17.0048 146.809 17.7124C146.809 19.1719 147.008 20.3881 147.407 21.3611C147.827 22.3341 148.357 23.0417 148.999 23.484C149.662 23.9263 150.37 24.1474 151.122 24.1474ZM149.728 9.48631C148.932 9.48631 148.269 9.98386 147.738 10.979C147.23 11.9519 146.909 13.4667 146.776 15.5232H151.984C152.028 13.7763 151.851 12.3389 151.453 11.2111C151.077 10.0613 150.502 9.48631 149.728 9.48631Z" fill="white"/>
<path d="M180.548 9.35363C181.676 9.35363 182.516 9.32046 183.069 9.25412V9.91752C182.604 10.0502 182.184 10.3266 181.808 10.7468C181.432 11.1669 181.101 11.8414 180.813 12.7701L176.402 26.4693C176.158 26.4472 175.794 26.4361 175.307 26.4361C174.843 26.4361 174.489 26.4472 174.246 26.4693L169.734 14.1633L166.053 26.4693C165.831 26.4472 165.478 26.4361 164.991 26.4361C164.505 26.4361 164.14 26.4472 163.897 26.4693L158.656 11.8082C158.39 11.0342 158.092 10.5367 157.76 10.3156C157.428 10.0723 157.086 9.95069 156.732 9.95069V9.25412C158.169 9.3868 159.739 9.45314 161.442 9.45314C162.548 9.45314 163.985 9.3868 165.754 9.25412V9.95069C165.024 9.95069 164.494 10.006 164.162 10.1165C163.852 10.2271 163.698 10.4925 163.698 10.9126C163.698 11.2001 163.753 11.4986 163.863 11.8082L166.849 21.1953L170.464 9.22096L171.692 9.25412L172.886 9.22096L177.198 21.8918L179.287 15.2247C179.597 14.1854 179.752 13.3451 179.752 12.7038C179.752 10.979 178.878 10.0502 177.131 9.91752V9.25412C178.171 9.32046 179.31 9.35363 180.548 9.35363Z" fill="white"/>
<path d="M186.093 21.7592C186.955 21.7592 187.641 21.9914 188.149 22.4557C188.658 22.898 188.912 23.5172 188.912 24.3132C188.912 25.1093 188.658 25.7395 188.149 26.2039C187.641 26.6462 186.955 26.8673 186.093 26.8673C185.23 26.8673 184.545 26.6462 184.036 26.2039C183.528 25.7395 183.273 25.1093 183.273 24.3132C183.273 23.5172 183.528 22.898 184.036 22.4557C184.545 21.9914 185.23 21.7592 186.093 21.7592Z" fill="white"/>
</mask>
<g mask="url(#mask0_131_13)">
<ellipse cx="124.213" cy="29.8927" rx="94.8727" ry="13.7862" fill="#CFA160"/>
</g>
</svg>
