<svg width="4" height="151" viewBox="0 0 4 151" fill="none" xmlns="http://www.w3.org/2000/svg">
<path d="M0.405705 5.68931C0.405705 4.37467 0.405705 2.84091 0.644338 1.52627C0.763654 0.211622 2.07613 0.211622 2.19545 1.52627C2.31477 2.84091 2.31477 4.15556 2.43408 5.4702C2.43408 6.34663 2.43408 7.00396 2.43408 7.88039C2.43408 8.3186 2.43408 8.75682 2.31477 9.19503C2.19545 9.41414 2.07613 9.63325 1.95682 9.85235C2.19545 9.63325 2.19545 9.41414 2.07613 9.85235C1.8375 10.7288 1.1216 10.7288 1.00229 9.85235V9.63325C0.763654 9.19503 0.763654 8.75682 0.763654 8.09949C0.405705 7.44217 0.405705 6.56574 0.405705 5.68931Z" fill="#333C4B"/>
<path d="M2.42653 18.1912C2.42653 17.5339 2.9038 17.5339 3.02312 18.1912C3.14243 22.1351 3.73901 26.079 3.73901 30.023C3.73901 32.4332 1.71064 32.4332 1.71064 30.023C1.71064 26.079 2.1879 22.1351 2.42653 18.1912Z" fill="#333C4B"/>
<path d="M1.66375 40.1877C1.54443 39.3113 2.26033 38.4349 2.61828 39.5304C3.09555 41.5024 3.4535 43.4744 3.57281 45.6654C3.69213 47.6374 3.93076 49.6094 3.4535 51.3622C3.21486 52.2383 2.49896 52.2383 2.26033 51.3622C1.78307 50.0476 1.90238 48.5135 1.90238 46.9801C1.90238 44.5699 1.78307 42.3788 1.66375 40.1877Z" fill="#333C4B"/>
<path d="M1.85231 66.5479C2.32957 64.3568 2.68752 62.3848 2.80684 60.1937C2.92615 58.8791 4 58.8791 4 60.1937C4 62.1657 4 64.1377 3.88068 65.8905C3.76137 67.8625 3.52273 70.4918 2.68752 71.8061C2.32957 72.4634 1.49436 72.2447 1.37504 71.1488C1.13641 69.3963 1.49436 68.0816 1.85231 66.5479Z" fill="#333C4B"/>
<path d="M0.405705 84.5134C0.405705 83.1988 0.405705 81.665 0.644338 80.3504C0.763654 79.0357 2.07613 79.0357 2.19545 80.3504C2.31477 81.665 2.31477 82.9797 2.43408 84.2943C2.43408 85.1707 2.43408 85.8281 2.43408 86.7045C2.43408 87.1427 2.43408 87.5809 2.31477 88.0191C2.19545 88.2382 2.07613 88.4573 1.95682 88.6765C2.19545 88.4573 2.19545 88.2382 2.07613 88.6765C1.8375 89.5529 1.1216 89.5529 1.00229 88.6765V88.4573C0.763654 88.0191 0.763654 87.5809 0.763654 86.9236C0.405705 86.2663 0.405705 85.3898 0.405705 84.5134Z" fill="#333C4B"/>
<path d="M2.42653 97.0153C2.42653 96.358 2.9038 96.358 3.02312 97.0153C3.14243 100.959 3.73901 104.903 3.73901 108.847C3.73901 111.257 1.71064 111.257 1.71064 108.847C1.71064 104.903 2.1879 100.959 2.42653 97.0153Z" fill="#333C4B"/>
<path d="M1.66375 119.012C1.54443 118.135 2.26033 117.259 2.61828 118.355C3.09555 120.326 3.4535 122.298 3.57281 124.49C3.69213 126.461 3.93076 128.433 3.4535 130.186C3.21486 131.062 2.49896 131.062 2.26033 130.186C1.78307 128.872 1.90238 127.338 1.90238 125.804C1.90238 123.394 1.78307 121.203 1.66375 119.012Z" fill="#333C4B"/>
<path d="M1.85231 145.372C2.32957 143.181 2.68752 141.209 2.80684 139.018C2.92615 137.703 4 137.703 4 139.018C4 140.99 4 142.962 3.88068 144.715C3.76137 146.687 3.52273 149.316 2.68752 150.63C2.32957 151.288 1.49436 151.069 1.37504 149.973C1.13641 148.22 1.49436 146.906 1.85231 145.372Z" fill="#333C4B"/>
</svg>
