<svg width="512" height="512" viewBox="0 0 512 512" fill="none" xmlns="http://www.w3.org/2000/svg">
<path d="M104 440C103.243 439.992 102.489 439.884 101.76 439.68C100.098 439.195 98.6386 438.185 97.6 436.8C96.5614 435.415 96 433.731 96 432V276.52H8C5.87827 276.52 3.84344 275.677 2.34315 274.177C0.842855 272.677 0 270.642 0 268.52V80C0 77.8783 0.842855 75.8434 2.34315 74.3431C3.84344 72.8429 5.87827 72 8 72H208C210.122 72 212.157 72.8429 213.657 74.3431C215.157 75.8434 216 77.8783 216 80V268.36C216 269.875 215.57 271.36 214.76 272.64L110.76 436.28C110.038 437.42 109.04 438.358 107.858 439.009C106.676 439.659 105.349 440 104 440V440ZM16 260.36H104C106.122 260.36 108.157 261.203 109.657 262.703C111.157 264.203 112 266.238 112 268.36V404.36L200 266V88H16V260.36Z" fill="black"/>
<path d="M400 440C399.243 439.992 398.489 439.884 397.76 439.68C396.098 439.195 394.639 438.185 393.6 436.8C392.561 435.415 392 433.731 392 432V276.52H304C301.878 276.52 299.843 275.677 298.343 274.177C296.843 272.677 296 270.642 296 268.52V80C296 77.8783 296.843 75.8434 298.343 74.3431C299.843 72.8429 301.878 72 304 72H504C506.122 72 508.157 72.8429 509.657 74.3431C511.157 75.8434 512 77.8783 512 80V268.36C512 269.875 511.57 271.36 510.76 272.64L406.76 436.28C406.038 437.42 405.04 438.358 403.858 439.009C402.676 439.659 401.349 440 400 440ZM312 260.36H400C402.122 260.36 404.157 261.203 405.657 262.703C407.157 264.203 408 266.238 408 268.36V404.36L496 266V88H312V260.36Z" fill="black"/>
</svg>
